<svg version="1.1" xmlns="http://www.w3.org/2000/svg" viewBox="0 0 1042.7199020385742 547.8333129882812" width="1042.7199020385742" height="547.8333129882812">
  <!-- svg-source:excalidraw -->
  
  <defs>
    <style class="style-fonts">
      @font-face {
        font-family: "Virgil";
        src: url("https://excalidraw.com/Virgil.woff2");
      }
      @font-face {
        font-family: "Cascadia";
        src: url("https://excalidraw.com/Cascadia.woff2");
      }
      @font-face {
        font-family: "Assistant";
        src: url("https://excalidraw.com/Assistant-Regular.woff2");
      }
    </style>
    
  </defs>
  <g stroke-linecap="round" transform="translate(84.71978759765625 43.11326599121094) rotate(0 205.11996459960938 181.44001007080078)"><path d="M0 0 L410.24 0 L410.24 362.88 L0 362.88" stroke="none" stroke-width="0" fill="#ebfbee"></path><path d="M0 0 C147.86 0, 295.73 0, 410.24 0 M0 0 C159.94 0, 319.88 0, 410.24 0 M410.24 0 C410.24 106.72, 410.24 213.44, 410.24 362.88 M410.24 0 C410.24 92.47, 410.24 184.94, 410.24 362.88 M410.24 362.88 C317 362.88, 223.76 362.88, 0 362.88 M410.24 362.88 C303.28 362.88, 196.32 362.88, 0 362.88 M0 362.88 C0 287.35, 0 211.81, 0 0 M0 362.88 C0 252.6, 0 142.31, 0 0" stroke="#1e1e1e" stroke-width="2" fill="none"></path></g><g stroke-linecap="round" transform="translate(85.99993896484375 457.8333740234375) rotate(0 433.53338623046875 39.999969482421875)"><path d="M0 0 L867.07 0 L867.07 80 L0 80" stroke="none" stroke-width="0" fill="#ebfbee"></path><path d="M0 0 C338.05 0, 676.09 0, 867.07 0 M0 0 C254.99 0, 509.99 0, 867.07 0 M867.07 0 C867.07 20.39, 867.07 40.77, 867.07 80 M867.07 0 C867.07 18.18, 867.07 36.36, 867.07 80 M867.07 80 C641 80, 414.94 80, 0 80 M867.07 80 C686.58 80, 506.1 80, 0 80 M0 80 C0 55.69, 0 31.37, 0 0 M0 80 C0 60.27, 0 40.53, 0 0" stroke="#1e1e1e" stroke-width="2" fill="none"></path></g><g transform="translate(252.760009765625 10.393280029296875) rotate(0 47.8076171875 11.5)"><text x="0" y="18.400390625" font-family="Helvetica, Segoe UI Emoji" font-size="20px" fill="#1e1e1e" text-anchor="start" style="white-space: pre;" direction="ltr" dominant-baseline="alphabetic">Root Linux</text></g><g stroke-linecap="round"><g transform="translate(85.99993896484375 311.2731628417969) rotate(0 204.47994995117188 -0.6399688720703125)"><path d="M0 0 C88.92 -0.28, 177.84 -0.56, 408.96 -1.28" stroke="#1e1e1e" stroke-width="2.5" fill="none" stroke-dasharray="8 10"></path></g></g><mask></mask><g transform="translate(11.12005615234375 278.6732482910156) rotate(0 30 11.5)"><text x="0" y="18.400390625" font-family="Helvetica, Segoe UI Emoji" font-size="20px" fill="#1e1e1e" text-anchor="start" style="white-space: pre;" direction="ltr" dominant-baseline="alphabetic">用户态</text></g><g transform="translate(10 327.3132629394531) rotate(0 30 11.5)"><text x="0" y="18.400390625" font-family="Helvetica, Segoe UI Emoji" font-size="20px" fill="#1e1e1e" text-anchor="start" style="white-space: pre;" direction="ltr" dominant-baseline="alphabetic">内核态</text></g><g transform="translate(231.919921875 53.99330139160156) rotate(0 62.6025390625 11.5)"><text x="0" y="18.400390625" font-family="Helvetica, Segoe UI Emoji" font-size="20px" fill="#1e1e1e" text-anchor="start" style="white-space: pre;" direction="ltr" dominant-baseline="alphabetic">Virtio守护进程</text></g><g stroke-linecap="round" transform="translate(158.9599609375 218.4732666015625) rotate(0 133.43994140625 27.520004272460938)"><path d="M0 0 L266.88 0 L266.88 55.04 L0 55.04" stroke="none" stroke-width="0" fill="#ffc9c9"></path><path d="M0 0 C59.19 0, 118.37 0, 266.88 0 M0 0 C61.32 0, 122.63 0, 266.88 0 M266.88 0 C266.88 18.58, 266.88 37.15, 266.88 55.04 M266.88 0 C266.88 20.36, 266.88 40.71, 266.88 55.04 M266.88 55.04 C170 55.04, 73.12 55.04, 0 55.04 M266.88 55.04 C172.78 55.04, 78.68 55.04, 0 55.04 M0 55.04 C0 37.5, 0 19.97, 0 0 M0 55.04 C0 34.54, 0 14.03, 0 0" stroke="#1e1e1e" stroke-width="1" fill="none"></path></g><g transform="translate(262.39990234375 234.49327087402344) rotate(0 30 11.5)"><text x="30" y="18.400390625" font-family="Helvetica, Segoe UI Emoji" font-size="20px" fill="#1e1e1e" text-anchor="middle" style="white-space: pre;" direction="ltr" dominant-baseline="alphabetic">分发器</text></g><g stroke-linecap="round" transform="translate(159.51995849609375 102.02005004882812) rotate(0 52.160003662109375 40.31999206542969)"><path d="M0 0 L104.32 0 L104.32 80.64 L0 80.64" stroke="none" stroke-width="0" fill="#ffc9c9"></path><path d="M0 0 C25.02 0, 50.04 0, 104.32 0 M0 0 C37.95 0, 75.9 0, 104.32 0 M104.32 0 C104.32 25.11, 104.32 50.23, 104.32 80.64 M104.32 0 C104.32 21.76, 104.32 43.52, 104.32 80.64 M104.32 80.64 C71.9 80.64, 39.47 80.64, 0 80.64 M104.32 80.64 C82.63 80.64, 60.93 80.64, 0 80.64 M0 80.64 C0 49.34, 0 18.04, 0 0 M0 80.64 C0 61.19, 0 41.74, 0 0" stroke="#1e1e1e" stroke-width="1" fill="none"></path></g><g transform="translate(172.96414184570312 119.34004211425781) rotate(0 38.7158203125 23)"><text x="38.7158203125" y="18.400390625" font-family="Helvetica, Segoe UI Emoji" font-size="20px" fill="#1e1e1e" text-anchor="middle" style="white-space: pre;" direction="ltr" dominant-baseline="alphabetic">Virtio-blk</text><text x="38.7158203125" y="41.400390625" font-family="Helvetica, Segoe UI Emoji" font-size="20px" fill="#1e1e1e" text-anchor="middle" style="white-space: pre;" direction="ltr" dominant-baseline="alphabetic">设备</text></g><g stroke-linecap="round" transform="translate(319.8398132324219 103.55314636230469) rotate(0 52.160003662109375 40.31999206542969)"><path d="M0 0 L104.32 0 L104.32 80.64 L0 80.64" stroke="none" stroke-width="0" fill="#ffc9c9"></path><path d="M0 0 C41.07 0, 82.13 0, 104.32 0 M0 0 C40.9 0, 81.81 0, 104.32 0 M104.32 0 C104.32 32.18, 104.32 64.35, 104.32 80.64 M104.32 0 C104.32 29.73, 104.32 59.46, 104.32 80.64 M104.32 80.64 C66.18 80.64, 28.03 80.64, 0 80.64 M104.32 80.64 C70.18 80.64, 36.04 80.64, 0 80.64 M0 80.64 C0 53.85, 0 27.06, 0 0 M0 80.64 C0 63.93, 0 47.22, 0 0" stroke="#1e1e1e" stroke-width="1" fill="none"></path></g><g transform="translate(332.16583251953125 120.87313842773438) rotate(0 39.833984375 23)"><text x="39.833984375" y="18.400390625" font-family="Helvetica, Segoe UI Emoji" font-size="20px" fill="#1e1e1e" text-anchor="middle" style="white-space: pre;" direction="ltr" dominant-baseline="alphabetic">Virtio-net</text><text x="39.833984375" y="41.400390625" font-family="Helvetica, Segoe UI Emoji" font-size="20px" fill="#1e1e1e" text-anchor="middle" style="white-space: pre;" direction="ltr" dominant-baseline="alphabetic">设备</text></g><g transform="translate(16.27984619140625 485.15325927734375) rotate(0 28.3349609375 11.5)"><text x="0" y="18.400390625" font-family="Helvetica, Segoe UI Emoji" font-size="20px" fill="#1e1e1e" text-anchor="start" style="white-space: pre;" direction="ltr" dominant-baseline="alphabetic">Hvisor</text></g><g stroke-linecap="round" transform="translate(737.3198852539062 41.53997039794922) rotate(0 105.92001342773438 177.60003662109375)"><path d="M0 0 C55.12 0, 110.25 0, 211.84 0 M0 0 C79.52 0, 159.04 0, 211.84 0 M211.84 0 C211.84 136.09, 211.84 272.17, 211.84 355.2 M211.84 0 C211.84 90.62, 211.84 181.25, 211.84 355.2 M211.84 355.2 C158.3 355.2, 104.75 355.2, 0 355.2 M211.84 355.2 C146.25 355.2, 80.65 355.2, 0 355.2 M0 355.2 C0 222.07, 0 88.94, 0 0 M0 355.2 C0 216.87, 0 78.53, 0 0" stroke="#1e1e1e" stroke-width="2" fill="none"></path></g><g transform="translate(800.9251098632812 10) rotate(0 50 11.5)"><text x="0" y="18.400390625" font-family="Helvetica, Segoe UI Emoji" font-size="20px" fill="#1e1e1e" text-anchor="start" style="white-space: pre;" direction="ltr" dominant-baseline="alphabetic">其他虚拟机</text></g><g stroke-linecap="round"><g transform="translate(738.639892578125 206.17999267578125) rotate(0 106.88003540039062 0)"><path d="M0 0 C81.92 0, 163.84 0, 213.76 0" stroke="#1e1e1e" stroke-width="2.5" fill="none" stroke-dasharray="8 10"></path></g></g><mask></mask><g stroke-linecap="round" transform="translate(784.0798950195312 87.77996826171875) rotate(0 64 42.240020751953125)"><path d="M0 0 C32.93 0, 65.86 0, 128 0 M0 0 C35.31 0, 70.62 0, 128 0 M128 0 C128 31.23, 128 62.45, 128 84.48 M128 0 C128 27.73, 128 55.46, 128 84.48 M128 84.48 C87.82 84.48, 47.65 84.48, 0 84.48 M128 84.48 C94.1 84.48, 60.21 84.48, 0 84.48 M0 84.48 C0 53.44, 0 22.4, 0 0 M0 84.48 C0 61.87, 0 39.27, 0 0" stroke="#1e1e1e" stroke-width="1" fill="none"></path></g><g transform="translate(808.0798950195312 118.51998901367188) rotate(0 40 11.5)"><text x="40" y="18.400390625" font-family="Helvetica, Segoe UI Emoji" font-size="20px" fill="#1e1e1e" text-anchor="middle" style="white-space: pre;" direction="ltr" dominant-baseline="alphabetic">用户进程</text></g><g stroke-linecap="round" transform="translate(785.0399780273438 259.2199401855469) rotate(0 64 42.240020751953125)"><path d="M0 0 C31.61 0, 63.22 0, 128 0 M0 0 C40.94 0, 81.87 0, 128 0 M128 0 C128 20.84, 128 41.68, 128 84.48 M128 0 C128 33.31, 128 66.62, 128 84.48 M128 84.48 C101.72 84.48, 75.45 84.48, 0 84.48 M128 84.48 C97 84.48, 66 84.48, 0 84.48 M0 84.48 C0 62.92, 0 41.36, 0 0 M0 84.48 C0 63.18, 0 41.87, 0 0" stroke="#1e1e1e" stroke-width="1" fill="none"></path></g><g transform="translate(796.9940795898438 289.9599609375) rotate(0 52.0458984375 11.5)"><text x="52.0458984375" y="18.400390625" font-family="Helvetica, Segoe UI Emoji" font-size="20px" fill="#1e1e1e" text-anchor="middle" style="white-space: pre;" direction="ltr" dominant-baseline="alphabetic">Virtio Driver</text></g><g transform="translate(971.0399398803711 163.47998046875) rotate(0 30 11.5)"><text x="0" y="18.400390625" font-family="Helvetica, Segoe UI Emoji" font-size="20px" fill="#1e1e1e" text-anchor="start" style="white-space: pre;" direction="ltr" dominant-baseline="alphabetic">用户态</text></g><g transform="translate(972.7199020385742 220.04000854492188) rotate(0 30 11.5)"><text x="0" y="18.400390625" font-family="Helvetica, Segoe UI Emoji" font-size="20px" fill="#1e1e1e" text-anchor="start" style="white-space: pre;" direction="ltr" dominant-baseline="alphabetic">内核态</text></g><g stroke-linecap="round"><g transform="translate(815.0731429830148 356.57989501953125) rotate(0 0.4111292895978522 45.11999511718756)"><path d="M0 0 C0.24 26.38, 0.48 52.76, 0.82 90.24" stroke="#1e1e1e" stroke-width="1.5" fill="none" stroke-dasharray="8 9"></path></g><g transform="translate(815.0731429830148 356.57989501953125) rotate(0 0.4111292895978522 45.11999511718756)"><path d="M0.82 90.24 L-5.64 76.7 L7.04 76.59 L0.82 90.24" stroke="none" stroke-width="0" fill="#1e1e1e" fill-rule="evenodd"></path><path d="M0.82 90.24 C-1.07 86.28, -2.96 82.33, -5.64 76.7 M-5.64 76.7 C-1.5 76.67, 2.65 76.63, 7.04 76.59 M7.04 76.59 C4.69 81.74, 2.35 86.89, 0.82 90.24 M0.82 90.24 C0.82 90.24, 0.82 90.24, 0.82 90.24" stroke="#1e1e1e" stroke-width="1.5" fill="none"></path></g></g><mask></mask><g stroke-linecap="round"><g transform="translate(874.7559121272134 444.98004150390625) rotate(0 0.45104971237731206 -44.173370361328125)"><path d="M0 0 C0.36 -34.88, 0.71 -69.76, 0.9 -88.35" stroke="#1e1e1e" stroke-width="1.5" fill="none" stroke-dasharray="8 9"></path></g><g transform="translate(874.7559121272134 444.98004150390625) rotate(0 0.45104971237731206 -44.173370361328125)"><path d="M0.9 -88.35 L7.1 -74.69 L-5.58 -74.82 L0.9 -88.35" stroke="none" stroke-width="0" fill="#1e1e1e" fill-rule="evenodd"></path><path d="M0.9 -88.35 C3.35 -82.95, 5.8 -77.56, 7.1 -74.69 M7.1 -74.69 C2.1 -74.74, -2.91 -74.79, -5.58 -74.82 M-5.58 -74.82 C-3.52 -79.11, -1.47 -83.4, 0.9 -88.35 M0.9 -88.35 C0.9 -88.35, 0.9 -88.35, 0.9 -88.35" stroke="#1e1e1e" stroke-width="1.5" fill="none"></path></g></g><mask></mask><g stroke-linecap="round"><g transform="translate(384.77089366782843 447.5664978027344) rotate(0 0.2759465952157143 -81.61331176757812)"><path d="M0 0 C0.19 -57.64, 0.39 -115.27, 0.55 -163.23" stroke="#fa5252" stroke-width="1.5" fill="none" stroke-dasharray="8 9"></path></g><g transform="translate(384.77089366782843 447.5664978027344) rotate(0 0.2759465952157143 -81.61331176757812)"><path d="M0.55 -163.23 L6.85 -149.61 L-5.83 -149.65 L0.55 -163.23" stroke="none" stroke-width="0" fill="#fa5252" fill-rule="evenodd"></path><path d="M0.55 -163.23 C2.77 -158.42, 5 -153.61, 6.85 -149.61 M6.85 -149.61 C3.41 -149.62, -0.02 -149.63, -5.83 -149.65 M-5.83 -149.65 C-3.59 -154.42, -1.35 -159.18, 0.55 -163.23 M0.55 -163.23 C0.55 -163.23, 0.55 -163.23, 0.55 -163.23" stroke="#fa5252" stroke-width="1.5" fill="none"></path></g></g><mask></mask><g stroke-linecap="round"><g transform="translate(412.3298950365064 284.90000832912176) rotate(0 0.8226759661515075 80.60155482467775)"><path d="M0 0 C0.38 37.32, 0.76 74.64, 1.65 161.2" stroke="#fa5252" stroke-width="1.5" fill="none" stroke-dasharray="8 9"></path></g><g transform="translate(412.3298950365064 284.90000832912176) rotate(0 0.8226759661515075 80.60155482467775)"><path d="M1.65 161.2 L-4.83 147.67 L7.85 147.54 L1.65 161.2" stroke="none" stroke-width="0" fill="#fa5252" fill-rule="evenodd"></path><path d="M1.65 161.2 C0.15 158.07, -1.35 154.94, -4.83 147.67 M-4.83 147.67 C-1.03 147.64, 2.76 147.6, 7.85 147.54 M7.85 147.54 C5.44 152.84, 3.04 158.13, 1.65 161.2 M1.65 161.2 C1.65 161.2, 1.65 161.2, 1.65 161.2" stroke="#fa5252" stroke-width="1.5" fill="none"></path></g></g><mask></mask><g stroke-linecap="round" transform="translate(160.23992919921886 331.1133117675781) rotate(0 92.79992675781244 30)"><path d="M0 0 L185.6 0 L185.6 60 L0 60" stroke="none" stroke-width="0" fill="#a5d8ff"></path><path d="M0 0 C68.57 0, 137.14 0, 185.6 0 M0 0 C67.47 0, 134.93 0, 185.6 0 M185.6 0 C185.6 20.09, 185.6 40.17, 185.6 60 M185.6 0 C185.6 14.22, 185.6 28.44, 185.6 60 M185.6 60 C123.31 60, 61.01 60, 0 60 M185.6 60 C119.38 60, 53.16 60, 0 60 M0 60 C0 47.9, 0 35.81, 0 0 M0 60 C0 42.92, 0 25.85, 0 0" stroke="#1e1e1e" stroke-width="1" fill="none"></path></g><g transform="translate(165.25177001953125 349.6133117675781) rotate(0 87.7880859375 11.5)"><text x="87.7880859375" y="18.400390625" font-family="Helvetica, Segoe UI Emoji" font-size="20px" fill="#1e1e1e" text-anchor="middle" style="white-space: pre;" direction="ltr" dominant-baseline="alphabetic">Hypervisor服务模块</text></g><g stroke-linecap="round" transform="translate(345.7998046875 476.50018310546875) rotate(0 88.63995361328125 23.359954833984375)"><path d="M0 0 L177.28 0 L177.28 46.72 L0 46.72" stroke="none" stroke-width="0" fill="#96f2d7"></path><path d="M0 0 C45.75 0, 91.5 0, 177.28 0 M0 0 C44.33 0, 88.66 0, 177.28 0 M177.28 0 C177.28 18.08, 177.28 36.16, 177.28 46.72 M177.28 0 C177.28 18.35, 177.28 36.69, 177.28 46.72 M177.28 46.72 C134.27 46.72, 91.26 46.72, 0 46.72 M177.28 46.72 C111.51 46.72, 45.73 46.72, 0 46.72 M0 46.72 C0 37.1, 0 27.48, 0 0 M0 46.72 C0 29.42, 0 12.13, 0 0" stroke="#1e1e1e" stroke-width="1" fill="none"></path></g><g transform="translate(374.43975830078125 488.3601379394531) rotate(0 60 11.5)"><text x="60" y="18.400390625" font-family="Helvetica, Segoe UI Emoji" font-size="20px" fill="#1e1e1e" text-anchor="middle" style="white-space: pre;" direction="ltr" dominant-baseline="alphabetic">请求提交队列</text></g><g stroke-linecap="round" transform="translate(582.6668701171875 476.76666259765625) rotate(0 88.61328125 23.3599853515625)"><path d="M0 0 L177.23 0 L177.23 46.72 L0 46.72" stroke="none" stroke-width="0" fill="#96f2d7"></path><path d="M0 0 C62.75 0, 125.51 0, 177.23 0 M0 0 C55.72 0, 111.44 0, 177.23 0 M177.23 0 C177.23 12.69, 177.23 25.39, 177.23 46.72 M177.23 0 C177.23 13.34, 177.23 26.67, 177.23 46.72 M177.23 46.72 C127.88 46.72, 78.54 46.72, 0 46.72 M177.23 46.72 C123.98 46.72, 70.73 46.72, 0 46.72 M0 46.72 C0 35.86, 0 25.01, 0 0 M0 46.72 C0 33, 0 19.29, 0 0" stroke="#1e1e1e" stroke-width="1" fill="none"></path></g><g transform="translate(611.2801513671875 488.62664794921875) rotate(0 60 11.5)"><text x="60" y="18.400390625" font-family="Helvetica, Segoe UI Emoji" font-size="20px" fill="#1e1e1e" text-anchor="middle" style="white-space: pre;" direction="ltr" dominant-baseline="alphabetic">请求结果队列</text></g><g transform="translate(118.44000244140625 486.9932861328125) rotate(0 40 11.5)"><text x="0" y="18.400390625" font-family="Helvetica, Segoe UI Emoji" font-size="20px" fill="#1e1e1e" text-anchor="start" style="white-space: pre;" direction="ltr" dominant-baseline="alphabetic">通信跳板</text></g><g stroke-linecap="round"><g transform="translate(249.00085632398532 399.0332489013672) rotate(0 0.2426355440177872 24.613296508789062)"><path d="M0 0 C0.15 15.65, 0.31 31.29, 0.49 49.23 M0 0 C0.11 11.28, 0.22 22.57, 0.49 49.23" stroke="#0c8599" stroke-width="1" fill="none"></path></g><g transform="translate(249.00085632398532 399.0332489013672) rotate(0 0.2426355440177872 24.613296508789062)"><path d="M0.49 49.23 L-5.99 35.7 L6.69 35.57 L0.49 49.23" stroke="none" stroke-width="0" fill="#0c8599" fill-rule="evenodd"></path><path d="M0.49 49.23 C-1.57 44.93, -3.63 40.62, -5.99 35.7 M0.49 49.23 C-1 46.12, -2.48 43.02, -5.99 35.7 M-5.99 35.7 C-3.45 35.67, -0.91 35.65, 6.69 35.57 M-5.99 35.7 C-1.76 35.65, 2.46 35.61, 6.69 35.57 M6.69 35.57 C4.38 40.65, 2.08 45.72, 0.49 49.23 M6.69 35.57 C4.52 40.34, 2.36 45.11, 0.49 49.23 M0.49 49.23 C0.49 49.23, 0.49 49.23, 0.49 49.23 M0.49 49.23 C0.49 49.23, 0.49 49.23, 0.49 49.23" stroke="#0c8599" stroke-width="1" fill="none"></path></g></g><mask></mask><g stroke-linecap="round"><g transform="translate(249.199951171875 282.4732971191406) rotate(0 -0.000030517578125 22.720001220703125)"><path d="M0 0 C0 12.16, 0 24.31, 0 45.44 M0 0 C0 11.19, 0 22.39, 0 45.44" stroke="#2f9e44" stroke-width="1" fill="none"></path></g><g transform="translate(249.199951171875 282.4732971191406) rotate(0 -0.000030517578125 22.720001220703125)"><path d="M0 45.44 L-6.34 31.85 L6.34 31.85 L0 45.44" stroke="none" stroke-width="0" fill="#2f9e44" fill-rule="evenodd"></path><path d="M0 45.44 C-1.7 41.8, -3.39 38.17, -6.34 31.85 M0 45.44 C-1.56 42.09, -3.12 38.74, -6.34 31.85 M-6.34 31.85 C-3.53 31.85, -0.71 31.85, 6.34 31.85 M-6.34 31.85 C-2.09 31.85, 2.17 31.85, 6.34 31.85 M6.34 31.85 C4.47 35.86, 2.59 39.88, 0 45.44 M6.34 31.85 C4.25 36.33, 2.16 40.82, 0 45.44 M0 45.44 C0 45.44, 0 45.44, 0 45.44 M0 45.44 C0 45.44, 0 45.44, 0 45.44" stroke="#2f9e44" stroke-width="1" fill="none"></path></g></g><mask></mask><g transform="translate(199.3598289489746 418.77992248535156) rotate(0 15.5615234375 11.5)"><text x="0" y="18.400390625" font-family="Helvetica, Segoe UI Emoji" font-size="20px" fill="#0c8599" text-anchor="start" style="white-space: pre;" direction="ltr" dominant-baseline="alphabetic">hvc</text></g><g transform="translate(203.4649314880371 283.2799835205078) rotate(0 17.783203125 11.5)"><text x="0" y="18.400390625" font-family="Helvetica, Segoe UI Emoji" font-size="20px" fill="#2f9e44" text-anchor="start" style="white-space: pre;" direction="ltr" dominant-baseline="alphabetic">ioctl</text></g><g transform="translate(426.6933250427246 419.44667053222656) rotate(0 40 11.5)"><text x="0" y="18.400390625" font-family="Helvetica, Segoe UI Emoji" font-size="20px" fill="#fa5252" text-anchor="start" style="white-space: pre;" direction="ltr" dominant-baseline="alphabetic">共享内存</text></g><g stroke-linecap="round"><g transform="translate(278.3801481217074 211.44667053222656) rotate(0 -19.0130711189272 -11.333328247070312)"><path d="M0 0 C-14.39 -8.58, -28.79 -17.16, -38.03 -22.67 M0 0 C-10.62 -6.33, -21.24 -12.66, -38.03 -22.67" stroke="#1e1e1e" stroke-width="2" fill="none"></path></g><g transform="translate(278.3801481217074 211.44667053222656) rotate(0 -19.0130711189272 -11.333328247070312)"><path d="M-16.28 -18.52 C-24.51 -20.09, -32.74 -21.66, -38.03 -22.67 M-16.28 -18.52 C-22.36 -19.68, -28.43 -20.84, -38.03 -22.67" stroke="#1e1e1e" stroke-width="2" fill="none"></path></g><g transform="translate(278.3801481217074 211.44667053222656) rotate(0 -19.0130711189272 -11.333328247070312)"><path d="M-24.04 -5.51 C-29.33 -12.01, -34.63 -18.5, -38.03 -22.67 M-24.04 -5.51 C-27.94 -10.3, -31.85 -15.1, -38.03 -22.67" stroke="#1e1e1e" stroke-width="2" fill="none"></path></g></g><mask></mask><g stroke-linecap="round"><g transform="translate(307.59381375873375 212.113296508789) rotate(0 21.103843643054006 -12.000030517578097)"><path d="M0 0 C13.96 -7.94, 27.92 -15.88, 42.21 -24 M0 0 C10.14 -5.77, 20.29 -11.54, 42.21 -24" stroke="#1e1e1e" stroke-width="2" fill="none"></path></g><g transform="translate(307.59381375873375 212.113296508789) rotate(0 21.103843643054006 -12.000030517578097)"><path d="M26.48 -5.51 C31.68 -11.62, 36.88 -17.74, 42.21 -24 M26.48 -5.51 C30.26 -9.95, 34.04 -14.39, 42.21 -24" stroke="#1e1e1e" stroke-width="2" fill="none"></path></g><g transform="translate(307.59381375873375 212.113296508789) rotate(0 21.103843643054006 -12.000030517578097)"><path d="M18.27 -19.94 C26.19 -21.28, 34.11 -22.63, 42.21 -24 M18.27 -19.94 C24.02 -20.92, 29.78 -21.89, 42.21 -24" stroke="#1e1e1e" stroke-width="2" fill="none"></path></g></g><mask></mask><g stroke-linecap="round" transform="translate(545.6256559800618 187.01159228765982) rotate(0 66.19288944013101 63.8372563484057)"><path d="M132.39 63.84 C132.39 66.4, 132.22 68.99, 131.9 71.53 C131.58 74.08, 131.1 76.62, 130.46 79.11 C129.83 81.6, 129.03 84.08, 128.08 86.47 C127.14 88.87, 126.04 91.23, 124.8 93.5 C123.57 95.78, 122.18 97.99, 120.67 100.1 C119.16 102.21, 117.5 104.25, 115.74 106.17 C113.98 108.09, 112.08 109.92, 110.09 111.62 C108.1 113.32, 105.98 114.92, 103.79 116.37 C101.61 117.83, 99.31 119.17, 96.95 120.36 C94.6 121.55, 92.15 122.62, 89.67 123.53 C87.18 124.44, 84.62 125.21, 82.03 125.82 C79.45 126.43, 76.81 126.9, 74.17 127.21 C71.53 127.52, 68.85 127.67, 66.19 127.67 C63.53 127.67, 60.85 127.52, 58.21 127.21 C55.57 126.9, 52.93 126.43, 50.35 125.82 C47.77 125.21, 45.21 124.44, 42.72 123.53 C40.23 122.62, 37.79 121.55, 35.43 120.36 C33.08 119.17, 30.78 117.83, 28.59 116.37 C26.4 114.92, 24.29 113.32, 22.3 111.62 C20.31 109.92, 18.41 108.09, 16.65 106.17 C14.88 104.25, 13.23 102.21, 11.72 100.1 C10.21 97.99, 8.82 95.78, 7.58 93.5 C6.35 91.23, 5.24 88.87, 4.3 86.47 C3.36 84.08, 2.56 81.6, 1.92 79.11 C1.29 76.62, 0.8 74.08, 0.48 71.53 C0.16 68.99, 0 66.4, 0 63.84 C0 61.27, 0.16 58.69, 0.48 56.14 C0.8 53.6, 1.29 51.05, 1.92 48.56 C2.56 46.07, 3.36 43.6, 4.3 41.2 C5.24 38.8, 6.35 36.44, 7.58 34.17 C8.82 31.9, 10.21 29.68, 11.72 27.57 C13.23 25.46, 14.88 23.43, 16.65 21.51 C18.41 19.59, 20.31 17.76, 22.3 16.05 C24.29 14.35, 26.4 12.76, 28.59 11.3 C30.78 9.84, 33.08 8.5, 35.43 7.31 C37.79 6.12, 40.23 5.06, 42.72 4.15 C45.21 3.24, 47.77 2.47, 50.35 1.85 C52.93 1.24, 55.57 0.77, 58.21 0.47 C60.85 0.16, 63.53 0, 66.19 0 C68.85 0, 71.53 0.16, 74.17 0.47 C76.81 0.77, 79.45 1.24, 82.03 1.85 C84.62 2.47, 87.18 3.24, 89.67 4.15 C92.15 5.06, 94.6 6.12, 96.95 7.31 C99.31 8.5, 101.61 9.84, 103.79 11.3 C105.98 12.76, 108.1 14.35, 110.09 16.05 C112.08 17.76, 113.98 19.59, 115.74 21.51 C117.5 23.43, 119.16 25.46, 120.67 27.57 C122.18 29.68, 123.57 31.9, 124.8 34.17 C126.04 36.44, 127.14 38.8, 128.08 41.2 C129.03 43.6, 129.83 46.07, 130.46 48.56 C131.1 51.05, 131.58 53.6, 131.9 56.14 C132.22 58.69, 132.39 61.27, 132.39 63.84" stroke="none" stroke-width="0" fill="#b2f2bb"></path><path d="M132.39 63.84 C132.39 66.4, 132.22 68.99, 131.9 71.53 C131.58 74.08, 131.1 76.62, 130.46 79.11 C129.83 81.6, 129.03 84.08, 128.08 86.47 C127.14 88.87, 126.04 91.23, 124.8 93.5 C123.57 95.78, 122.18 97.99, 120.67 100.1 C119.16 102.21, 117.5 104.25, 115.74 106.17 C113.98 108.09, 112.08 109.92, 110.09 111.62 C108.1 113.32, 105.98 114.92, 103.79 116.37 C101.61 117.83, 99.31 119.17, 96.95 120.36 C94.6 121.55, 92.15 122.62, 89.67 123.53 C87.18 124.44, 84.62 125.21, 82.03 125.82 C79.45 126.43, 76.81 126.9, 74.17 127.21 C71.53 127.52, 68.85 127.67, 66.19 127.67 C63.53 127.67, 60.85 127.52, 58.21 127.21 C55.57 126.9, 52.93 126.43, 50.35 125.82 C47.77 125.21, 45.21 124.44, 42.72 123.53 C40.23 122.62, 37.79 121.55, 35.43 120.36 C33.08 119.17, 30.78 117.83, 28.59 116.37 C26.4 114.92, 24.29 113.32, 22.3 111.62 C20.31 109.92, 18.41 108.09, 16.65 106.17 C14.88 104.25, 13.23 102.21, 11.72 100.1 C10.21 97.99, 8.82 95.78, 7.58 93.5 C6.35 91.23, 5.24 88.87, 4.3 86.47 C3.36 84.08, 2.56 81.6, 1.92 79.11 C1.29 76.62, 0.8 74.08, 0.48 71.53 C0.16 68.99, 0 66.4, 0 63.84 C0 61.27, 0.16 58.69, 0.48 56.14 C0.8 53.6, 1.29 51.05, 1.92 48.56 C2.56 46.07, 3.36 43.6, 4.3 41.2 C5.24 38.8, 6.35 36.44, 7.58 34.17 C8.82 31.9, 10.21 29.68, 11.72 27.57 C13.23 25.46, 14.88 23.43, 16.65 21.51 C18.41 19.59, 20.31 17.76, 22.3 16.05 C24.29 14.35, 26.4 12.76, 28.59 11.3 C30.78 9.84, 33.08 8.5, 35.43 7.31 C37.79 6.12, 40.23 5.06, 42.72 4.15 C45.21 3.24, 47.77 2.47, 50.35 1.85 C52.93 1.24, 55.57 0.77, 58.21 0.47 C60.85 0.16, 63.53 0, 66.19 0 C68.85 0, 71.53 0.16, 74.17 0.47 C76.81 0.77, 79.45 1.24, 82.03 1.85 C84.62 2.47, 87.18 3.24, 89.67 4.15 C92.15 5.06, 94.6 6.12, 96.95 7.31 C99.31 8.5, 101.61 9.84, 103.79 11.3 C105.98 12.76, 108.1 14.35, 110.09 16.05 C112.08 17.76, 113.98 19.59, 115.74 21.51 C117.5 23.43, 119.16 25.46, 120.67 27.57 C122.18 29.68, 123.57 31.9, 124.8 34.17 C126.04 36.44, 127.14 38.8, 128.08 41.2 C129.03 43.6, 129.83 46.07, 130.46 48.56 C131.1 51.05, 131.58 53.6, 131.9 56.14 C132.22 58.69, 132.39 61.27, 132.39 63.84" stroke="#2f9e44" stroke-width="2" fill="none"></path></g><g stroke-linecap="round" transform="translate(559.5827341701555 198.14191413742242) rotate(0 52.53032646302739 52.765837541241126)"><path d="M105.06 52.77 C105.06 55.06, 104.91 57.38, 104.61 59.65 C104.31 61.93, 103.86 64.21, 103.27 66.42 C102.68 68.64, 101.94 70.84, 101.06 72.96 C100.19 75.08, 99.17 77.16, 98.02 79.15 C96.88 81.14, 95.6 83.07, 94.21 84.89 C92.81 86.71, 91.29 88.45, 89.67 90.08 C88.06 91.7, 86.32 93.23, 84.51 94.63 C82.7 96.03, 80.77 97.31, 78.8 98.46 C76.82 99.61, 74.74 100.64, 72.63 101.52 C70.52 102.39, 68.33 103.14, 66.13 103.73 C63.92 104.33, 61.65 104.78, 59.39 105.08 C57.12 105.38, 54.82 105.53, 52.53 105.53 C50.24 105.53, 47.94 105.38, 45.67 105.08 C43.41 104.78, 41.14 104.33, 38.93 103.73 C36.73 103.14, 34.54 102.39, 32.43 101.52 C30.32 100.64, 28.24 99.61, 26.27 98.46 C24.29 97.31, 22.37 96.03, 20.55 94.63 C18.74 93.23, 17 91.7, 15.39 90.08 C13.77 88.45, 12.25 86.71, 10.86 84.89 C9.46 83.07, 8.18 81.14, 7.04 79.15 C5.89 77.16, 4.87 75.08, 4 72.96 C3.12 70.84, 2.38 68.64, 1.79 66.42 C1.2 64.21, 0.75 61.93, 0.45 59.65 C0.15 57.38, 0 55.06, 0 52.77 C0 50.47, 0.15 48.15, 0.45 45.88 C0.75 43.6, 1.2 41.33, 1.79 39.11 C2.38 36.89, 3.12 34.69, 4 32.57 C4.87 30.45, 5.89 28.37, 7.04 26.38 C8.18 24.39, 9.46 22.47, 10.86 20.64 C12.25 18.82, 13.77 17.08, 15.39 15.45 C17 13.83, 18.74 12.3, 20.55 10.9 C22.37 9.51, 24.29 8.22, 26.27 7.07 C28.24 5.92, 30.32 4.9, 32.43 4.02 C34.54 3.14, 36.73 2.39, 38.93 1.8 C41.14 1.2, 43.41 0.75, 45.67 0.45 C47.94 0.15, 50.24 0, 52.53 0 C54.82 0, 57.12 0.15, 59.39 0.45 C61.65 0.75, 63.92 1.2, 66.13 1.8 C68.33 2.39, 70.52 3.14, 72.63 4.02 C74.74 4.9, 76.82 5.92, 78.8 7.07 C80.77 8.22, 82.7 9.51, 84.51 10.9 C86.32 12.3, 88.06 13.83, 89.67 15.45 C91.29 17.08, 92.81 18.82, 94.21 20.64 C95.6 22.47, 96.88 24.39, 98.02 26.38 C99.17 28.37, 100.19 30.45, 101.06 32.57 C101.94 34.69, 102.68 36.89, 103.27 39.11 C103.86 41.33, 104.31 43.6, 104.61 45.88 C104.91 48.15, 104.99 51.62, 105.06 52.77 C105.14 53.91, 105.14 51.62, 105.06 52.77" stroke="none" stroke-width="0" fill="#ffffff"></path><path d="M105.06 52.77 C105.06 55.06, 104.91 57.38, 104.61 59.65 C104.31 61.93, 103.86 64.21, 103.27 66.42 C102.68 68.64, 101.94 70.84, 101.06 72.96 C100.19 75.08, 99.17 77.16, 98.02 79.15 C96.88 81.14, 95.6 83.07, 94.21 84.89 C92.81 86.71, 91.29 88.45, 89.67 90.08 C88.06 91.7, 86.32 93.23, 84.51 94.63 C82.7 96.03, 80.77 97.31, 78.8 98.46 C76.82 99.61, 74.74 100.64, 72.63 101.52 C70.52 102.39, 68.33 103.14, 66.13 103.73 C63.92 104.33, 61.65 104.78, 59.39 105.08 C57.12 105.38, 54.82 105.53, 52.53 105.53 C50.24 105.53, 47.94 105.38, 45.67 105.08 C43.41 104.78, 41.14 104.33, 38.93 103.73 C36.73 103.14, 34.54 102.39, 32.43 101.52 C30.32 100.64, 28.24 99.61, 26.27 98.46 C24.29 97.31, 22.37 96.03, 20.55 94.63 C18.74 93.23, 17 91.7, 15.39 90.08 C13.77 88.45, 12.25 86.71, 10.86 84.89 C9.46 83.07, 8.18 81.14, 7.04 79.15 C5.89 77.16, 4.87 75.08, 4 72.96 C3.12 70.84, 2.38 68.64, 1.79 66.42 C1.2 64.21, 0.75 61.93, 0.45 59.65 C0.15 57.38, 0 55.06, 0 52.77 C0 50.47, 0.15 48.15, 0.45 45.88 C0.75 43.6, 1.2 41.33, 1.79 39.11 C2.38 36.89, 3.12 34.69, 4 32.57 C4.87 30.45, 5.89 28.37, 7.04 26.38 C8.18 24.39, 9.46 22.47, 10.86 20.64 C12.25 18.82, 13.77 17.08, 15.39 15.45 C17 13.83, 18.74 12.3, 20.55 10.9 C22.37 9.51, 24.29 8.22, 26.27 7.07 C28.24 5.92, 30.32 4.9, 32.43 4.02 C34.54 3.14, 36.73 2.39, 38.93 1.8 C41.14 1.2, 43.41 0.75, 45.67 0.45 C47.94 0.15, 50.24 0, 52.53 0 C54.82 0, 57.12 0.15, 59.39 0.45 C61.65 0.75, 63.92 1.2, 66.13 1.8 C68.33 2.39, 70.52 3.14, 72.63 4.02 C74.74 4.9, 76.82 5.92, 78.8 7.07 C80.77 8.22, 82.7 9.51, 84.51 10.9 C86.32 12.3, 88.06 13.83, 89.67 15.45 C91.29 17.08, 92.81 18.82, 94.21 20.64 C95.6 22.47, 96.88 24.39, 98.02 26.38 C99.17 28.37, 100.19 30.45, 101.06 32.57 C101.94 34.69, 102.68 36.89, 103.27 39.11 C103.86 41.33, 104.31 43.6, 104.61 45.88 C104.91 48.15, 104.99 51.62, 105.06 52.77 C105.14 53.91, 105.14 51.62, 105.06 52.77" stroke="#2f9e44" stroke-width="2" fill="none"></path></g><g stroke-linecap="round" transform="translate(573.4809317825798 207.1521589035304) rotate(0 66.19288944013101 63.8372563484057)"><path d="M132.39 63.84 C132.39 66.4, 132.22 68.99, 131.9 71.53 C131.58 74.08, 131.1 76.62, 130.46 79.11 C129.83 81.6, 129.03 84.08, 128.08 86.47 C127.14 88.87, 126.04 91.23, 124.8 93.5 C123.57 95.78, 122.18 97.99, 120.67 100.1 C119.16 102.21, 117.5 104.25, 115.74 106.17 C113.98 108.09, 112.08 109.92, 110.09 111.62 C108.1 113.32, 105.98 114.92, 103.79 116.37 C101.61 117.83, 99.31 119.17, 96.95 120.36 C94.6 121.55, 92.15 122.62, 89.67 123.53 C87.18 124.44, 84.62 125.21, 82.03 125.82 C79.45 126.43, 76.81 126.9, 74.17 127.21 C71.53 127.52, 68.85 127.67, 66.19 127.67 C63.53 127.67, 60.85 127.52, 58.21 127.21 C55.57 126.9, 52.93 126.43, 50.35 125.82 C47.77 125.21, 45.21 124.44, 42.72 123.53 C40.23 122.62, 37.79 121.55, 35.43 120.36 C33.08 119.17, 30.78 117.83, 28.59 116.37 C26.4 114.92, 24.29 113.32, 22.3 111.62 C20.31 109.92, 18.41 108.09, 16.65 106.17 C14.88 104.25, 13.23 102.21, 11.72 100.1 C10.21 97.99, 8.82 95.78, 7.58 93.5 C6.35 91.23, 5.24 88.87, 4.3 86.47 C3.36 84.08, 2.56 81.6, 1.92 79.11 C1.29 76.62, 0.8 74.08, 0.48 71.53 C0.16 68.99, 0 66.4, 0 63.84 C0 61.27, 0.16 58.69, 0.48 56.14 C0.8 53.6, 1.29 51.05, 1.92 48.56 C2.56 46.07, 3.36 43.6, 4.3 41.2 C5.24 38.8, 6.35 36.44, 7.58 34.17 C8.82 31.9, 10.21 29.68, 11.72 27.57 C13.23 25.46, 14.88 23.43, 16.65 21.51 C18.41 19.59, 20.31 17.76, 22.3 16.05 C24.29 14.35, 26.4 12.76, 28.59 11.3 C30.78 9.84, 33.08 8.5, 35.43 7.31 C37.79 6.12, 40.23 5.06, 42.72 4.15 C45.21 3.24, 47.77 2.47, 50.35 1.85 C52.93 1.24, 55.57 0.77, 58.21 0.47 C60.85 0.16, 63.53 0, 66.19 0 C68.85 0, 71.53 0.16, 74.17 0.47 C76.81 0.77, 79.45 1.24, 82.03 1.85 C84.62 2.47, 87.18 3.24, 89.67 4.15 C92.15 5.06, 94.6 6.12, 96.95 7.31 C99.31 8.5, 101.61 9.84, 103.79 11.3 C105.98 12.76, 108.1 14.35, 110.09 16.05 C112.08 17.76, 113.98 19.59, 115.74 21.51 C117.5 23.43, 119.16 25.46, 120.67 27.57 C122.18 29.68, 123.57 31.9, 124.8 34.17 C126.04 36.44, 127.14 38.8, 128.08 41.2 C129.03 43.6, 129.83 46.07, 130.46 48.56 C131.1 51.05, 131.58 53.6, 131.9 56.14 C132.22 58.69, 132.39 61.27, 132.39 63.84" stroke="none" stroke-width="0" fill="#b2f2bb"></path><path d="M132.39 63.84 C132.39 66.4, 132.22 68.99, 131.9 71.53 C131.58 74.08, 131.1 76.62, 130.46 79.11 C129.83 81.6, 129.03 84.08, 128.08 86.47 C127.14 88.87, 126.04 91.23, 124.8 93.5 C123.57 95.78, 122.18 97.99, 120.67 100.1 C119.16 102.21, 117.5 104.25, 115.74 106.17 C113.98 108.09, 112.08 109.92, 110.09 111.62 C108.1 113.32, 105.98 114.92, 103.79 116.37 C101.61 117.83, 99.31 119.17, 96.95 120.36 C94.6 121.55, 92.15 122.62, 89.67 123.53 C87.18 124.44, 84.62 125.21, 82.03 125.82 C79.45 126.43, 76.81 126.9, 74.17 127.21 C71.53 127.52, 68.85 127.67, 66.19 127.67 C63.53 127.67, 60.85 127.52, 58.21 127.21 C55.57 126.9, 52.93 126.43, 50.35 125.82 C47.77 125.21, 45.21 124.44, 42.72 123.53 C40.23 122.62, 37.79 121.55, 35.43 120.36 C33.08 119.17, 30.78 117.83, 28.59 116.37 C26.4 114.92, 24.29 113.32, 22.3 111.62 C20.31 109.92, 18.41 108.09, 16.65 106.17 C14.88 104.25, 13.23 102.21, 11.72 100.1 C10.21 97.99, 8.82 95.78, 7.58 93.5 C6.35 91.23, 5.24 88.87, 4.3 86.47 C3.36 84.08, 2.56 81.6, 1.92 79.11 C1.29 76.62, 0.8 74.08, 0.48 71.53 C0.16 68.99, 0 66.4, 0 63.84 C0 61.27, 0.16 58.69, 0.48 56.14 C0.8 53.6, 1.29 51.05, 1.92 48.56 C2.56 46.07, 3.36 43.6, 4.3 41.2 C5.24 38.8, 6.35 36.44, 7.58 34.17 C8.82 31.9, 10.21 29.68, 11.72 27.57 C13.23 25.46, 14.88 23.43, 16.65 21.51 C18.41 19.59, 20.31 17.76, 22.3 16.05 C24.29 14.35, 26.4 12.76, 28.59 11.3 C30.78 9.84, 33.08 8.5, 35.43 7.31 C37.79 6.12, 40.23 5.06, 42.72 4.15 C45.21 3.24, 47.77 2.47, 50.35 1.85 C52.93 1.24, 55.57 0.77, 58.21 0.47 C60.85 0.16, 63.53 0, 66.19 0 C68.85 0, 71.53 0.16, 74.17 0.47 C76.81 0.77, 79.45 1.24, 82.03 1.85 C84.62 2.47, 87.18 3.24, 89.67 4.15 C92.15 5.06, 94.6 6.12, 96.95 7.31 C99.31 8.5, 101.61 9.84, 103.79 11.3 C105.98 12.76, 108.1 14.35, 110.09 16.05 C112.08 17.76, 113.98 19.59, 115.74 21.51 C117.5 23.43, 119.16 25.46, 120.67 27.57 C122.18 29.68, 123.57 31.9, 124.8 34.17 C126.04 36.44, 127.14 38.8, 128.08 41.2 C129.03 43.6, 129.83 46.07, 130.46 48.56 C131.1 51.05, 131.58 53.6, 131.9 56.14 C132.22 58.69, 132.39 61.27, 132.39 63.84" stroke="#2f9e44" stroke-width="2" fill="none"></path></g><g stroke-linecap="round" transform="translate(587.2906849713927 218.959686023742) rotate(0 52.53032646302745 52.765837541241154)"><path d="M105.06 52.77 C105.06 55.06, 104.91 57.38, 104.61 59.65 C104.31 61.93, 103.86 64.21, 103.27 66.42 C102.68 68.64, 101.94 70.84, 101.06 72.96 C100.19 75.08, 99.17 77.16, 98.02 79.15 C96.88 81.14, 95.6 83.07, 94.21 84.89 C92.81 86.71, 91.29 88.45, 89.67 90.08 C88.06 91.7, 86.32 93.23, 84.51 94.63 C82.7 96.03, 80.77 97.31, 78.8 98.46 C76.82 99.61, 74.74 100.64, 72.63 101.52 C70.52 102.39, 68.33 103.14, 66.13 103.73 C63.92 104.33, 61.65 104.78, 59.39 105.08 C57.12 105.38, 54.82 105.53, 52.53 105.53 C50.24 105.53, 47.94 105.38, 45.67 105.08 C43.41 104.78, 41.14 104.33, 38.93 103.73 C36.73 103.14, 34.54 102.39, 32.43 101.52 C30.32 100.64, 28.24 99.61, 26.27 98.46 C24.29 97.31, 22.37 96.03, 20.55 94.63 C18.74 93.23, 17 91.7, 15.39 90.08 C13.77 88.45, 12.25 86.71, 10.86 84.89 C9.46 83.07, 8.18 81.14, 7.04 79.15 C5.89 77.16, 4.87 75.08, 4 72.96 C3.12 70.84, 2.38 68.64, 1.79 66.42 C1.2 64.21, 0.75 61.93, 0.45 59.65 C0.15 57.38, 0 55.06, 0 52.77 C0 50.47, 0.15 48.15, 0.45 45.88 C0.75 43.6, 1.2 41.33, 1.79 39.11 C2.38 36.89, 3.12 34.69, 4 32.57 C4.87 30.45, 5.89 28.37, 7.04 26.38 C8.18 24.39, 9.46 22.47, 10.86 20.64 C12.25 18.82, 13.77 17.08, 15.39 15.45 C17 13.83, 18.74 12.3, 20.55 10.9 C22.37 9.51, 24.29 8.22, 26.27 7.07 C28.24 5.92, 30.32 4.9, 32.43 4.02 C34.54 3.14, 36.73 2.39, 38.93 1.8 C41.14 1.2, 43.41 0.75, 45.67 0.45 C47.94 0.15, 50.24 0, 52.53 0 C54.82 0, 57.12 0.15, 59.39 0.45 C61.65 0.75, 63.92 1.2, 66.13 1.8 C68.33 2.39, 70.52 3.14, 72.63 4.02 C74.74 4.9, 76.82 5.92, 78.8 7.07 C80.77 8.22, 82.7 9.51, 84.51 10.9 C86.32 12.3, 88.06 13.83, 89.67 15.45 C91.29 17.08, 92.81 18.82, 94.21 20.64 C95.6 22.47, 96.88 24.39, 98.02 26.38 C99.17 28.37, 100.19 30.45, 101.06 32.57 C101.94 34.69, 102.68 36.89, 103.27 39.11 C103.86 41.33, 104.31 43.6, 104.61 45.88 C104.91 48.15, 104.99 51.62, 105.06 52.77 C105.14 53.91, 105.14 51.62, 105.06 52.77" stroke="none" stroke-width="0" fill="#ffffff"></path><path d="M105.06 52.77 C105.06 55.06, 104.91 57.38, 104.61 59.65 C104.31 61.93, 103.86 64.21, 103.27 66.42 C102.68 68.64, 101.94 70.84, 101.06 72.96 C100.19 75.08, 99.17 77.16, 98.02 79.15 C96.88 81.14, 95.6 83.07, 94.21 84.89 C92.81 86.71, 91.29 88.45, 89.67 90.08 C88.06 91.7, 86.32 93.23, 84.51 94.63 C82.7 96.03, 80.77 97.31, 78.8 98.46 C76.82 99.61, 74.74 100.64, 72.63 101.52 C70.52 102.39, 68.33 103.14, 66.13 103.73 C63.92 104.33, 61.65 104.78, 59.39 105.08 C57.12 105.38, 54.82 105.53, 52.53 105.53 C50.24 105.53, 47.94 105.38, 45.67 105.08 C43.41 104.78, 41.14 104.33, 38.93 103.73 C36.73 103.14, 34.54 102.39, 32.43 101.52 C30.32 100.64, 28.24 99.61, 26.27 98.46 C24.29 97.31, 22.37 96.03, 20.55 94.63 C18.74 93.23, 17 91.7, 15.39 90.08 C13.77 88.45, 12.25 86.71, 10.86 84.89 C9.46 83.07, 8.18 81.14, 7.04 79.15 C5.89 77.16, 4.87 75.08, 4 72.96 C3.12 70.84, 2.38 68.64, 1.79 66.42 C1.2 64.21, 0.75 61.93, 0.45 59.65 C0.15 57.38, 0 55.06, 0 52.77 C0 50.47, 0.15 48.15, 0.45 45.88 C0.75 43.6, 1.2 41.33, 1.79 39.11 C2.38 36.89, 3.12 34.69, 4 32.57 C4.87 30.45, 5.89 28.37, 7.04 26.38 C8.18 24.39, 9.46 22.47, 10.86 20.64 C12.25 18.82, 13.77 17.08, 15.39 15.45 C17 13.83, 18.74 12.3, 20.55 10.9 C22.37 9.51, 24.29 8.22, 26.27 7.07 C28.24 5.92, 30.32 4.9, 32.43 4.02 C34.54 3.14, 36.73 2.39, 38.93 1.8 C41.14 1.2, 43.41 0.75, 45.67 0.45 C47.94 0.15, 50.24 0, 52.53 0 C54.82 0, 57.12 0.15, 59.39 0.45 C61.65 0.75, 63.92 1.2, 66.13 1.8 C68.33 2.39, 70.52 3.14, 72.63 4.02 C74.74 4.9, 76.82 5.92, 78.8 7.07 C80.77 8.22, 82.7 9.51, 84.51 10.9 C86.32 12.3, 88.06 13.83, 89.67 15.45 C91.29 17.08, 92.81 18.82, 94.21 20.64 C95.6 22.47, 96.88 24.39, 98.02 26.38 C99.17 28.37, 100.19 30.45, 101.06 32.57 C101.94 34.69, 102.68 36.89, 103.27 39.11 C103.86 41.33, 104.31 43.6, 104.61 45.88 C104.91 48.15, 104.99 51.62, 105.06 52.77 C105.14 53.91, 105.14 51.62, 105.06 52.77" stroke="#2f9e44" stroke-width="2" fill="none"></path></g><g stroke-linecap="round" transform="translate(598.8628189542655 187.95383878487138) rotate(0 10.835801020540316 5.182366967127933)"><path d="M0 0 L21.67 0 L21.67 10.36 L0 10.36" stroke="none" stroke-width="0" fill="#a5d8ff"></path><path d="M0 0 C7.35 0, 14.7 0, 21.67 0 M0 0 C8.25 0, 16.5 0, 21.67 0 M21.67 0 C21.67 3.19, 21.67 6.38, 21.67 10.36 M21.67 0 C21.67 3.98, 21.67 7.95, 21.67 10.36 M21.67 10.36 C14.84 10.36, 8.01 10.36, 0 10.36 M21.67 10.36 C15.26 10.36, 8.85 10.36, 0 10.36 M0 10.36 C0 7.65, 0 4.94, 0 0 M0 10.36 C0 8.24, 0 6.11, 0 0" stroke="#1971c2" stroke-width="2" fill="none"></path></g><g stroke-linecap="round"><g transform="translate(620.092299730781 184.65597604463085) rotate(0 11.606986796120054 -12.249187615054069)"><path d="M0 0 C5.92 -6.25, 11.85 -12.5, 23.21 -24.5 M0 0 C8.25 -8.71, 16.51 -17.42, 23.21 -24.5" stroke="#1971c2" stroke-width="2" fill="none"></path></g><g transform="translate(620.092299730781 184.65597604463085) rotate(0 11.606986796120054 -12.249187615054069)"><path d="M16.5 -9.02 C18.21 -12.97, 19.92 -16.92, 23.21 -24.5 M16.5 -9.02 C18.88 -14.52, 21.27 -20.03, 23.21 -24.5" stroke="#1971c2" stroke-width="2" fill="none"></path></g><g transform="translate(620.092299730781 184.65597604463085) rotate(0 11.606986796120054 -12.249187615054069)"><path d="M8.12 -16.96 C11.97 -18.88, 15.82 -20.81, 23.21 -24.5 M8.12 -16.96 C13.48 -19.64, 18.85 -22.32, 23.21 -24.5" stroke="#1971c2" stroke-width="2" fill="none"></path></g></g><mask></mask><g stroke-linecap="round" transform="translate(599.8638561694324 106.06666946411133) rotate(0 39.33883057220828 17.43158266334271)"><path d="M8.72 0 C30.32 0, 51.92 0, 69.96 0 M8.72 0 C29.32 0, 49.92 0, 69.96 0 M69.96 0 C75.77 0, 78.68 2.91, 78.68 8.72 M69.96 0 C75.77 0, 78.68 2.91, 78.68 8.72 M78.68 8.72 C78.68 15.1, 78.68 21.49, 78.68 26.15 M78.68 8.72 C78.68 13.41, 78.68 18.1, 78.68 26.15 M78.68 26.15 C78.68 31.96, 75.77 34.86, 69.96 34.86 M78.68 26.15 C78.68 31.96, 75.77 34.86, 69.96 34.86 M69.96 34.86 C52.7 34.86, 35.44 34.86, 8.72 34.86 M69.96 34.86 C49.13 34.86, 28.3 34.86, 8.72 34.86 M8.72 34.86 C2.91 34.86, 0 31.96, 0 26.15 M8.72 34.86 C2.91 34.86, 0 31.96, 0 26.15 M0 26.15 C0 20.24, 0 14.33, 0 8.72 M0 26.15 C0 20.12, 0 14.09, 0 8.72 M0 8.72 C0 2.91, 2.91 0, 8.72 0 M0 8.72 C0 2.91, 2.91 0, 8.72 0" stroke="#1971c2" stroke-width="1" fill="none"></path></g><g stroke-linecap="round" transform="translate(605.4584770399608 112.57407407808813) rotate(0 39.33883057220828 17.43158266334271)"><path d="M8.72 0 C22.98 0, 37.24 0, 69.96 0 C75.77 0, 78.68 2.91, 78.68 8.72 C78.68 12.68, 78.68 16.65, 78.68 26.15 C78.68 31.96, 75.77 34.86, 69.96 34.86 C53.3 34.86, 36.63 34.86, 8.72 34.86 C2.91 34.86, 0 31.96, 0 26.15 C0 20.2, 0 14.25, 0 8.72 C0 2.91, 2.91 0, 8.72 0" stroke="none" stroke-width="0" fill="#ffffff"></path><path d="M8.72 0 C27.71 0, 46.71 0, 69.96 0 M8.72 0 C27.83 0, 46.94 0, 69.96 0 M69.96 0 C75.77 0, 78.68 2.91, 78.68 8.72 M69.96 0 C75.77 0, 78.68 2.91, 78.68 8.72 M78.68 8.72 C78.68 14.21, 78.68 19.7, 78.68 26.15 M78.68 8.72 C78.68 13.87, 78.68 19.03, 78.68 26.15 M78.68 26.15 C78.68 31.96, 75.77 34.86, 69.96 34.86 M78.68 26.15 C78.68 31.96, 75.77 34.86, 69.96 34.86 M69.96 34.86 C56.87 34.86, 43.77 34.86, 8.72 34.86 M69.96 34.86 C52.04 34.86, 34.12 34.86, 8.72 34.86 M8.72 34.86 C2.91 34.86, 0 31.96, 0 26.15 M8.72 34.86 C2.91 34.86, 0 31.96, 0 26.15 M0 26.15 C0 19.99, 0 13.84, 0 8.72 M0 26.15 C0 20.7, 0 15.25, 0 8.72 M0 8.72 C0 2.91, 2.91 0, 8.72 0 M0 8.72 C0 2.91, 2.91 0, 8.72 0" stroke="#1971c2" stroke-width="1" fill="none"></path></g><g stroke-linecap="round" transform="translate(612.908116918685 120.11204605578075) rotate(0 39.33883057220828 17.43158266334271)"><path d="M8.72 0 C21.51 0, 34.3 0, 69.96 0 C75.77 0, 78.68 2.91, 78.68 8.72 C78.68 15.32, 78.68 21.92, 78.68 26.15 C78.68 31.96, 75.77 34.86, 69.96 34.86 C54.79 34.86, 39.61 34.86, 8.72 34.86 C2.91 34.86, 0 31.96, 0 26.15 C0 21.69, 0 17.23, 0 8.72 C0 2.91, 2.91 0, 8.72 0" stroke="none" stroke-width="0" fill="#ffffff"></path><path d="M8.72 0 C28.71 0, 48.71 0, 69.96 0 M8.72 0 C27.04 0, 45.36 0, 69.96 0 M69.96 0 C75.77 0, 78.68 2.91, 78.68 8.72 M69.96 0 C75.77 0, 78.68 2.91, 78.68 8.72 M78.68 8.72 C78.68 15.05, 78.68 21.39, 78.68 26.15 M78.68 8.72 C78.68 15.03, 78.68 21.35, 78.68 26.15 M78.68 26.15 C78.68 31.96, 75.77 34.86, 69.96 34.86 M78.68 26.15 C78.68 31.96, 75.77 34.86, 69.96 34.86 M69.96 34.86 C50.45 34.86, 30.94 34.86, 8.72 34.86 M69.96 34.86 C55.13 34.86, 40.3 34.86, 8.72 34.86 M8.72 34.86 C2.91 34.86, 0 31.96, 0 26.15 M8.72 34.86 C2.91 34.86, 0 31.96, 0 26.15 M0 26.15 C0 22.04, 0 17.93, 0 8.72 M0 26.15 C0 20.54, 0 14.93, 0 8.72 M0 8.72 C0 2.91, 2.91 0, 8.72 0 M0 8.72 C0 2.91, 2.91 0, 8.72 0" stroke="#1971c2" stroke-width="1" fill="none"></path></g><g transform="translate(622.8069755670651 129.07812477240452) rotate(0 29.439971923828125 8.465503946718968)"><text x="29.439971923828125" y="13.545093865835476" font-family="Helvetica, Segoe UI Emoji" font-size="14.72261555951123px" fill="#1971c2" text-anchor="middle" style="white-space: pre;" direction="ltr" dominant-baseline="alphabetic">共享内存</text></g><g transform="translate(600.0624055942537 261.0730440861796) rotate(0 42.626953125 11.5)"><text x="0" y="18.400390625" font-family="Helvetica, Segoe UI Emoji" font-size="20px" fill="#2f9e44" text-anchor="start" style="white-space: pre;" direction="ltr" dominant-baseline="alphabetic">Virtqueue</text></g><g stroke-linecap="round"><g transform="translate(435.35988998413086 156.1133270263672) rotate(0 58.33331298828125 22.666656494140625)"><path d="M0 0 C30.42 11.82, 60.85 23.64, 116.67 45.33" stroke="#2f9e44" stroke-width="1.5" fill="none" stroke-dasharray="8 9"></path></g><g transform="translate(435.35988998413086 156.1133270263672) rotate(0 58.33331298828125 22.666656494140625)"><path d="M0 0 L14.97 -0.99 L10.38 10.83 L0 0" stroke="none" stroke-width="0" fill="#2f9e44" fill-rule="evenodd"></path><path d="M0 0 C3.9 -0.26, 7.81 -0.51, 14.97 -0.99 M14.97 -0.99 C13.56 2.63, 12.15 6.25, 10.38 10.83 M10.38 10.83 C7.32 7.65, 4.27 4.46, 0 0 M0 0 C0 0, 0 0, 0 0" stroke="#2f9e44" stroke-width="1.5" fill="none"></path></g><g transform="translate(435.35988998413086 156.1133270263672) rotate(0 58.33331298828125 22.666656494140625)"><path d="M116.67 45.33 L101.7 46.32 L106.29 34.5 L116.67 45.33" stroke="none" stroke-width="0" fill="#2f9e44" fill-rule="evenodd"></path><path d="M116.67 45.33 C112.76 45.59, 108.86 45.85, 101.7 46.32 M101.7 46.32 C103.11 42.7, 104.51 39.08, 106.29 34.5 M106.29 34.5 C109.34 37.69, 112.39 40.87, 116.67 45.33 M116.67 45.33 C116.67 45.33, 116.67 45.33, 116.67 45.33" stroke="#2f9e44" stroke-width="1.5" fill="none"></path></g></g><mask></mask><g stroke-linecap="round"><g transform="translate(269.6932029724121 161.11329650878906) rotate(0 130.6666259765625 40.33331298828125)"><path d="M0 0 C90.02 27.79, 180.04 55.57, 261.33 80.67" stroke="#2f9e44" stroke-width="1.5" fill="none" stroke-dasharray="8 9"></path></g><g transform="translate(269.6932029724121 161.11329650878906) rotate(0 130.6666259765625 40.33331298828125)"><path d="M0 0 L14.86 -2.05 L11.12 10.07 L0 0" stroke="none" stroke-width="0" fill="#2f9e44" fill-rule="evenodd"></path><path d="M0 0 C5.12 -0.71, 10.24 -1.41, 14.86 -2.05 M14.86 -2.05 C13.42 2.6, 11.99 7.25, 11.12 10.07 M11.12 10.07 C6.77 6.13, 2.42 2.19, 0 0 M0 0 C0 0, 0 0, 0 0" stroke="#2f9e44" stroke-width="1.5" fill="none"></path></g><g transform="translate(269.6932029724121 161.11329650878906) rotate(0 130.6666259765625 40.33331298828125)"><path d="M261.33 80.67 L246.47 82.71 L250.21 70.6 L261.33 80.67" stroke="none" stroke-width="0" fill="#2f9e44" fill-rule="evenodd"></path><path d="M261.33 80.67 C256.21 81.37, 251.1 82.08, 246.47 82.71 M246.47 82.71 C247.91 78.06, 249.34 73.41, 250.21 70.6 M250.21 70.6 C254.57 74.54, 258.92 78.48, 261.33 80.67 M261.33 80.67 C261.33 80.67, 261.33 80.67, 261.33 80.67" stroke="#2f9e44" stroke-width="1.5" fill="none"></path></g></g><mask></mask><g stroke-linecap="round"><g transform="translate(711.6932029724121 282.4466094970703) rotate(0 31.33331298828125 8.000030517578125)"><path d="M0 0 C23.75 6.06, 47.5 12.13, 62.67 16" stroke="#2f9e44" stroke-width="1.5" fill="none" stroke-dasharray="8 9"></path></g><g transform="translate(711.6932029724121 282.4466094970703) rotate(0 31.33331298828125 8.000030517578125)"><path d="M0 0 L14.74 -2.78 L11.6 9.51 L0 0" stroke="none" stroke-width="0" fill="#2f9e44" fill-rule="evenodd"></path><path d="M0 0 C5.59 -1.05, 11.17 -2.11, 14.74 -2.78 M14.74 -2.78 C13.5 2.1, 12.25 6.97, 11.6 9.51 M11.6 9.51 C9.1 7.46, 6.6 5.41, 0 0 M0 0 C0 0, 0 0, 0 0" stroke="#2f9e44" stroke-width="1.5" fill="none"></path></g><g transform="translate(711.6932029724121 282.4466094970703) rotate(0 31.33331298828125 8.000030517578125)"><path d="M62.67 16 L47.93 18.78 L51.06 6.49 L62.67 16" stroke="none" stroke-width="0" fill="#2f9e44" fill-rule="evenodd"></path><path d="M62.67 16 C57.08 17.05, 51.49 18.11, 47.93 18.78 M47.93 18.78 C49.17 13.9, 50.42 9.03, 51.06 6.49 M51.06 6.49 C53.56 8.54, 56.07 10.59, 62.67 16 M62.67 16 C62.67 16, 62.67 16, 62.67 16" stroke="#2f9e44" stroke-width="1.5" fill="none"></path></g></g><mask></mask><g stroke-linecap="round"><g transform="translate(701.3598899841309 312.11329650878906) rotate(0 38.3333740234375 9)"><path d="M0 0 C24.4 5.73, 48.79 11.46, 76.67 18" stroke="#2f9e44" stroke-width="1.5" fill="none" stroke-dasharray="8 9"></path></g><g transform="translate(701.3598899841309 312.11329650878906) rotate(0 38.3333740234375 9)"><path d="M0 0 L14.68 -3.06 L11.79 9.28 L0 0" stroke="none" stroke-width="0" fill="#2f9e44" fill-rule="evenodd"></path><path d="M0 0 C4.67 -0.98, 9.35 -1.95, 14.68 -3.06 M14.68 -3.06 C13.54 1.79, 12.4 6.64, 11.79 9.28 M11.79 9.28 C9.12 7.18, 6.46 5.09, 0 0 M0 0 C0 0, 0 0, 0 0" stroke="#2f9e44" stroke-width="1.5" fill="none"></path></g><g transform="translate(701.3598899841309 312.11329650878906) rotate(0 38.3333740234375 9)"><path d="M76.67 18 L61.98 21.06 L64.88 8.72 L76.67 18" stroke="none" stroke-width="0" fill="#2f9e44" fill-rule="evenodd"></path><path d="M76.67 18 C71.99 18.98, 67.32 19.95, 61.98 21.06 M61.98 21.06 C63.12 16.21, 64.26 11.36, 64.88 8.72 M64.88 8.72 C67.54 10.82, 70.21 12.91, 76.67 18 M76.67 18 C76.67 18, 76.67 18, 76.67 18" stroke="#2f9e44" stroke-width="1.5" fill="none"></path></g></g><mask></mask><g transform="translate(745.3598899841309 426.34670104980466) rotate(0 27.55859375 9.199999999999989)"><text x="0" y="14.720312499999999" font-family="Helvetica, Segoe UI Emoji" font-size="16px" fill="#1e1e1e" text-anchor="start" style="white-space: pre;" direction="ltr" dominant-baseline="alphabetic">VM Exit</text></g><g transform="translate(894.2448997497559 423.2467010498045) rotate(0 32.89453125 9.199999999999989)"><text x="0" y="14.720312499999999" font-family="Helvetica, Segoe UI Emoji" font-size="16px" fill="#1e1e1e" text-anchor="start" style="white-space: pre;" direction="ltr" dominant-baseline="alphabetic">VM Entry</text></g></svg>