<svg version="1.1" xmlns="http://www.w3.org/2000/svg" viewBox="0 0 1042.7199020385742 636.5000610351562" width="1042.7199020385742" height="636.5000610351562">
  <!-- svg-source:excalidraw -->
  
  <defs>
    <style class="style-fonts">
      @font-face {
        font-family: "Virgil";
        src: url("https://excalidraw.com/Virgil.woff2");
      }
      @font-face {
        font-family: "Cascadia";
        src: url("https://excalidraw.com/Cascadia.woff2");
      }
      @font-face {
        font-family: "Assistant";
        src: url("https://excalidraw.com/Assistant-Regular.woff2");
      }
    </style>
    
  </defs>
  <g stroke-linecap="round" transform="translate(84.71978759765625 42.44657897949219) rotate(0 205.11996459960938 181.44001007080078)"><path d="M0 0 L410.24 0 L410.24 362.88 L0 362.88" stroke="none" stroke-width="0" fill="#ebfbee"></path><path d="M0 0 C162.57 0, 325.14 0, 410.24 0 M0 0 C86.03 0, 172.07 0, 410.24 0 M410.24 0 C410.24 94.14, 410.24 188.27, 410.24 362.88 M410.24 0 C410.24 119.16, 410.24 238.32, 410.24 362.88 M410.24 362.88 C276.51 362.88, 142.78 362.88, 0 362.88 M410.24 362.88 C247.64 362.88, 85.03 362.88, 0 362.88 M0 362.88 C0 259.66, 0 156.44, 0 0 M0 362.88 C0 282.75, 0 202.61, 0 0" stroke="#1e1e1e" stroke-width="2" fill="none"></path></g><g stroke-linecap="round" transform="translate(84.66656494140625 457.8333740234375) rotate(0 433.53338623046875 84.33334350585938)"><path d="M0 0 L867.07 0 L867.07 168.67 L0 168.67" stroke="none" stroke-width="0" fill="#ebfbee"></path><path d="M0 0 C196.61 0, 393.22 0, 867.07 0 M0 0 C325.3 0, 650.59 0, 867.07 0 M867.07 0 C867.07 51.25, 867.07 102.5, 867.07 168.67 M867.07 0 C867.07 34.85, 867.07 69.69, 867.07 168.67 M867.07 168.67 C664.69 168.67, 462.31 168.67, 0 168.67 M867.07 168.67 C688.42 168.67, 509.78 168.67, 0 168.67 M0 168.67 C0 124.7, 0 80.73, 0 0 M0 168.67 C0 107.2, 0 45.74, 0 0" stroke="#1e1e1e" stroke-width="2" fill="none"></path></g><g transform="translate(252.760009765625 10.393280029296875) rotate(0 47.8076171875 11.5)"><text x="0" y="18.400390625" font-family="Helvetica, Segoe UI Emoji" font-size="20px" fill="#1e1e1e" text-anchor="start" style="white-space: pre;" direction="ltr" dominant-baseline="alphabetic">Root Linux</text></g><g stroke-linecap="round"><g transform="translate(85.99993896484375 311.2731628417969) rotate(0 204.47994995117188 -0.6399688720703125)"><path d="M0 0 C130.88 -0.41, 261.75 -0.82, 408.96 -1.28" stroke="#1e1e1e" stroke-width="2.5" fill="none" stroke-dasharray="8 10"></path></g></g><mask></mask><g transform="translate(11.12005615234375 278.6732482910156) rotate(0 30 11.5)"><text x="0" y="18.400390625" font-family="Helvetica, Segoe UI Emoji" font-size="20px" fill="#1e1e1e" text-anchor="start" style="white-space: pre;" direction="ltr" dominant-baseline="alphabetic">用户态</text></g><g transform="translate(10 327.3132629394531) rotate(0 30 11.5)"><text x="0" y="18.400390625" font-family="Helvetica, Segoe UI Emoji" font-size="20px" fill="#1e1e1e" text-anchor="start" style="white-space: pre;" direction="ltr" dominant-baseline="alphabetic">内核态</text></g><g transform="translate(231.919921875 53.99330139160156) rotate(0 62.6025390625 11.5)"><text x="0" y="18.400390625" font-family="Helvetica, Segoe UI Emoji" font-size="20px" fill="#1e1e1e" text-anchor="start" style="white-space: pre;" direction="ltr" dominant-baseline="alphabetic">Virtio守护进程</text></g><g stroke-linecap="round" transform="translate(158.9599609375 218.4732666015625) rotate(0 133.43994140625 27.520004272460938)"><path d="M0 0 L266.88 0 L266.88 55.04 L0 55.04" stroke="none" stroke-width="0" fill="#ffc9c9"></path><path d="M0 0 C69.23 0, 138.46 0, 266.88 0 M0 0 C87.64 0, 175.27 0, 266.88 0 M266.88 0 C266.88 17.94, 266.88 35.88, 266.88 55.04 M266.88 0 C266.88 21.82, 266.88 43.63, 266.88 55.04 M266.88 55.04 C190.97 55.04, 115.05 55.04, 0 55.04 M266.88 55.04 C207.95 55.04, 149.01 55.04, 0 55.04 M0 55.04 C0 37.02, 0 19, 0 0 M0 55.04 C0 33.62, 0 12.2, 0 0" stroke="#1e1e1e" stroke-width="1" fill="none"></path></g><g transform="translate(262.39990234375 234.49327087402344) rotate(0 30 11.5)"><text x="30" y="18.400390625" font-family="Helvetica, Segoe UI Emoji" font-size="20px" fill="#1e1e1e" text-anchor="middle" style="white-space: pre;" direction="ltr" dominant-baseline="alphabetic">分发器</text></g><g stroke-linecap="round" transform="translate(159.51995849609375 102.02005004882812) rotate(0 52.160003662109375 40.31999206542969)"><path d="M0 0 L104.32 0 L104.32 80.64 L0 80.64" stroke="none" stroke-width="0" fill="#ffc9c9"></path><path d="M0 0 C41.6 0, 83.21 0, 104.32 0 M0 0 C33.99 0, 67.98 0, 104.32 0 M104.32 0 C104.32 25.83, 104.32 51.66, 104.32 80.64 M104.32 0 C104.32 24.18, 104.32 48.37, 104.32 80.64 M104.32 80.64 C76.01 80.64, 47.71 80.64, 0 80.64 M104.32 80.64 C78.89 80.64, 53.46 80.64, 0 80.64 M0 80.64 C0 58.31, 0 35.99, 0 0 M0 80.64 C0 56.95, 0 33.26, 0 0" stroke="#1e1e1e" stroke-width="1" fill="none"></path></g><g transform="translate(172.96414184570312 119.34004211425781) rotate(0 38.7158203125 23)"><text x="38.7158203125" y="18.400390625" font-family="Helvetica, Segoe UI Emoji" font-size="20px" fill="#1e1e1e" text-anchor="middle" style="white-space: pre;" direction="ltr" dominant-baseline="alphabetic">Virtio-blk</text><text x="38.7158203125" y="41.400390625" font-family="Helvetica, Segoe UI Emoji" font-size="20px" fill="#1e1e1e" text-anchor="middle" style="white-space: pre;" direction="ltr" dominant-baseline="alphabetic">设备</text></g><g stroke-linecap="round" transform="translate(319.8398132324219 103.55314636230469) rotate(0 52.160003662109375 40.31999206542969)"><path d="M0 0 L104.32 0 L104.32 80.64 L0 80.64" stroke="none" stroke-width="0" fill="#ffc9c9"></path><path d="M0 0 C37.16 0, 74.32 0, 104.32 0 M0 0 C28.17 0, 56.34 0, 104.32 0 M104.32 0 C104.32 29.81, 104.32 59.62, 104.32 80.64 M104.32 0 C104.32 21.32, 104.32 42.63, 104.32 80.64 M104.32 80.64 C69.98 80.64, 35.64 80.64, 0 80.64 M104.32 80.64 C83.42 80.64, 62.51 80.64, 0 80.64 M0 80.64 C0 63.12, 0 45.61, 0 0 M0 80.64 C0 61.43, 0 42.21, 0 0" stroke="#1e1e1e" stroke-width="1" fill="none"></path></g><g transform="translate(332.16583251953125 120.87313842773438) rotate(0 39.833984375 23)"><text x="39.833984375" y="18.400390625" font-family="Helvetica, Segoe UI Emoji" font-size="20px" fill="#1e1e1e" text-anchor="middle" style="white-space: pre;" direction="ltr" dominant-baseline="alphabetic">Virtio-net</text><text x="39.833984375" y="41.400390625" font-family="Helvetica, Segoe UI Emoji" font-size="20px" fill="#1e1e1e" text-anchor="middle" style="white-space: pre;" direction="ltr" dominant-baseline="alphabetic">设备</text></g><g transform="translate(16.27984619140625 485.15325927734375) rotate(0 28.3349609375 11.5)"><text x="0" y="18.400390625" font-family="Helvetica, Segoe UI Emoji" font-size="20px" fill="#1e1e1e" text-anchor="start" style="white-space: pre;" direction="ltr" dominant-baseline="alphabetic">Hvisor</text></g><g stroke-linecap="round" transform="translate(737.3198852539062 41.53997039794922) rotate(0 105.92001342773438 177.60003662109375)"><path d="M0 0 C69.06 0, 138.11 0, 211.84 0 M0 0 C83.97 0, 167.93 0, 211.84 0 M211.84 0 C211.84 101.04, 211.84 202.07, 211.84 355.2 M211.84 0 C211.84 78.44, 211.84 156.88, 211.84 355.2 M211.84 355.2 C142.49 355.2, 73.14 355.2, 0 355.2 M211.84 355.2 C129.39 355.2, 46.95 355.2, 0 355.2 M0 355.2 C0 272.56, 0 189.93, 0 0 M0 355.2 C0 252.94, 0 150.68, 0 0" stroke="#1e1e1e" stroke-width="2" fill="none"></path></g><g transform="translate(800.9251098632812 10) rotate(0 50 11.5)"><text x="0" y="18.400390625" font-family="Helvetica, Segoe UI Emoji" font-size="20px" fill="#1e1e1e" text-anchor="start" style="white-space: pre;" direction="ltr" dominant-baseline="alphabetic">其他虚拟机</text></g><g stroke-linecap="round"><g transform="translate(738.639892578125 206.17999267578125) rotate(0 106.88003540039062 0)"><path d="M0 0 C68.47 0, 136.93 0, 213.76 0" stroke="#1e1e1e" stroke-width="2.5" fill="none" stroke-dasharray="8 10"></path></g></g><mask></mask><g stroke-linecap="round" transform="translate(784.0798950195312 87.77996826171875) rotate(0 64 42.240020751953125)"><path d="M0 0 C47.55 0, 95.1 0, 128 0 M0 0 C39.98 0, 79.96 0, 128 0 M128 0 C128 27.87, 128 55.75, 128 84.48 M128 0 C128 21.56, 128 43.13, 128 84.48 M128 84.48 C82.23 84.48, 36.47 84.48, 0 84.48 M128 84.48 C88.67 84.48, 49.34 84.48, 0 84.48 M0 84.48 C0 62.6, 0 40.73, 0 0 M0 84.48 C0 54.92, 0 25.35, 0 0" stroke="#1e1e1e" stroke-width="1" fill="none"></path></g><g transform="translate(808.0798950195312 118.51998901367188) rotate(0 40 11.5)"><text x="40" y="18.400390625" font-family="Helvetica, Segoe UI Emoji" font-size="20px" fill="#1e1e1e" text-anchor="middle" style="white-space: pre;" direction="ltr" dominant-baseline="alphabetic">用户进程</text></g><g stroke-linecap="round" transform="translate(785.0399780273438 259.2199401855469) rotate(0 64 42.240020751953125)"><path d="M0 0 C46.61 0, 93.21 0, 128 0 M0 0 C50.5 0, 101 0, 128 0 M128 0 C128 26.15, 128 52.3, 128 84.48 M128 0 C128 26.81, 128 53.61, 128 84.48 M128 84.48 C95.19 84.48, 62.38 84.48, 0 84.48 M128 84.48 C95.29 84.48, 62.58 84.48, 0 84.48 M0 84.48 C0 61.97, 0 39.46, 0 0 M0 84.48 C0 66.35, 0 48.22, 0 0" stroke="#1e1e1e" stroke-width="1" fill="none"></path></g><g transform="translate(796.9940795898438 289.9599609375) rotate(0 52.0458984375 11.5)"><text x="52.0458984375" y="18.400390625" font-family="Helvetica, Segoe UI Emoji" font-size="20px" fill="#1e1e1e" text-anchor="middle" style="white-space: pre;" direction="ltr" dominant-baseline="alphabetic">Virtio Driver</text></g><g transform="translate(971.0399398803711 163.47998046875) rotate(0 30 11.5)"><text x="0" y="18.400390625" font-family="Helvetica, Segoe UI Emoji" font-size="20px" fill="#1e1e1e" text-anchor="start" style="white-space: pre;" direction="ltr" dominant-baseline="alphabetic">用户态</text></g><g transform="translate(972.7199020385742 220.04000854492188) rotate(0 30 11.5)"><text x="0" y="18.400390625" font-family="Helvetica, Segoe UI Emoji" font-size="20px" fill="#1e1e1e" text-anchor="start" style="white-space: pre;" direction="ltr" dominant-baseline="alphabetic">内核态</text></g><g stroke-linecap="round"><g transform="translate(814.9219182677307 356.57989501953125) rotate(0 0.30336464246147443 56.69843187446702)"><path d="M0 0 C0.16 30.77, 0.33 61.54, 0.61 113.4" stroke="#1e1e1e" stroke-width="1.5" fill="none" stroke-dasharray="8 9"></path></g><g transform="translate(814.9219182677307 356.57989501953125) rotate(0 0.30336464246147443 56.69843187446702)"><path d="M0.61 113.4 L-5.81 99.84 L6.87 99.77 L0.61 113.4" stroke="none" stroke-width="0" fill="#1e1e1e" fill-rule="evenodd"></path><path d="M0.61 113.4 C-1.13 109.72, -2.87 106.04, -5.81 99.84 M-5.81 99.84 C-2.71 99.82, 0.38 99.8, 6.87 99.77 M6.87 99.77 C5.14 103.54, 3.4 107.32, 0.61 113.4 M0.61 113.4 C0.61 113.4, 0.61 113.4, 0.61 113.4" stroke="#1e1e1e" stroke-width="1.5" fill="none"></path></g></g><mask></mask><g stroke-linecap="round" transform="translate(373.133056640625 481.16680908203125) rotate(0 92.306640625 28.359954833984375)"><path d="M0 0 L184.61 0 L184.61 56.72 L0 56.72" stroke="none" stroke-width="0" fill="#96f2d7"></path><path d="M0 0 C37.63 0, 75.25 0, 184.61 0 M0 0 C52.47 0, 104.94 0, 184.61 0 M184.61 0 C184.61 19, 184.61 38.01, 184.61 56.72 M184.61 0 C184.61 22.58, 184.61 45.17, 184.61 56.72 M184.61 56.72 C136.24 56.72, 87.86 56.72, 0 56.72 M184.61 56.72 C112.98 56.72, 41.35 56.72, 0 56.72 M0 56.72 C0 44.87, 0 33.02, 0 0 M0 56.72 C0 45.19, 0 33.66, 0 0" stroke="#1e1e1e" stroke-width="1" fill="none"></path></g><g transform="translate(405.439697265625 498.0267639160156) rotate(0 60 11.5)"><text x="60" y="18.400390625" font-family="Helvetica, Segoe UI Emoji" font-size="20px" fill="#1e1e1e" text-anchor="middle" style="white-space: pre;" direction="ltr" dominant-baseline="alphabetic">请求提交队列</text></g><g stroke-linecap="round" transform="translate(374.00006103515625 556.7667236328125) rotate(0 91.94659423828125 28.693328857421875)"><path d="M0 0 L183.89 0 L183.89 57.39 L0 57.39" stroke="none" stroke-width="0" fill="#96f2d7"></path><path d="M0 0 C65.75 0, 131.5 0, 183.89 0 M0 0 C56.5 0, 113.01 0, 183.89 0 M183.89 0 C183.89 14.86, 183.89 29.72, 183.89 57.39 M183.89 0 C183.89 20.08, 183.89 40.17, 183.89 57.39 M183.89 57.39 C126.58 57.39, 69.27 57.39, 0 57.39 M183.89 57.39 C114.67 57.39, 45.44 57.39, 0 57.39 M0 57.39 C0 37.45, 0 17.52, 0 0 M0 57.39 C0 39.59, 0 21.8, 0 0" stroke="#1e1e1e" stroke-width="1" fill="none"></path></g><g transform="translate(395.9466552734375 573.9600524902344) rotate(0 70 11.5)"><text x="70" y="18.400390625" font-family="Helvetica, Segoe UI Emoji" font-size="20px" fill="#1e1e1e" text-anchor="middle" style="white-space: pre;" direction="ltr" dominant-baseline="alphabetic">控制面结果队列</text></g><g transform="translate(99.106689453125 481.7265991210937) rotate(0 56 16.100000000000023)"><text x="0" y="25.760546874999996" font-family="Helvetica, Segoe UI Emoji" font-size="28px" fill="#1e1e1e" text-anchor="start" style="white-space: pre;" direction="ltr" dominant-baseline="alphabetic">通信跳板</text></g><g stroke-linecap="round"><g transform="translate(277.81882781923366 211.44667053222656) rotate(0 -18.891981160228113 -11.333328247070312)"><path d="M0 0 C-10.45 -6.27, -20.89 -12.53, -37.78 -22.67 M0 0 C-9.9 -5.94, -19.8 -11.88, -37.78 -22.67" stroke="#1e1e1e" stroke-width="2" fill="none"></path></g><g transform="translate(277.81882781923366 211.44667053222656) rotate(0 -18.891981160228113 -11.333328247070312)"><path d="M-16.16 -18.48 C-22.13 -19.64, -28.11 -20.79, -37.78 -22.67 M-16.16 -18.48 C-21.82 -19.58, -27.49 -20.67, -37.78 -22.67" stroke="#1e1e1e" stroke-width="2" fill="none"></path></g><g transform="translate(277.81882781923366 211.44667053222656) rotate(0 -18.891981160228113 -11.333328247070312)"><path d="M-23.91 -5.56 C-27.74 -10.29, -31.58 -15.02, -37.78 -22.67 M-23.91 -5.56 C-27.54 -10.04, -31.18 -14.52, -37.78 -22.67" stroke="#1e1e1e" stroke-width="2" fill="none"></path></g></g><mask></mask><g stroke-linecap="round"><g transform="translate(307.4756517075557 212.11329650878906) rotate(0 21.132189615990626 -12.000030517578125)"><path d="M0 0 C11.26 -6.39, 22.52 -12.79, 42.26 -24 M0 0 C9.07 -5.15, 18.14 -10.3, 42.26 -24" stroke="#1e1e1e" stroke-width="2" fill="none"></path></g><g transform="translate(307.4756517075557 212.11329650878906) rotate(0 21.132189615990626 -12.000030517578125)"><path d="M26.51 -5.5 C30.71 -10.43, 34.91 -15.36, 42.26 -24 M26.51 -5.5 C29.89 -9.47, 33.27 -13.44, 42.26 -24" stroke="#1e1e1e" stroke-width="2" fill="none"></path></g><g transform="translate(307.4756517075557 212.11329650878906) rotate(0 21.132189615990626 -12.000030517578125)"><path d="M18.3 -19.95 C24.69 -21.03, 31.07 -22.11, 42.26 -24 M18.3 -19.95 C23.44 -20.82, 28.59 -21.69, 42.26 -24" stroke="#1e1e1e" stroke-width="2" fill="none"></path></g></g><mask></mask><g transform="translate(678.0265159606934 418.34664001464853) rotate(0 63.125 9.199999999999989)"><text x="0" y="14.720312499999999" font-family="Helvetica, Segoe UI Emoji" font-size="16px" fill="#1e1e1e" text-anchor="start" style="white-space: pre;" direction="ltr" dominant-baseline="alphabetic">1. 陷入Hypervisor</text></g><g stroke-linecap="round" transform="translate(773.6932640075684 474.5833740234375) rotate(0 45.33331298828125 30)"><path d="M15 0 C37.27 0, 59.54 0, 75.67 0 M15 0 C37.58 0, 60.15 0, 75.67 0 M75.67 0 C85.67 0, 90.67 5, 90.67 15 M75.67 0 C85.67 0, 90.67 5, 90.67 15 M90.67 15 C90.67 22.77, 90.67 30.55, 90.67 45 M90.67 15 C90.67 26.11, 90.67 37.21, 90.67 45 M90.67 45 C90.67 55, 85.67 60, 75.67 60 M90.67 45 C90.67 55, 85.67 60, 75.67 60 M75.67 60 C53 60, 30.34 60, 15 60 M75.67 60 C55.51 60, 35.35 60, 15 60 M15 60 C5 60, 0 55, 0 45 M15 60 C5 60, 0 55, 0 45 M0 45 C0 36.31, 0 27.62, 0 15 M0 45 C0 33.68, 0 22.36, 0 15 M0 15 C0 5, 5 0, 15 0 M0 15 C0 5, 5 0, 15 0" stroke="#1e1e1e" stroke-width="2" fill="none"></path></g><g transform="translate(779.0265769958496 481.5833740234375) rotate(0 40 23)"><text x="40" y="18.400390625" font-family="Helvetica, Segoe UI Emoji" font-size="20px" fill="#1e1e1e" text-anchor="middle" style="white-space: pre;" direction="ltr" dominant-baseline="alphabetic">MMIO</text><text x="40" y="41.400390625" font-family="Helvetica, Segoe UI Emoji" font-size="20px" fill="#1e1e1e" text-anchor="middle" style="white-space: pre;" direction="ltr" dominant-baseline="alphabetic">陷入信息</text></g><g stroke-linecap="round"><g transform="translate(767.6933860778809 508.5077680608424) rotate(0 -101.66668701171875 0.42875329507057813)"><path d="M0 0 C-33.89 0.14, -169.44 0.71, -203.33 0.86" stroke="#1e1e1e" stroke-width="1.5" fill="none" stroke-dasharray="8 9"></path></g><g transform="translate(767.6933860778809 508.5077680608424) rotate(0 -101.66668701171875 0.42875329507057813)"><path d="M-203.33 0.86 L-189.77 -5.54 L-189.71 7.14 L-203.33 0.86" stroke="none" stroke-width="0" fill="#1e1e1e" fill-rule="evenodd"></path><path d="M-203.33 0.86 C-199.87 -0.78, -196.4 -2.41, -189.77 -5.54 M-189.77 -5.54 C-189.75 -2.07, -189.74 1.39, -189.71 7.14 M-189.71 7.14 C-194.42 4.97, -199.13 2.8, -203.33 0.86 M-203.33 0.86 C-203.33 0.86, -203.33 0.86, -203.33 0.86" stroke="#1e1e1e" stroke-width="1.5" fill="none"></path></g></g><mask></mask><g stroke-linecap="round"><g transform="translate(389.5775831299145 473.91668701171886) rotate(0 -1.3921794927506994 -99.66662597656256)"><path d="M0 0 C-0.46 -33.22, -2.32 -166.11, -2.78 -199.33" stroke="#1e1e1e" stroke-width="1.5" fill="none" stroke-dasharray="8 9"></path></g><g transform="translate(389.5775831299145 473.91668701171886) rotate(0 -1.3921794927506994 -99.66662597656256)"><path d="M6.09 -175.96 C3.88 -181.8, 1.66 -187.63, -2.78 -199.33" stroke="#1e1e1e" stroke-width="1.5" fill="none"></path></g><g transform="translate(389.5775831299145 473.91668701171886) rotate(0 -1.3921794927506994 -99.66662597656256)"><path d="M-11.01 -175.72 C-8.95 -181.62, -6.9 -187.51, -2.78 -199.33" stroke="#1e1e1e" stroke-width="1.5" fill="none"></path></g></g><mask></mask><g transform="translate(636.9070091247559 480.7166870117187) rotate(0 40.89453125 9.199999999999989)"><text x="0" y="14.720312499999999" font-family="Helvetica, Segoe UI Emoji" font-size="16px" fill="#1e1e1e" text-anchor="start" style="white-space: pre;" direction="ltr" dominant-baseline="alphabetic">2. 加入请求</text></g><g stroke-linecap="round"><g transform="translate(565.6933860778809 515.2500610351565) rotate(0 14.00006103515625 45.98377304046517)"><path d="M0 0 C5.22 11.22, 31.89 52.01, 31.33 67.33 C30.78 82.66, 2.44 87.86, -3.33 91.97" stroke="#1e1e1e" stroke-width="1.5" fill="none" stroke-dasharray="8 9"></path></g><g transform="translate(565.6933860778809 515.2500610351565) rotate(0 14.00006103515625 45.98377304046517)"><path d="M-3.33 91.97 L6.69 80.8 L11.66 92.47 L-3.33 91.97" stroke="none" stroke-width="0" fill="#1e1e1e" fill-rule="evenodd"></path><path d="M-3.33 91.97 C-0.36 88.65, 2.62 85.33, 6.69 80.8 M6.69 80.8 C8.15 84.25, 9.62 87.69, 11.66 92.47 M11.66 92.47 C5.8 92.27, -0.07 92.08, -3.33 91.97 M-3.33 91.97 C-3.33 91.97, -3.33 91.97, -3.33 91.97" stroke="#1e1e1e" stroke-width="1.5" fill="none"></path></g></g><mask></mask><g transform="translate(608.7988548278809 572.05) rotate(0 40.89453125 9.199999999999989)"><text x="0" y="14.720312499999999" font-family="Helvetica, Segoe UI Emoji" font-size="16px" fill="#1e1e1e" text-anchor="start" style="white-space: pre;" direction="ltr" dominant-baseline="alphabetic">3. 轮询队列</text></g><g transform="translate(401.13222885131836 287.7166870117187) rotate(0 40.89453125 9.199999999999989)"><text x="0" y="14.720312499999999" font-family="Helvetica, Segoe UI Emoji" font-size="16px" fill="#1e1e1e" text-anchor="start" style="white-space: pre;" direction="ltr" dominant-baseline="alphabetic">3. 取出请求</text></g><g transform="translate(357.7989158630371 192.03339436699957) rotate(0 40.89453125 9.199999999999989)"><text x="0" y="14.720312499999999" font-family="Helvetica, Segoe UI Emoji" font-size="16px" fill="#1e1e1e" text-anchor="start" style="white-space: pre;" direction="ltr" dominant-baseline="alphabetic">4. 配置协商</text></g><g stroke-linecap="round"><g transform="translate(292.36001205444336 282.56670735528076) rotate(0 36 152.66665649414062)"><path d="M0 0 C0 115.57, 0 231.13, 0 305.33 M0 305.33 C24.95 305.2, 49.9 305.07, 72 304.95" stroke="#1e1e1e" stroke-width="1.5" fill="none" stroke-dasharray="8 9"></path></g><g transform="translate(292.36001205444336 282.56670735528076) rotate(0 36 152.66665649414062)"><path d="M48.55 313.63 C57.43 310.34, 66.3 307.06, 72 304.95" stroke="#1e1e1e" stroke-width="1.5" fill="none"></path></g><g transform="translate(292.36001205444336 282.56670735528076) rotate(0 36 152.66665649414062)"><path d="M48.46 296.53 C57.37 299.71, 66.28 302.9, 72 304.95" stroke="#1e1e1e" stroke-width="1.5" fill="none"></path></g></g><mask></mask><g transform="translate(196.46548080444336 569.3666463201246) rotate(0 40.89453125 9.199999999999989)"><text x="0" y="14.720312499999999" font-family="Helvetica, Segoe UI Emoji" font-size="16px" fill="#1e1e1e" text-anchor="start" style="white-space: pre;" direction="ltr" dominant-baseline="alphabetic">5. 返回结果</text></g><g stroke-linecap="round"><g transform="translate(569.6933860778809 607.0603495486284) rotate(0 166.3333740234375 -126.82698569920706)"><path d="M0 0 C101.67 0.26, 203.34 0.51, 332.67 0.84 M332.67 0.84 C332.52 -56.39, 332.37 -113.62, 332 -254.49" stroke="#1e1e1e" stroke-width="1.5" fill="none" stroke-dasharray="8 9"></path></g><g transform="translate(569.6933860778809 607.0603495486284) rotate(0 166.3333740234375 -126.82698569920706)"><path d="M332 -254.49 L338.37 -240.92 L325.7 -240.88 L332 -254.49" stroke="none" stroke-width="0" fill="#1e1e1e" fill-rule="evenodd"></path><path d="M332 -254.49 C333.95 -250.34, 335.9 -246.19, 338.37 -240.92 M338.37 -240.92 C335.53 -240.91, 332.69 -240.9, 325.7 -240.88 M325.7 -240.88 C326.96 -243.61, 328.22 -246.34, 332 -254.49 M332 -254.49 C332 -254.49, 332 -254.49, 332 -254.49" stroke="#1e1e1e" stroke-width="1.5" fill="none"></path></g></g><mask></mask><g transform="translate(918.4654808044434 420.7000813787183) rotate(0 48.89453125 9.199999999999989)"><text x="0" y="14.720312499999999" font-family="Helvetica, Segoe UI Emoji" font-size="16px" fill="#1e1e1e" text-anchor="start" style="white-space: pre;" direction="ltr" dominant-baseline="alphabetic">6. 返回虚拟机</text></g></svg>