<svg version="1.1" xmlns="http://www.w3.org/2000/svg" viewBox="0 0 1227.5923461914062 636.5000610351562" width="1227.5923461914062" height="636.5000610351562">
  <!-- svg-source:excalidraw -->
  
  <defs>
    <style class="style-fonts">
      @font-face {
        font-family: "Virgil";
        src: url("https://excalidraw.com/Virgil.woff2");
      }
      @font-face {
        font-family: "Cascadia";
        src: url("https://excalidraw.com/Cascadia.woff2");
      }
      @font-face {
        font-family: "Assistant";
        src: url("https://excalidraw.com/Assistant-Regular.woff2");
      }
    </style>
    
  </defs>
  <g stroke-linecap="round" transform="translate(614.5461596703285 190.81501330816764) rotate(0 66.19288944013101 63.83725634840573)"><path d="M132.39 63.84 C132.39 66.4, 132.22 68.99, 131.9 71.53 C131.58 74.08, 131.1 76.62, 130.46 79.11 C129.83 81.6, 129.03 84.08, 128.08 86.47 C127.14 88.87, 126.04 91.23, 124.8 93.5 C123.57 95.78, 122.18 97.99, 120.67 100.1 C119.16 102.21, 117.5 104.25, 115.74 106.17 C113.98 108.09, 112.08 109.92, 110.09 111.62 C108.1 113.32, 105.98 114.92, 103.79 116.37 C101.61 117.83, 99.31 119.17, 96.95 120.36 C94.6 121.55, 92.15 122.62, 89.67 123.53 C87.18 124.44, 84.62 125.21, 82.03 125.82 C79.45 126.43, 76.81 126.9, 74.17 127.21 C71.53 127.52, 68.85 127.67, 66.19 127.67 C63.53 127.67, 60.85 127.52, 58.21 127.21 C55.57 126.9, 52.93 126.43, 50.35 125.82 C47.77 125.21, 45.21 124.44, 42.72 123.53 C40.23 122.62, 37.79 121.55, 35.43 120.36 C33.08 119.17, 30.78 117.83, 28.59 116.37 C26.4 114.92, 24.29 113.32, 22.3 111.62 C20.31 109.92, 18.41 108.09, 16.65 106.17 C14.88 104.25, 13.23 102.21, 11.72 100.1 C10.21 97.99, 8.82 95.78, 7.58 93.5 C6.35 91.23, 5.24 88.87, 4.3 86.47 C3.36 84.08, 2.56 81.6, 1.92 79.11 C1.29 76.62, 0.8 74.08, 0.48 71.53 C0.16 68.99, 0 66.4, 0 63.84 C0 61.27, 0.16 58.69, 0.48 56.14 C0.8 53.6, 1.29 51.05, 1.92 48.56 C2.56 46.07, 3.36 43.6, 4.3 41.2 C5.24 38.8, 6.35 36.44, 7.58 34.17 C8.82 31.9, 10.21 29.68, 11.72 27.57 C13.23 25.46, 14.88 23.43, 16.65 21.51 C18.41 19.59, 20.31 17.76, 22.3 16.05 C24.29 14.35, 26.4 12.76, 28.59 11.3 C30.78 9.84, 33.08 8.5, 35.43 7.31 C37.79 6.12, 40.23 5.06, 42.72 4.15 C45.21 3.24, 47.77 2.47, 50.35 1.85 C52.93 1.24, 55.57 0.77, 58.21 0.47 C60.85 0.16, 63.53 0, 66.19 0 C68.85 0, 71.53 0.16, 74.17 0.47 C76.81 0.77, 79.45 1.24, 82.03 1.85 C84.62 2.47, 87.18 3.24, 89.67 4.15 C92.15 5.06, 94.6 6.12, 96.95 7.31 C99.31 8.5, 101.61 9.84, 103.79 11.3 C105.98 12.76, 108.1 14.35, 110.09 16.05 C112.08 17.76, 113.98 19.59, 115.74 21.51 C117.5 23.43, 119.16 25.46, 120.67 27.57 C122.18 29.68, 123.57 31.9, 124.8 34.17 C126.04 36.44, 127.14 38.8, 128.08 41.2 C129.03 43.6, 129.83 46.07, 130.46 48.56 C131.1 51.05, 131.58 53.6, 131.9 56.14 C132.22 58.69, 132.39 61.27, 132.39 63.84" stroke="none" stroke-width="0" fill="#b2f2bb"></path><path d="M132.39 63.84 C132.39 66.4, 132.22 68.99, 131.9 71.53 C131.58 74.08, 131.1 76.62, 130.46 79.11 C129.83 81.6, 129.03 84.08, 128.08 86.47 C127.14 88.87, 126.04 91.23, 124.8 93.5 C123.57 95.78, 122.18 97.99, 120.67 100.1 C119.16 102.21, 117.5 104.25, 115.74 106.17 C113.98 108.09, 112.08 109.92, 110.09 111.62 C108.1 113.32, 105.98 114.92, 103.79 116.37 C101.61 117.83, 99.31 119.17, 96.95 120.36 C94.6 121.55, 92.15 122.62, 89.67 123.53 C87.18 124.44, 84.62 125.21, 82.03 125.82 C79.45 126.43, 76.81 126.9, 74.17 127.21 C71.53 127.52, 68.85 127.67, 66.19 127.67 C63.53 127.67, 60.85 127.52, 58.21 127.21 C55.57 126.9, 52.93 126.43, 50.35 125.82 C47.77 125.21, 45.21 124.44, 42.72 123.53 C40.23 122.62, 37.79 121.55, 35.43 120.36 C33.08 119.17, 30.78 117.83, 28.59 116.37 C26.4 114.92, 24.29 113.32, 22.3 111.62 C20.31 109.92, 18.41 108.09, 16.65 106.17 C14.88 104.25, 13.23 102.21, 11.72 100.1 C10.21 97.99, 8.82 95.78, 7.58 93.5 C6.35 91.23, 5.24 88.87, 4.3 86.47 C3.36 84.08, 2.56 81.6, 1.92 79.11 C1.29 76.62, 0.8 74.08, 0.48 71.53 C0.16 68.99, 0 66.4, 0 63.84 C0 61.27, 0.16 58.69, 0.48 56.14 C0.8 53.6, 1.29 51.05, 1.92 48.56 C2.56 46.07, 3.36 43.6, 4.3 41.2 C5.24 38.8, 6.35 36.44, 7.58 34.17 C8.82 31.9, 10.21 29.68, 11.72 27.57 C13.23 25.46, 14.88 23.43, 16.65 21.51 C18.41 19.59, 20.31 17.76, 22.3 16.05 C24.29 14.35, 26.4 12.76, 28.59 11.3 C30.78 9.84, 33.08 8.5, 35.43 7.31 C37.79 6.12, 40.23 5.06, 42.72 4.15 C45.21 3.24, 47.77 2.47, 50.35 1.85 C52.93 1.24, 55.57 0.77, 58.21 0.47 C60.85 0.16, 63.53 0, 66.19 0 C68.85 0, 71.53 0.16, 74.17 0.47 C76.81 0.77, 79.45 1.24, 82.03 1.85 C84.62 2.47, 87.18 3.24, 89.67 4.15 C92.15 5.06, 94.6 6.12, 96.95 7.31 C99.31 8.5, 101.61 9.84, 103.79 11.3 C105.98 12.76, 108.1 14.35, 110.09 16.05 C112.08 17.76, 113.98 19.59, 115.74 21.51 C117.5 23.43, 119.16 25.46, 120.67 27.57 C122.18 29.68, 123.57 31.9, 124.8 34.17 C126.04 36.44, 127.14 38.8, 128.08 41.2 C129.03 43.6, 129.83 46.07, 130.46 48.56 C131.1 51.05, 131.58 53.6, 131.9 56.14 C132.22 58.69, 132.39 61.27, 132.39 63.84" stroke="#2f9e44" stroke-width="2" fill="none"></path></g><g stroke-linecap="round" transform="translate(628.5032378604224 201.94533515793023) rotate(0 52.53032646302745 52.765837541241126)"><path d="M105.06 52.77 C105.06 55.06, 104.91 57.38, 104.61 59.65 C104.31 61.93, 103.86 64.21, 103.27 66.42 C102.68 68.64, 101.94 70.84, 101.06 72.96 C100.19 75.08, 99.17 77.16, 98.02 79.15 C96.88 81.14, 95.6 83.07, 94.21 84.89 C92.81 86.71, 91.29 88.45, 89.67 90.08 C88.06 91.7, 86.32 93.23, 84.51 94.63 C82.7 96.03, 80.77 97.31, 78.8 98.46 C76.82 99.61, 74.74 100.64, 72.63 101.52 C70.52 102.39, 68.33 103.14, 66.13 103.73 C63.92 104.33, 61.65 104.78, 59.39 105.08 C57.12 105.38, 54.82 105.53, 52.53 105.53 C50.24 105.53, 47.94 105.38, 45.67 105.08 C43.41 104.78, 41.14 104.33, 38.93 103.73 C36.73 103.14, 34.54 102.39, 32.43 101.52 C30.32 100.64, 28.24 99.61, 26.27 98.46 C24.29 97.31, 22.37 96.03, 20.55 94.63 C18.74 93.23, 17 91.7, 15.39 90.08 C13.77 88.45, 12.25 86.71, 10.86 84.89 C9.46 83.07, 8.18 81.14, 7.04 79.15 C5.89 77.16, 4.87 75.08, 4 72.96 C3.12 70.84, 2.38 68.64, 1.79 66.42 C1.2 64.21, 0.75 61.93, 0.45 59.65 C0.15 57.38, 0 55.06, 0 52.77 C0 50.47, 0.15 48.15, 0.45 45.88 C0.75 43.6, 1.2 41.33, 1.79 39.11 C2.38 36.89, 3.12 34.69, 4 32.57 C4.87 30.45, 5.89 28.37, 7.04 26.38 C8.18 24.39, 9.46 22.47, 10.86 20.64 C12.25 18.82, 13.77 17.08, 15.39 15.45 C17 13.83, 18.74 12.3, 20.55 10.9 C22.37 9.51, 24.29 8.22, 26.27 7.07 C28.24 5.92, 30.32 4.9, 32.43 4.02 C34.54 3.14, 36.73 2.39, 38.93 1.8 C41.14 1.2, 43.41 0.75, 45.67 0.45 C47.94 0.15, 50.24 0, 52.53 0 C54.82 0, 57.12 0.15, 59.39 0.45 C61.65 0.75, 63.92 1.2, 66.13 1.8 C68.33 2.39, 70.52 3.14, 72.63 4.02 C74.74 4.9, 76.82 5.92, 78.8 7.07 C80.77 8.22, 82.7 9.51, 84.51 10.9 C86.32 12.3, 88.06 13.83, 89.67 15.45 C91.29 17.08, 92.81 18.82, 94.21 20.64 C95.6 22.47, 96.88 24.39, 98.02 26.38 C99.17 28.37, 100.19 30.45, 101.06 32.57 C101.94 34.69, 102.68 36.89, 103.27 39.11 C103.86 41.33, 104.31 43.6, 104.61 45.88 C104.91 48.15, 104.99 51.62, 105.06 52.77 C105.14 53.91, 105.14 51.62, 105.06 52.77" stroke="none" stroke-width="0" fill="#ffffff"></path><path d="M105.06 52.77 C105.06 55.06, 104.91 57.38, 104.61 59.65 C104.31 61.93, 103.86 64.21, 103.27 66.42 C102.68 68.64, 101.94 70.84, 101.06 72.96 C100.19 75.08, 99.17 77.16, 98.02 79.15 C96.88 81.14, 95.6 83.07, 94.21 84.89 C92.81 86.71, 91.29 88.45, 89.67 90.08 C88.06 91.7, 86.32 93.23, 84.51 94.63 C82.7 96.03, 80.77 97.31, 78.8 98.46 C76.82 99.61, 74.74 100.64, 72.63 101.52 C70.52 102.39, 68.33 103.14, 66.13 103.73 C63.92 104.33, 61.65 104.78, 59.39 105.08 C57.12 105.38, 54.82 105.53, 52.53 105.53 C50.24 105.53, 47.94 105.38, 45.67 105.08 C43.41 104.78, 41.14 104.33, 38.93 103.73 C36.73 103.14, 34.54 102.39, 32.43 101.52 C30.32 100.64, 28.24 99.61, 26.27 98.46 C24.29 97.31, 22.37 96.03, 20.55 94.63 C18.74 93.23, 17 91.7, 15.39 90.08 C13.77 88.45, 12.25 86.71, 10.86 84.89 C9.46 83.07, 8.18 81.14, 7.04 79.15 C5.89 77.16, 4.87 75.08, 4 72.96 C3.12 70.84, 2.38 68.64, 1.79 66.42 C1.2 64.21, 0.75 61.93, 0.45 59.65 C0.15 57.38, 0 55.06, 0 52.77 C0 50.47, 0.15 48.15, 0.45 45.88 C0.75 43.6, 1.2 41.33, 1.79 39.11 C2.38 36.89, 3.12 34.69, 4 32.57 C4.87 30.45, 5.89 28.37, 7.04 26.38 C8.18 24.39, 9.46 22.47, 10.86 20.64 C12.25 18.82, 13.77 17.08, 15.39 15.45 C17 13.83, 18.74 12.3, 20.55 10.9 C22.37 9.51, 24.29 8.22, 26.27 7.07 C28.24 5.92, 30.32 4.9, 32.43 4.02 C34.54 3.14, 36.73 2.39, 38.93 1.8 C41.14 1.2, 43.41 0.75, 45.67 0.45 C47.94 0.15, 50.24 0, 52.53 0 C54.82 0, 57.12 0.15, 59.39 0.45 C61.65 0.75, 63.92 1.2, 66.13 1.8 C68.33 2.39, 70.52 3.14, 72.63 4.02 C74.74 4.9, 76.82 5.92, 78.8 7.07 C80.77 8.22, 82.7 9.51, 84.51 10.9 C86.32 12.3, 88.06 13.83, 89.67 15.45 C91.29 17.08, 92.81 18.82, 94.21 20.64 C95.6 22.47, 96.88 24.39, 98.02 26.38 C99.17 28.37, 100.19 30.45, 101.06 32.57 C101.94 34.69, 102.68 36.89, 103.27 39.11 C103.86 41.33, 104.31 43.6, 104.61 45.88 C104.91 48.15, 104.99 51.62, 105.06 52.77 C105.14 53.91, 105.14 51.62, 105.06 52.77" stroke="#2f9e44" stroke-width="2" fill="none"></path></g><g stroke-linecap="round" transform="translate(642.4014354728465 210.95557992403815) rotate(0 66.19288944013101 63.83725634840573)"><path d="M132.39 63.84 C132.39 66.4, 132.22 68.99, 131.9 71.53 C131.58 74.08, 131.1 76.62, 130.46 79.11 C129.83 81.6, 129.03 84.08, 128.08 86.47 C127.14 88.87, 126.04 91.23, 124.8 93.5 C123.57 95.78, 122.18 97.99, 120.67 100.1 C119.16 102.21, 117.5 104.25, 115.74 106.17 C113.98 108.09, 112.08 109.92, 110.09 111.62 C108.1 113.32, 105.98 114.92, 103.79 116.37 C101.61 117.83, 99.31 119.17, 96.95 120.36 C94.6 121.55, 92.15 122.62, 89.67 123.53 C87.18 124.44, 84.62 125.21, 82.03 125.82 C79.45 126.43, 76.81 126.9, 74.17 127.21 C71.53 127.52, 68.85 127.67, 66.19 127.67 C63.53 127.67, 60.85 127.52, 58.21 127.21 C55.57 126.9, 52.93 126.43, 50.35 125.82 C47.77 125.21, 45.21 124.44, 42.72 123.53 C40.23 122.62, 37.79 121.55, 35.43 120.36 C33.08 119.17, 30.78 117.83, 28.59 116.37 C26.4 114.92, 24.29 113.32, 22.3 111.62 C20.31 109.92, 18.41 108.09, 16.65 106.17 C14.88 104.25, 13.23 102.21, 11.72 100.1 C10.21 97.99, 8.82 95.78, 7.58 93.5 C6.35 91.23, 5.24 88.87, 4.3 86.47 C3.36 84.08, 2.56 81.6, 1.92 79.11 C1.29 76.62, 0.8 74.08, 0.48 71.53 C0.16 68.99, 0 66.4, 0 63.84 C0 61.27, 0.16 58.69, 0.48 56.14 C0.8 53.6, 1.29 51.05, 1.92 48.56 C2.56 46.07, 3.36 43.6, 4.3 41.2 C5.24 38.8, 6.35 36.44, 7.58 34.17 C8.82 31.9, 10.21 29.68, 11.72 27.57 C13.23 25.46, 14.88 23.43, 16.65 21.51 C18.41 19.59, 20.31 17.76, 22.3 16.05 C24.29 14.35, 26.4 12.76, 28.59 11.3 C30.78 9.84, 33.08 8.5, 35.43 7.31 C37.79 6.12, 40.23 5.06, 42.72 4.15 C45.21 3.24, 47.77 2.47, 50.35 1.85 C52.93 1.24, 55.57 0.77, 58.21 0.47 C60.85 0.16, 63.53 0, 66.19 0 C68.85 0, 71.53 0.16, 74.17 0.47 C76.81 0.77, 79.45 1.24, 82.03 1.85 C84.62 2.47, 87.18 3.24, 89.67 4.15 C92.15 5.06, 94.6 6.12, 96.95 7.31 C99.31 8.5, 101.61 9.84, 103.79 11.3 C105.98 12.76, 108.1 14.35, 110.09 16.05 C112.08 17.76, 113.98 19.59, 115.74 21.51 C117.5 23.43, 119.16 25.46, 120.67 27.57 C122.18 29.68, 123.57 31.9, 124.8 34.17 C126.04 36.44, 127.14 38.8, 128.08 41.2 C129.03 43.6, 129.83 46.07, 130.46 48.56 C131.1 51.05, 131.58 53.6, 131.9 56.14 C132.22 58.69, 132.39 61.27, 132.39 63.84" stroke="none" stroke-width="0" fill="#b2f2bb"></path><path d="M132.39 63.84 C132.39 66.4, 132.22 68.99, 131.9 71.53 C131.58 74.08, 131.1 76.62, 130.46 79.11 C129.83 81.6, 129.03 84.08, 128.08 86.47 C127.14 88.87, 126.04 91.23, 124.8 93.5 C123.57 95.78, 122.18 97.99, 120.67 100.1 C119.16 102.21, 117.5 104.25, 115.74 106.17 C113.98 108.09, 112.08 109.92, 110.09 111.62 C108.1 113.32, 105.98 114.92, 103.79 116.37 C101.61 117.83, 99.31 119.17, 96.95 120.36 C94.6 121.55, 92.15 122.62, 89.67 123.53 C87.18 124.44, 84.62 125.21, 82.03 125.82 C79.45 126.43, 76.81 126.9, 74.17 127.21 C71.53 127.52, 68.85 127.67, 66.19 127.67 C63.53 127.67, 60.85 127.52, 58.21 127.21 C55.57 126.9, 52.93 126.43, 50.35 125.82 C47.77 125.21, 45.21 124.44, 42.72 123.53 C40.23 122.62, 37.79 121.55, 35.43 120.36 C33.08 119.17, 30.78 117.83, 28.59 116.37 C26.4 114.92, 24.29 113.32, 22.3 111.62 C20.31 109.92, 18.41 108.09, 16.65 106.17 C14.88 104.25, 13.23 102.21, 11.72 100.1 C10.21 97.99, 8.82 95.78, 7.58 93.5 C6.35 91.23, 5.24 88.87, 4.3 86.47 C3.36 84.08, 2.56 81.6, 1.92 79.11 C1.29 76.62, 0.8 74.08, 0.48 71.53 C0.16 68.99, 0 66.4, 0 63.84 C0 61.27, 0.16 58.69, 0.48 56.14 C0.8 53.6, 1.29 51.05, 1.92 48.56 C2.56 46.07, 3.36 43.6, 4.3 41.2 C5.24 38.8, 6.35 36.44, 7.58 34.17 C8.82 31.9, 10.21 29.68, 11.72 27.57 C13.23 25.46, 14.88 23.43, 16.65 21.51 C18.41 19.59, 20.31 17.76, 22.3 16.05 C24.29 14.35, 26.4 12.76, 28.59 11.3 C30.78 9.84, 33.08 8.5, 35.43 7.31 C37.79 6.12, 40.23 5.06, 42.72 4.15 C45.21 3.24, 47.77 2.47, 50.35 1.85 C52.93 1.24, 55.57 0.77, 58.21 0.47 C60.85 0.16, 63.53 0, 66.19 0 C68.85 0, 71.53 0.16, 74.17 0.47 C76.81 0.77, 79.45 1.24, 82.03 1.85 C84.62 2.47, 87.18 3.24, 89.67 4.15 C92.15 5.06, 94.6 6.12, 96.95 7.31 C99.31 8.5, 101.61 9.84, 103.79 11.3 C105.98 12.76, 108.1 14.35, 110.09 16.05 C112.08 17.76, 113.98 19.59, 115.74 21.51 C117.5 23.43, 119.16 25.46, 120.67 27.57 C122.18 29.68, 123.57 31.9, 124.8 34.17 C126.04 36.44, 127.14 38.8, 128.08 41.2 C129.03 43.6, 129.83 46.07, 130.46 48.56 C131.1 51.05, 131.58 53.6, 131.9 56.14 C132.22 58.69, 132.39 61.27, 132.39 63.84" stroke="#2f9e44" stroke-width="2" fill="none"></path></g><g stroke-linecap="round" transform="translate(656.2111886616599 222.76310704424986) rotate(0 52.53032646302745 52.765837541241126)"><path d="M105.06 52.77 C105.06 55.06, 104.91 57.38, 104.61 59.65 C104.31 61.93, 103.86 64.21, 103.27 66.42 C102.68 68.64, 101.94 70.84, 101.06 72.96 C100.19 75.08, 99.17 77.16, 98.02 79.15 C96.88 81.14, 95.6 83.07, 94.21 84.89 C92.81 86.71, 91.29 88.45, 89.67 90.08 C88.06 91.7, 86.32 93.23, 84.51 94.63 C82.7 96.03, 80.77 97.31, 78.8 98.46 C76.82 99.61, 74.74 100.64, 72.63 101.52 C70.52 102.39, 68.33 103.14, 66.13 103.73 C63.92 104.33, 61.65 104.78, 59.39 105.08 C57.12 105.38, 54.82 105.53, 52.53 105.53 C50.24 105.53, 47.94 105.38, 45.67 105.08 C43.41 104.78, 41.14 104.33, 38.93 103.73 C36.73 103.14, 34.54 102.39, 32.43 101.52 C30.32 100.64, 28.24 99.61, 26.27 98.46 C24.29 97.31, 22.37 96.03, 20.55 94.63 C18.74 93.23, 17 91.7, 15.39 90.08 C13.77 88.45, 12.25 86.71, 10.86 84.89 C9.46 83.07, 8.18 81.14, 7.04 79.15 C5.89 77.16, 4.87 75.08, 4 72.96 C3.12 70.84, 2.38 68.64, 1.79 66.42 C1.2 64.21, 0.75 61.93, 0.45 59.65 C0.15 57.38, 0 55.06, 0 52.77 C0 50.47, 0.15 48.15, 0.45 45.88 C0.75 43.6, 1.2 41.33, 1.79 39.11 C2.38 36.89, 3.12 34.69, 4 32.57 C4.87 30.45, 5.89 28.37, 7.04 26.38 C8.18 24.39, 9.46 22.47, 10.86 20.64 C12.25 18.82, 13.77 17.08, 15.39 15.45 C17 13.83, 18.74 12.3, 20.55 10.9 C22.37 9.51, 24.29 8.22, 26.27 7.07 C28.24 5.92, 30.32 4.9, 32.43 4.02 C34.54 3.14, 36.73 2.39, 38.93 1.8 C41.14 1.2, 43.41 0.75, 45.67 0.45 C47.94 0.15, 50.24 0, 52.53 0 C54.82 0, 57.12 0.15, 59.39 0.45 C61.65 0.75, 63.92 1.2, 66.13 1.8 C68.33 2.39, 70.52 3.14, 72.63 4.02 C74.74 4.9, 76.82 5.92, 78.8 7.07 C80.77 8.22, 82.7 9.51, 84.51 10.9 C86.32 12.3, 88.06 13.83, 89.67 15.45 C91.29 17.08, 92.81 18.82, 94.21 20.64 C95.6 22.47, 96.88 24.39, 98.02 26.38 C99.17 28.37, 100.19 30.45, 101.06 32.57 C101.94 34.69, 102.68 36.89, 103.27 39.11 C103.86 41.33, 104.31 43.6, 104.61 45.88 C104.91 48.15, 104.99 51.62, 105.06 52.77 C105.14 53.91, 105.14 51.62, 105.06 52.77" stroke="none" stroke-width="0" fill="#ffffff"></path><path d="M105.06 52.77 C105.06 55.06, 104.91 57.38, 104.61 59.65 C104.31 61.93, 103.86 64.21, 103.27 66.42 C102.68 68.64, 101.94 70.84, 101.06 72.96 C100.19 75.08, 99.17 77.16, 98.02 79.15 C96.88 81.14, 95.6 83.07, 94.21 84.89 C92.81 86.71, 91.29 88.45, 89.67 90.08 C88.06 91.7, 86.32 93.23, 84.51 94.63 C82.7 96.03, 80.77 97.31, 78.8 98.46 C76.82 99.61, 74.74 100.64, 72.63 101.52 C70.52 102.39, 68.33 103.14, 66.13 103.73 C63.92 104.33, 61.65 104.78, 59.39 105.08 C57.12 105.38, 54.82 105.53, 52.53 105.53 C50.24 105.53, 47.94 105.38, 45.67 105.08 C43.41 104.78, 41.14 104.33, 38.93 103.73 C36.73 103.14, 34.54 102.39, 32.43 101.52 C30.32 100.64, 28.24 99.61, 26.27 98.46 C24.29 97.31, 22.37 96.03, 20.55 94.63 C18.74 93.23, 17 91.7, 15.39 90.08 C13.77 88.45, 12.25 86.71, 10.86 84.89 C9.46 83.07, 8.18 81.14, 7.04 79.15 C5.89 77.16, 4.87 75.08, 4 72.96 C3.12 70.84, 2.38 68.64, 1.79 66.42 C1.2 64.21, 0.75 61.93, 0.45 59.65 C0.15 57.38, 0 55.06, 0 52.77 C0 50.47, 0.15 48.15, 0.45 45.88 C0.75 43.6, 1.2 41.33, 1.79 39.11 C2.38 36.89, 3.12 34.69, 4 32.57 C4.87 30.45, 5.89 28.37, 7.04 26.38 C8.18 24.39, 9.46 22.47, 10.86 20.64 C12.25 18.82, 13.77 17.08, 15.39 15.45 C17 13.83, 18.74 12.3, 20.55 10.9 C22.37 9.51, 24.29 8.22, 26.27 7.07 C28.24 5.92, 30.32 4.9, 32.43 4.02 C34.54 3.14, 36.73 2.39, 38.93 1.8 C41.14 1.2, 43.41 0.75, 45.67 0.45 C47.94 0.15, 50.24 0, 52.53 0 C54.82 0, 57.12 0.15, 59.39 0.45 C61.65 0.75, 63.92 1.2, 66.13 1.8 C68.33 2.39, 70.52 3.14, 72.63 4.02 C74.74 4.9, 76.82 5.92, 78.8 7.07 C80.77 8.22, 82.7 9.51, 84.51 10.9 C86.32 12.3, 88.06 13.83, 89.67 15.45 C91.29 17.08, 92.81 18.82, 94.21 20.64 C95.6 22.47, 96.88 24.39, 98.02 26.38 C99.17 28.37, 100.19 30.45, 101.06 32.57 C101.94 34.69, 102.68 36.89, 103.27 39.11 C103.86 41.33, 104.31 43.6, 104.61 45.88 C104.91 48.15, 104.99 51.62, 105.06 52.77 C105.14 53.91, 105.14 51.62, 105.06 52.77" stroke="#2f9e44" stroke-width="2" fill="none"></path></g><g stroke-linecap="round" transform="translate(667.7833226445323 191.75725980537914) rotate(0 10.835801020540316 5.182366967127962)"><path d="M0 0 L21.67 0 L21.67 10.36 L0 10.36" stroke="none" stroke-width="0" fill="#a5d8ff"></path><path d="M0 0 C8.55 0, 17.1 0, 21.67 0 M0 0 C7.77 0, 15.54 0, 21.67 0 M21.67 0 C21.67 4.08, 21.67 8.16, 21.67 10.36 M21.67 0 C21.67 2.27, 21.67 4.54, 21.67 10.36 M21.67 10.36 C16.1 10.36, 10.54 10.36, 0 10.36 M21.67 10.36 C16.44 10.36, 11.21 10.36, 0 10.36 M0 10.36 C0 7.16, 0 3.95, 0 0 M0 10.36 C0 7.93, 0 5.49, 0 0" stroke="#1971c2" stroke-width="2" fill="none"></path></g><g stroke-linecap="round"><g transform="translate(689.0128034210479 188.45939706513855) rotate(0 11.606986796120054 -12.249187615054097)"><path d="M0 0 C6.96 -7.35, 13.93 -14.7, 23.21 -24.5 M0 0 C5.49 -5.79, 10.97 -11.58, 23.21 -24.5" stroke="#1971c2" stroke-width="2" fill="none"></path></g><g transform="translate(689.0128034210479 188.45939706513855) rotate(0 11.606986796120054 -12.249187615054097)"><path d="M16.5 -9.02 C18.51 -13.66, 20.53 -18.31, 23.21 -24.5 M16.5 -9.02 C18.08 -12.68, 19.67 -16.33, 23.21 -24.5" stroke="#1971c2" stroke-width="2" fill="none"></path></g><g transform="translate(689.0128034210479 188.45939706513855) rotate(0 11.606986796120054 -12.249187615054097)"><path d="M8.12 -16.96 C12.65 -19.22, 17.18 -21.48, 23.21 -24.5 M8.12 -16.96 C11.69 -18.74, 15.25 -20.52, 23.21 -24.5" stroke="#1971c2" stroke-width="2" fill="none"></path></g></g><mask></mask><g stroke-linecap="round" transform="translate(668.7843598596996 109.87009048461914) rotate(0 39.33883057220828 17.431582663342738)"><path d="M8.72 0 C30.32 0, 51.93 0, 69.96 0 M8.72 0 C22.72 0, 36.73 0, 69.96 0 M69.96 0 C75.77 0, 78.68 2.91, 78.68 8.72 M69.96 0 C75.77 0, 78.68 2.91, 78.68 8.72 M78.68 8.72 C78.68 14.53, 78.68 20.34, 78.68 26.15 M78.68 8.72 C78.68 12.87, 78.68 17.02, 78.68 26.15 M78.68 26.15 C78.68 31.96, 75.77 34.86, 69.96 34.86 M78.68 26.15 C78.68 31.96, 75.77 34.86, 69.96 34.86 M69.96 34.86 C51.7 34.86, 33.43 34.86, 8.72 34.86 M69.96 34.86 C47.95 34.86, 25.93 34.86, 8.72 34.86 M8.72 34.86 C2.91 34.86, 0 31.96, 0 26.15 M8.72 34.86 C2.91 34.86, 0 31.96, 0 26.15 M0 26.15 C0 20.75, 0 15.35, 0 8.72 M0 26.15 C0 22.18, 0 18.21, 0 8.72 M0 8.72 C0 2.91, 2.91 0, 8.72 0 M0 8.72 C0 2.91, 2.91 0, 8.72 0" stroke="#1971c2" stroke-width="1" fill="none"></path></g><g stroke-linecap="round" transform="translate(674.3789807302278 116.377495098596) rotate(0 39.33883057220828 17.431582663342738)"><path d="M8.72 0 C26.77 0, 44.82 0, 69.96 0 C75.77 0, 78.68 2.91, 78.68 8.72 C78.68 13.35, 78.68 17.98, 78.68 26.15 C78.68 31.96, 75.77 34.86, 69.96 34.86 C47.81 34.86, 25.66 34.86, 8.72 34.86 C2.91 34.86, 0 31.96, 0 26.15 C0 21.33, 0 16.5, 0 8.72 C0 2.91, 2.91 0, 8.72 0" stroke="none" stroke-width="0" fill="#ffffff"></path><path d="M8.72 0 C22.4 0, 36.09 0, 69.96 0 M8.72 0 C28.29 0, 47.87 0, 69.96 0 M69.96 0 C75.77 0, 78.68 2.91, 78.68 8.72 M69.96 0 C75.77 0, 78.68 2.91, 78.68 8.72 M78.68 8.72 C78.68 13.19, 78.68 17.67, 78.68 26.15 M78.68 8.72 C78.68 12.92, 78.68 17.13, 78.68 26.15 M78.68 26.15 C78.68 31.96, 75.77 34.86, 69.96 34.86 M78.68 26.15 C78.68 31.96, 75.77 34.86, 69.96 34.86 M69.96 34.86 C52.24 34.86, 34.51 34.86, 8.72 34.86 M69.96 34.86 C49.84 34.86, 29.72 34.86, 8.72 34.86 M8.72 34.86 C2.91 34.86, 0 31.96, 0 26.15 M8.72 34.86 C2.91 34.86, 0 31.96, 0 26.15 M0 26.15 C0 19.2, 0 12.26, 0 8.72 M0 26.15 C0 21.43, 0 16.72, 0 8.72 M0 8.72 C0 2.91, 2.91 0, 8.72 0 M0 8.72 C0 2.91, 2.91 0, 8.72 0" stroke="#1971c2" stroke-width="1" fill="none"></path></g><g stroke-linecap="round" transform="translate(681.828620608952 123.91546707628868) rotate(0 39.33883057220828 17.431582663342738)"><path d="M8.72 0 C30.17 0, 51.62 0, 69.96 0 C75.77 0, 78.68 2.91, 78.68 8.72 C78.68 12.54, 78.68 16.36, 78.68 26.15 C78.68 31.96, 75.77 34.86, 69.96 34.86 C46.07 34.86, 22.18 34.86, 8.72 34.86 C2.91 34.86, 0 31.96, 0 26.15 C0 20.78, 0 15.42, 0 8.72 C0 2.91, 2.91 0, 8.72 0" stroke="none" stroke-width="0" fill="#ffffff"></path><path d="M8.72 0 C33.09 0, 57.46 0, 69.96 0 M8.72 0 C29.17 0, 49.62 0, 69.96 0 M69.96 0 C75.77 0, 78.68 2.91, 78.68 8.72 M69.96 0 C75.77 0, 78.68 2.91, 78.68 8.72 M78.68 8.72 C78.68 12.36, 78.68 16, 78.68 26.15 M78.68 8.72 C78.68 15.23, 78.68 21.75, 78.68 26.15 M78.68 26.15 C78.68 31.96, 75.77 34.86, 69.96 34.86 M78.68 26.15 C78.68 31.96, 75.77 34.86, 69.96 34.86 M69.96 34.86 C56.03 34.86, 42.1 34.86, 8.72 34.86 M69.96 34.86 C54.92 34.86, 39.88 34.86, 8.72 34.86 M8.72 34.86 C2.91 34.86, 0 31.96, 0 26.15 M8.72 34.86 C2.91 34.86, 0 31.96, 0 26.15 M0 26.15 C0 21.22, 0 16.29, 0 8.72 M0 26.15 C0 19.96, 0 13.76, 0 8.72 M0 8.72 C0 2.91, 2.91 0, 8.72 0 M0 8.72 C0 2.91, 2.91 0, 8.72 0" stroke="#1971c2" stroke-width="1" fill="none"></path></g><g transform="translate(691.7274792573321 132.88154579291245) rotate(0 29.439971923828125 8.465503946718968)"><text x="29.439971923828125" y="13.545093865835476" font-family="Helvetica, Segoe UI Emoji" font-size="14.72261555951123px" fill="#1971c2" text-anchor="middle" style="white-space: pre;" direction="ltr" dominant-baseline="alphabetic">共享内存</text></g><g transform="translate(668.9829092845207 264.8764651066874) rotate(0 42.626953125 11.5)"><text x="0" y="18.400390625" font-family="Helvetica, Segoe UI Emoji" font-size="20px" fill="#2f9e44" text-anchor="start" style="white-space: pre;" direction="ltr" dominant-baseline="alphabetic">Virtqueue</text></g><g stroke-linecap="round" transform="translate(163.35977554321266 42.44657897949219) rotate(0 205.11996459960938 181.44001007080078)"><path d="M0 0 L410.24 0 L410.24 362.88 L0 362.88" stroke="none" stroke-width="0" fill="#ebfbee"></path><path d="M0 0 C129.96 0, 259.92 0, 410.24 0 M0 0 C102.29 0, 204.59 0, 410.24 0 M410.24 0 C410.24 123.74, 410.24 247.47, 410.24 362.88 M410.24 0 C410.24 127.1, 410.24 254.19, 410.24 362.88 M410.24 362.88 C314.59 362.88, 218.94 362.88, 0 362.88 M410.24 362.88 C284.19 362.88, 158.15 362.88, 0 362.88 M0 362.88 C0 273.83, 0 184.77, 0 0 M0 362.88 C0 258.36, 0 153.85, 0 0" stroke="#1e1e1e" stroke-width="2" fill="none"></path></g><g stroke-linecap="round" transform="translate(163.30655288696266 457.8333740234375) rotate(0 433.53338623046875 84.33334350585938)"><path d="M0 0 L867.07 0 L867.07 168.67 L0 168.67" stroke="none" stroke-width="0" fill="#ebfbee"></path><path d="M0 0 C177.61 0, 355.22 0, 867.07 0 M0 0 C192.97 0, 385.94 0, 867.07 0 M867.07 0 C867.07 66.86, 867.07 133.72, 867.07 168.67 M867.07 0 C867.07 60.07, 867.07 120.14, 867.07 168.67 M867.07 168.67 C579.8 168.67, 292.53 168.67, 0 168.67 M867.07 168.67 C618.48 168.67, 369.89 168.67, 0 168.67 M0 168.67 C0 131.59, 0 94.51, 0 0 M0 168.67 C0 102.48, 0 36.29, 0 0" stroke="#1e1e1e" stroke-width="2" fill="none"></path></g><g transform="translate(331.3999977111814 10.393280029296875) rotate(0 47.8076171875 11.5)"><text x="0" y="18.400390625" font-family="Helvetica, Segoe UI Emoji" font-size="20px" fill="#1e1e1e" text-anchor="start" style="white-space: pre;" direction="ltr" dominant-baseline="alphabetic">Root Linux</text></g><g stroke-linecap="round"><g transform="translate(164.63992691040016 311.2731628417969) rotate(0 204.47994995117188 -0.6399688720703125)"><path d="M0 0 C90.7 -0.28, 181.39 -0.57, 408.96 -1.28" stroke="#1e1e1e" stroke-width="2.5" fill="none" stroke-dasharray="8 10"></path></g></g><mask></mask><g transform="translate(89.76004409790016 278.6732482910156) rotate(0 30 11.5)"><text x="0" y="18.400390625" font-family="Helvetica, Segoe UI Emoji" font-size="20px" fill="#1e1e1e" text-anchor="start" style="white-space: pre;" direction="ltr" dominant-baseline="alphabetic">用户态</text></g><g transform="translate(88.63998794555641 327.3132629394531) rotate(0 30 11.5)"><text x="0" y="18.400390625" font-family="Helvetica, Segoe UI Emoji" font-size="20px" fill="#1e1e1e" text-anchor="start" style="white-space: pre;" direction="ltr" dominant-baseline="alphabetic">内核态</text></g><g transform="translate(310.5599098205564 53.99330139160156) rotate(0 62.6025390625 11.5)"><text x="0" y="18.400390625" font-family="Helvetica, Segoe UI Emoji" font-size="20px" fill="#1e1e1e" text-anchor="start" style="white-space: pre;" direction="ltr" dominant-baseline="alphabetic">Virtio守护进程</text></g><g stroke-linecap="round" transform="translate(237.5999488830564 217.806640625) rotate(0 133.43994140625 27.520004272460938)"><path d="M0 0 L266.88 0 L266.88 55.04 L0 55.04" stroke="none" stroke-width="0" fill="#ffc9c9"></path><path d="M0 0 C91 0, 182 0, 266.88 0 M0 0 C93.47 0, 186.94 0, 266.88 0 M266.88 0 C266.88 12.83, 266.88 25.67, 266.88 55.04 M266.88 0 C266.88 16.91, 266.88 33.82, 266.88 55.04 M266.88 55.04 C201.39 55.04, 135.89 55.04, 0 55.04 M266.88 55.04 C190.01 55.04, 113.15 55.04, 0 55.04 M0 55.04 C0 42.67, 0 30.3, 0 0 M0 55.04 C0 41.47, 0 27.9, 0 0" stroke="#1e1e1e" stroke-width="1" fill="none"></path></g><g transform="translate(341.0398902893064 233.82664489746094) rotate(0 30 11.5)"><text x="30" y="18.400390625" font-family="Helvetica, Segoe UI Emoji" font-size="20px" fill="#1e1e1e" text-anchor="middle" style="white-space: pre;" direction="ltr" dominant-baseline="alphabetic">分发器</text></g><g stroke-linecap="round" transform="translate(238.15994644165016 102.02005004882812) rotate(0 52.160003662109375 40.31999206542969)"><path d="M0 0 L104.32 0 L104.32 80.64 L0 80.64" stroke="none" stroke-width="0" fill="#ffc9c9"></path><path d="M0 0 C39.66 0, 79.32 0, 104.32 0 M0 0 C23.13 0, 46.27 0, 104.32 0 M104.32 0 C104.32 30.93, 104.32 61.85, 104.32 80.64 M104.32 0 C104.32 23.53, 104.32 47.05, 104.32 80.64 M104.32 80.64 C75.61 80.64, 46.9 80.64, 0 80.64 M104.32 80.64 C76.32 80.64, 48.32 80.64, 0 80.64 M0 80.64 C0 57.96, 0 35.29, 0 0 M0 80.64 C0 59.33, 0 38.02, 0 0" stroke="#1e1e1e" stroke-width="1" fill="none"></path></g><g transform="translate(251.60412979125954 119.34004211425781) rotate(0 38.7158203125 23)"><text x="38.7158203125" y="18.400390625" font-family="Helvetica, Segoe UI Emoji" font-size="20px" fill="#1e1e1e" text-anchor="middle" style="white-space: pre;" direction="ltr" dominant-baseline="alphabetic">Virtio-blk</text><text x="38.7158203125" y="41.400390625" font-family="Helvetica, Segoe UI Emoji" font-size="20px" fill="#1e1e1e" text-anchor="middle" style="white-space: pre;" direction="ltr" dominant-baseline="alphabetic">设备</text></g><g stroke-linecap="round" transform="translate(398.4798011779783 103.55314636230469) rotate(0 52.160003662109375 40.31999206542969)"><path d="M0 0 L104.32 0 L104.32 80.64 L0 80.64" stroke="none" stroke-width="0" fill="#ffc9c9"></path><path d="M0 0 C23.81 0, 47.63 0, 104.32 0 M0 0 C30.8 0, 61.6 0, 104.32 0 M104.32 0 C104.32 31.53, 104.32 63.06, 104.32 80.64 M104.32 0 C104.32 21.89, 104.32 43.78, 104.32 80.64 M104.32 80.64 C76.67 80.64, 49.02 80.64, 0 80.64 M104.32 80.64 C72.25 80.64, 40.17 80.64, 0 80.64 M0 80.64 C0 64.09, 0 47.54, 0 0 M0 80.64 C0 54.47, 0 28.31, 0 0" stroke="#1e1e1e" stroke-width="1" fill="none"></path></g><g transform="translate(410.80582046508766 120.87313842773438) rotate(0 39.833984375 23)"><text x="39.833984375" y="18.400390625" font-family="Helvetica, Segoe UI Emoji" font-size="20px" fill="#1e1e1e" text-anchor="middle" style="white-space: pre;" direction="ltr" dominant-baseline="alphabetic">Virtio-net</text><text x="39.833984375" y="41.400390625" font-family="Helvetica, Segoe UI Emoji" font-size="20px" fill="#1e1e1e" text-anchor="middle" style="white-space: pre;" direction="ltr" dominant-baseline="alphabetic">设备</text></g><g transform="translate(94.91983413696266 485.15325927734375) rotate(0 28.3349609375 11.5)"><text x="0" y="18.400390625" font-family="Helvetica, Segoe UI Emoji" font-size="20px" fill="#1e1e1e" text-anchor="start" style="white-space: pre;" direction="ltr" dominant-baseline="alphabetic">Hvisor</text></g><g stroke-linecap="round" transform="translate(815.9598731994629 41.53997039794922) rotate(0 105.92001342773438 177.60003662109375)"><path d="M0 0 C49.39 0, 98.79 0, 211.84 0 M0 0 C65.09 0, 130.18 0, 211.84 0 M211.84 0 C211.84 87.17, 211.84 174.34, 211.84 355.2 M211.84 0 C211.84 102.3, 211.84 204.61, 211.84 355.2 M211.84 355.2 C164.23 355.2, 116.62 355.2, 0 355.2 M211.84 355.2 C159.62 355.2, 107.4 355.2, 0 355.2 M0 355.2 C0 230.68, 0 106.16, 0 0 M0 355.2 C0 218.26, 0 81.32, 0 0" stroke="#1e1e1e" stroke-width="2" fill="none"></path></g><g transform="translate(879.5650978088379 10) rotate(0 50 11.5)"><text x="0" y="18.400390625" font-family="Helvetica, Segoe UI Emoji" font-size="20px" fill="#1e1e1e" text-anchor="start" style="white-space: pre;" direction="ltr" dominant-baseline="alphabetic">其他虚拟机</text></g><g stroke-linecap="round"><g transform="translate(817.2798805236816 206.17999267578125) rotate(0 106.88003540039062 0)"><path d="M0 0 C81.98 0, 163.96 0, 213.76 0" stroke="#1e1e1e" stroke-width="2.5" fill="none" stroke-dasharray="8 10"></path></g></g><mask></mask><g stroke-linecap="round" transform="translate(862.7198829650879 87.77996826171875) rotate(0 64 42.240020751953125)"><path d="M0 0 C34.96 0, 69.93 0, 128 0 M0 0 C35.48 0, 70.95 0, 128 0 M128 0 C128 21.91, 128 43.83, 128 84.48 M128 0 C128 31.68, 128 63.35, 128 84.48 M128 84.48 C82.69 84.48, 37.38 84.48, 0 84.48 M128 84.48 C100.6 84.48, 73.2 84.48, 0 84.48 M0 84.48 C0 50.81, 0 17.15, 0 0 M0 84.48 C0 64.08, 0 43.68, 0 0" stroke="#1e1e1e" stroke-width="1" fill="none"></path></g><g transform="translate(886.7198829650879 118.51998901367188) rotate(0 40 11.5)"><text x="40" y="18.400390625" font-family="Helvetica, Segoe UI Emoji" font-size="20px" fill="#1e1e1e" text-anchor="middle" style="white-space: pre;" direction="ltr" dominant-baseline="alphabetic">用户进程</text></g><g stroke-linecap="round" transform="translate(863.6799659729004 259.2199401855469) rotate(0 64 42.240020751953125)"><path d="M0 0 C50.91 0, 101.82 0, 128 0 M0 0 C27.45 0, 54.9 0, 128 0 M128 0 C128 33.15, 128 66.29, 128 84.48 M128 0 C128 19.86, 128 39.72, 128 84.48 M128 84.48 C84.85 84.48, 41.71 84.48, 0 84.48 M128 84.48 C98.37 84.48, 68.75 84.48, 0 84.48 M0 84.48 C0 67.39, 0 50.29, 0 0 M0 84.48 C0 62.59, 0 40.7, 0 0" stroke="#1e1e1e" stroke-width="1" fill="none"></path></g><g transform="translate(875.6340675354004 289.9599609375) rotate(0 52.0458984375 11.5)"><text x="52.0458984375" y="18.400390625" font-family="Helvetica, Segoe UI Emoji" font-size="20px" fill="#1e1e1e" text-anchor="middle" style="white-space: pre;" direction="ltr" dominant-baseline="alphabetic">Virtio Driver</text></g><g transform="translate(1049.6799278259277 163.47998046875) rotate(0 30 11.5)"><text x="0" y="18.400390625" font-family="Helvetica, Segoe UI Emoji" font-size="20px" fill="#1e1e1e" text-anchor="start" style="white-space: pre;" direction="ltr" dominant-baseline="alphabetic">用户态</text></g><g transform="translate(1051.3598899841309 220.04000854492188) rotate(0 30 11.5)"><text x="0" y="18.400390625" font-family="Helvetica, Segoe UI Emoji" font-size="20px" fill="#1e1e1e" text-anchor="start" style="white-space: pre;" direction="ltr" dominant-baseline="alphabetic">内核态</text></g><g mask="url(#mask-hGiprjlMAGWKPGY8a8Bdl)" stroke-linecap="round"><g transform="translate(893.7497762083015 356.57989501953125) rotate(0 0.6046154367539884 54.03180589790452)"><path d="M0 0 C0.33 29.74, 0.67 59.48, 1.21 108.06" stroke="#1e1e1e" stroke-width="1.5" fill="none" stroke-dasharray="8 9"></path></g><g transform="translate(893.7497762083015 356.57989501953125) rotate(0 0.6046154367539884 54.03180589790452)"><path d="M1.21 108.06 L-5.28 94.54 L7.4 94.4 L1.21 108.06" stroke="none" stroke-width="0" fill="#1e1e1e" fill-rule="evenodd"></path><path d="M1.21 108.06 C-0.58 104.34, -2.36 100.62, -5.28 94.54 M-5.28 94.54 C-1.88 94.5, 1.52 94.46, 7.4 94.4 M7.4 94.4 C5.66 98.24, 3.92 102.08, 1.21 108.06 M1.21 108.06 C1.21 108.06, 1.21 108.06, 1.21 108.06" stroke="#1e1e1e" stroke-width="1.5" fill="none"></path></g></g><mask id="mask-hGiprjlMAGWKPGY8a8Bdl"><rect x="0" y="0" fill="#fff" width="994.9590070818094" height="564.6435068153403"></rect><rect x="831.2293916450551" y="401.4117009174356" fill="#000" width="126.25" height="18.4" opacity="1"></rect></mask><g transform="translate(831.2293916450553 401.4117009174357) rotate(0 63.125000000000114 9.200000000000045)"><text x="63.125" y="14.720312499999999" font-family="Helvetica, Segoe UI Emoji" font-size="16px" fill="#1e1e1e" text-anchor="middle" style="white-space: pre;" direction="ltr" dominant-baseline="alphabetic">1. 陷入Hypervisor</text></g><g stroke-linecap="round" transform="translate(451.7730445861814 481.16680908203125) rotate(0 92.306640625 28.359954833984375)"><path d="M0 0 L184.61 0 L184.61 56.72 L0 56.72" stroke="none" stroke-width="0" fill="#96f2d7"></path><path d="M0 0 C47.89 0, 95.77 0, 184.61 0 M0 0 C69.22 0, 138.44 0, 184.61 0 M184.61 0 C184.61 20.08, 184.61 40.16, 184.61 56.72 M184.61 0 C184.61 12.14, 184.61 24.29, 184.61 56.72 M184.61 56.72 C111.04 56.72, 37.48 56.72, 0 56.72 M184.61 56.72 C140.04 56.72, 95.46 56.72, 0 56.72 M0 56.72 C0 34.49, 0 12.26, 0 0 M0 56.72 C0 38.12, 0 19.53, 0 0" stroke="#1e1e1e" stroke-width="1" fill="none"></path></g><g transform="translate(484.0796852111814 498.0267639160156) rotate(0 60 11.5)"><text x="60" y="18.400390625" font-family="Helvetica, Segoe UI Emoji" font-size="20px" fill="#1e1e1e" text-anchor="middle" style="white-space: pre;" direction="ltr" dominant-baseline="alphabetic">请求提交队列</text></g><g stroke-linecap="round" transform="translate(452.64004898071266 556.7667236328125) rotate(0 91.94659423828125 28.693328857421875)"><path d="M0 0 L183.89 0 L183.89 57.39 L0 57.39" stroke="none" stroke-width="0" fill="#96f2d7"></path><path d="M0 0 C72.15 0, 144.31 0, 183.89 0 M0 0 C43.23 0, 86.46 0, 183.89 0 M183.89 0 C183.89 19.34, 183.89 38.69, 183.89 57.39 M183.89 0 C183.89 13.28, 183.89 26.56, 183.89 57.39 M183.89 57.39 C146.68 57.39, 109.48 57.39, 0 57.39 M183.89 57.39 C136.24 57.39, 88.6 57.39, 0 57.39 M0 57.39 C0 43.56, 0 29.72, 0 0 M0 57.39 C0 41.75, 0 26.12, 0 0" stroke="#1e1e1e" stroke-width="1" fill="none"></path></g><g transform="translate(474.5866432189939 573.9600524902344) rotate(0 70 11.5)"><text x="70" y="18.400390625" font-family="Helvetica, Segoe UI Emoji" font-size="20px" fill="#1e1e1e" text-anchor="middle" style="white-space: pre;" direction="ltr" dominant-baseline="alphabetic">数据面结果队列</text></g><g stroke-linecap="round"><g transform="translate(356.06195446425636 210.78004455566406) rotate(0 -18.48786354661661 -11.000015258789062)"><path d="M0 0 C-8.49 -5.05, -16.99 -10.11, -36.98 -22 M0 0 C-10.18 -6.06, -20.36 -12.11, -36.98 -22" stroke="#1e1e1e" stroke-width="2" fill="none"></path></g><g transform="translate(356.06195446425636 210.78004455566406) rotate(0 -18.48786354661661 -11.000015258789062)"><path d="M-15.84 -17.99 C-20.7 -18.91, -25.55 -19.83, -36.98 -22 M-15.84 -17.99 C-21.66 -19.09, -27.48 -20.2, -36.98 -22" stroke="#1e1e1e" stroke-width="2" fill="none"></path></g><g transform="translate(356.06195446425636 210.78004455566406) rotate(0 -18.48786354661661 -11.000015258789062)"><path d="M-23.37 -5.34 C-26.49 -9.17, -29.62 -12.99, -36.98 -22 M-23.37 -5.34 C-27.11 -9.93, -30.86 -14.51, -36.98 -22" stroke="#1e1e1e" stroke-width="2" fill="none"></path></g></g><mask></mask><g stroke-linecap="round"><g transform="translate(390.949043241234 211.44667053222656) rotate(0 20.275447654863456 -10.45589864817157)"><path d="M0 0 C11.4 -5.88, 22.81 -11.76, 40.55 -20.91 M0 0 C10.72 -5.53, 21.43 -11.05, 40.55 -20.91" stroke="#1e1e1e" stroke-width="2" fill="none"></path></g><g transform="translate(390.949043241234 211.44667053222656) rotate(0 20.275447654863456 -10.45589864817157)"><path d="M25.07 -4.15 C29.43 -8.86, 33.78 -13.58, 40.55 -20.91 M25.07 -4.15 C29.16 -8.58, 33.25 -13.01, 40.55 -20.91" stroke="#1e1e1e" stroke-width="2" fill="none"></path></g><g transform="translate(390.949043241234 211.44667053222656) rotate(0 20.275447654863456 -10.45589864817157)"><path d="M17.92 -18.02 C24.29 -18.83, 30.65 -19.65, 40.55 -20.91 M17.92 -18.02 C23.9 -18.78, 29.88 -19.55, 40.55 -20.91" stroke="#1e1e1e" stroke-width="2" fill="none"></path></g></g><mask></mask><g stroke-linecap="round" transform="translate(852.333251953125 469.2501220703125) rotate(0 46.33331298828125 23.5)"><path d="M11.75 0 C25.95 0, 40.14 0, 80.92 0 M11.75 0 C34.19 0, 56.64 0, 80.92 0 M80.92 0 C88.75 0, 92.67 3.92, 92.67 11.75 M80.92 0 C88.75 0, 92.67 3.92, 92.67 11.75 M92.67 11.75 C92.67 18.72, 92.67 25.68, 92.67 35.25 M92.67 11.75 C92.67 18.21, 92.67 24.67, 92.67 35.25 M92.67 35.25 C92.67 43.08, 88.75 47, 80.92 47 M92.67 35.25 C92.67 43.08, 88.75 47, 80.92 47 M80.92 47 C58.38 47, 35.83 47, 11.75 47 M80.92 47 C54.14 47, 27.37 47, 11.75 47 M11.75 47 C3.92 47, 0 43.08, 0 35.25 M11.75 47 C3.92 47, 0 43.08, 0 35.25 M0 35.25 C0 29.33, 0 23.42, 0 11.75 M0 35.25 C0 29.63, 0 24.01, 0 11.75 M0 11.75 C0 3.92, 3.92 0, 11.75 0 M0 11.75 C0 3.92, 3.92 0, 11.75 0" stroke="#1e1e1e" stroke-width="1" fill="none"></path></g><g transform="translate(866.6665649414062 474.3501220703125) rotate(0 32 18.399999999999977)"><text x="32" y="14.720312499999999" font-family="Helvetica, Segoe UI Emoji" font-size="16px" fill="#1e1e1e" text-anchor="middle" style="white-space: pre;" direction="ltr" dominant-baseline="alphabetic">MMIO</text><text x="32" y="33.1203125" font-family="Helvetica, Segoe UI Emoji" font-size="16px" fill="#1e1e1e" text-anchor="middle" style="white-space: pre;" direction="ltr" dominant-baseline="alphabetic">陷入信息</text></g><g stroke-linecap="round"><g transform="translate(846.3333740234375 492.03965071915786) rotate(0 -101.66668701171875 0.4671045056042544)"><path d="M0 0 C-33.89 0.16, -169.44 0.78, -203.33 0.93" stroke="#1e1e1e" stroke-width="1.5" fill="none" stroke-dasharray="8 9"></path></g><g transform="translate(846.3333740234375 492.03965071915786) rotate(0 -101.66668701171875 0.4671045056042544)"><path d="M-203.33 0.93 L-189.77 -5.47 L-189.71 7.21 L-203.33 0.93" stroke="none" stroke-width="0" fill="#1e1e1e" fill-rule="evenodd"></path><path d="M-203.33 0.93 C-198.46 -1.36, -193.59 -3.66, -189.77 -5.47 M-189.77 -5.47 C-189.75 -2.36, -189.74 0.74, -189.71 7.21 M-189.71 7.21 C-193.4 5.51, -197.08 3.82, -203.33 0.93 M-203.33 0.93 C-203.33 0.93, -203.33 0.93, -203.33 0.93" stroke="#1e1e1e" stroke-width="1.5" fill="none"></path></g></g><mask></mask><g stroke-linecap="round"><g transform="translate(468.21935273954523 473.91668701171875) rotate(0 -1.3937980478099234 -99.9999389648438)"><path d="M0 0 C-0.46 -33.33, -2.32 -166.67, -2.79 -200" stroke="#1e1e1e" stroke-width="1.5" fill="none" stroke-dasharray="8 9"></path></g><g transform="translate(468.21935273954523 473.91668701171875) rotate(0 -1.3937980478099234 -99.9999389648438)"><path d="M6.09 -176.63 C2.98 -184.82, -0.13 -193.02, -2.79 -200" stroke="#1e1e1e" stroke-width="1.5" fill="none"></path></g><g transform="translate(468.21935273954523 473.91668701171875) rotate(0 -1.3937980478099234 -99.9999389648438)"><path d="M-11.01 -176.39 C-8.13 -184.67, -5.24 -192.94, -2.79 -200" stroke="#1e1e1e" stroke-width="1.5" fill="none"></path></g></g><mask></mask><g transform="translate(710.8802490234373 468.0500610351562) rotate(0 40.89453125 9.199999999999989)"><text x="0" y="14.720312499999999" font-family="Helvetica, Segoe UI Emoji" font-size="16px" fill="#1e1e1e" text-anchor="start" style="white-space: pre;" direction="ltr" dominant-baseline="alphabetic">2. 加入请求</text></g><g transform="translate(479.7722167968748 287.7166870117187) rotate(0 40.89453125 9.199999999999989)"><text x="0" y="14.720312499999999" font-family="Helvetica, Segoe UI Emoji" font-size="16px" fill="#1e1e1e" text-anchor="start" style="white-space: pre;" direction="ltr" dominant-baseline="alphabetic">3. 取出请求</text></g><g stroke-linecap="round"><g transform="translate(370.9999999999998 281.90008137871837) rotate(0 36 152.99996948242188)"><path d="M0 0 C0 82.78, 0 165.56, 0 306 M0 306 C26.49 305.86, 52.97 305.72, 72 305.62" stroke="#1e1e1e" stroke-width="1.5" fill="none" stroke-dasharray="8 9"></path></g><g transform="translate(370.9999999999998 281.90008137871837) rotate(0 36 152.99996948242188)"><path d="M48.55 314.29 C54.9 311.95, 61.24 309.6, 72 305.62" stroke="#1e1e1e" stroke-width="1.5" fill="none"></path></g><g transform="translate(370.9999999999998 281.90008137871837) rotate(0 36 152.99996948242188)"><path d="M48.46 297.19 C54.83 299.47, 61.2 301.75, 72 305.62" stroke="#1e1e1e" stroke-width="1.5" fill="none"></path></g></g><mask></mask><g transform="translate(281.1054687499998 598.0332722966871) rotate(0 80.89453125 9.200000000000045)"><text x="0" y="14.720312499999999" font-family="Helvetica, Segoe UI Emoji" font-size="16px" fill="#1e1e1e" text-anchor="start" style="white-space: pre;" direction="ltr" dominant-baseline="alphabetic">6. 加入注入中断的信息</text></g><g stroke-linecap="round"><g transform="translate(645.0001220703123 527.7269755251909) rotate(0 168.66668701171875 -87.4936116757695)"><path d="M0 0 C99.99 0.05, 199.99 0.1, 337.33 0.17 M337.33 0.17 C336.78 -48.02, 336.23 -96.21, 335.33 -175.16" stroke="#1e1e1e" stroke-width="1.5" fill="none" stroke-dasharray="8 9"></path></g><g transform="translate(645.0001220703123 527.7269755251909) rotate(0 168.66668701171875 -87.4936116757695)"><path d="M335.33 -175.16 L341.83 -161.64 L329.15 -161.49 L335.33 -175.16" stroke="none" stroke-width="0" fill="#1e1e1e" fill-rule="evenodd"></path><path d="M335.33 -175.16 C337.26 -171.15, 339.18 -167.14, 341.83 -161.64 M341.83 -161.64 C338.34 -161.6, 334.86 -161.56, 329.15 -161.49 M329.15 -161.49 C331.09 -165.78, 333.02 -170.06, 335.33 -175.16 M335.33 -175.16 C335.33 -175.16, 335.33 -175.16, 335.33 -175.16" stroke="#1e1e1e" stroke-width="1.5" fill="none"></path></g></g><mask></mask><g transform="translate(993.10546875 420.7000813787183) rotate(0 48.89453125 9.199999999999989)"><text x="0" y="14.720312499999999" font-family="Helvetica, Segoe UI Emoji" font-size="16px" fill="#1e1e1e" text-anchor="start" style="white-space: pre;" direction="ltr" dominant-baseline="alphabetic">3. 返回虚拟机</text></g><g stroke-linecap="round"><g transform="translate(777.3334350585935 276.9167785644531) rotate(0 38.33331298828125 9.666656494140625)"><path d="M0 0 C12.78 3.22, 63.89 16.11, 76.67 19.33" stroke="#2f9e44" stroke-width="1.5" fill="none" stroke-dasharray="8 9"></path></g><g transform="translate(777.3334350585935 276.9167785644531) rotate(0 38.33331298828125 9.666656494140625)"><path d="M0 0 L14.73 -2.82 L11.63 9.47 L0 0" stroke="none" stroke-width="0" fill="#2f9e44" fill-rule="evenodd"></path><path d="M0 0 C3.66 -0.7, 7.32 -1.4, 14.73 -2.82 M14.73 -2.82 C13.53 1.95, 12.32 6.72, 11.63 9.47 M11.63 9.47 C7.73 6.29, 3.82 3.11, 0 0 M0 0 C0 0, 0 0, 0 0" stroke="#2f9e44" stroke-width="1.5" fill="none"></path></g><g transform="translate(777.3334350585935 276.9167785644531) rotate(0 38.33331298828125 9.666656494140625)"><path d="M76.67 19.33 L61.93 22.16 L65.03 9.86 L76.67 19.33" stroke="none" stroke-width="0" fill="#2f9e44" fill-rule="evenodd"></path><path d="M76.67 19.33 C73.01 20.03, 69.35 20.74, 61.93 22.16 M61.93 22.16 C63.14 17.38, 64.34 12.61, 65.03 9.86 M65.03 9.86 C68.94 13.04, 72.85 16.22, 76.67 19.33 M76.67 19.33 C76.67 19.33, 76.67 19.33, 76.67 19.33" stroke="#2f9e44" stroke-width="1.5" fill="none"></path></g></g><mask></mask><g stroke-linecap="round"><g transform="translate(771.0001220703123 305.25006103515625) rotate(0 44.33331298828125 12)"><path d="M0 0 C14.78 4, 73.89 20, 88.67 24" stroke="#2f9e44" stroke-width="1.5" fill="none" stroke-dasharray="8 9"></path></g><g transform="translate(771.0001220703123 305.25006103515625) rotate(0 44.33331298828125 12)"><path d="M0 0 L14.78 -2.57 L11.47 9.67 L0 0" stroke="none" stroke-width="0" fill="#2f9e44" fill-rule="evenodd"></path><path d="M0 0 C3.36 -0.58, 6.71 -1.17, 14.78 -2.57 M14.78 -2.57 C13.8 1.05, 12.82 4.66, 11.47 9.67 M11.47 9.67 C7.33 6.18, 3.2 2.7, 0 0 M0 0 C0 0, 0 0, 0 0" stroke="#2f9e44" stroke-width="1.5" fill="none"></path></g><g transform="translate(771.0001220703123 305.25006103515625) rotate(0 44.33331298828125 12)"><path d="M88.67 24 L73.89 26.57 L77.2 14.33 L88.67 24" stroke="none" stroke-width="0" fill="#2f9e44" fill-rule="evenodd"></path><path d="M88.67 24 C85.31 24.58, 81.95 25.17, 73.89 26.57 M73.89 26.57 C74.87 22.95, 75.84 19.34, 77.2 14.33 M77.2 14.33 C81.33 17.82, 85.47 21.3, 88.67 24 M88.67 24 C88.67 24, 88.67 24, 88.67 24" stroke="#2f9e44" stroke-width="1.5" fill="none"></path></g></g><mask></mask><g stroke-linecap="round"><g transform="translate(506.6667480468748 149.58340454101562) rotate(0 69.333251953125 18.33331298828125)"><path d="M0 0 C23.11 6.11, 115.56 30.56, 138.67 36.67" stroke="#2f9e44" stroke-width="1.5" fill="none" stroke-dasharray="8 9"></path></g><g transform="translate(506.6667480468748 149.58340454101562) rotate(0 69.333251953125 18.33331298828125)"><path d="M0 0 L14.76 -2.65 L11.52 9.6 L0 0" stroke="none" stroke-width="0" fill="#2f9e44" fill-rule="evenodd"></path><path d="M0 0 C5.74 -1.03, 11.48 -2.06, 14.76 -2.65 M14.76 -2.65 C13.69 1.39, 12.62 5.44, 11.52 9.6 M11.52 9.6 C7.51 6.26, 3.5 2.92, 0 0 M0 0 C0 0, 0 0, 0 0" stroke="#2f9e44" stroke-width="1.5" fill="none"></path></g><g transform="translate(506.6667480468748 149.58340454101562) rotate(0 69.333251953125 18.33331298828125)"><path d="M138.67 36.67 L123.9 39.32 L127.14 27.06 L138.67 36.67" stroke="none" stroke-width="0" fill="#2f9e44" fill-rule="evenodd"></path><path d="M138.67 36.67 C132.93 37.7, 127.19 38.73, 123.9 39.32 M123.9 39.32 C124.97 35.27, 126.04 31.23, 127.14 27.06 M127.14 27.06 C131.15 30.4, 135.16 33.75, 138.67 36.67 M138.67 36.67 C138.67 36.67, 138.67 36.67, 138.67 36.67" stroke="#2f9e44" stroke-width="1.5" fill="none"></path></g></g><mask></mask><g stroke-linecap="round"><g transform="translate(353.333557128906 171.91677856445312) rotate(0 130.33322143554688 29.33331298828125)"><path d="M0 0 C43.44 9.78, 217.22 48.89, 260.67 58.67" stroke="#2f9e44" stroke-width="1.5" fill="none" stroke-dasharray="8 9"></path></g><g transform="translate(353.333557128906 171.91677856445312) rotate(0 130.33322143554688 29.33331298828125)"><path d="M0 0 L14.65 -3.2 L11.87 9.17 L0 0" stroke="none" stroke-width="0" fill="#2f9e44" fill-rule="evenodd"></path><path d="M0 0 C4.13 -0.9, 8.25 -1.8, 14.65 -3.2 M14.65 -3.2 C13.58 1.58, 12.5 6.36, 11.87 9.17 M11.87 9.17 C8.2 6.33, 4.52 3.49, 0 0 M0 0 C0 0, 0 0, 0 0" stroke="#2f9e44" stroke-width="1.5" fill="none"></path></g><g transform="translate(353.333557128906 171.91677856445312) rotate(0 130.33322143554688 29.33331298828125)"><path d="M260.67 58.67 L246.01 61.87 L248.8 49.5 L260.67 58.67" stroke="none" stroke-width="0" fill="#2f9e44" fill-rule="evenodd"></path><path d="M260.67 58.67 C256.54 59.57, 252.41 60.47, 246.01 61.87 M246.01 61.87 C247.09 57.09, 248.16 52.31, 248.8 49.5 M248.8 49.5 C252.47 52.33, 256.14 55.17, 260.67 58.67 M260.67 58.67 C260.67 58.67, 260.67 58.67, 260.67 58.67" stroke="#2f9e44" stroke-width="1.5" fill="none"></path></g></g><mask></mask><g transform="translate(425.438781738281 197.05015258789058) rotate(0 40.89453125 9.199999999999989)"><text x="0" y="14.720312499999999" font-family="Helvetica, Segoe UI Emoji" font-size="16px" fill="#1e1e1e" text-anchor="start" style="white-space: pre;" direction="ltr" dominant-baseline="alphabetic">4. 解析请求</text></g><g stroke-linecap="round" transform="translate(10 118.25006103515625) rotate(0 56.666656494140625 30)"><path d="M0 0 L113.33 0 L113.33 60 L0 60" stroke="none" stroke-width="0" fill="#a5d8ff"></path><path d="M0 0 C37.16 0, 74.31 0, 113.33 0 M0 0 C42.32 0, 84.64 0, 113.33 0 M113.33 0 C113.33 15.17, 113.33 30.34, 113.33 60 M113.33 0 C113.33 20.72, 113.33 41.44, 113.33 60 M113.33 60 C78.14 60, 42.96 60, 0 60 M113.33 60 C81.89 60, 50.45 60, 0 60 M0 60 C0 44.56, 0 29.12, 0 0 M0 60 C0 46.97, 0 33.95, 0 0" stroke="#1e1e1e" stroke-width="1" fill="none"></path></g><g transform="translate(23.888336181640625 125.25006103515625) rotate(0 42.7783203125 23)"><text x="42.7783203125" y="18.400390625" font-family="Helvetica, Segoe UI Emoji" font-size="20px" fill="#1e1e1e" text-anchor="middle" style="white-space: pre;" direction="ltr" dominant-baseline="alphabetic">物理磁盘/</text><text x="42.7783203125" y="41.400390625" font-family="Helvetica, Segoe UI Emoji" font-size="20px" fill="#1e1e1e" text-anchor="middle" style="white-space: pre;" direction="ltr" dominant-baseline="alphabetic">网卡</text></g><g stroke-linecap="round"><g transform="translate(229.99993896484375 128.91671752929688) rotate(0 -51.33331298828125 0.16110100882548295)"><path d="M0 0 C-23.62 0.07, -47.25 0.15, -102.67 0.32" stroke="#1e1e1e" stroke-width="1.5" fill="none" stroke-dasharray="8 9"></path></g><g transform="translate(229.99993896484375 128.91671752929688) rotate(0 -51.33331298828125 0.16110100882548295)"><path d="M-79.2 -8.3 C-84.6 -6.32, -90 -4.33, -102.67 0.32" stroke="#1e1e1e" stroke-width="1.5" fill="none"></path></g><g transform="translate(229.99993896484375 128.91671752929688) rotate(0 -51.33331298828125 0.16110100882548295)"><path d="M-79.15 8.8 C-84.56 6.85, -89.97 4.9, -102.67 0.32" stroke="#1e1e1e" stroke-width="1.5" fill="none"></path></g></g><mask></mask><g stroke-linecap="round"><g transform="translate(387.99993896484375 161.91668701171875) rotate(0 -129.66665649414062 -0.9189878648116974)"><path d="M0 0 C-91.97 -0.65, -183.95 -1.3, -259.33 -1.84" stroke="#1e1e1e" stroke-width="1.5" fill="none" stroke-dasharray="8 9"></path></g><g transform="translate(387.99993896484375 161.91668701171875) rotate(0 -129.66665649414062 -0.9189878648116974)"><path d="M-235.78 -10.22 C-244.13 -7.25, -252.49 -4.28, -259.33 -1.84" stroke="#1e1e1e" stroke-width="1.5" fill="none"></path></g><g transform="translate(387.99993896484375 161.91668701171875) rotate(0 -129.66665649414062 -0.9189878648116974)"><path d="M-235.9 6.88 C-244.21 3.79, -252.52 0.7, -259.33 -1.84" stroke="#1e1e1e" stroke-width="1.5" fill="none"></path></g></g><mask></mask><g transform="translate(170.43872070312523 83.71671752929683) rotate(0 49.33984375 9.199999999999989)"><text x="0" y="14.720312499999999" font-family="Helvetica, Segoe UI Emoji" font-size="16px" fill="#1e1e1e" text-anchor="start" style="white-space: pre;" direction="ltr" dominant-baseline="alphabetic">5. 进行IO操作</text></g><g stroke-linecap="round" transform="translate(238.53338623046875 330.25006103515625) rotate(0 61.799926757812386 27)"><path d="M0 0 L123.6 0 L123.6 54 L0 54" stroke="none" stroke-width="0" fill="#a5d8ff"></path><path d="M0 0 C44.1 0, 88.2 0, 123.6 0 M0 0 C34.99 0, 69.99 0, 123.6 0 M123.6 0 C123.6 14.21, 123.6 28.42, 123.6 54 M123.6 0 C123.6 20.66, 123.6 41.33, 123.6 54 M123.6 54 C89.52 54, 55.44 54, 0 54 M123.6 54 C78.71 54, 33.82 54, 0 54 M0 54 C0 36, 0 18, 0 0 M0 54 C0 38.69, 0 23.37, 0 0" stroke="#1e1e1e" stroke-width="1" fill="none"></path></g><g transform="translate(260.33331298828125 345.75006103515625) rotate(0 40 11.5)"><text x="40" y="18.400390625" font-family="Helvetica, Segoe UI Emoji" font-size="20px" fill="#1e1e1e" text-anchor="middle" style="white-space: pre;" direction="ltr" dominant-baseline="alphabetic">内核模块</text></g><g stroke-linecap="round"><g transform="translate(299.33331298828125 277.5834045410156) rotate(0 -0.333343505859375 25.33331298828125)"><path d="M0 0 C-0.21 15.85, -0.42 31.7, -0.67 50.67" stroke="#1e1e1e" stroke-width="1.5" fill="none" stroke-dasharray="8 9"></path></g><g transform="translate(299.33331298828125 277.5834045410156) rotate(0 -0.333343505859375 25.33331298828125)"><path d="M-8.91 27.06 C-6.33 34.45, -3.75 41.83, -0.67 50.67" stroke="#1e1e1e" stroke-width="1.5" fill="none"></path></g><g transform="translate(299.33331298828125 277.5834045410156) rotate(0 -0.333343505859375 25.33331298828125)"><path d="M8.19 27.29 C5.42 34.6, 2.65 41.92, -0.67 50.67" stroke="#1e1e1e" stroke-width="1.5" fill="none"></path></g></g><mask></mask><g transform="translate(234.216796875 280.0833282470703) rotate(0 26.123046875 11.5)"><text x="0" y="18.400390625" font-family="Helvetica, Segoe UI Emoji" font-size="20px" fill="#1e1e1e" text-anchor="start" style="white-space: pre;" direction="ltr" dominant-baseline="alphabetic">7.ioctl</text></g><g stroke-linecap="round"><g transform="translate(296.33566334938064 385.25006103515636) rotate(0 0.25563897387019097 35.79165649414057)"><path d="M0 0 C0.14 19.69, 0.28 39.37, 0.51 71.58" stroke="#1e1e1e" stroke-width="1.5" fill="none" stroke-dasharray="8 9"></path></g><g transform="translate(296.33566334938064 385.25006103515636) rotate(0 0.25563897387019097 35.79165649414057)"><path d="M-8.21 48.15 C-5.81 54.6, -3.41 61.04, 0.51 71.58" stroke="#1e1e1e" stroke-width="1.5" fill="none"></path></g><g transform="translate(296.33566334938064 385.25006103515636) rotate(0 0.25563897387019097 35.79165649414057)"><path d="M8.89 48.03 C6.59 54.51, 4.28 60.99, 0.51 71.58" stroke="#1e1e1e" stroke-width="1.5" fill="none"></path></g></g><mask></mask><g transform="translate(233.99993896484375 418.9500915527344) rotate(0 26.6796875 11.5)"><text x="0" y="18.400390625" font-family="Helvetica, Segoe UI Emoji" font-size="20px" fill="#1e1e1e" text-anchor="start" style="white-space: pre;" direction="ltr" dominant-baseline="alphabetic">8. hvc</text></g><g stroke-linecap="round" transform="translate(208.35992431640648 486.223388671875) rotate(0 76.306640625 21.359954833984375)"><path d="M0 0 L152.61 0 L152.61 42.72 L0 42.72" stroke="none" stroke-width="0" fill="#96f2d7"></path><path d="M0 0 C41.28 0, 82.57 0, 152.61 0 M0 0 C51.7 0, 103.39 0, 152.61 0 M152.61 0 C152.61 12.82, 152.61 25.64, 152.61 42.72 M152.61 0 C152.61 10.15, 152.61 20.31, 152.61 42.72 M152.61 42.72 C115.16 42.72, 77.71 42.72, 0 42.72 M152.61 42.72 C101.69 42.72, 50.76 42.72, 0 42.72 M0 42.72 C0 27.28, 0 11.84, 0 0 M0 42.72 C0 27.34, 0 11.96, 0 0" stroke="#1e1e1e" stroke-width="1" fill="none"></path></g><g transform="translate(223.55328369140648 496.0833435058594) rotate(0 61.11328125 11.5)"><text x="61.11328125" y="18.400390625" font-family="Helvetica, Segoe UI Emoji" font-size="20px" fill="#1e1e1e" text-anchor="middle" style="white-space: pre;" direction="ltr" dominant-baseline="alphabetic">HVC处理模块</text></g><g mask="url(#mask-ezlX6-vOYuZhq-T3bIbm3)" stroke-linecap="round"><g transform="translate(359.99993896484375 485.5834045410156) rotate(0 223 -58.666656494140625)"><path d="M0 0 C106.86 -28.11, 213.71 -56.22, 446 -117.33" stroke="#1e1e1e" stroke-width="1.5" fill="none" stroke-dasharray="8 9"></path></g><g transform="translate(359.99993896484375 485.5834045410156) rotate(0 223 -58.666656494140625)"><path d="M425.46 -103.09 C430.38 -106.5, 435.3 -109.91, 446 -117.33" stroke="#1e1e1e" stroke-width="1.5" fill="none"></path></g><g transform="translate(359.99993896484375 485.5834045410156) rotate(0 223 -58.666656494140625)"><path d="M421.11 -119.63 C427.07 -119.08, 433.03 -118.53, 446 -117.33" stroke="#1e1e1e" stroke-width="1.5" fill="none"></path></g></g><mask id="mask-ezlX6-vOYuZhq-T3bIbm3"><rect x="0" y="0" fill="#fff" width="905.9999389648438" height="702.9167175292969"></rect><rect x="528.3241577148438" y="417.71674804687495" fill="#000" width="109.3515625" height="18.4" opacity="1"></rect></mask><g transform="translate(528.3241577148438 417.71674804687495) rotate(0 54.67578125 9.200000000000045)"><text x="54.67578125" y="14.720312499999999" font-family="Helvetica, Segoe UI Emoji" font-size="16px" fill="#1e1e1e" text-anchor="middle" style="white-space: pre;" direction="ltr" dominant-baseline="alphabetic">9. SGI核间中断</text></g><g stroke-linecap="round"><g transform="translate(805.3953235280894 371.55153760795474) rotate(0 -80.0930158097126 102.03180589790452)"><path d="M0 0 C0.77 80.98, 1.54 161.96, 1.94 204.03 M1.94 204.03 C-54.09 204.04, -110.13 204.05, -162.12 204.06" stroke="#1e1e1e" stroke-width="1.5" fill="none" stroke-dasharray="8 9"></path></g><g transform="translate(805.3953235280894 371.55153760795474) rotate(0 -80.0930158097126 102.03180589790452)"><path d="M-162.12 204.06 L-148.53 197.72 L-148.53 210.4 L-162.12 204.06" stroke="none" stroke-width="0" fill="#1e1e1e" fill-rule="evenodd"></path><path d="M-162.12 204.06 C-156.73 201.55, -151.33 199.03, -148.53 197.72 M-148.53 197.72 C-148.53 202.05, -148.53 206.38, -148.53 210.4 M-148.53 210.4 C-153.12 208.26, -157.72 206.12, -162.12 204.06 M-162.12 204.06 C-162.12 204.06, -162.12 204.06, -162.12 204.06" stroke="#1e1e1e" stroke-width="1.5" fill="none"></path></g></g><mask></mask><g transform="translate(663.6665649414062 554.5833435058594) rotate(0 67.57421875 9.200000000000045)"><text x="0" y="14.720312499999999" font-family="Helvetica, Segoe UI Emoji" font-size="16px" fill="#1e1e1e" text-anchor="start" style="white-space: pre;" direction="ltr" dominant-baseline="alphabetic">10. 陷入Hypervisor</text></g><g stroke-linecap="round"><g transform="translate(1140.6665649414062 602.9167175292969) rotate(0 -54.99993896484375 -123)"><path d="M0 0 C-0.71 -52.58, -1.43 -105.17, -3.33 -245.33 M-3.33 -245.33 C-41.07 -245.57, -78.8 -245.8, -110 -246" stroke="#1e1e1e" stroke-width="1.5" fill="none" stroke-dasharray="8 9"></path></g><g transform="translate(1140.6665649414062 602.9167175292969) rotate(0 -54.99993896484375 -123)"><path d="M-110 -246 L-96.37 -252.25 L-96.45 -239.58 L-110 -246" stroke="none" stroke-width="0" fill="#1e1e1e" fill-rule="evenodd"></path><path d="M-110 -246 C-107.08 -247.34, -104.16 -248.68, -96.37 -252.25 M-96.37 -252.25 C-96.39 -247.77, -96.42 -243.28, -96.45 -239.58 M-96.45 -239.58 C-99.26 -240.91, -102.07 -242.24, -110 -246 M-110 -246 C-110 -246, -110 -246, -110 -246" stroke="#1e1e1e" stroke-width="1.5" fill="none"></path></g></g><mask></mask><g stroke-linecap="round"><g transform="translate(643.9999389648438 605.5834045410156) rotate(0 248.33331298828125 -1)"><path d="M0 0 C119.09 -0.48, 238.18 -0.96, 496.67 -2" stroke="#1e1e1e" stroke-width="1.5" fill="none" stroke-dasharray="8 9"></path></g></g><mask></mask><g transform="translate(1032.0923461914062 327.04996948242206) rotate(0 92.75 9.199999999999989)"><text x="0" y="14.720312499999999" font-family="Helvetica, Segoe UI Emoji" font-size="16px" fill="#1e1e1e" text-anchor="start" style="white-space: pre;" direction="ltr" dominant-baseline="alphabetic">11. 中断注入并返回虚拟机</text></g></svg>