<svg version="1.1" xmlns="http://www.w3.org/2000/svg" viewBox="0 0 688.2633666992188 624.3332824707031" width="688.2633666992188" height="624.3332824707031">
  <!-- svg-source:excalidraw -->
  
  <defs>
    <style class="style-fonts">
      @font-face {
        font-family: "Virgil";
        src: url("https://excalidraw.com/Virgil.woff2");
      }
      @font-face {
        font-family: "Cascadia";
        src: url("https://excalidraw.com/Cascadia.woff2");
      }
      @font-face {
        font-family: "Assistant";
        src: url("https://excalidraw.com/Assistant-Regular.woff2");
      }
    </style>
    
  </defs>
  <g stroke-linecap="round" transform="translate(258.92999267578114 60.33331298828125) rotate(0 209.0000610351563 276.99998474121094)"><path d="M0 0 C157.18 0.46, 315.11 0.17, 418 0 M418 0 C416.35 170.49, 416.3 341.46, 418 554 M418 554 C311.32 551.84, 205.12 551.94, 0 554 M0 554 C-0.88 398.21, -1.03 243.38, 0 0" stroke="#1e1e1e" stroke-width="1.5" fill="none" stroke-dasharray="8 9"></path></g><g stroke-linecap="round" transform="translate(282.6600341796875 95.67001342773449) rotate(0 73.5999755859375 33.600006103515625)"><path d="M0 0 L147.2 0 L147.2 67.2 L0 67.2" stroke="none" stroke-width="0" fill="#e7f5ff"></path><path d="M0 0 C55.68 0, 111.37 0, 147.2 0 M0 0 C49.97 0, 99.94 0, 147.2 0 M147.2 0 C147.2 25.62, 147.2 51.25, 147.2 67.2 M147.2 0 C147.2 18.91, 147.2 37.82, 147.2 67.2 M147.2 67.2 C109.32 67.2, 71.44 67.2, 0 67.2 M147.2 67.2 C101.47 67.2, 55.75 67.2, 0 67.2 M0 67.2 C0 42.54, 0 17.88, 0 0 M0 67.2 C0 51.01, 0 34.83, 0 0" stroke="#1e1e1e" stroke-width="2" fill="none"></path></g><g transform="translate(313.647705078125 106.27001953125011) rotate(0 42.6123046875 23)"><text x="42.6123046875" y="18.400390625" font-family="Helvetica, Segoe UI Emoji" font-size="20px" fill="#1e1e1e" text-anchor="middle" style="white-space: pre;" direction="ltr" dominant-baseline="alphabetic">Virtio-net </text><text x="42.6123046875" y="41.400390625" font-family="Helvetica, Segoe UI Emoji" font-size="20px" fill="#1e1e1e" text-anchor="middle" style="white-space: pre;" direction="ltr" dominant-baseline="alphabetic">Device0</text></g><g stroke-linecap="round" transform="translate(500.6600341796873 95.67001342773449) rotate(0 73.5999755859375 33.600006103515625)"><path d="M0 0 L147.2 0 L147.2 67.2 L0 67.2" stroke="none" stroke-width="0" fill="#e7f5ff"></path><path d="M0 0 C45.71 0, 91.42 0, 147.2 0 M0 0 C56.24 0, 112.47 0, 147.2 0 M147.2 0 C147.2 17.91, 147.2 35.83, 147.2 67.2 M147.2 0 C147.2 15.97, 147.2 31.95, 147.2 67.2 M147.2 67.2 C98.17 67.2, 49.13 67.2, 0 67.2 M147.2 67.2 C113.79 67.2, 80.38 67.2, 0 67.2 M0 67.2 C0 51.13, 0 35.05, 0 0 M0 67.2 C0 43.81, 0 20.43, 0 0" stroke="#1e1e1e" stroke-width="2" fill="none"></path></g><g transform="translate(531.6477050781248 106.27001953125011) rotate(0 42.6123046875 23)"><text x="42.6123046875" y="18.400390625" font-family="Helvetica, Segoe UI Emoji" font-size="20px" fill="#1e1e1e" text-anchor="middle" style="white-space: pre;" direction="ltr" dominant-baseline="alphabetic">Virtio-net </text><text x="42.6123046875" y="41.400390625" font-family="Helvetica, Segoe UI Emoji" font-size="20px" fill="#1e1e1e" text-anchor="middle" style="white-space: pre;" direction="ltr" dominant-baseline="alphabetic">Device1</text></g><g stroke-linecap="round" transform="translate(281.32666015625 255.00335693359375) rotate(0 73.5999755859375 33.600006103515625)"><path d="M0 0 C0 0, 0 0, 0 0 M0 0 C0 0, 0 0, 0 0 M-0.26 6.4 C1 4.94, 2.27 3.49, 4.99 0.36 M-0.26 6.4 C1.43 4.45, 3.12 2.51, 4.99 0.36 M0.13 12.04 C3.98 7.62, 7.82 3.19, 10.63 -0.03 M0.13 12.04 C3.12 8.6, 6.12 5.16, 10.63 -0.03 M-0.13 18.44 C5.79 11.63, 11.72 4.81, 15.62 0.33 M-0.13 18.44 C4.95 12.6, 10.02 6.76, 15.62 0.33 M0.27 24.08 C7.73 15.5, 15.19 6.91, 21.26 -0.07 M0.27 24.08 C5.93 17.57, 11.6 11.05, 21.26 -0.07 M0 30.48 C7.43 21.94, 14.86 13.39, 26.25 0.29 M0 30.48 C5.86 23.74, 11.72 17, 26.25 0.29 M-0.26 36.88 C8.57 26.72, 17.4 16.57, 31.89 -0.1 M-0.26 36.88 C12.42 22.3, 25.09 7.72, 31.89 -0.1 M0.14 42.52 C8.49 32.91, 16.85 23.3, 36.88 0.26 M0.14 42.52 C13.59 27.05, 27.04 11.58, 36.88 0.26 M-0.12 48.92 C11.1 36.01, 22.32 23.1, 42.52 -0.14 M-0.12 48.92 C14.83 31.71, 29.79 14.5, 42.52 -0.14 M0.27 54.56 C17.86 34.33, 35.44 14.1, 47.51 0.22 M0.27 54.56 C11.83 41.26, 23.39 27.96, 47.51 0.22 M0.01 60.96 C13.69 45.22, 27.37 29.49, 53.15 -0.17 M0.01 60.96 C15.17 43.52, 30.33 26.08, 53.15 -0.17 M-0.25 67.36 C21.78 42.01, 43.81 16.67, 58.14 0.19 M-0.25 67.36 C17.65 46.76, 35.56 26.16, 58.14 0.19 M4.74 67.72 C27.79 41.19, 50.85 14.67, 63.78 -0.21 M4.74 67.72 C28.15 40.78, 51.56 13.85, 63.78 -0.21 M9.72 68.08 C33.28 40.97, 56.85 13.87, 68.77 0.15 M9.72 68.08 C30.52 44.15, 51.31 20.23, 68.77 0.15 M15.37 67.68 C38.54 41.03, 61.71 14.37, 74.41 -0.24 M15.37 67.68 C35.24 44.82, 55.12 21.95, 74.41 -0.24 M20.35 68.04 C37.53 48.28, 54.72 28.51, 79.4 0.12 M20.35 68.04 C40.13 45.29, 59.91 22.53, 79.4 0.12 M26 67.65 C49.03 41.15, 72.06 14.65, 85.04 -0.28 M26 67.65 C38.44 53.34, 50.88 39.02, 85.04 -0.28 M30.98 68.01 C43 54.19, 55.01 40.36, 90.03 0.08 M30.98 68.01 C52.34 43.44, 73.7 18.87, 90.03 0.08 M36.63 67.61 C54.77 46.74, 72.92 25.86, 95.67 -0.31 M36.63 67.61 C58.88 42.01, 81.14 16.41, 95.67 -0.31 M41.61 67.97 C64.27 41.91, 86.93 15.84, 100.66 0.05 M41.61 67.97 C58.87 48.13, 76.12 28.28, 100.66 0.05 M47.26 67.58 C62.89 49.6, 78.52 31.61, 106.3 -0.34 M47.26 67.58 C61.82 50.82, 76.39 34.06, 106.3 -0.34 M52.24 67.94 C74.44 42.41, 96.63 16.88, 111.29 0.02 M52.24 67.94 C72.28 44.89, 92.32 21.84, 111.29 0.02 M57.89 67.54 C80.07 42.03, 102.25 16.51, 116.27 0.38 M57.89 67.54 C74.5 48.43, 91.12 29.31, 116.27 0.38 M62.87 67.9 C75.91 52.91, 88.95 37.91, 121.92 -0.02 M62.87 67.9 C78.77 49.62, 94.66 31.33, 121.92 -0.02 M68.52 67.51 C89.96 42.85, 111.4 18.18, 126.91 0.34 M68.52 67.51 C80.67 53.53, 92.83 39.55, 126.91 0.34 M73.5 67.87 C88.64 50.46, 103.78 33.04, 132.55 -0.05 M73.5 67.87 C85.37 54.22, 97.24 40.56, 132.55 -0.05 M79.15 67.48 C98.87 44.78, 118.6 22.08, 137.54 0.31 M79.15 67.48 C101.81 41.4, 124.48 15.33, 137.54 0.31 M84.13 67.84 C102.87 46.28, 121.61 24.73, 143.18 -0.09 M84.13 67.84 C96.36 53.77, 108.59 39.71, 143.18 -0.09 M89.78 67.44 C101.46 54, 113.15 40.55, 148.17 0.27 M89.78 67.44 C104.29 50.75, 118.8 34.06, 148.17 0.27 M94.76 67.8 C112.58 47.31, 130.4 26.81, 147.9 6.67 M94.76 67.8 C111.39 48.68, 128.01 29.56, 147.9 6.67 M99.75 68.16 C112.15 53.89, 124.56 39.62, 147.64 13.07 M99.75 68.16 C112.5 53.5, 125.24 38.83, 147.64 13.07 M105.39 67.77 C119.83 51.15, 134.27 34.54, 148.04 18.71 M105.39 67.77 C118.05 53.21, 130.71 38.65, 148.04 18.71 M110.38 68.13 C118.47 58.82, 126.56 49.51, 147.78 25.11 M110.38 68.13 C124.26 52.16, 138.15 36.18, 147.78 25.11 M116.02 67.73 C124.15 58.38, 132.28 49.04, 148.17 30.75 M116.02 67.73 C125.37 56.98, 134.71 46.23, 148.17 30.75 M121.01 68.09 C130.99 56.61, 140.97 45.13, 147.91 37.15 M121.01 68.09 C130.35 57.35, 139.68 46.61, 147.91 37.15 M126.65 67.7 C132.95 60.45, 139.25 53.21, 147.65 43.55 M126.65 67.7 C134.62 58.54, 142.58 49.37, 147.65 43.55 M131.64 68.06 C135.22 63.93, 138.81 59.81, 148.04 49.19 M131.64 68.06 C135.41 63.72, 139.18 59.38, 148.04 49.19 M137.28 67.66 C141.47 62.84, 145.66 58.02, 147.78 55.59 M137.28 67.66 C139.39 65.24, 141.5 62.81, 147.78 55.59 M142.27 68.02 C143.76 66.31, 145.24 64.61, 148.17 61.23 M142.27 68.02 C144.1 65.92, 145.92 63.82, 148.17 61.23" stroke="#e7f5ff" stroke-width="0.5" fill="none"></path><path d="M0 0 C30.13 0, 60.26 0, 147.2 0 M147.2 0 C147.2 15.39, 147.2 30.79, 147.2 67.2 M147.2 67.2 C101.84 67.2, 56.48 67.2, 0 67.2 M0 67.2 C0 51.46, 0 35.72, 0 0" stroke="#1e1e1e" stroke-width="1.5" fill="none" stroke-dasharray="8 9"></path></g><g transform="translate(335.4637451171875 277.1033630371094) rotate(0 19.462890625 11.5)"><text x="19.462890625" y="18.400390625" font-family="Helvetica, Segoe UI Emoji" font-size="20px" fill="#1e1e1e" text-anchor="middle" style="white-space: pre;" direction="ltr" dominant-baseline="alphabetic">tap0</text></g><g stroke-linecap="round" transform="translate(498.9934082031248 254.6700439453125) rotate(0 73.5999755859375 33.600006103515625)"><path d="M0 0 C0 0, 0 0, 0 0 M0 0 C0 0, 0 0, 0 0 M-0.26 6.4 C0.88 5.08, 2.03 3.76, 4.99 0.36 M-0.26 6.4 C1.37 4.52, 2.99 2.65, 4.99 0.36 M0.13 12.04 C3.33 8.37, 6.52 4.69, 10.63 -0.03 M0.13 12.04 C2.57 9.24, 5 6.44, 10.63 -0.03 M-0.13 18.44 C4.12 13.55, 8.36 8.67, 15.62 0.33 M-0.13 18.44 C5.04 12.5, 10.2 6.55, 15.62 0.33 M0.27 24.08 C5.74 17.78, 11.21 11.49, 21.26 -0.07 M0.27 24.08 C6.68 16.71, 13.09 9.33, 21.26 -0.07 M0 30.48 C5.47 24.19, 10.93 17.91, 26.25 0.29 M0 30.48 C7.4 21.97, 14.79 13.47, 26.25 0.29 M-0.26 36.88 C8.87 26.38, 17.99 15.89, 31.89 -0.1 M-0.26 36.88 C7.19 28.31, 14.64 19.74, 31.89 -0.1 M0.14 42.52 C13.22 27.47, 26.3 12.42, 36.88 0.26 M0.14 42.52 C8.56 32.83, 16.99 23.14, 36.88 0.26 M-0.12 48.92 C10.42 36.79, 20.97 24.66, 42.52 -0.14 M-0.12 48.92 C12.34 34.58, 24.81 20.24, 42.52 -0.14 M0.27 54.56 C18.64 33.43, 37.01 12.3, 47.51 0.22 M0.27 54.56 C10.94 42.29, 21.6 30.02, 47.51 0.22 M0.01 60.96 C14.8 43.95, 29.59 26.94, 53.15 -0.17 M0.01 60.96 C14.13 44.71, 28.25 28.47, 53.15 -0.17 M-0.25 67.36 C19.31 44.85, 38.87 22.35, 58.14 0.19 M-0.25 67.36 C18.61 45.65, 37.48 23.95, 58.14 0.19 M4.74 67.72 C25.81 43.48, 46.88 19.24, 63.78 -0.21 M4.74 67.72 C18.16 52.28, 31.58 36.84, 63.78 -0.21 M9.72 68.08 C31.94 42.52, 54.16 16.96, 68.77 0.15 M9.72 68.08 C31.57 42.94, 53.42 17.81, 68.77 0.15 M15.37 67.68 C34.04 46.19, 52.72 24.71, 74.41 -0.24 M15.37 67.68 C35.98 43.97, 56.6 20.25, 74.41 -0.24 M20.35 68.04 C34.96 51.24, 49.57 34.43, 79.4 0.12 M20.35 68.04 C32.89 53.62, 45.42 39.21, 79.4 0.12 M26 67.65 C40.35 51.14, 54.7 34.63, 85.04 -0.28 M26 67.65 C43.74 47.24, 61.48 26.83, 85.04 -0.28 M30.98 68.01 C44.94 51.95, 58.9 35.89, 90.03 0.08 M30.98 68.01 C48.24 48.15, 65.5 28.3, 90.03 0.08 M36.63 67.61 C52.95 48.83, 69.28 30.05, 95.67 -0.31 M36.63 67.61 C51.22 50.82, 65.82 34.03, 95.67 -0.31 M41.61 67.97 C64.31 41.87, 87 15.76, 100.66 0.05 M41.61 67.97 C56.35 51.02, 71.08 34.07, 100.66 0.05 M47.26 67.58 C59.61 53.36, 71.97 39.15, 106.3 -0.34 M47.26 67.58 C62.14 50.45, 77.03 33.32, 106.3 -0.34 M52.24 67.94 C69.09 48.56, 85.94 29.18, 111.29 0.02 M52.24 67.94 C71.15 46.19, 90.06 24.43, 111.29 0.02 M57.89 67.54 C74.66 48.25, 91.43 28.96, 116.27 0.38 M57.89 67.54 C73.95 49.07, 90.01 30.59, 116.27 0.38 M62.87 67.9 C79.81 48.43, 96.74 28.95, 121.92 -0.02 M62.87 67.9 C82.81 44.97, 102.74 22.04, 121.92 -0.02 M68.52 67.51 C80.73 53.46, 92.94 39.41, 126.91 0.34 M68.52 67.51 C90.27 42.49, 112.02 17.47, 126.91 0.34 M73.5 67.87 C90.57 48.24, 107.64 28.6, 132.55 -0.05 M73.5 67.87 C93.09 45.34, 112.67 22.81, 132.55 -0.05 M79.15 67.48 C98.24 45.51, 117.34 23.54, 137.54 0.31 M79.15 67.48 C96.55 47.46, 113.95 27.44, 137.54 0.31 M84.13 67.84 C104.55 44.35, 124.96 20.86, 143.18 -0.09 M84.13 67.84 C103.58 45.47, 123.02 23.1, 143.18 -0.09 M89.78 67.44 C104.15 50.91, 118.52 34.38, 148.17 0.27 M89.78 67.44 C107.4 47.17, 125.02 26.89, 148.17 0.27 M94.76 67.8 C108.77 51.69, 122.78 35.57, 147.9 6.67 M94.76 67.8 C113.59 46.15, 132.41 24.49, 147.9 6.67 M99.75 68.16 C110.5 55.79, 121.26 43.42, 147.64 13.07 M99.75 68.16 C115.61 49.91, 131.48 31.66, 147.64 13.07 M105.39 67.77 C114.02 57.84, 122.65 47.92, 148.04 18.71 M105.39 67.77 C115.08 56.62, 124.77 45.47, 148.04 18.71 M110.38 68.13 C124.35 52.05, 138.33 35.98, 147.78 25.11 M110.38 68.13 C118.99 58.22, 127.6 48.31, 147.78 25.11 M116.02 67.73 C124.86 57.57, 133.7 47.4, 148.17 30.75 M116.02 67.73 C127.78 54.21, 139.54 40.68, 148.17 30.75 M121.01 68.09 C127.95 60.11, 134.9 52.12, 147.91 37.15 M121.01 68.09 C130.16 57.57, 139.3 47.05, 147.91 37.15 M126.65 67.7 C133.95 59.31, 141.24 50.92, 147.65 43.55 M126.65 67.7 C134.72 58.42, 142.79 49.14, 147.65 43.55 M131.64 68.06 C136.49 62.48, 141.33 56.91, 148.04 49.19 M131.64 68.06 C136.53 62.43, 141.42 56.81, 148.04 49.19 M137.28 67.66 C139.79 64.78, 142.3 61.89, 147.78 55.59 M137.28 67.66 C140.37 64.11, 143.45 60.57, 147.78 55.59 M142.27 68.02 C144.37 65.6, 146.48 63.18, 148.17 61.23 M142.27 68.02 C143.68 66.4, 145.1 64.77, 148.17 61.23" stroke="#e7f5ff" stroke-width="0.5" fill="none"></path><path d="M0 0 C53.19 0, 106.38 0, 147.2 0 M147.2 0 C147.2 13.48, 147.2 26.97, 147.2 67.2 M147.2 67.2 C105.29 67.2, 63.37 67.2, 0 67.2 M0 67.2 C0 42.55, 0 17.9, 0 0" stroke="#1e1e1e" stroke-width="1.5" fill="none" stroke-dasharray="8 9"></path></g><g transform="translate(553.1304931640623 276.7700500488281) rotate(0 19.462890625 11.5)"><text x="19.462890625" y="18.400390625" font-family="Helvetica, Segoe UI Emoji" font-size="20px" fill="#1e1e1e" text-anchor="middle" style="white-space: pre;" direction="ltr" dominant-baseline="alphabetic">tap1</text></g><g stroke-linecap="round" transform="translate(10 399.5433044433594) rotate(0 73.5999755859375 33.600006103515625)"><path d="M0 0 L147.2 0 L147.2 67.2 L0 67.2" stroke="none" stroke-width="0" fill="#e7f5ff"></path><path d="M0 0 C31.32 0, 62.63 0, 147.2 0 M0 0 C56.82 0, 113.65 0, 147.2 0 M147.2 0 C147.2 14.96, 147.2 29.91, 147.2 67.2 M147.2 0 C147.2 21.38, 147.2 42.76, 147.2 67.2 M147.2 67.2 C101.22 67.2, 55.23 67.2, 0 67.2 M147.2 67.2 C108.48 67.2, 69.76 67.2, 0 67.2 M0 67.2 C0 43.07, 0 18.93, 0 0 M0 67.2 C0 50.03, 0 32.86, 0 0" stroke="#1e1e1e" stroke-width="2" fill="none"></path></g><g transform="translate(43.5999755859375 421.643310546875) rotate(0 40 11.5)"><text x="40" y="18.400390625" font-family="Helvetica, Segoe UI Emoji" font-size="20px" fill="#1e1e1e" text-anchor="middle" style="white-space: pre;" direction="ltr" dominant-baseline="alphabetic">真实网卡</text></g><g stroke-linecap="round" transform="translate(11.3199462890625 544.4632873535156) rotate(0 73.5999755859375 33.600006103515625)"><path d="M0 0 L147.2 0 L147.2 67.2 L0 67.2" stroke="none" stroke-width="0" fill="#e7f5ff"></path><path d="M0 0 C45.99 0, 91.99 0, 147.2 0 M0 0 C52.07 0, 104.14 0, 147.2 0 M147.2 0 C147.2 23.29, 147.2 46.59, 147.2 67.2 M147.2 0 C147.2 20.59, 147.2 41.18, 147.2 67.2 M147.2 67.2 C107.69 67.2, 68.17 67.2, 0 67.2 M147.2 67.2 C112.86 67.2, 78.52 67.2, 0 67.2 M0 67.2 C0 49.48, 0 31.75, 0 0 M0 67.2 C0 52.67, 0 38.13, 0 0" stroke="#1e1e1e" stroke-width="2" fill="none"></path></g><g transform="translate(64.919921875 566.5632934570312) rotate(0 20 11.5)"><text x="20" y="18.400390625" font-family="Helvetica, Segoe UI Emoji" font-size="20px" fill="#1e1e1e" text-anchor="middle" style="white-space: pre;" direction="ltr" dominant-baseline="alphabetic">网关</text></g><g stroke-linecap="round"><g transform="translate(360.9266967773435 171.6033630371095) rotate(0 -0.333343505859375 38.66668701171875)"><path d="M0 0 C-0.16 18.65, -0.32 37.29, -0.67 77.33 M0 0 C-0.17 19.17, -0.33 38.34, -0.67 77.33" stroke="#1971c2" stroke-width="2" fill="none"></path></g><g transform="translate(360.9266967773435 171.6033630371095) rotate(0 -0.333343505859375 38.66668701171875)"><path d="M-0.67 77.33 L-6.89 63.68 L5.79 63.79 L-0.67 77.33" stroke="none" stroke-width="0" fill="#1971c2" fill-rule="evenodd"></path><path d="M-0.67 77.33 C-2.17 74.04, -3.67 70.75, -6.89 63.68 M-0.67 77.33 C-2.21 73.95, -3.75 70.57, -6.89 63.68 M-6.89 63.68 C-1.85 63.73, 3.19 63.77, 5.79 63.79 M-6.89 63.68 C-3.02 63.72, 0.85 63.75, 5.79 63.79 M5.79 63.79 C3.55 68.49, 1.31 73.19, -0.67 77.33 M5.79 63.79 C4.03 67.49, 2.27 71.18, -0.67 77.33 M-0.67 77.33 C-0.67 77.33, -0.67 77.33, -0.67 77.33 M-0.67 77.33 C-0.67 77.33, -0.67 77.33, -0.67 77.33" stroke="#1971c2" stroke-width="2" fill="none"></path></g></g><mask></mask><g stroke-linecap="round" transform="translate(387.9933471679685 390.6700439453125) rotate(0 73.5999755859375 33.600006103515625)"><path d="M0 0 C0 0, 0 0, 0 0 M0 0 C0 0, 0 0, 0 0 M-0.26 6.4 C0.91 5.06, 2.07 3.71, 4.99 0.36 M-0.26 6.4 C1.25 4.66, 2.77 2.91, 4.99 0.36 M0.13 12.04 C3.48 8.2, 6.82 4.35, 10.63 -0.03 M0.13 12.04 C3.16 8.56, 6.19 5.07, 10.63 -0.03 M-0.13 18.44 C5.2 12.31, 10.53 6.17, 15.62 0.33 M-0.13 18.44 C5.2 12.31, 10.53 6.17, 15.62 0.33 M0.27 24.08 C6.29 17.16, 12.3 10.23, 21.26 -0.07 M0.27 24.08 C5.64 17.9, 11.02 11.71, 21.26 -0.07 M0 30.48 C6.83 22.63, 13.66 14.77, 26.25 0.29 M0 30.48 C8.35 20.88, 16.7 11.27, 26.25 0.29 M-0.26 36.88 C9.18 26.02, 18.62 15.16, 31.89 -0.1 M-0.26 36.88 C9.94 25.15, 20.14 13.42, 31.89 -0.1 M0.14 42.52 C7.59 33.95, 15.04 25.37, 36.88 0.26 M0.14 42.52 C8.16 33.3, 16.17 24.07, 36.88 0.26 M-0.12 48.92 C9.62 37.71, 19.36 26.5, 42.52 -0.14 M-0.12 48.92 C9.02 38.4, 18.16 27.89, 42.52 -0.14 M0.27 54.56 C13.48 39.37, 26.68 24.18, 47.51 0.22 M0.27 54.56 C18.37 33.74, 36.47 12.92, 47.51 0.22 M0.01 60.96 C20.08 37.87, 40.14 14.79, 53.15 -0.17 M0.01 60.96 C18.25 39.97, 36.5 18.98, 53.15 -0.17 M-0.25 67.36 C17.27 47.2, 34.79 27.05, 58.14 0.19 M-0.25 67.36 C17.87 46.51, 35.99 25.67, 58.14 0.19 M4.74 67.72 C17.97 52.49, 31.21 37.26, 63.78 -0.21 M4.74 67.72 C25.58 43.74, 46.42 19.76, 63.78 -0.21 M9.72 68.08 C31.62 42.89, 53.52 17.69, 68.77 0.15 M9.72 68.08 C24.48 51.1, 39.24 34.12, 68.77 0.15 M15.37 67.68 C30.02 50.82, 44.68 33.96, 74.41 -0.24 M15.37 67.68 C35.76 44.22, 56.16 20.75, 74.41 -0.24 M20.35 68.04 C37.8 47.97, 55.25 27.9, 79.4 0.12 M20.35 68.04 C32.5 54.06, 44.65 40.09, 79.4 0.12 M26 67.65 C45.28 45.46, 64.57 23.28, 85.04 -0.28 M26 67.65 C42.27 48.92, 58.55 30.19, 85.04 -0.28 M30.98 68.01 C53.08 42.59, 75.17 17.17, 90.03 0.08 M30.98 68.01 C50.73 45.29, 70.48 22.58, 90.03 0.08 M36.63 67.61 C56.3 44.98, 75.97 22.36, 95.67 -0.31 M36.63 67.61 C57.41 43.7, 78.2 19.79, 95.67 -0.31 M41.61 67.97 C53.68 54.1, 65.74 40.22, 100.66 0.05 M41.61 67.97 C62.03 44.49, 82.44 21.01, 100.66 0.05 M47.26 67.58 C67.24 44.59, 87.23 21.6, 106.3 -0.34 M47.26 67.58 C61.18 51.56, 75.11 35.53, 106.3 -0.34 M52.24 67.94 C68.77 48.93, 85.29 29.92, 111.29 0.02 M52.24 67.94 C70.11 47.39, 87.98 26.83, 111.29 0.02 M57.89 67.54 C70.15 53.43, 82.42 39.32, 116.27 0.38 M57.89 67.54 C72 51.31, 86.11 35.08, 116.27 0.38 M62.87 67.9 C86.01 41.29, 109.14 14.68, 121.92 -0.02 M62.87 67.9 C75.93 52.89, 88.98 37.87, 121.92 -0.02 M68.52 67.51 C80.92 53.24, 93.33 38.97, 126.91 0.34 M68.52 67.51 C88.2 44.87, 107.88 22.23, 126.91 0.34 M73.5 67.87 C86.97 52.38, 100.43 36.89, 132.55 -0.05 M73.5 67.87 C89.47 49.5, 105.44 31.13, 132.55 -0.05 M79.15 67.48 C91.22 53.58, 103.3 39.69, 137.54 0.31 M79.15 67.48 C99.16 44.45, 119.18 21.42, 137.54 0.31 M84.13 67.84 C106.17 42.49, 128.21 17.14, 143.18 -0.09 M84.13 67.84 C106.15 42.5, 128.17 17.17, 143.18 -0.09 M89.78 67.44 C104.45 50.56, 119.13 33.68, 148.17 0.27 M89.78 67.44 C109.21 45.09, 128.64 22.73, 148.17 0.27 M94.76 67.8 C111.18 48.91, 127.6 30.03, 147.9 6.67 M94.76 67.8 C105.61 55.33, 116.45 42.86, 147.9 6.67 M99.75 68.16 C109.38 57.08, 119.01 46.01, 147.64 13.07 M99.75 68.16 C110.96 55.27, 122.17 42.37, 147.64 13.07 M105.39 67.77 C114.51 57.28, 123.62 46.8, 148.04 18.71 M105.39 67.77 C122.12 48.52, 138.85 29.28, 148.04 18.71 M110.38 68.13 C121.89 54.88, 133.4 41.64, 147.78 25.11 M110.38 68.13 C118.85 58.38, 127.33 48.63, 147.78 25.11 M116.02 67.73 C127.69 54.31, 139.35 40.89, 148.17 30.75 M116.02 67.73 C126.29 55.92, 136.56 44.11, 148.17 30.75 M121.01 68.09 C126.94 61.27, 132.87 54.44, 147.91 37.15 M121.01 68.09 C130.26 57.45, 139.5 46.82, 147.91 37.15 M126.65 67.7 C133.55 59.76, 140.45 51.83, 147.65 43.55 M126.65 67.7 C133.37 59.97, 140.09 52.24, 147.65 43.55 M131.64 68.06 C137.95 60.8, 144.26 53.54, 148.04 49.19 M131.64 68.06 C136.1 62.93, 140.56 57.8, 148.04 49.19 M137.28 67.66 C141.27 63.07, 145.26 58.49, 147.78 55.59 M137.28 67.66 C140.25 64.25, 143.21 60.84, 147.78 55.59 M142.27 68.02 C143.7 66.37, 145.14 64.72, 148.17 61.23 M142.27 68.02 C144.34 65.64, 146.41 63.26, 148.17 61.23" stroke="#e7f5ff" stroke-width="0.5" fill="none"></path><path d="M0 0 C47.73 0, 95.47 0, 147.2 0 M147.2 0 C147.2 22.09, 147.2 44.19, 147.2 67.2 M147.2 67.2 C89.49 67.2, 31.78 67.2, 0 67.2 M0 67.2 C0 45, 0 22.81, 0 0" stroke="#1e1e1e" stroke-width="1.5" fill="none" stroke-dasharray="8 9"></path></g><g transform="translate(421.593322753906 412.7700500488281) rotate(0 40 11.5)"><text x="40" y="18.400390625" font-family="Helvetica, Segoe UI Emoji" font-size="20px" fill="#1e1e1e" text-anchor="middle" style="white-space: pre;" direction="ltr" dominant-baseline="alphabetic">网桥设备</text></g><g stroke-linecap="round"><g transform="translate(577.2601013183591 170.269989013672) rotate(0 -0.333343505859375 38.66668701171875)"><path d="M0 0 C-0.17 19.98, -0.34 39.96, -0.67 77.33 M0 0 C-0.17 19.38, -0.33 38.76, -0.67 77.33" stroke="#1971c2" stroke-width="2" fill="none"></path></g><g transform="translate(577.2601013183591 170.269989013672) rotate(0 -0.333343505859375 38.66668701171875)"><path d="M-0.67 77.33 L-6.89 63.68 L5.79 63.79 L-0.67 77.33" stroke="none" stroke-width="0" fill="#1971c2" fill-rule="evenodd"></path><path d="M-0.67 77.33 C-2.27 73.81, -3.88 70.28, -6.89 63.68 M-0.67 77.33 C-2.23 73.91, -3.79 70.49, -6.89 63.68 M-6.89 63.68 C-2.9 63.72, 1.09 63.75, 5.79 63.79 M-6.89 63.68 C-2.33 63.72, 2.23 63.76, 5.79 63.79 M5.79 63.79 C3.29 69.03, 0.8 74.27, -0.67 77.33 M5.79 63.79 C3.99 67.56, 2.19 71.33, -0.67 77.33 M-0.67 77.33 C-0.67 77.33, -0.67 77.33, -0.67 77.33 M-0.67 77.33 C-0.67 77.33, -0.67 77.33, -0.67 77.33" stroke="#1971c2" stroke-width="2" fill="none"></path></g></g><mask></mask><g stroke-linecap="round"><g transform="translate(356.59335327148415 331.27005004882824) rotate(0 48.333343505859375 25.000030517578125)"><path d="M0 0 C37.12 19.2, 74.23 38.4, 96.67 50 M0 0 C33.99 17.58, 67.98 35.16, 96.67 50" stroke="#1971c2" stroke-width="2" fill="none"></path></g><g transform="translate(356.59335327148415 331.27005004882824) rotate(0 48.333343505859375 25.000030517578125)"><path d="M0 0 L14.99 0.62 L9.16 11.88 L0 0" stroke="none" stroke-width="0" fill="#1971c2" fill-rule="evenodd"></path><path d="M0 0 C5.75 0.24, 11.51 0.47, 14.99 0.62 M0 0 C5.27 0.22, 10.54 0.43, 14.99 0.62 M14.99 0.62 C13.77 2.97, 12.55 5.32, 9.16 11.88 M14.99 0.62 C13.79 2.93, 12.59 5.25, 9.16 11.88 M9.16 11.88 C6.81 8.83, 4.46 5.78, 0 0 M9.16 11.88 C6.13 7.94, 3.09 4.01, 0 0 M0 0 C0 0, 0 0, 0 0 M0 0 C0 0, 0 0, 0 0" stroke="#1971c2" stroke-width="2" fill="none"></path></g><g transform="translate(356.59335327148415 331.27005004882824) rotate(0 48.333343505859375 25.000030517578125)"><path d="M96.67 50 L81.68 49.39 L87.5 38.12 L96.67 50" stroke="none" stroke-width="0" fill="#1971c2" fill-rule="evenodd"></path><path d="M96.67 50 C90.91 49.76, 85.16 49.53, 81.68 49.39 M96.67 50 C91.4 49.78, 86.13 49.57, 81.68 49.39 M81.68 49.39 C82.9 47.03, 84.12 44.68, 87.5 38.12 M81.68 49.39 C82.88 47.07, 84.08 44.75, 87.5 38.12 M87.5 38.12 C89.85 41.17, 92.2 44.22, 96.67 50 M87.5 38.12 C90.54 42.06, 93.58 45.99, 96.67 50 M96.67 50 C96.67 50, 96.67 50, 96.67 50 M96.67 50 C96.67 50, 96.67 50, 96.67 50" stroke="#1971c2" stroke-width="2" fill="none"></path></g></g><mask></mask><g stroke-linecap="round"><g transform="translate(572.2600402832029 335.93670654296886) rotate(0 -53.00006103515625 22)"><path d="M0 0 C-36.52 15.16, -73.04 30.32, -106 44 M0 0 C-24.76 10.28, -49.52 20.56, -106 44" stroke="#1971c2" stroke-width="2" fill="none"></path></g><g transform="translate(572.2600402832029 335.93670654296886) rotate(0 -53.00006103515625 22)"><path d="M0 0 L-10.13 11.07 L-14.99 -0.64 L0 0" stroke="none" stroke-width="0" fill="#1971c2" fill-rule="evenodd"></path><path d="M0 0 C-3.49 3.81, -6.98 7.63, -10.13 11.07 M0 0 C-2.37 2.59, -4.73 5.17, -10.13 11.07 M-10.13 11.07 C-11.5 7.76, -12.87 4.45, -14.99 -0.64 M-10.13 11.07 C-11.3 8.23, -12.48 5.39, -14.99 -0.64 M-14.99 -0.64 C-10.41 -0.45, -5.83 -0.25, 0 0 M-14.99 -0.64 C-10.71 -0.46, -6.43 -0.28, 0 0 M0 0 C0 0, 0 0, 0 0 M0 0 C0 0, 0 0, 0 0" stroke="#1971c2" stroke-width="2" fill="none"></path></g><g transform="translate(572.2600402832029 335.93670654296886) rotate(0 -53.00006103515625 22)"><path d="M-106 44 L-95.87 32.93 L-91.01 44.64 L-106 44" stroke="none" stroke-width="0" fill="#1971c2" fill-rule="evenodd"></path><path d="M-106 44 C-102.51 40.19, -99.02 36.37, -95.87 32.93 M-106 44 C-103.63 41.41, -101.27 38.83, -95.87 32.93 M-95.87 32.93 C-94.5 36.24, -93.13 39.55, -91.01 44.64 M-95.87 32.93 C-94.7 35.77, -93.52 38.61, -91.01 44.64 M-91.01 44.64 C-95.59 44.45, -100.17 44.25, -106 44 M-91.01 44.64 C-95.29 44.46, -99.57 44.28, -106 44 M-106 44 C-106 44, -106 44, -106 44 M-106 44 C-106 44, -106 44, -106 44" stroke="#1971c2" stroke-width="2" fill="none"></path></g></g><mask></mask><g stroke-linecap="round"><g transform="translate(375.25997924804665 416.3656223734861) rotate(0 -104.33331298828125 0.6386344222941034)"><path d="M0 0 C-49.4 0.3, -98.8 0.6, -208.67 1.28 M0 0 C-62.3 0.38, -124.6 0.76, -208.67 1.28" stroke="#1971c2" stroke-width="2" fill="none"></path></g><g transform="translate(375.25997924804665 416.3656223734861) rotate(0 -104.33331298828125 0.6386344222941034)"><path d="M-208.67 1.28 L-195.11 -5.15 L-195.03 7.53 L-208.67 1.28" stroke="none" stroke-width="0" fill="#1971c2" fill-rule="evenodd"></path><path d="M-208.67 1.28 C-205.46 -0.24, -202.25 -1.76, -195.11 -5.15 M-208.67 1.28 C-204.62 -0.64, -200.57 -2.56, -195.11 -5.15 M-195.11 -5.15 C-195.09 -1.58, -195.07 1.98, -195.03 7.53 M-195.11 -5.15 C-195.08 -0.37, -195.05 4.41, -195.03 7.53 M-195.03 7.53 C-198.13 6.11, -201.23 4.69, -208.67 1.28 M-195.03 7.53 C-198.64 5.88, -202.24 4.22, -208.67 1.28 M-208.67 1.28 C-208.67 1.28, -208.67 1.28, -208.67 1.28 M-208.67 1.28 C-208.67 1.28, -208.67 1.28, -208.67 1.28" stroke="#1971c2" stroke-width="2" fill="none"></path></g></g><mask></mask><g stroke-linecap="round"><g transform="translate(92.92663574218727 476.936737060547) rotate(0 0 29)"><path d="M0 0 C0 20.4, 0 40.8, 0 58 M0 0 C0 20.44, 0 40.87, 0 58" stroke="#1971c2" stroke-width="2" fill="none"></path></g><g transform="translate(92.92663574218727 476.936737060547) rotate(0 0 29)"><path d="M0 58 L-6.34 44.41 L6.34 44.41 L0 58" stroke="none" stroke-width="0" fill="#1971c2" fill-rule="evenodd"></path><path d="M0 58 C-2.23 53.22, -4.46 48.44, -6.34 44.41 M0 58 C-2.23 53.21, -4.47 48.42, -6.34 44.41 M-6.34 44.41 C-1.77 44.41, 2.8 44.41, 6.34 44.41 M-6.34 44.41 C-1.53 44.41, 3.28 44.41, 6.34 44.41 M6.34 44.41 C4.48 48.4, 2.61 52.4, 0 58 M6.34 44.41 C5.04 47.18, 3.75 49.96, 0 58 M0 58 C0 58, 0 58, 0 58 M0 58 C0 58, 0 58, 0 58" stroke="#1971c2" stroke-width="2" fill="none"></path></g></g><mask></mask><g stroke-linecap="round"><g transform="translate(337.2633361816404 171.333282470703) rotate(0 -0.333343505859375 38.66668701171875)"><path d="M0 0 C-0.18 21.39, -0.37 42.78, -0.67 77.33 M0 0 C-0.23 27.09, -0.47 54.18, -0.67 77.33" stroke="#1971c2" stroke-width="2" fill="none"></path></g><g transform="translate(337.2633361816404 171.333282470703) rotate(0 -0.333343505859375 38.66668701171875)"><path d="M0 0 L6.22 13.65 L-6.46 13.54 L0 0" stroke="none" stroke-width="0" fill="#1971c2" fill-rule="evenodd"></path><path d="M0 0 C1.72 3.78, 3.44 7.55, 6.22 13.65 M0 0 C2.18 4.78, 4.36 9.56, 6.22 13.65 M6.22 13.65 C1.76 13.61, -2.71 13.57, -6.46 13.54 M6.22 13.65 C1.62 13.61, -2.99 13.57, -6.46 13.54 M-6.46 13.54 C-3.9 8.18, -1.35 2.83, 0 0 M-6.46 13.54 C-4.7 9.85, -2.94 6.16, 0 0 M0 0 C0 0, 0 0, 0 0 M0 0 C0 0, 0 0, 0 0" stroke="#1971c2" stroke-width="2" fill="none"></path></g></g><mask></mask><g stroke-linecap="round"><g transform="translate(557.9299621582031 169.66665649414074) rotate(0 -0.333343505859375 38.66668701171875)"><path d="M0 0 C-0.19 22.33, -0.39 44.66, -0.67 77.33 M0 0 C-0.27 30.91, -0.53 61.81, -0.67 77.33" stroke="#1971c2" stroke-width="2" fill="none"></path></g><g transform="translate(557.9299621582031 169.66665649414074) rotate(0 -0.333343505859375 38.66668701171875)"><path d="M0 0 L6.22 13.65 L-6.46 13.54 L0 0" stroke="none" stroke-width="0" fill="#1971c2" fill-rule="evenodd"></path><path d="M0 0 C1.8 3.94, 3.59 7.88, 6.22 13.65 M0 0 C2.49 5.45, 4.97 10.91, 6.22 13.65 M6.22 13.65 C2.44 13.62, -1.33 13.58, -6.46 13.54 M6.22 13.65 C1.5 13.61, -3.23 13.57, -6.46 13.54 M-6.46 13.54 C-4.25 8.91, -2.04 4.28, 0 0 M-6.46 13.54 C-5.08 10.65, -3.7 7.77, 0 0 M0 0 C0 0, 0 0, 0 0 M0 0 C0 0, 0 0, 0 0" stroke="#1971c2" stroke-width="2" fill="none"></path></g></g><mask></mask><g stroke-linecap="round"><g transform="translate(172.59655761718716 449.2698977504399) rotate(0 101.00000000000011 -0.26824458356827563)"><path d="M0 0 C80.01 -0.21, 160.02 -0.42, 202 -0.54 M0 0 C72.13 -0.19, 144.27 -0.38, 202 -0.54" stroke="#1971c2" stroke-width="2" fill="none"></path></g><g transform="translate(172.59655761718716 449.2698977504399) rotate(0 101.00000000000011 -0.26824458356827563)"><path d="M202 -0.54 L188.42 5.84 L188.39 -6.84 L202 -0.54" stroke="none" stroke-width="0" fill="#1971c2" fill-rule="evenodd"></path><path d="M202 -0.54 C196.62 1.99, 191.24 4.51, 188.42 5.84 M202 -0.54 C197.15 1.74, 192.3 4.02, 188.42 5.84 M188.42 5.84 C188.41 1.18, 188.4 -3.49, 188.39 -6.84 M188.42 5.84 C188.41 2.87, 188.41 -0.09, 188.39 -6.84 M188.39 -6.84 C192.43 -4.97, 196.47 -3.1, 202 -0.54 M188.39 -6.84 C191.85 -5.24, 195.31 -3.64, 202 -0.54 M202 -0.54 C202 -0.54, 202 -0.54, 202 -0.54 M202 -0.54 C202 -0.54, 202 -0.54, 202 -0.54" stroke="#1971c2" stroke-width="2" fill="none"></path></g></g><mask></mask><g stroke-linecap="round"><g transform="translate(64.92999267578102 535.000030517578) rotate(0 0.3333740234375 -30.66668701171875)"><path d="M0 0 C0.24 -21.85, 0.48 -43.7, 0.67 -61.33 M0 0 C0.19 -17.6, 0.38 -35.19, 0.67 -61.33" stroke="#1971c2" stroke-width="2" fill="none"></path></g><g transform="translate(64.92999267578102 535.000030517578) rotate(0 0.3333740234375 -30.66668701171875)"><path d="M0.67 -61.33 L6.86 -47.67 L-5.82 -47.81 L0.67 -61.33" stroke="none" stroke-width="0" fill="#1971c2" fill-rule="evenodd"></path><path d="M0.67 -61.33 C2.87 -56.47, 5.08 -51.6, 6.86 -47.67 M0.67 -61.33 C2.44 -57.41, 4.22 -53.49, 6.86 -47.67 M6.86 -47.67 C3.51 -47.71, 0.17 -47.74, -5.82 -47.81 M6.86 -47.67 C2.66 -47.72, -1.54 -47.76, -5.82 -47.81 M-5.82 -47.81 C-3.26 -53.15, -0.7 -58.49, 0.67 -61.33 M-5.82 -47.81 C-3.4 -52.86, -0.97 -57.91, 0.67 -61.33 M0.67 -61.33 C0.67 -61.33, 0.67 -61.33, 0.67 -61.33 M0.67 -61.33 C0.67 -61.33, 0.67 -61.33, 0.67 -61.33" stroke="#1971c2" stroke-width="2" fill="none"></path></g></g><mask></mask><g stroke-linecap="round"><g transform="translate(257.59674072265614 215.00003051757812) rotate(0 210.3333129882813 0.33331298828125)"><path d="M0 0 C140.67 -0.95, 282.99 -1.77, 420.67 0.67" stroke="#1e1e1e" stroke-width="1.5" fill="none" stroke-dasharray="8 9"></path></g></g><mask></mask><g transform="translate(422.92999267578114 10) rotate(0 66.93066406250006 16.099999999999994)"><text x="0" y="25.760546874999996" font-family="Helvetica, Segoe UI Emoji" font-size="28px" fill="#1e1e1e" text-anchor="start" style="white-space: pre;" direction="ltr" dominant-baseline="alphabetic">Root Linux</text></g><g transform="translate(147.79010009765625 160.89999999999998) rotate(0 42 16.100000000000023)"><text x="0" y="25.760546874999996" font-family="Helvetica, Segoe UI Emoji" font-size="28px" fill="#1e1e1e" text-anchor="start" style="white-space: pre;" direction="ltr" dominant-baseline="alphabetic">用户态</text></g><g transform="translate(146.26336669921875 230.9000305175781) rotate(0 42 16.100000000000023)"><text x="0" y="25.760546874999996" font-family="Helvetica, Segoe UI Emoji" font-size="28px" fill="#1e1e1e" text-anchor="start" style="white-space: pre;" direction="ltr" dominant-baseline="alphabetic">内核态</text></g></svg>