<svg version="1.1" xmlns="http://www.w3.org/2000/svg" viewBox="0 0 604.6878051757812 585.6667098999023" width="604.6878051757812" height="585.6667098999023">
  <!-- svg-source:excalidraw -->
  
  <defs>
    <style class="style-fonts">
      @font-face {
        font-family: "Virgil";
        src: url("https://excalidraw.com/Virgil.woff2");
      }
      @font-face {
        font-family: "Cascadia";
        src: url("https://excalidraw.com/Cascadia.woff2");
      }
      @font-face {
        font-family: "Assistant";
        src: url("https://excalidraw.com/Assistant-Regular.woff2");
      }
    </style>
    
  </defs>
  <g stroke-linecap="round" transform="translate(100.17337036132812 125.60344509286392) rotate(0 92.58670043945312 89.29178013527002)"><path d="M185.17 89.29 C185.17 92.21, 185.02 95.14, 184.73 98.04 C184.43 100.95, 183.98 103.85, 183.39 106.71 C182.8 109.57, 182.06 112.42, 181.19 115.21 C180.31 118, 179.28 120.77, 178.13 123.46 C176.97 126.16, 175.67 128.81, 174.24 131.38 C172.81 133.96, 171.25 136.47, 169.57 138.9 C167.89 141.33, 166.08 143.68, 164.16 145.94 C162.24 148.19, 160.19 150.37, 158.06 152.43 C155.92 154.49, 153.66 156.46, 151.32 158.32 C148.98 160.17, 146.54 161.91, 144.03 163.54 C141.51 165.16, 138.9 166.66, 136.23 168.04 C133.56 169.42, 130.81 170.67, 128.02 171.79 C125.22 172.9, 122.36 173.89, 119.46 174.74 C116.57 175.59, 113.62 176.3, 110.65 176.87 C107.68 177.44, 104.67 177.87, 101.66 178.15 C98.65 178.44, 95.61 178.58, 92.59 178.58 C89.56 178.58, 86.52 178.44, 83.51 178.15 C80.5 177.87, 77.49 177.44, 74.52 176.87 C71.56 176.3, 68.6 175.59, 65.71 174.74 C62.82 173.89, 59.95 172.9, 57.16 171.79 C54.36 170.67, 51.61 169.42, 48.94 168.04 C46.27 166.66, 43.66 165.16, 41.15 163.54 C38.63 161.91, 36.19 160.17, 33.85 158.32 C31.51 156.46, 29.26 154.49, 27.12 152.43 C24.98 150.37, 22.94 148.19, 21.02 145.94 C19.1 143.68, 17.28 141.33, 15.6 138.9 C13.92 136.47, 12.36 133.96, 10.93 131.38 C9.51 128.81, 8.21 126.16, 7.05 123.46 C5.89 120.77, 4.86 118, 3.99 115.21 C3.11 112.42, 2.37 109.57, 1.78 106.71 C1.19 103.85, 0.74 100.95, 0.45 98.04 C0.15 95.14, 0 92.21, 0 89.29 C0 86.37, 0.15 83.44, 0.45 80.54 C0.74 77.64, 1.19 74.73, 1.78 71.87 C2.37 69.01, 3.11 66.16, 3.99 63.37 C4.86 60.58, 5.89 57.82, 7.05 55.12 C8.21 52.43, 9.51 49.77, 10.93 47.2 C12.36 44.63, 13.92 42.11, 15.6 39.68 C17.28 37.26, 19.1 34.9, 21.02 32.65 C22.94 30.39, 24.98 28.22, 27.12 26.15 C29.26 24.09, 31.51 22.12, 33.85 20.27 C36.19 18.42, 38.63 16.67, 41.15 15.05 C43.66 13.43, 46.27 11.92, 48.94 10.54 C51.61 9.17, 54.36 7.91, 57.16 6.8 C59.95 5.68, 62.82 4.69, 65.71 3.84 C68.6 3, 71.56 2.28, 74.52 1.72 C77.49 1.15, 80.5 0.72, 83.51 0.43 C86.52 0.14, 89.56 0, 92.59 0 C95.61 0, 98.65 0.14, 101.66 0.43 C104.67 0.72, 107.68 1.15, 110.65 1.72 C113.62 2.28, 116.57 3, 119.46 3.84 C122.36 4.69, 125.22 5.68, 128.02 6.8 C130.81 7.91, 133.56 9.17, 136.23 10.54 C138.9 11.92, 141.51 13.43, 144.03 15.05 C146.54 16.67, 148.98 18.42, 151.32 20.27 C153.66 22.12, 155.92 24.09, 158.06 26.15 C160.19 28.22, 162.24 30.39, 164.16 32.65 C166.08 34.9, 167.89 37.26, 169.57 39.68 C171.25 42.11, 172.81 44.63, 174.24 47.2 C175.67 49.77, 176.97 52.43, 178.13 55.12 C179.28 57.82, 180.31 60.58, 181.19 63.37 C182.06 66.16, 182.8 69.01, 183.39 71.87 C183.98 74.73, 184.43 77.64, 184.73 80.54 C185.02 83.44, 185.1 87.83, 185.17 89.29 C185.25 90.75, 185.25 87.83, 185.17 89.29" stroke="none" stroke-width="0" fill="#b2f2bb"></path><path d="M185.17 89.29 C185.17 92.21, 185.02 95.14, 184.73 98.04 C184.43 100.95, 183.98 103.85, 183.39 106.71 C182.8 109.57, 182.06 112.42, 181.19 115.21 C180.31 118, 179.28 120.77, 178.13 123.46 C176.97 126.16, 175.67 128.81, 174.24 131.38 C172.81 133.96, 171.25 136.47, 169.57 138.9 C167.89 141.33, 166.08 143.68, 164.16 145.94 C162.24 148.19, 160.19 150.37, 158.06 152.43 C155.92 154.49, 153.66 156.46, 151.32 158.32 C148.98 160.17, 146.54 161.91, 144.03 163.54 C141.51 165.16, 138.9 166.66, 136.23 168.04 C133.56 169.42, 130.81 170.67, 128.02 171.79 C125.22 172.9, 122.36 173.89, 119.46 174.74 C116.57 175.59, 113.62 176.3, 110.65 176.87 C107.68 177.44, 104.67 177.87, 101.66 178.15 C98.65 178.44, 95.61 178.58, 92.59 178.58 C89.56 178.58, 86.52 178.44, 83.51 178.15 C80.5 177.87, 77.49 177.44, 74.52 176.87 C71.56 176.3, 68.6 175.59, 65.71 174.74 C62.82 173.89, 59.95 172.9, 57.16 171.79 C54.36 170.67, 51.61 169.42, 48.94 168.04 C46.27 166.66, 43.66 165.16, 41.15 163.54 C38.63 161.91, 36.19 160.17, 33.85 158.32 C31.51 156.46, 29.26 154.49, 27.12 152.43 C24.98 150.37, 22.94 148.19, 21.02 145.94 C19.1 143.68, 17.28 141.33, 15.6 138.9 C13.92 136.47, 12.36 133.96, 10.93 131.38 C9.51 128.81, 8.21 126.16, 7.05 123.46 C5.89 120.77, 4.86 118, 3.99 115.21 C3.11 112.42, 2.37 109.57, 1.78 106.71 C1.19 103.85, 0.74 100.95, 0.45 98.04 C0.15 95.14, 0 92.21, 0 89.29 C0 86.37, 0.15 83.44, 0.45 80.54 C0.74 77.64, 1.19 74.73, 1.78 71.87 C2.37 69.01, 3.11 66.16, 3.99 63.37 C4.86 60.58, 5.89 57.82, 7.05 55.12 C8.21 52.43, 9.51 49.77, 10.93 47.2 C12.36 44.63, 13.92 42.11, 15.6 39.68 C17.28 37.26, 19.1 34.9, 21.02 32.65 C22.94 30.39, 24.98 28.22, 27.12 26.15 C29.26 24.09, 31.51 22.12, 33.85 20.27 C36.19 18.42, 38.63 16.67, 41.15 15.05 C43.66 13.43, 46.27 11.92, 48.94 10.54 C51.61 9.17, 54.36 7.91, 57.16 6.8 C59.95 5.68, 62.82 4.69, 65.71 3.84 C68.6 3, 71.56 2.28, 74.52 1.72 C77.49 1.15, 80.5 0.72, 83.51 0.43 C86.52 0.14, 89.56 0, 92.59 0 C95.61 0, 98.65 0.14, 101.66 0.43 C104.67 0.72, 107.68 1.15, 110.65 1.72 C113.62 2.28, 116.57 3, 119.46 3.84 C122.36 4.69, 125.22 5.68, 128.02 6.8 C130.81 7.91, 133.56 9.17, 136.23 10.54 C138.9 11.92, 141.51 13.43, 144.03 15.05 C146.54 16.67, 148.98 18.42, 151.32 20.27 C153.66 22.12, 155.92 24.09, 158.06 26.15 C160.19 28.22, 162.24 30.39, 164.16 32.65 C166.08 34.9, 167.89 37.26, 169.57 39.68 C171.25 42.11, 172.81 44.63, 174.24 47.2 C175.67 49.77, 176.97 52.43, 178.13 55.12 C179.28 57.82, 180.31 60.58, 181.19 63.37 C182.06 66.16, 182.8 69.01, 183.39 71.87 C183.98 74.73, 184.43 77.64, 184.73 80.54 C185.02 83.44, 185.1 87.83, 185.17 89.29 C185.25 90.75, 185.25 87.83, 185.17 89.29" stroke="#2f9e44" stroke-width="2" fill="none"></path></g><g stroke-linecap="round" transform="translate(119.48963669219836 142.11911597014944) rotate(0 73.47631507486841 73.8057340477094)"><path d="M146.95 73.81 C146.95 76.56, 146.8 79.33, 146.49 82.07 C146.18 84.81, 145.72 87.54, 145.11 90.23 C144.5 92.91, 143.74 95.58, 142.83 98.18 C141.92 100.78, 140.87 103.35, 139.68 105.83 C138.49 108.31, 137.15 110.74, 135.69 113.07 C134.23 115.41, 132.63 117.67, 130.92 119.82 C129.21 121.98, 127.37 124.05, 125.43 125.99 C123.49 127.94, 121.43 129.79, 119.29 131.51 C117.14 133.23, 114.89 134.83, 112.57 136.3 C110.25 137.76, 107.83 139.11, 105.36 140.3 C102.89 141.5, 100.33 142.56, 97.74 143.47 C95.16 144.38, 92.5 145.15, 89.83 145.76 C87.15 146.37, 84.43 146.84, 81.7 147.15 C78.98 147.46, 76.22 147.61, 73.48 147.61 C70.73 147.61, 67.97 147.46, 65.25 147.15 C62.52 146.84, 59.8 146.37, 57.13 145.76 C54.45 145.15, 51.8 144.38, 49.21 143.47 C46.62 142.56, 44.07 141.5, 41.6 140.3 C39.13 139.11, 36.71 137.76, 34.38 136.3 C32.06 134.83, 29.81 133.23, 27.66 131.51 C25.52 129.79, 23.46 127.94, 21.52 125.99 C19.58 124.05, 17.74 121.98, 16.03 119.82 C14.32 117.67, 12.72 115.41, 11.26 113.07 C9.8 110.74, 8.47 108.31, 7.28 105.83 C6.09 103.35, 5.03 100.78, 4.12 98.18 C3.22 95.58, 2.45 92.91, 1.84 90.23 C1.23 87.54, 0.77 84.81, 0.46 82.07 C0.15 79.33, 0 76.56, 0 73.81 C0 71.05, 0.15 68.28, 0.46 65.54 C0.77 62.8, 1.23 60.07, 1.84 57.38 C2.45 54.7, 3.22 52.03, 4.12 49.43 C5.03 46.83, 6.09 44.26, 7.28 41.78 C8.47 39.3, 9.8 36.87, 11.26 34.54 C12.72 32.21, 14.32 29.94, 16.03 27.79 C17.74 25.64, 19.58 23.56, 21.52 21.62 C23.46 19.67, 25.52 17.82, 27.66 16.1 C29.81 14.38, 32.06 12.78, 34.38 11.31 C36.71 9.85, 39.13 8.5, 41.6 7.31 C44.07 6.11, 46.62 5.05, 49.21 4.14 C51.8 3.23, 54.45 2.46, 57.13 1.85 C59.8 1.24, 62.52 0.77, 65.25 0.46 C67.97 0.16, 70.73 0, 73.48 0 C76.22 0, 78.98 0.16, 81.7 0.46 C84.43 0.77, 87.15 1.24, 89.83 1.85 C92.5 2.46, 95.16 3.23, 97.74 4.14 C100.33 5.05, 102.89 6.11, 105.36 7.31 C107.83 8.5, 110.25 9.85, 112.57 11.31 C114.89 12.78, 117.14 14.38, 119.29 16.1 C121.43 17.82, 123.49 19.67, 125.43 21.62 C127.37 23.56, 129.21 25.64, 130.92 27.79 C132.63 29.94, 134.23 32.21, 135.69 34.54 C137.15 36.87, 138.49 39.3, 139.68 41.78 C140.87 44.26, 141.92 46.83, 142.83 49.43 C143.74 52.03, 144.5 54.7, 145.11 57.38 C145.72 60.07, 146.18 62.8, 146.49 65.54 C146.8 68.28, 146.88 72.43, 146.95 73.81 C147.03 75.18, 147.03 72.43, 146.95 73.81" stroke="none" stroke-width="0" fill="#ffffff"></path><path d="M146.95 73.81 C146.95 76.56, 146.8 79.33, 146.49 82.07 C146.18 84.81, 145.72 87.54, 145.11 90.23 C144.5 92.91, 143.74 95.58, 142.83 98.18 C141.92 100.78, 140.87 103.35, 139.68 105.83 C138.49 108.31, 137.15 110.74, 135.69 113.07 C134.23 115.41, 132.63 117.67, 130.92 119.82 C129.21 121.98, 127.37 124.05, 125.43 125.99 C123.49 127.94, 121.43 129.79, 119.29 131.51 C117.14 133.23, 114.89 134.83, 112.57 136.3 C110.25 137.76, 107.83 139.11, 105.36 140.3 C102.89 141.5, 100.33 142.56, 97.74 143.47 C95.16 144.38, 92.5 145.15, 89.83 145.76 C87.15 146.37, 84.43 146.84, 81.7 147.15 C78.98 147.46, 76.22 147.61, 73.48 147.61 C70.73 147.61, 67.97 147.46, 65.25 147.15 C62.52 146.84, 59.8 146.37, 57.13 145.76 C54.45 145.15, 51.8 144.38, 49.21 143.47 C46.62 142.56, 44.07 141.5, 41.6 140.3 C39.13 139.11, 36.71 137.76, 34.38 136.3 C32.06 134.83, 29.81 133.23, 27.66 131.51 C25.52 129.79, 23.46 127.94, 21.52 125.99 C19.58 124.05, 17.74 121.98, 16.03 119.82 C14.32 117.67, 12.72 115.41, 11.26 113.07 C9.8 110.74, 8.47 108.31, 7.28 105.83 C6.09 103.35, 5.03 100.78, 4.12 98.18 C3.22 95.58, 2.45 92.91, 1.84 90.23 C1.23 87.54, 0.77 84.81, 0.46 82.07 C0.15 79.33, 0 76.56, 0 73.81 C0 71.05, 0.15 68.28, 0.46 65.54 C0.77 62.8, 1.23 60.07, 1.84 57.38 C2.45 54.7, 3.22 52.03, 4.12 49.43 C5.03 46.83, 6.09 44.26, 7.28 41.78 C8.47 39.3, 9.8 36.87, 11.26 34.54 C12.72 32.21, 14.32 29.94, 16.03 27.79 C17.74 25.64, 19.58 23.56, 21.52 21.62 C23.46 19.67, 25.52 17.82, 27.66 16.1 C29.81 14.38, 32.06 12.78, 34.38 11.31 C36.71 9.85, 39.13 8.5, 41.6 7.31 C44.07 6.11, 46.62 5.05, 49.21 4.14 C51.8 3.23, 54.45 2.46, 57.13 1.85 C59.8 1.24, 62.52 0.77, 65.25 0.46 C67.97 0.16, 70.73 0, 73.48 0 C76.22 0, 78.98 0.16, 81.7 0.46 C84.43 0.77, 87.15 1.24, 89.83 1.85 C92.5 2.46, 95.16 3.23, 97.74 4.14 C100.33 5.05, 102.89 6.11, 105.36 7.31 C107.83 8.5, 110.25 9.85, 112.57 11.31 C114.89 12.78, 117.14 14.38, 119.29 16.1 C121.43 17.82, 123.49 19.67, 125.43 21.62 C127.37 23.56, 129.21 25.64, 130.92 27.79 C132.63 29.94, 134.23 32.21, 135.69 34.54 C137.15 36.87, 138.49 39.3, 139.68 41.78 C140.87 44.26, 141.92 46.83, 142.83 49.43 C143.74 52.03, 144.5 54.7, 145.11 57.38 C145.72 60.07, 146.18 62.8, 146.49 65.54 C146.8 68.28, 146.88 72.43, 146.95 73.81 C147.03 75.18, 147.03 72.43, 146.95 73.81" stroke="#2f9e44" stroke-width="2" fill="none"></path></g><g stroke-linecap="round" transform="translate(180.3333740234375 126) rotate(0 13.333343505859375 7.666656494140625)"><path d="M3.83 0 C8.38 1.48, 15.36 -0.76, 22.83 0 M3.83 0 C7.37 -0.41, 13.02 0.73, 22.83 0 M22.83 0 C26.37 1.99, 28.08 1.98, 26.67 3.83 M22.83 0 C26.62 -0.3, 27.83 3.41, 26.67 3.83 M26.67 3.83 C27.34 6.73, 27.42 8.97, 26.67 11.5 M26.67 3.83 C26.64 6.52, 26.76 9.03, 26.67 11.5 M26.67 11.5 C25.55 12.61, 27.19 15.01, 22.83 15.33 M26.67 11.5 C24.87 14.92, 25.05 14.78, 22.83 15.33 M22.83 15.33 C16.93 15.13, 12.05 16.44, 3.83 15.33 M22.83 15.33 C17.74 16.45, 14.2 15.4, 3.83 15.33 M3.83 15.33 C0.88 13.4, 0.32 15.55, 0 11.5 M3.83 15.33 C0.75 15.13, 0.91 12.94, 0 11.5 M0 11.5 C0.36 9.39, -0.65 8.38, 0 3.83 M0 11.5 C-0.26 8.77, 0.07 6.89, 0 3.83 M0 3.83 C-0.71 2.22, 2.84 0, 3.83 0 M0 3.83 C-0.4 3.56, 1.81 -1.85, 3.83 0" stroke="#099268" stroke-width="2" fill="none"></path></g><g stroke-linecap="round" transform="translate(207.66671752929688 131) rotate(14.036243467926484 13.333343505859375 7.666656494140625)"><path d="M3.83 0 C8.41 -1.71, 14.87 -0.29, 22.83 0 M3.83 0 C10.01 0.59, 15.73 -0.61, 22.83 0 M22.83 0 C26.67 1.13, 25.39 2.05, 26.67 3.83 M22.83 0 C26.94 0.69, 26.19 1.26, 26.67 3.83 M26.67 3.83 C25.91 5.5, 26.93 7.34, 26.67 11.5 M26.67 3.83 C26.52 6.5, 26.66 9.62, 26.67 11.5 M26.67 11.5 C27.46 13.2, 27.26 17.32, 22.83 15.33 M26.67 11.5 C28.68 13.5, 26.22 13.12, 22.83 15.33 M22.83 15.33 C17.11 13.93, 7.55 16.46, 3.83 15.33 M22.83 15.33 C17.81 15.69, 15.09 15.03, 3.83 15.33 M3.83 15.33 C0.95 14.2, -1.91 14.48, 0 11.5 M3.83 15.33 C0.36 13.59, -0.08 13.67, 0 11.5 M0 11.5 C-0.41 9.1, 0.27 7.32, 0 3.83 M0 11.5 C0.15 9.47, -0.08 6.92, 0 3.83 M0 3.83 C0.2 1.87, -0.65 1.82, 3.83 0 M0 3.83 C-1.05 -0.51, 0.73 -1.6, 3.83 0" stroke="#099268" stroke-width="2" fill="none"></path></g><g stroke-linecap="round" transform="translate(232.33340454101574 145.00000000000006) rotate(38.659782665844126 13.333343505859375 7.666656494140625)"><path d="M3.83 0 C7.34 -0.89, 15.12 1.3, 22.83 0 M3.83 0 C10.32 0.2, 18.29 0.27, 22.83 0 M22.83 0 C24.26 -0.83, 25.98 1.52, 26.67 3.83 M22.83 0 C26.69 0.86, 28.7 0.45, 26.67 3.83 M26.67 3.83 C26.12 6.08, 26.76 8.56, 26.67 11.5 M26.67 3.83 C26.87 6.52, 26.87 8.65, 26.67 11.5 M26.67 11.5 C24.97 16.03, 25.19 13.65, 22.83 15.33 M26.67 11.5 C28.92 13.66, 23.77 16.59, 22.83 15.33 M22.83 15.33 C16.59 16.42, 8.48 15.44, 3.83 15.33 M22.83 15.33 C16.88 15.94, 11.9 14.71, 3.83 15.33 M3.83 15.33 C2.41 15.3, 1.28 13.49, 0 11.5 M3.83 15.33 C0.3 16.84, -0.36 12.26, 0 11.5 M0 11.5 C0.49 9.09, 0.69 8.86, 0 3.83 M0 11.5 C0.31 8.17, -0.01 5.86, 0 3.83 M0 3.83 C0.94 2.14, 1.52 -1.72, 3.83 0 M0 3.83 C-1.86 2.51, -0.83 1.29, 3.83 0" stroke="#099268" stroke-width="2" fill="none"></path></g><g stroke-linecap="round" transform="translate(250.66659545898438 164.33334350585938) rotate(54.36027220501386 13.333343505859375 7.666656494140625)"><path d="M3.83 0 C12.75 0.1, 19.34 -1.11, 22.83 0 M3.83 0 C8.34 -0.26, 12.01 -0.29, 22.83 0 M22.83 0 C23.41 1.69, 26.59 0.91, 26.67 3.83 M22.83 0 C23.69 2.02, 26.17 1.8, 26.67 3.83 M26.67 3.83 C25.96 6.95, 27.03 8.32, 26.67 11.5 M26.67 3.83 C26.71 5.82, 26.3 6.74, 26.67 11.5 M26.67 11.5 C25.03 13.17, 25.58 14.32, 22.83 15.33 M26.67 11.5 C28.7 14.27, 25.93 15.79, 22.83 15.33 M22.83 15.33 C15.68 14.67, 8.84 16.94, 3.83 15.33 M22.83 15.33 C17.05 15.55, 8.9 16.02, 3.83 15.33 M3.83 15.33 C2.7 14.06, 1.02 15.31, 0 11.5 M3.83 15.33 C2.38 13.45, 1.14 12.02, 0 11.5 M0 11.5 C0.6 9.11, 0.63 6.44, 0 3.83 M0 11.5 C0.04 9.15, -0.37 6.77, 0 3.83 M0 3.83 C1.87 0.84, 2.53 -0.83, 3.83 0 M0 3.83 C1.57 1.79, 0.22 -0.78, 3.83 0" stroke="#099268" stroke-width="2" fill="none"></path></g><g stroke-linecap="round" transform="translate(260.6666564941406 191.33334350585932) rotate(76.476871131408 13.333343505859375 7.666656494140625)"><path d="M3.83 0 C9.48 -0.21, 14.72 -1.52, 22.83 0 M3.83 0 C8.48 -0.06, 13.73 -0.07, 22.83 0 M22.83 0 C23.58 -0.07, 27.13 3.17, 26.67 3.83 M22.83 0 C24.97 -1.04, 26.64 1.64, 26.67 3.83 M26.67 3.83 C27.39 7.1, 27.19 10.46, 26.67 11.5 M26.67 3.83 C26.83 6.61, 26.62 9.66, 26.67 11.5 M26.67 11.5 C26.95 12.84, 24.59 15.53, 22.83 15.33 M26.67 11.5 C25.81 14.6, 24.31 14.08, 22.83 15.33 M22.83 15.33 C13.72 16.28, 9.92 15.73, 3.83 15.33 M22.83 15.33 C16.81 14.76, 11.22 15.74, 3.83 15.33 M3.83 15.33 C0.16 13.62, 0.35 13.76, 0 11.5 M3.83 15.33 C0.09 17, -1.77 12.41, 0 11.5 M0 11.5 C0.18 10, -0.59 7.93, 0 3.83 M0 11.5 C-0.36 8.74, 0.34 6.43, 0 3.83 M0 3.83 C1.02 1.01, 1.14 -1.34, 3.83 0 M0 3.83 C2.19 0.08, -0.16 0.78, 3.83 0" stroke="#099268" stroke-width="2" fill="none"></path></g><g stroke-linecap="round" transform="translate(261.66665649414074 220.33334350585932) rotate(101.3099324740204 13.333343505859375 7.666656494140625)"><path d="M3.83 0 C10.27 -0.46, 16.67 0.93, 22.83 0 M3.83 0 C9.08 -0.95, 12.63 -0.78, 22.83 0 M22.83 0 C24.07 -1.54, 26.83 0.24, 26.67 3.83 M22.83 0 C26.96 -1.1, 28.54 0.89, 26.67 3.83 M26.67 3.83 C26.11 6.34, 27.03 9.81, 26.67 11.5 M26.67 3.83 C26.41 5.26, 26.45 7.49, 26.67 11.5 M26.67 11.5 C28.25 15.33, 24.82 14.24, 22.83 15.33 M26.67 11.5 C28.48 13.06, 23.35 16.39, 22.83 15.33 M22.83 15.33 C15.88 16.99, 9 14.17, 3.83 15.33 M22.83 15.33 C18.03 15.91, 15.06 14.97, 3.83 15.33 M3.83 15.33 C1.34 14.49, -0.39 14.32, 0 11.5 M3.83 15.33 C2.82 14.56, 1.21 12.39, 0 11.5 M0 11.5 C0.06 8.34, -0.51 7.01, 0 3.83 M0 11.5 C-0.26 9.39, -0.3 7.07, 0 3.83 M0 3.83 C1.59 -0.06, 2.92 -1.95, 3.83 0 M0 3.83 C1.45 2.22, 2.03 1.95, 3.83 0" stroke="#099268" stroke-width="2" fill="none"></path></g><g stroke-linecap="round" transform="translate(253.33334350585926 245.66665649414062) rotate(121.09735358677457 13.333343505859375 7.666656494140625)"><path d="M3.83 0 C10.86 -0.63, 18.84 1.96, 22.83 0 M3.83 0 C9.1 0.7, 16.98 0.77, 22.83 0 M22.83 0 C26.44 1.11, 27.34 0.32, 26.67 3.83 M22.83 0 C23.85 -1.28, 26.45 1.6, 26.67 3.83 M26.67 3.83 C27.31 6.55, 26.1 8.92, 26.67 11.5 M26.67 3.83 C27.06 6.18, 26.54 9.26, 26.67 11.5 M26.67 11.5 C28.22 14.91, 24.39 15.6, 22.83 15.33 M26.67 11.5 C26.16 16.17, 23.24 15.28, 22.83 15.33 M22.83 15.33 C17.67 16.65, 7.59 15.61, 3.83 15.33 M22.83 15.33 C16.62 15.59, 12.5 15.76, 3.83 15.33 M3.83 15.33 C-0.42 14.08, -0.67 14.79, 0 11.5 M3.83 15.33 C2.69 17.29, -0.26 14.12, 0 11.5 M0 11.5 C-0.18 9.45, 0.16 7.36, 0 3.83 M0 11.5 C-0.16 9.06, -0.42 6.08, 0 3.83 M0 3.83 C1.26 2.54, -0.45 -1.89, 3.83 0 M0 3.83 C1.4 2.55, 2.99 2.19, 3.83 0" stroke="#099268" stroke-width="2" fill="none"></path></g><g stroke-linecap="round" transform="translate(235.66665649414062 267.0000305175782) rotate(139.39868992679862 13.333343505859375 7.666656494140625)"><path d="M3.83 0 C6.75 0.56, 10.6 1.35, 22.83 0 M3.83 0 C11.54 -0.52, 18.6 -0.33, 22.83 0 M22.83 0 C23.53 1.98, 27.73 2.21, 26.67 3.83 M22.83 0 C24.85 0.25, 27.42 -0.84, 26.67 3.83 M26.67 3.83 C26.94 6.34, 27.25 9.35, 26.67 11.5 M26.67 3.83 C26.88 6.27, 26.59 8.04, 26.67 11.5 M26.67 11.5 C27.98 15.34, 25.6 13.44, 22.83 15.33 M26.67 11.5 C25.32 12.98, 25.83 14.47, 22.83 15.33 M22.83 15.33 C17.35 14.88, 8.88 15.58, 3.83 15.33 M22.83 15.33 C15.35 14.84, 8.57 15, 3.83 15.33 M3.83 15.33 C0.64 16.29, -0.21 15.98, 0 11.5 M3.83 15.33 C0.29 16.97, -0.57 14.68, 0 11.5 M0 11.5 C0.37 8.79, 0.54 6.76, 0 3.83 M0 11.5 C-0.17 9.68, -0.21 8.33, 0 3.83 M0 3.83 C-1.8 -0.2, -0.34 -0.88, 3.83 0 M0 3.83 C2.28 2.39, 2.09 0.48, 3.83 0" stroke="#099268" stroke-width="2" fill="none"></path></g><g stroke-linecap="round" transform="translate(213.00003051757812 282.3333435058594) rotate(157.8906549850712 13.333343505859375 7.666656494140625)"><path d="M3.83 0 C9.76 -0.67, 15.12 -0.09, 22.83 0 M3.83 0 C8.06 0.57, 12.54 -0.62, 22.83 0 M22.83 0 C26.95 -0.44, 26.6 1, 26.67 3.83 M22.83 0 C27.45 -0.63, 26.12 -0.41, 26.67 3.83 M26.67 3.83 C26.23 5.96, 26.12 9.35, 26.67 11.5 M26.67 3.83 C26.88 6.79, 26.49 9.21, 26.67 11.5 M26.67 11.5 C28.45 14.97, 24.57 17.3, 22.83 15.33 M26.67 11.5 C26.65 15.06, 25.65 13.8, 22.83 15.33 M22.83 15.33 C16.11 15, 12.44 14.38, 3.83 15.33 M22.83 15.33 C17.94 15.16, 12.12 15.32, 3.83 15.33 M3.83 15.33 C0.2 14.29, -1.19 16.05, 0 11.5 M3.83 15.33 C0.79 16.8, -0.45 14.42, 0 11.5 M0 11.5 C-0.61 8.91, 0.38 5.66, 0 3.83 M0 11.5 C0.14 8.87, -0.33 6.45, 0 3.83 M0 3.83 C1.53 2.1, 0.82 0.66, 3.83 0 M0 3.83 C-0.33 2.36, 3.03 1.11, 3.83 0" stroke="#099268" stroke-width="2" fill="none"></path></g><g stroke-linecap="round" transform="translate(243.00006103515625 10) rotate(0 85.33331298828125 36.333335876464844)"><path d="M0 0 L170.67 0 L170.67 72.67 L0 72.67" stroke="none" stroke-width="0" fill="#e3fafc"></path><path d="M0 0 C50.26 0, 100.51 0, 170.67 0 M0 0 C61.33 0, 122.67 0, 170.67 0 M170.67 0 C170.67 25.23, 170.67 50.47, 170.67 72.67 M170.67 0 C170.67 21, 170.67 42.01, 170.67 72.67 M170.67 72.67 C107.23 72.67, 43.8 72.67, 0 72.67 M170.67 72.67 C112.89 72.67, 55.11 72.67, 0 72.67 M0 72.67 C0 55.63, 0 38.59, 0 0 M0 72.67 C0 49.3, 0 25.94, 0 0" stroke="#1e1e1e" stroke-width="2" fill="none"></path></g><g transform="translate(265.7308349609375 34.833335876464844) rotate(0 62.6025390625 11.5)"><text x="62.6025390625" y="18.400390625" font-family="Helvetica, Segoe UI Emoji" font-size="20px" fill="#1e1e1e" text-anchor="middle" style="white-space: pre;" direction="ltr" dominant-baseline="alphabetic">Virtio守护进程</text></g><g stroke-linecap="round" transform="translate(246.33343505859375 354.33329010009766) rotate(0 85.33331298828125 36.333335876464844)"><path d="M0 0 L170.67 0 L170.67 72.67 L0 72.67" stroke="none" stroke-width="0" fill="#f3f0ff"></path><path d="M0 0 C45.03 0, 90.06 0, 170.67 0 M0 0 C67.25 0, 134.5 0, 170.67 0 M170.67 0 C170.67 24.63, 170.67 49.26, 170.67 72.67 M170.67 0 C170.67 28.79, 170.67 57.59, 170.67 72.67 M170.67 72.67 C107.57 72.67, 44.47 72.67, 0 72.67 M170.67 72.67 C124.44 72.67, 78.22 72.67, 0 72.67 M0 72.67 C0 57.32, 0 41.96, 0 0 M0 72.67 C0 44.64, 0 16.62, 0 0" stroke="#1e1e1e" stroke-width="2" fill="none"></path></g><g transform="translate(304.991943359375 379.1666259765625) rotate(0 26.6748046875 11.5)"><text x="26.6748046875" y="18.400390625" font-family="Helvetica, Segoe UI Emoji" font-size="20px" fill="#1e1e1e" text-anchor="middle" style="white-space: pre;" direction="ltr" dominant-baseline="alphabetic">hvisor</text></g><g stroke-linecap="round"><g transform="translate(208.46294722515813 121.64108961889269) rotate(0 19.32872015476562 -16.153895944700253)"><path d="M0 0 C12.14 -10.15, 24.28 -20.29, 38.66 -32.31 M0 0 C11.32 -9.46, 22.63 -18.92, 38.66 -32.31" stroke="#2f9e44" stroke-width="2" fill="none"></path></g><g transform="translate(208.46294722515813 121.64108961889269) rotate(0 19.32872015476562 -16.153895944700253)"><path d="M26.11 -10.68 C30.05 -17.47, 33.99 -24.27, 38.66 -32.31 M26.11 -10.68 C29.79 -17.01, 33.46 -23.34, 38.66 -32.31" stroke="#2f9e44" stroke-width="2" fill="none"></path></g><g transform="translate(208.46294722515813 121.64108961889269) rotate(0 19.32872015476562 -16.153895944700253)"><path d="M15.15 -23.8 C22.53 -26.47, 29.91 -29.15, 38.66 -32.31 M15.15 -23.8 C22.03 -26.29, 28.91 -28.78, 38.66 -32.31" stroke="#2f9e44" stroke-width="2" fill="none"></path></g></g><mask></mask><g stroke-linecap="round"><g transform="translate(241.2994312996036 353.87554630774565) rotate(0 -12.931227625329427 -23.434143329403156)"><path d="M0 0 C-7.47 -13.53, -14.94 -27.07, -25.86 -46.87 M0 0 C-8.41 -15.24, -16.82 -30.48, -25.86 -46.87" stroke="#2f9e44" stroke-width="2" fill="none"></path></g><g transform="translate(241.2994312996036 353.87554630774565) rotate(0 -12.931227625329427 -23.434143329403156)"><path d="M-7.03 -30.43 C-12.47 -35.18, -17.91 -39.92, -25.86 -46.87 M-7.03 -30.43 C-13.15 -35.78, -19.28 -41.12, -25.86 -46.87" stroke="#2f9e44" stroke-width="2" fill="none"></path></g><g transform="translate(241.2994312996036 353.87554630774565) rotate(0 -12.931227625329427 -23.434143329403156)"><path d="M-22 -22.17 C-23.11 -29.3, -24.23 -36.43, -25.86 -46.87 M-22 -22.17 C-23.26 -30.2, -24.51 -38.23, -25.86 -46.87" stroke="#2f9e44" stroke-width="2" fill="none"></path></g></g><mask></mask><g stroke-linecap="round" transform="translate(357.7466125488281 129.10341076058853) rotate(0 92.58670043945312 89.29178013527002)"><path d="M185.17 89.29 C185.17 92.21, 185.02 95.14, 184.73 98.04 C184.43 100.95, 183.98 103.85, 183.39 106.71 C182.8 109.57, 182.06 112.42, 181.19 115.21 C180.31 118, 179.28 120.77, 178.13 123.46 C176.97 126.16, 175.67 128.81, 174.24 131.38 C172.81 133.96, 171.25 136.47, 169.57 138.9 C167.89 141.33, 166.08 143.68, 164.16 145.94 C162.24 148.19, 160.19 150.37, 158.06 152.43 C155.92 154.49, 153.66 156.46, 151.32 158.32 C148.98 160.17, 146.54 161.91, 144.03 163.54 C141.51 165.16, 138.9 166.66, 136.23 168.04 C133.56 169.42, 130.81 170.67, 128.02 171.79 C125.22 172.9, 122.36 173.89, 119.46 174.74 C116.57 175.59, 113.62 176.3, 110.65 176.87 C107.68 177.44, 104.67 177.87, 101.66 178.15 C98.65 178.44, 95.61 178.58, 92.59 178.58 C89.56 178.58, 86.52 178.44, 83.51 178.15 C80.5 177.87, 77.49 177.44, 74.52 176.87 C71.56 176.3, 68.6 175.59, 65.71 174.74 C62.82 173.89, 59.95 172.9, 57.16 171.79 C54.36 170.67, 51.61 169.42, 48.94 168.04 C46.27 166.66, 43.66 165.16, 41.15 163.54 C38.63 161.91, 36.19 160.17, 33.85 158.32 C31.51 156.46, 29.26 154.49, 27.12 152.43 C24.98 150.37, 22.94 148.19, 21.02 145.94 C19.1 143.68, 17.28 141.33, 15.6 138.9 C13.92 136.47, 12.36 133.96, 10.93 131.38 C9.51 128.81, 8.21 126.16, 7.05 123.46 C5.89 120.77, 4.86 118, 3.99 115.21 C3.11 112.42, 2.37 109.57, 1.78 106.71 C1.19 103.85, 0.74 100.95, 0.45 98.04 C0.15 95.14, 0 92.21, 0 89.29 C0 86.37, 0.15 83.44, 0.45 80.54 C0.74 77.64, 1.19 74.73, 1.78 71.87 C2.37 69.01, 3.11 66.16, 3.99 63.37 C4.86 60.58, 5.89 57.82, 7.05 55.12 C8.21 52.43, 9.51 49.77, 10.93 47.2 C12.36 44.63, 13.92 42.11, 15.6 39.68 C17.28 37.26, 19.1 34.9, 21.02 32.65 C22.94 30.39, 24.98 28.22, 27.12 26.15 C29.26 24.09, 31.51 22.12, 33.85 20.27 C36.19 18.42, 38.63 16.67, 41.15 15.05 C43.66 13.43, 46.27 11.92, 48.94 10.54 C51.61 9.17, 54.36 7.91, 57.16 6.8 C59.95 5.68, 62.82 4.69, 65.71 3.84 C68.6 3, 71.56 2.28, 74.52 1.72 C77.49 1.15, 80.5 0.72, 83.51 0.43 C86.52 0.14, 89.56 0, 92.59 0 C95.61 0, 98.65 0.14, 101.66 0.43 C104.67 0.72, 107.68 1.15, 110.65 1.72 C113.62 2.28, 116.57 3, 119.46 3.84 C122.36 4.69, 125.22 5.68, 128.02 6.8 C130.81 7.91, 133.56 9.17, 136.23 10.54 C138.9 11.92, 141.51 13.43, 144.03 15.05 C146.54 16.67, 148.98 18.42, 151.32 20.27 C153.66 22.12, 155.92 24.09, 158.06 26.15 C160.19 28.22, 162.24 30.39, 164.16 32.65 C166.08 34.9, 167.89 37.26, 169.57 39.68 C171.25 42.11, 172.81 44.63, 174.24 47.2 C175.67 49.77, 176.97 52.43, 178.13 55.12 C179.28 57.82, 180.31 60.58, 181.19 63.37 C182.06 66.16, 182.8 69.01, 183.39 71.87 C183.98 74.73, 184.43 77.64, 184.73 80.54 C185.02 83.44, 185.1 87.83, 185.17 89.29 C185.25 90.75, 185.25 87.83, 185.17 89.29" stroke="none" stroke-width="0" fill="#a5d8ff"></path><path d="M185.17 89.29 C185.17 92.21, 185.02 95.14, 184.73 98.04 C184.43 100.95, 183.98 103.85, 183.39 106.71 C182.8 109.57, 182.06 112.42, 181.19 115.21 C180.31 118, 179.28 120.77, 178.13 123.46 C176.97 126.16, 175.67 128.81, 174.24 131.38 C172.81 133.96, 171.25 136.47, 169.57 138.9 C167.89 141.33, 166.08 143.68, 164.16 145.94 C162.24 148.19, 160.19 150.37, 158.06 152.43 C155.92 154.49, 153.66 156.46, 151.32 158.32 C148.98 160.17, 146.54 161.91, 144.03 163.54 C141.51 165.16, 138.9 166.66, 136.23 168.04 C133.56 169.42, 130.81 170.67, 128.02 171.79 C125.22 172.9, 122.36 173.89, 119.46 174.74 C116.57 175.59, 113.62 176.3, 110.65 176.87 C107.68 177.44, 104.67 177.87, 101.66 178.15 C98.65 178.44, 95.61 178.58, 92.59 178.58 C89.56 178.58, 86.52 178.44, 83.51 178.15 C80.5 177.87, 77.49 177.44, 74.52 176.87 C71.56 176.3, 68.6 175.59, 65.71 174.74 C62.82 173.89, 59.95 172.9, 57.16 171.79 C54.36 170.67, 51.61 169.42, 48.94 168.04 C46.27 166.66, 43.66 165.16, 41.15 163.54 C38.63 161.91, 36.19 160.17, 33.85 158.32 C31.51 156.46, 29.26 154.49, 27.12 152.43 C24.98 150.37, 22.94 148.19, 21.02 145.94 C19.1 143.68, 17.28 141.33, 15.6 138.9 C13.92 136.47, 12.36 133.96, 10.93 131.38 C9.51 128.81, 8.21 126.16, 7.05 123.46 C5.89 120.77, 4.86 118, 3.99 115.21 C3.11 112.42, 2.37 109.57, 1.78 106.71 C1.19 103.85, 0.74 100.95, 0.45 98.04 C0.15 95.14, 0 92.21, 0 89.29 C0 86.37, 0.15 83.44, 0.45 80.54 C0.74 77.64, 1.19 74.73, 1.78 71.87 C2.37 69.01, 3.11 66.16, 3.99 63.37 C4.86 60.58, 5.89 57.82, 7.05 55.12 C8.21 52.43, 9.51 49.77, 10.93 47.2 C12.36 44.63, 13.92 42.11, 15.6 39.68 C17.28 37.26, 19.1 34.9, 21.02 32.65 C22.94 30.39, 24.98 28.22, 27.12 26.15 C29.26 24.09, 31.51 22.12, 33.85 20.27 C36.19 18.42, 38.63 16.67, 41.15 15.05 C43.66 13.43, 46.27 11.92, 48.94 10.54 C51.61 9.17, 54.36 7.91, 57.16 6.8 C59.95 5.68, 62.82 4.69, 65.71 3.84 C68.6 3, 71.56 2.28, 74.52 1.72 C77.49 1.15, 80.5 0.72, 83.51 0.43 C86.52 0.14, 89.56 0, 92.59 0 C95.61 0, 98.65 0.14, 101.66 0.43 C104.67 0.72, 107.68 1.15, 110.65 1.72 C113.62 2.28, 116.57 3, 119.46 3.84 C122.36 4.69, 125.22 5.68, 128.02 6.8 C130.81 7.91, 133.56 9.17, 136.23 10.54 C138.9 11.92, 141.51 13.43, 144.03 15.05 C146.54 16.67, 148.98 18.42, 151.32 20.27 C153.66 22.12, 155.92 24.09, 158.06 26.15 C160.19 28.22, 162.24 30.39, 164.16 32.65 C166.08 34.9, 167.89 37.26, 169.57 39.68 C171.25 42.11, 172.81 44.63, 174.24 47.2 C175.67 49.77, 176.97 52.43, 178.13 55.12 C179.28 57.82, 180.31 60.58, 181.19 63.37 C182.06 66.16, 182.8 69.01, 183.39 71.87 C183.98 74.73, 184.43 77.64, 184.73 80.54 C185.02 83.44, 185.1 87.83, 185.17 89.29 C185.25 90.75, 185.25 87.83, 185.17 89.29" stroke="#1971c2" stroke-width="2" fill="none"></path></g><g stroke-linecap="round" transform="translate(377.0628788796985 145.61908163787405) rotate(0 73.47631507486847 73.8057340477094)"><path d="M146.95 73.81 C146.95 76.56, 146.8 79.33, 146.49 82.07 C146.18 84.81, 145.72 87.54, 145.11 90.23 C144.5 92.91, 143.74 95.58, 142.83 98.18 C141.92 100.78, 140.87 103.35, 139.68 105.83 C138.49 108.31, 137.15 110.74, 135.69 113.07 C134.23 115.41, 132.63 117.67, 130.92 119.82 C129.21 121.98, 127.37 124.05, 125.43 125.99 C123.49 127.94, 121.43 129.79, 119.29 131.51 C117.14 133.23, 114.89 134.83, 112.57 136.3 C110.25 137.76, 107.83 139.11, 105.36 140.3 C102.89 141.5, 100.33 142.56, 97.74 143.47 C95.16 144.38, 92.5 145.15, 89.83 145.76 C87.15 146.37, 84.43 146.84, 81.7 147.15 C78.98 147.46, 76.22 147.61, 73.48 147.61 C70.73 147.61, 67.97 147.46, 65.25 147.15 C62.52 146.84, 59.8 146.37, 57.13 145.76 C54.45 145.15, 51.8 144.38, 49.21 143.47 C46.62 142.56, 44.07 141.5, 41.6 140.3 C39.13 139.11, 36.71 137.76, 34.38 136.3 C32.06 134.83, 29.81 133.23, 27.66 131.51 C25.52 129.79, 23.46 127.94, 21.52 125.99 C19.58 124.05, 17.74 121.98, 16.03 119.82 C14.32 117.67, 12.72 115.41, 11.26 113.07 C9.8 110.74, 8.47 108.31, 7.28 105.83 C6.09 103.35, 5.03 100.78, 4.12 98.18 C3.22 95.58, 2.45 92.91, 1.84 90.23 C1.23 87.54, 0.77 84.81, 0.46 82.07 C0.15 79.33, 0 76.56, 0 73.81 C0 71.05, 0.15 68.28, 0.46 65.54 C0.77 62.8, 1.23 60.07, 1.84 57.38 C2.45 54.7, 3.22 52.03, 4.12 49.43 C5.03 46.83, 6.09 44.26, 7.28 41.78 C8.47 39.3, 9.8 36.87, 11.26 34.54 C12.72 32.21, 14.32 29.94, 16.03 27.79 C17.74 25.64, 19.58 23.56, 21.52 21.62 C23.46 19.67, 25.52 17.82, 27.66 16.1 C29.81 14.38, 32.06 12.78, 34.38 11.31 C36.71 9.85, 39.13 8.5, 41.6 7.31 C44.07 6.11, 46.62 5.05, 49.21 4.14 C51.8 3.23, 54.45 2.46, 57.13 1.85 C59.8 1.24, 62.52 0.77, 65.25 0.46 C67.97 0.16, 70.73 0, 73.48 0 C76.22 0, 78.98 0.16, 81.7 0.46 C84.43 0.77, 87.15 1.24, 89.83 1.85 C92.5 2.46, 95.16 3.23, 97.74 4.14 C100.33 5.05, 102.89 6.11, 105.36 7.31 C107.83 8.5, 110.25 9.85, 112.57 11.31 C114.89 12.78, 117.14 14.38, 119.29 16.1 C121.43 17.82, 123.49 19.67, 125.43 21.62 C127.37 23.56, 129.21 25.64, 130.92 27.79 C132.63 29.94, 134.23 32.21, 135.69 34.54 C137.15 36.87, 138.49 39.3, 139.68 41.78 C140.87 44.26, 141.92 46.83, 142.83 49.43 C143.74 52.03, 144.5 54.7, 145.11 57.38 C145.72 60.07, 146.18 62.8, 146.49 65.54 C146.8 68.28, 146.88 72.43, 146.95 73.81 C147.03 75.18, 147.03 72.43, 146.95 73.81" stroke="none" stroke-width="0" fill="#ffffff"></path><path d="M146.95 73.81 C146.95 76.56, 146.8 79.33, 146.49 82.07 C146.18 84.81, 145.72 87.54, 145.11 90.23 C144.5 92.91, 143.74 95.58, 142.83 98.18 C141.92 100.78, 140.87 103.35, 139.68 105.83 C138.49 108.31, 137.15 110.74, 135.69 113.07 C134.23 115.41, 132.63 117.67, 130.92 119.82 C129.21 121.98, 127.37 124.05, 125.43 125.99 C123.49 127.94, 121.43 129.79, 119.29 131.51 C117.14 133.23, 114.89 134.83, 112.57 136.3 C110.25 137.76, 107.83 139.11, 105.36 140.3 C102.89 141.5, 100.33 142.56, 97.74 143.47 C95.16 144.38, 92.5 145.15, 89.83 145.76 C87.15 146.37, 84.43 146.84, 81.7 147.15 C78.98 147.46, 76.22 147.61, 73.48 147.61 C70.73 147.61, 67.97 147.46, 65.25 147.15 C62.52 146.84, 59.8 146.37, 57.13 145.76 C54.45 145.15, 51.8 144.38, 49.21 143.47 C46.62 142.56, 44.07 141.5, 41.6 140.3 C39.13 139.11, 36.71 137.76, 34.38 136.3 C32.06 134.83, 29.81 133.23, 27.66 131.51 C25.52 129.79, 23.46 127.94, 21.52 125.99 C19.58 124.05, 17.74 121.98, 16.03 119.82 C14.32 117.67, 12.72 115.41, 11.26 113.07 C9.8 110.74, 8.47 108.31, 7.28 105.83 C6.09 103.35, 5.03 100.78, 4.12 98.18 C3.22 95.58, 2.45 92.91, 1.84 90.23 C1.23 87.54, 0.77 84.81, 0.46 82.07 C0.15 79.33, 0 76.56, 0 73.81 C0 71.05, 0.15 68.28, 0.46 65.54 C0.77 62.8, 1.23 60.07, 1.84 57.38 C2.45 54.7, 3.22 52.03, 4.12 49.43 C5.03 46.83, 6.09 44.26, 7.28 41.78 C8.47 39.3, 9.8 36.87, 11.26 34.54 C12.72 32.21, 14.32 29.94, 16.03 27.79 C17.74 25.64, 19.58 23.56, 21.52 21.62 C23.46 19.67, 25.52 17.82, 27.66 16.1 C29.81 14.38, 32.06 12.78, 34.38 11.31 C36.71 9.85, 39.13 8.5, 41.6 7.31 C44.07 6.11, 46.62 5.05, 49.21 4.14 C51.8 3.23, 54.45 2.46, 57.13 1.85 C59.8 1.24, 62.52 0.77, 65.25 0.46 C67.97 0.16, 70.73 0, 73.48 0 C76.22 0, 78.98 0.16, 81.7 0.46 C84.43 0.77, 87.15 1.24, 89.83 1.85 C92.5 2.46, 95.16 3.23, 97.74 4.14 C100.33 5.05, 102.89 6.11, 105.36 7.31 C107.83 8.5, 110.25 9.85, 112.57 11.31 C114.89 12.78, 117.14 14.38, 119.29 16.1 C121.43 17.82, 123.49 19.67, 125.43 21.62 C127.37 23.56, 129.21 25.64, 130.92 27.79 C132.63 29.94, 134.23 32.21, 135.69 34.54 C137.15 36.87, 138.49 39.3, 139.68 41.78 C140.87 44.26, 141.92 46.83, 142.83 49.43 C143.74 52.03, 144.5 54.7, 145.11 57.38 C145.72 60.07, 146.18 62.8, 146.49 65.54 C146.8 68.28, 146.88 72.43, 146.95 73.81 C147.03 75.18, 147.03 72.43, 146.95 73.81" stroke="#1971c2" stroke-width="2" fill="none"></path></g><g transform="translate(383.239990234375 205.43324813842776) rotate(0 68.66999816894531 13.166671752929688)"><text x="0" y="21.067122042179104" font-family="Helvetica, Segoe UI Emoji" font-size="22.8985595703125px" fill="#1e1e1e" text-anchor="start" style="white-space: pre;" direction="ltr" dominant-baseline="alphabetic">请求结果队列</text></g><g stroke-linecap="round" transform="translate(437.9066162109375 128.83330917358398) rotate(0 13.333343505859375 7.666656494140625)"><path d="M3.83 0 C10.1 -2.21, 14.4 1.2, 22.83 0 C25.03 -3.5, 29.46 -0.27, 26.67 3.83 C26.18 7.38, 26.14 8.87, 26.67 11.5 C24.6 11.66, 28.71 13.15, 22.83 15.33 C19.25 18.08, 13.23 12.43, 3.83 15.33 C2.98 18.41, 1.35 13.03, 0 11.5 C-0.56 8.06, 0.23 7.34, 0 3.83 C0.94 0.01, 4.85 -0.07, 3.83 0" stroke="none" stroke-width="0" fill="#a5d8ff"></path><path d="M3.83 0 C8.9 -1.44, 13.4 0.62, 22.83 0 M22.83 0 C25.65 -0.08, 24.94 1.87, 26.67 3.83 M26.67 3.83 C27.11 7.39, 26.88 9.62, 26.67 11.5 M26.67 11.5 C25.69 13.7, 25.1 15.85, 22.83 15.33 M22.83 15.33 C18.13 14, 9.28 15.63, 3.83 15.33 M3.83 15.33 C1.27 15.51, 0.04 14.04, 0 11.5 M0 11.5 C0.65 9.89, 0.2 7.74, 0 3.83 M0 3.83 C-0.44 1.1, 2.89 0.74, 3.83 0" stroke="#1971c2" stroke-width="2.5" fill="none" stroke-dasharray="1.5 8"></path></g><g stroke-linecap="round" transform="translate(465.2399597167969 133.83330917358398) rotate(14.036243467926484 13.333343505859375 7.666656494140625)"><path d="M3.83 0 C13.67 0.89, 18.87 0.89, 22.83 0 C24.63 -2.05, 29.95 4.64, 26.67 3.83 C27.88 7.31, 28.06 10.25, 26.67 11.5 C27.62 10.47, 28.82 14.45, 22.83 15.33 C16.98 15.49, 13.52 18.32, 3.83 15.33 C1.62 15.05, -2.83 12.33, 0 11.5 C-0.91 7.73, 1.04 6.36, 0 3.83 C1.09 0.23, 2.91 0.57, 3.83 0" stroke="none" stroke-width="0" fill="#a5d8ff"></path><path d="M3.83 0 C11.78 0.81, 16.51 0.07, 22.83 0 M3.83 0 C8.79 -0.07, 12.43 0.71, 22.83 0 M22.83 0 C25.75 0.11, 25.69 0.93, 26.67 3.83 M22.83 0 C25.06 0.59, 26.94 0.36, 26.67 3.83 M26.67 3.83 C26.03 6.48, 26.71 9, 26.67 11.5 M26.67 3.83 C26.63 6.48, 26.99 8.78, 26.67 11.5 M26.67 11.5 C27.18 15.92, 24.95 15.15, 22.83 15.33 M26.67 11.5 C28.53 14.9, 25.64 13.57, 22.83 15.33 M22.83 15.33 C17.46 15.76, 13.28 13.35, 3.83 15.33 M22.83 15.33 C14.85 14.56, 8.23 16.09, 3.83 15.33 M3.83 15.33 C0.68 15.26, -1.15 12.72, 0 11.5 M3.83 15.33 C3.4 13.94, -1.22 12.05, 0 11.5 M0 11.5 C-0.07 9.2, 0.34 8.74, 0 3.83 M0 11.5 C0.32 8.87, -0.1 6.09, 0 3.83 M0 3.83 C0.49 2.76, 1.8 -0.7, 3.83 0 M0 3.83 C2.28 1.23, 3.22 0.34, 3.83 0" stroke="#1971c2" stroke-width="2" fill="none"></path></g><g stroke-linecap="round" transform="translate(489.9066467285156 147.83330917358404) rotate(38.659782665844126 13.333343505859375 7.666656494140625)"><path d="M3.83 0 C11.27 1.1, 18.18 -2.06, 22.83 0 C28.68 3.36, 30.04 3.89, 26.67 3.83 C28.07 7, 27.14 8.03, 26.67 11.5 C30.09 13.17, 24.65 18.21, 22.83 15.33 C18.72 18.39, 12.33 15.09, 3.83 15.33 C-1.55 13.61, 3.22 15.58, 0 11.5 C1.18 10.34, 0.5 7.13, 0 3.83 C1.63 1.85, 2.33 1.94, 3.83 0" stroke="none" stroke-width="0" fill="#a5d8ff"></path><path d="M3.83 0 C8.39 -0.14, 10.81 0.49, 22.83 0 M3.83 0 C11.42 0.84, 18.25 0.04, 22.83 0 M22.83 0 C24.41 -0.35, 26.38 1.79, 26.67 3.83 M22.83 0 C25.66 -0.92, 27.41 2.76, 26.67 3.83 M26.67 3.83 C26.6 5.64, 26.61 7.3, 26.67 11.5 M26.67 3.83 C26.98 6.38, 26.76 8.67, 26.67 11.5 M26.67 11.5 C26.23 13.87, 27.01 16.07, 22.83 15.33 M26.67 11.5 C26.91 12.29, 24.16 15.58, 22.83 15.33 M22.83 15.33 C18.27 13.54, 15.57 14.57, 3.83 15.33 M22.83 15.33 C16.28 15.86, 9.95 15.13, 3.83 15.33 M3.83 15.33 C0.13 14, 1.84 12.84, 0 11.5 M3.83 15.33 C0.06 13.33, -1.77 14.8, 0 11.5 M0 11.5 C0.37 9.18, 0.29 5.33, 0 3.83 M0 11.5 C-0.19 8.67, 0.03 6.6, 0 3.83 M0 3.83 C0.52 0.58, 3.26 -0.04, 3.83 0 M0 3.83 C1.94 1.62, 3.54 -1.17, 3.83 0" stroke="#1971c2" stroke-width="2" fill="none"></path></g><g stroke-linecap="round" transform="translate(508.2398376464844 167.16665267944336) rotate(54.36027220501386 13.333343505859375 7.666656494140625)"><path d="M3.83 0 C9.49 -2.06, 19.71 3.07, 22.83 0 C28.77 2.61, 28.96 4.18, 26.67 3.83 C27.16 5.01, 28.11 8.6, 26.67 11.5 C25.92 16.93, 24.84 14.76, 22.83 15.33 C17.34 15.37, 8.52 14, 3.83 15.33 C4.5 16.86, -1.48 11.84, 0 11.5 C0.31 9.23, 0.52 7.99, 0 3.83 C1.05 3.22, -2.29 3.54, 3.83 0" stroke="none" stroke-width="0" fill="#a5d8ff"></path><path d="M3.83 0 C8.56 0.57, 17.99 1.79, 22.83 0 M3.83 0 C9.84 -0.12, 15.04 -0.34, 22.83 0 M22.83 0 C25.1 0.52, 26.9 0.48, 26.67 3.83 M22.83 0 C26.13 1.48, 24.98 -0.78, 26.67 3.83 M26.67 3.83 C26.68 6.22, 26.6 8.56, 26.67 11.5 M26.67 3.83 C26.83 7.15, 26.65 9.72, 26.67 11.5 M26.67 11.5 C28.28 14.79, 25.6 13.8, 22.83 15.33 M26.67 11.5 C25.43 14.3, 23.78 14.5, 22.83 15.33 M22.83 15.33 C18.04 14.33, 10.9 13.53, 3.83 15.33 M22.83 15.33 C18.51 15.44, 14.22 14.84, 3.83 15.33 M3.83 15.33 C3.12 14.12, -1.06 12.32, 0 11.5 M3.83 15.33 C-0.49 16.08, 2.02 13.91, 0 11.5 M0 11.5 C0.25 9.57, 0.25 8.68, 0 3.83 M0 11.5 C0.12 9.57, 0.13 6.93, 0 3.83 M0 3.83 C1.99 1.24, 2.97 0.29, 3.83 0 M0 3.83 C2.27 0.11, 3.5 1.52, 3.83 0" stroke="#1971c2" stroke-width="2" fill="none"></path></g><g stroke-linecap="round" transform="translate(518.2398986816406 194.1666526794433) rotate(76.476871131408 13.333343505859375 7.666656494140625)"><path d="M3.83 0 C13.33 3.39, 19.8 2.67, 22.83 0 C27.68 2.9, 27.86 4.65, 26.67 3.83 C28.02 6, 26.42 9.95, 26.67 11.5 C26.12 13.48, 25.61 16.7, 22.83 15.33 C12.76 13.67, 11.12 16.75, 3.83 15.33 C-0.2 13.12, -2.05 16.91, 0 11.5 C0.58 8.96, 0.36 6.72, 0 3.83 C-3.57 4.82, -0.34 -1.61, 3.83 0" stroke="none" stroke-width="0" fill="#a5d8ff"></path><path d="M3.83 0 C10.88 1.73, 15.22 0.87, 22.83 0 M3.83 0 C10.77 -0.18, 18.5 0.23, 22.83 0 M22.83 0 C25.63 -0.8, 27.32 2.56, 26.67 3.83 M22.83 0 C23.7 -2.06, 26.95 1.27, 26.67 3.83 M26.67 3.83 C26.61 6.14, 27.33 9.22, 26.67 11.5 M26.67 3.83 C26.6 6.72, 27 9.82, 26.67 11.5 M26.67 11.5 C26.88 12.52, 24.32 15.55, 22.83 15.33 M26.67 11.5 C25.06 13.22, 26.07 15.1, 22.83 15.33 M22.83 15.33 C19.58 13.63, 13.47 14.75, 3.83 15.33 M22.83 15.33 C15.2 14.69, 9.54 14.75, 3.83 15.33 M3.83 15.33 C0.22 13.59, -1.54 14.7, 0 11.5 M3.83 15.33 C3.3 15.18, -1.77 15.14, 0 11.5 M0 11.5 C0.26 9.15, -0.11 5.34, 0 3.83 M0 11.5 C0.08 9.54, 0.36 7.84, 0 3.83 M0 3.83 C1.69 1.57, 3.25 -1.01, 3.83 0 M0 3.83 C2.22 2.8, 2.1 -0.07, 3.83 0" stroke="#1971c2" stroke-width="2" fill="none"></path></g><g stroke-linecap="round" transform="translate(519.2398986816406 223.1666526794433) rotate(101.3099324740204 13.333343505859375 7.666656494140625)"><path d="M3.83 0 C11.66 2.16, 15.25 2.43, 22.83 0 C26.58 3.37, 27.64 2.23, 26.67 3.83 C26.51 6.47, 26.59 6.68, 26.67 11.5 C26.88 15.42, 28.58 15.67, 22.83 15.33 C20.34 16.62, 10.33 13.06, 3.83 15.33 C-0.77 18.19, 2.17 15.15, 0 11.5 C0.34 10.17, -1.43 8.71, 0 3.83 C-1.62 -0.33, 2.19 2.2, 3.83 0" stroke="none" stroke-width="0" fill="#a5d8ff"></path><path d="M3.83 0 C10.23 0.75, 18.06 0.17, 22.83 0 M3.83 0 C9.51 0.28, 15.56 -0.35, 22.83 0 M22.83 0 C26.04 1.29, 25.2 -0.52, 26.67 3.83 M22.83 0 C25.68 0, 26.87 1.33, 26.67 3.83 M26.67 3.83 C27.32 6.77, 27.29 8.61, 26.67 11.5 M26.67 3.83 C26.96 6.99, 26.69 9.57, 26.67 11.5 M26.67 11.5 C25.59 14.27, 23.99 14.6, 22.83 15.33 M26.67 11.5 C27.35 13.83, 23.15 17.12, 22.83 15.33 M22.83 15.33 C16.28 14.66, 14.45 14.6, 3.83 15.33 M22.83 15.33 C18.08 14.63, 11.07 14.38, 3.83 15.33 M3.83 15.33 C-0.26 15.98, 1.76 13.93, 0 11.5 M3.83 15.33 C-0.49 16.42, 1.97 14.92, 0 11.5 M0 11.5 C-0.11 9.16, -0.5 7.52, 0 3.83 M0 11.5 C0.36 8.63, 0.3 5.82, 0 3.83 M0 3.83 C1.97 0.26, 3.21 1.32, 3.83 0 M0 3.83 C0.82 1.21, 2.1 -0.49, 3.83 0" stroke="#1971c2" stroke-width="2" fill="none"></path></g><g stroke-linecap="round" transform="translate(510.9065856933594 248.4999656677246) rotate(121.09735358677457 13.333343505859375 7.666656494140625)"><path d="M3.83 0 C13.49 2.51, 19.92 2.95, 22.83 0 C26.36 0.95, 23.08 4.7, 26.67 3.83 C26.43 5.72, 26.72 8.58, 26.67 11.5 C29.86 14.4, 25.11 12.51, 22.83 15.33 C16.64 13.37, 11.31 18.19, 3.83 15.33 C3.44 16.43, -1.05 15.69, 0 11.5 C-1.41 10.44, -0.66 6.04, 0 3.83 C0.91 3.47, 2.95 -2.91, 3.83 0" stroke="none" stroke-width="0" fill="#a5d8ff"></path><path d="M3.83 0 C13.02 0.25, 18.91 -1.02, 22.83 0 M3.83 0 C9.31 -0.43, 14.87 0.56, 22.83 0 M22.83 0 C23.92 -1.79, 26.92 1.27, 26.67 3.83 M22.83 0 C25.6 0.05, 26.64 1.09, 26.67 3.83 M26.67 3.83 C27.36 6.26, 27.45 8.14, 26.67 11.5 M26.67 3.83 C26.77 5.77, 26.52 8.33, 26.67 11.5 M26.67 11.5 C25.27 13.33, 25.98 15.13, 22.83 15.33 M26.67 11.5 C24.43 15.84, 24.4 16.06, 22.83 15.33 M22.83 15.33 C20.14 14.71, 14.61 14.19, 3.83 15.33 M22.83 15.33 C17.9 14.39, 13.23 15.53, 3.83 15.33 M3.83 15.33 C3.04 15.2, -1.54 15, 0 11.5 M3.83 15.33 C3.24 16.2, -0.65 14.92, 0 11.5 M0 11.5 C-0.46 8.78, 0.57 5.9, 0 3.83 M0 11.5 C0.25 9.53, 0.3 7.24, 0 3.83 M0 3.83 C1.93 2.6, 1.99 -0.06, 3.83 0 M0 3.83 C0.82 0.79, -0.03 2.1, 3.83 0" stroke="#1971c2" stroke-width="2" fill="none"></path></g><g stroke-linecap="round" transform="translate(493.2398986816406 269.83333969116217) rotate(139.39868992679862 13.333343505859375 7.666656494140625)"><path d="M3.83 0 C12.05 2.93, 18.91 0.63, 22.83 0 C21.8 3.43, 25.78 0.53, 26.67 3.83 C26.73 7.27, 27.87 9.79, 26.67 11.5 C26.39 11.23, 23.66 18.56, 22.83 15.33 C14.39 17.84, 11.88 16.16, 3.83 15.33 C0.23 16.97, 0.57 15.11, 0 11.5 C-0.48 8.17, 0.49 6.91, 0 3.83 C1.68 -1.63, 1.89 -2.22, 3.83 0" stroke="none" stroke-width="0" fill="#a5d8ff"></path><path d="M3.83 0 C10.57 -0.97, 16.76 -0.3, 22.83 0 M3.83 0 C10.33 0.69, 15.52 -0.78, 22.83 0 M22.83 0 C25.64 0, 26.85 1.32, 26.67 3.83 M22.83 0 C25.37 -0.19, 26.47 3.26, 26.67 3.83 M26.67 3.83 C27.44 6.61, 26.66 10.34, 26.67 11.5 M26.67 3.83 C26.47 6.46, 26.41 8.86, 26.67 11.5 M26.67 11.5 C27.26 13.86, 23.44 16.88, 22.83 15.33 M26.67 11.5 C25.68 14.78, 23.42 13.32, 22.83 15.33 M22.83 15.33 C17.57 14.18, 11.18 17.03, 3.83 15.33 M22.83 15.33 C17.55 15.48, 14.57 15.11, 3.83 15.33 M3.83 15.33 C-0.26 16.28, 1.71 14.81, 0 11.5 M3.83 15.33 C0.62 16.2, 1.8 13.81, 0 11.5 M0 11.5 C0.61 9.65, -0.22 8.17, 0 3.83 M0 11.5 C0.31 9.02, 0.31 7.18, 0 3.83 M0 3.83 C0.71 1.22, 1.99 -0.42, 3.83 0 M0 3.83 C-1.31 3.38, 3.43 2.16, 3.83 0" stroke="#1971c2" stroke-width="2" fill="none"></path></g><g stroke-linecap="round" transform="translate(470.5732727050781 285.16665267944336) rotate(157.8906549850712 13.333343505859375 7.666656494140625)"><path d="M3.83 0 C11.99 0.59, 14.88 2.93, 22.83 0 C24.5 -0.74, 29.54 0.73, 26.67 3.83 C27.9 6.14, 26.57 7.1, 26.67 11.5 C24.94 17.28, 26.91 13.86, 22.83 15.33 C20.36 16.64, 12.78 17.16, 3.83 15.33 C1.85 16.39, 1.94 10.49, 0 11.5 C0.41 9.29, 0.7 4.27, 0 3.83 C0.61 -0.94, -0.12 2.54, 3.83 0" stroke="none" stroke-width="0" fill="#a5d8ff"></path><path d="M3.83 0 C9.54 -0.18, 16.41 0.32, 22.83 0 M3.83 0 C8.08 -0.97, 13.83 -0.12, 22.83 0 M22.83 0 C25.57 0.04, 26.65 1.12, 26.67 3.83 M22.83 0 C25.19 1.98, 28.6 3.15, 26.67 3.83 M26.67 3.83 C26.67 6.95, 27.02 8.91, 26.67 11.5 M26.67 3.83 C26.36 5.41, 26.74 7.22, 26.67 11.5 M26.67 11.5 C24.72 15.61, 24.53 15.96, 22.83 15.33 M26.67 11.5 C24.7 12.04, 24.78 17.01, 22.83 15.33 M22.83 15.33 C16.44 16.98, 11.42 14.21, 3.83 15.33 M22.83 15.33 C19.62 15.33, 14.01 15.84, 3.83 15.33 M3.83 15.33 C2.99 16.08, -0.57 14.81, 0 11.5 M3.83 15.33 C3.08 15.09, -0.76 12.64, 0 11.5 M0 11.5 C-0.33 9.78, -0.07 7.18, 0 3.83 M0 11.5 C0.29 9.34, 0.06 6.66, 0 3.83 M0 3.83 C0.71 0.86, 0.14 1.83, 3.83 0 M0 3.83 C2.15 3.44, 2.95 1.47, 3.83 0" stroke="#1971c2" stroke-width="2" fill="none"></path></g><g stroke-linecap="round" transform="translate(442.2644103443579 291.04119039204187) rotate(176.00902479020937 13.642175349001604 7.7921187815420865)"><path d="M3.9 0 C11.47 0, 19.05 0, 23.39 0 C25.99 0, 27.28 1.3, 27.28 3.9 C27.28 6.7, 27.28 9.51, 27.28 11.69 C27.28 14.29, 25.99 15.58, 23.39 15.58 C17.05 15.58, 10.7 15.58, 3.9 15.58 C1.3 15.58, 0 14.29, 0 11.69 C0 9.23, 0 6.76, 0 3.9 C0 1.3, 1.3 0, 3.9 0" stroke="none" stroke-width="0" fill="#a5d8ff"></path><path d="M3.9 0 C9.92 0, 15.94 0, 23.39 0 M3.9 0 C11.33 0, 18.77 0, 23.39 0 M23.39 0 C25.99 0, 27.28 1.3, 27.28 3.9 M23.39 0 C25.99 0, 27.28 1.3, 27.28 3.9 M27.28 3.9 C27.28 5.48, 27.28 7.05, 27.28 11.69 M27.28 3.9 C27.28 6.8, 27.28 9.71, 27.28 11.69 M27.28 11.69 C27.28 14.29, 25.99 15.58, 23.39 15.58 M27.28 11.69 C27.28 14.29, 25.99 15.58, 23.39 15.58 M23.39 15.58 C15.87 15.58, 8.36 15.58, 3.9 15.58 M23.39 15.58 C18.74 15.58, 14.1 15.58, 3.9 15.58 M3.9 15.58 C1.3 15.58, 0 14.29, 0 11.69 M3.9 15.58 C1.3 15.58, 0 14.29, 0 11.69 M0 11.69 C0 9.07, 0 6.46, 0 3.9 M0 11.69 C0 8.85, 0 6.02, 0 3.9 M0 3.9 C0 1.3, 1.3 0, 3.9 0 M0 3.9 C0 1.3, 1.3 0, 3.9 0" stroke="#1971c2" stroke-width="2" fill="none"></path></g><g stroke-linecap="round" transform="translate(184.69116815685788 287.54122472431726) rotate(176.00902479020937 13.642175349001548 7.7921187815420865)"><path d="M3.9 0 C10.48 0, 17.06 0, 23.39 0 M23.39 0 C25.99 0, 27.28 1.3, 27.28 3.9 M27.28 3.9 C27.28 5.49, 27.28 7.09, 27.28 11.69 M27.28 11.69 C27.28 14.29, 25.99 15.58, 23.39 15.58 M23.39 15.58 C18.41 15.58, 13.44 15.58, 3.9 15.58 M3.9 15.58 C1.3 15.58, 0 14.29, 0 11.69 M0 11.69 C0 8.88, 0 6.08, 0 3.9 M0 3.9 C0 1.3, 1.3 0, 3.9 0" stroke="#099268" stroke-width="2.5" fill="none" stroke-dasharray="1.5 8"></path></g><g stroke-linecap="round" transform="translate(247.00006103515625 503.00003814697266) rotate(0 85.33331298828125 36.333335876464844)"><path d="M0 0 L170.67 0 L170.67 72.67 L0 72.67" stroke="none" stroke-width="0" fill="#fff5f5"></path><path d="M0 0 C57.8 0, 115.59 0, 170.67 0 M0 0 C43.28 0, 86.56 0, 170.67 0 M170.67 0 C170.67 20.37, 170.67 40.74, 170.67 72.67 M170.67 0 C170.67 26.67, 170.67 53.33, 170.67 72.67 M170.67 72.67 C121.52 72.67, 72.37 72.67, 0 72.67 M170.67 72.67 C107.69 72.67, 44.72 72.67, 0 72.67 M0 72.67 C0 47.76, 0 22.86, 0 0 M0 72.67 C0 56.13, 0 39.59, 0 0" stroke="#1e1e1e" stroke-width="2" fill="none"></path></g><g transform="translate(269.7308349609375 527.8333740234375) rotate(0 62.6025390625 11.5)"><text x="62.6025390625" y="18.400390625" font-family="Helvetica, Segoe UI Emoji" font-size="20px" fill="#1e1e1e" text-anchor="middle" style="white-space: pre;" direction="ltr" dominant-baseline="alphabetic">Virtio驱动程序</text></g><g stroke-linecap="round"><g transform="translate(250.18659977396214 494.66704607093027) rotate(0 -0.4390545297916333 -29.3337636002272)"><path d="M0 0 C-0.22 -14.95, -0.45 -29.91, -0.88 -58.67" stroke="#2f9e44" stroke-width="2.5" fill="none" stroke-dasharray="8 10"></path></g><g transform="translate(250.18659977396214 494.66704607093027) rotate(0 -0.4390545297916333 -29.3337636002272)"><path d="M8.02 -35.31 C5.75 -41.26, 3.49 -47.21, -0.88 -58.67" stroke="#2f9e44" stroke-width="2.5" fill="none"></path></g><g transform="translate(250.18659977396214 494.66704607093027) rotate(0 -0.4390545297916333 -29.3337636002272)"><path d="M-9.08 -35.05 C-6.99 -41.07, -4.9 -47.09, -0.88 -58.67" stroke="#2f9e44" stroke-width="2.5" fill="none"></path></g></g><mask></mask><g stroke-linecap="round"><g transform="translate(422.11085647698883 89.1839960457136) rotate(0 15.106039056289774 17.074658471283826)"><path d="M0 0 C9.07 10.25, 18.14 20.5, 30.21 34.15 M0 0 C11.71 13.24, 23.43 26.48, 30.21 34.15" stroke="#1971c2" stroke-width="2" fill="none"></path></g><g transform="translate(422.11085647698883 89.1839960457136) rotate(0 15.106039056289774 17.074658471283826)"><path d="M10.18 23.27 C16.19 26.54, 22.2 29.8, 30.21 34.15 M10.18 23.27 C17.94 27.49, 25.71 31.71, 30.21 34.15" stroke="#1971c2" stroke-width="2" fill="none"></path></g><g transform="translate(422.11085647698883 89.1839960457136) rotate(0 15.106039056289774 17.074658471283826)"><path d="M21.86 12.94 C24.36 19.3, 26.87 25.67, 30.21 34.15 M21.86 12.94 C25.1 21.16, 28.34 29.39, 30.21 34.15" stroke="#1971c2" stroke-width="2" fill="none"></path></g></g><mask></mask><g stroke-linecap="round"><g transform="translate(453.1192779322838 315.0381961857626) rotate(0 -15.538981550049925 18.02077980294152)"><path d="M0 0 C-6.3 7.31, -12.6 14.62, -31.08 36.04 M0 0 C-6.74 7.82, -13.49 15.64, -31.08 36.04" stroke="#1971c2" stroke-width="2" fill="none"></path></g><g transform="translate(453.1192779322838 315.0381961857626) rotate(0 -15.538981550049925 18.02077980294152)"><path d="M-22.64 13.79 C-24.35 18.3, -26.06 22.81, -31.08 36.04 M-22.64 13.79 C-24.47 18.62, -26.3 23.45, -31.08 36.04" stroke="#1971c2" stroke-width="2" fill="none"></path></g><g transform="translate(453.1192779322838 315.0381961857626) rotate(0 -15.538981550049925 18.02077980294152)"><path d="M-10.31 24.42 C-14.52 26.78, -18.73 29.13, -31.08 36.04 M-10.31 24.42 C-14.82 26.94, -19.32 29.46, -31.08 36.04" stroke="#1971c2" stroke-width="2" fill="none"></path></g></g><mask></mask><g stroke-linecap="round"><g transform="translate(415.66668701171875 434.66668701171875) rotate(0 0.333343505859375 31.666656494140625)"><path d="M0 0 C0.15 14.64, 0.31 29.28, 0.67 63.33" stroke="#1971c2" stroke-width="2.5" fill="none" stroke-dasharray="8 10"></path></g><g transform="translate(415.66668701171875 434.66668701171875) rotate(0 0.333343505859375 31.666656494140625)"><path d="M-8.13 39.93 C-6.1 45.34, -4.06 50.75, 0.67 63.33" stroke="#1971c2" stroke-width="2.5" fill="none"></path></g><g transform="translate(415.66668701171875 434.66668701171875) rotate(0 0.333343505859375 31.666656494140625)"><path d="M8.97 39.75 C7.05 45.2, 5.13 50.65, 0.67 63.33" stroke="#1971c2" stroke-width="2.5" fill="none"></path></g></g><mask></mask><g transform="translate(106.33343505859375 445.3333740234375) rotate(0 70 23)"><text x="0" y="18.400390625" font-family="Helvetica, Segoe UI Emoji" font-size="20px" fill="#1e1e1e" text-anchor="start" style="white-space: pre;" direction="ltr" dominant-baseline="alphabetic">发起交互请求，</text><text x="0" y="41.400390625" font-family="Helvetica, Segoe UI Emoji" font-size="20px" fill="#1e1e1e" text-anchor="start" style="white-space: pre;" direction="ltr" dominant-baseline="alphabetic">陷入hypervisor</text></g><g transform="translate(440.20538330078125 443.333251953125) rotate(0 77.2412109375 23)"><text x="0" y="18.400390625" font-family="Helvetica, Segoe UI Emoji" font-size="20px" fill="#1e1e1e" text-anchor="start" style="white-space: pre;" direction="ltr" dominant-baseline="alphabetic">CPU从hypervisor</text><text x="0" y="41.400390625" font-family="Helvetica, Segoe UI Emoji" font-size="20px" fill="#1e1e1e" text-anchor="start" style="white-space: pre;" direction="ltr" dominant-baseline="alphabetic">返回VM</text></g><g transform="translate(11.6666259765625 528.7333740234375) rotate(0 70 16.80000000000001)"><text x="0" y="27.0375" font-family="Cascadia, Segoe UI Emoji" font-size="28px" fill="#1e1e1e" text-anchor="start" style="white-space: pre;" direction="ltr" dominant-baseline="alphabetic">其他虚拟机</text></g><g transform="translate(10 30.866656494140557) rotate(0 66.9306640625 16.099999999999994)"><text x="0" y="25.760546874999996" font-family="Helvetica, Segoe UI Emoji" font-size="28px" fill="#1e1e1e" text-anchor="start" style="white-space: pre;" direction="ltr" dominant-baseline="alphabetic">Root Linux</text></g><g transform="translate(124.67390441894531 204.99999618530273) rotate(0 68.66999816894531 13.166671752929688)"><text x="0" y="21.067122042179104" font-family="Helvetica, Segoe UI Emoji" font-size="22.8985595703125px" fill="#1e1e1e" text-anchor="start" style="white-space: pre;" direction="ltr" dominant-baseline="alphabetic">请求提交队列</text></g></svg>