<svg version="1.1" xmlns="http://www.w3.org/2000/svg" viewBox="0 0 982.6666597366466 624.9999694824219" width="982.6666597366466" height="624.9999694824219">
  <!-- svg-source:excalidraw -->
  
  <defs>
    <style class="style-fonts">
      @font-face {
        font-family: "Virgil";
        src: url("https://excalidraw.com/Virgil.woff2");
      }
      @font-face {
        font-family: "Cascadia";
        src: url("https://excalidraw.com/Cascadia.woff2");
      }
      @font-face {
        font-family: "Assistant";
        src: url("https://excalidraw.com/Assistant-Regular.woff2");
      }
    </style>
    
  </defs>
  <g stroke-linecap="round" transform="translate(10 213.333251953125) rotate(0 108.66665649414062 108.66668701171875)"><path d="M217.33 108.67 C217.33 112.01, 217.18 115.37, 216.87 118.69 C216.56 122.02, 216.1 125.35, 215.48 128.63 C214.87 131.92, 214.1 135.19, 213.19 138.4 C212.27 141.62, 211.2 144.81, 210 147.92 C208.79 151.04, 207.43 154.11, 205.94 157.1 C204.45 160.1, 202.82 163.03, 201.06 165.87 C199.3 168.71, 197.4 171.49, 195.38 174.15 C193.37 176.82, 191.22 179.41, 188.97 181.87 C186.72 184.34, 184.34 186.72, 181.87 188.97 C179.41 191.22, 176.82 193.37, 174.15 195.38 C171.49 197.4, 168.71 199.3, 165.87 201.06 C163.03 202.82, 160.1 204.45, 157.1 205.94 C154.11 207.43, 151.04 208.79, 147.92 210 C144.81 211.2, 141.62 212.27, 138.4 213.19 C135.19 214.1, 131.92 214.87, 128.63 215.48 C125.35 216.1, 122.02 216.56, 118.69 216.87 C115.37 217.18, 112.01 217.33, 108.67 217.33 C105.32 217.33, 101.97 217.18, 98.64 216.87 C95.31 216.56, 91.98 216.1, 88.7 215.48 C85.41 214.87, 82.14 214.1, 78.93 213.19 C75.71 212.27, 72.53 211.2, 69.41 210 C66.3 208.79, 63.22 207.43, 60.23 205.94 C57.24 204.45, 54.3 202.82, 51.46 201.06 C48.62 199.3, 45.85 197.4, 43.18 195.38 C40.51 193.37, 37.93 191.22, 35.46 188.97 C32.99 186.72, 30.61 184.34, 28.36 181.87 C26.11 179.41, 23.96 176.82, 21.95 174.15 C19.93 171.49, 18.04 168.71, 16.28 165.87 C14.52 163.03, 12.88 160.1, 11.39 157.1 C9.9 154.11, 8.55 151.04, 7.34 147.92 C6.13 144.81, 5.06 141.62, 4.15 138.4 C3.23 135.19, 2.46 131.92, 1.85 128.63 C1.24 125.35, 0.77 122.02, 0.46 118.69 C0.16 115.37, 0 112.01, 0 108.67 C0 105.32, 0.16 101.97, 0.46 98.64 C0.77 95.31, 1.24 91.98, 1.85 88.7 C2.46 85.41, 3.23 82.14, 4.15 78.93 C5.06 75.71, 6.13 72.53, 7.34 69.41 C8.55 66.3, 9.9 63.22, 11.39 60.23 C12.88 57.24, 14.52 54.3, 16.28 51.46 C18.04 48.62, 19.93 45.85, 21.95 43.18 C23.96 40.51, 26.11 37.93, 28.36 35.46 C30.61 32.99, 32.99 30.61, 35.46 28.36 C37.93 26.11, 40.51 23.96, 43.18 21.95 C45.85 19.93, 48.62 18.04, 51.46 16.28 C54.3 14.52, 57.24 12.88, 60.23 11.39 C63.22 9.9, 66.3 8.55, 69.41 7.34 C72.53 6.13, 75.71 5.06, 78.93 4.15 C82.14 3.23, 85.41 2.46, 88.7 1.85 C91.98 1.24, 95.31 0.77, 98.64 0.46 C101.97 0.16, 105.32 0, 108.67 0 C112.01 0, 115.37 0.16, 118.69 0.46 C122.02 0.77, 125.35 1.24, 128.63 1.85 C131.92 2.46, 135.19 3.23, 138.4 4.15 C141.62 5.06, 144.81 6.13, 147.92 7.34 C151.04 8.55, 154.11 9.9, 157.1 11.39 C160.1 12.88, 163.03 14.52, 165.87 16.28 C168.71 18.04, 171.49 19.93, 174.15 21.95 C176.82 23.96, 179.41 26.11, 181.87 28.36 C184.34 30.61, 186.72 32.99, 188.97 35.46 C191.22 37.93, 193.37 40.51, 195.38 43.18 C197.4 45.85, 199.3 48.62, 201.06 51.46 C202.82 54.3, 204.45 57.24, 205.94 60.23 C207.43 63.22, 208.79 66.3, 210 69.41 C211.2 72.53, 212.27 75.71, 213.19 78.93 C214.1 82.14, 214.87 85.41, 215.48 88.7 C216.1 91.98, 216.56 95.31, 216.87 98.64 C217.18 101.97, 217.26 107, 217.33 108.67 C217.41 110.34, 217.41 107, 217.33 108.67" stroke="#1e1e1e" stroke-width="2" fill="none"></path></g><g stroke-linecap="round" transform="translate(34 235.33319091796875) rotate(0 84.99996948242188 87)"><path d="M170 87 C170 90.03, 169.84 93.08, 169.53 96.09 C169.22 99.11, 168.76 102.12, 168.14 105.09 C167.53 108.05, 166.75 111, 165.84 113.88 C164.92 116.77, 163.86 119.62, 162.65 122.39 C161.45 125.16, 160.09 127.87, 158.61 130.5 C157.13 133.13, 155.51 135.68, 153.77 138.14 C152.03 140.59, 150.15 142.96, 148.17 145.21 C146.19 147.47, 144.08 149.63, 141.88 151.65 C139.68 153.68, 137.36 155.6, 134.96 157.38 C132.57 159.17, 130.06 160.83, 127.5 162.34 C124.94 163.86, 122.28 165.25, 119.57 166.48 C116.87 167.71, 114.08 168.81, 111.27 169.74 C108.45 170.68, 105.57 171.47, 102.67 172.1 C99.78 172.73, 96.83 173.21, 93.88 173.52 C90.94 173.84, 87.96 174, 85 174 C82.04 174, 79.06 173.84, 76.12 173.52 C73.17 173.21, 70.22 172.73, 67.33 172.1 C64.43 171.47, 61.55 170.68, 58.73 169.74 C55.92 168.81, 53.13 167.71, 50.43 166.48 C47.72 165.25, 45.06 163.86, 42.5 162.34 C39.94 160.83, 37.43 159.17, 35.04 157.38 C32.64 155.6, 30.32 153.68, 28.12 151.65 C25.92 149.63, 23.81 147.47, 21.83 145.21 C19.85 142.96, 17.97 140.59, 16.23 138.14 C14.49 135.68, 12.87 133.13, 11.39 130.5 C9.91 127.87, 8.55 125.16, 7.35 122.39 C6.14 119.62, 5.08 116.77, 4.16 113.88 C3.24 111, 2.47 108.05, 1.86 105.09 C1.24 102.12, 0.78 99.11, 0.47 96.09 C0.16 93.08, 0 90.03, 0 87 C0 83.97, 0.16 80.92, 0.47 77.91 C0.78 74.89, 1.24 71.88, 1.86 68.91 C2.47 65.95, 3.24 63, 4.16 60.12 C5.08 57.23, 6.14 54.38, 7.35 51.61 C8.55 48.84, 9.91 46.13, 11.39 43.5 C12.87 40.87, 14.49 38.32, 16.23 35.86 C17.97 33.41, 19.85 31.04, 21.83 28.79 C23.81 26.53, 25.92 24.37, 28.12 22.35 C30.32 20.32, 32.64 18.4, 35.04 16.62 C37.43 14.83, 39.94 13.17, 42.5 11.66 C45.06 10.14, 47.72 8.75, 50.43 7.52 C53.13 6.29, 55.92 5.19, 58.73 4.26 C61.55 3.32, 64.43 2.53, 67.33 1.9 C70.22 1.27, 73.17 0.79, 76.12 0.48 C79.06 0.16, 82.04 0, 85 0 C87.96 0, 90.94 0.16, 93.88 0.48 C96.83 0.79, 99.78 1.27, 102.67 1.9 C105.57 2.53, 108.45 3.32, 111.27 4.26 C114.08 5.19, 116.87 6.29, 119.57 7.52 C122.28 8.75, 124.94 10.14, 127.5 11.66 C130.06 13.17, 132.57 14.83, 134.96 16.62 C137.36 18.4, 139.68 20.32, 141.88 22.35 C144.08 24.37, 146.19 26.53, 148.17 28.79 C150.15 31.04, 152.03 33.41, 153.77 35.86 C155.51 38.32, 157.13 40.87, 158.61 43.5 C160.09 46.13, 161.45 48.84, 162.65 51.61 C163.86 54.38, 164.92 57.23, 165.84 60.12 C166.75 63, 167.53 65.95, 168.14 68.91 C168.76 71.88, 169.22 74.89, 169.53 77.91 C169.84 80.92, 169.92 85.48, 170 87 C170.08 88.52, 170.08 85.48, 170 87" stroke="#1e1e1e" stroke-width="2" fill="none"></path></g><g transform="translate(76.89591466075171 306.21490095473905) rotate(0 42 16.100000000000023)"><text x="42" y="25.760546874999996" font-family="Helvetica, Segoe UI Emoji" font-size="28px" fill="#e03131" text-anchor="middle" style="white-space: pre;" direction="ltr" dominant-baseline="alphabetic">可用环</text></g><g stroke-linecap="round" transform="translate(327.3333740234375 180) rotate(0 149.3333740234375 29.666656494140625)"><path d="M0 0 C71.25 0, 142.51 0, 298.67 0 M0 0 C117.8 0, 235.61 0, 298.67 0 M298.67 0 C298.67 17.4, 298.67 34.8, 298.67 59.33 M298.67 0 C298.67 13.69, 298.67 27.38, 298.67 59.33 M298.67 59.33 C201.3 59.33, 103.94 59.33, 0 59.33 M298.67 59.33 C193.97 59.33, 89.28 59.33, 0 59.33 M0 59.33 C0 40.25, 0 21.17, 0 0 M0 59.33 C0 46.27, 0 33.21, 0 0" stroke="#1e1e1e" stroke-width="2" fill="none"></path></g><g stroke-linecap="round"><g transform="translate(403.3333740234375 180) rotate(0 0.33331298828125 29.666656494140625)"><path d="M0 0 C0.25 22.03, 0.5 44.06, 0.67 59.33 M0 0 C0.19 17.12, 0.38 34.23, 0.67 59.33" stroke="#1e1e1e" stroke-width="2" fill="none"></path></g></g><mask></mask><g transform="translate(344.6666259765625 199.99993896484375) rotate(0 23.0146484375 13.223737496950491)"><text x="0" y="21.15842917098682" font-family="Helvetica, Segoe UI Emoji" font-size="22.997804342522564px" fill="#1e1e1e" text-anchor="start" style="white-space: pre;" direction="ltr" dominant-baseline="alphabetic">addr</text></g><g stroke-linecap="round"><g transform="translate(475.66668701171875 180.99996948242188) rotate(0 0.33331298828125 29.666656494140625)"><path d="M0 0 C0.14 12.23, 0.27 24.46, 0.67 59.33 M0 0 C0.21 18.9, 0.42 37.81, 0.67 59.33" stroke="#1e1e1e" stroke-width="2" fill="none"></path></g></g><mask></mask><g transform="translate(427.33349609375 198.66656494140625) rotate(0 17.01141357421875 14.65981750823272)"><text x="0" y="23.45620596893009" font-family="Helvetica, Segoe UI Emoji" font-size="25.495334796926457px" fill="#1e1e1e" text-anchor="start" style="white-space: pre;" direction="ltr" dominant-baseline="alphabetic">len</text></g><g stroke-linecap="round"><g transform="translate(550.3333129882812 181.33334350585938) rotate(0 0.33331298828125 29.666656494140625)"><path d="M0 0 C0.18 16.1, 0.36 32.19, 0.67 59.33 M0 0 C0.19 17.16, 0.39 34.31, 0.67 59.33" stroke="#1e1e1e" stroke-width="2" fill="none"></path></g></g><mask></mask><g transform="translate(496.0001220703125 198.66668701171875) rotate(0 20.123046875 14.353058752271352)"><text x="0" y="22.96538153959724" font-family="Helvetica, Segoe UI Emoji" font-size="24.961841308298034px" fill="#1e1e1e" text-anchor="start" style="white-space: pre;" direction="ltr" dominant-baseline="alphabetic">flag</text></g><g transform="translate(567.876953125 199.49993896484375) rotate(0 23.284276192602874 14.166656494140625)"><text x="0" y="22.667131594989613" font-family="Helvetica, Segoe UI Emoji" font-size="24.637663468070656px" fill="#1e1e1e" text-anchor="start" style="white-space: pre;" direction="ltr" dominant-baseline="alphabetic">next</text></g><g stroke-linecap="round" transform="translate(328.333251953125 239.3332977294922) rotate(0 149.3333740234375 29.666656494140625)"><path d="M0 0 C79.72 0, 159.45 0, 298.67 0 M0 0 C70.51 0, 141.03 0, 298.67 0 M298.67 0 C298.67 13.09, 298.67 26.18, 298.67 59.33 M298.67 0 C298.67 15.78, 298.67 31.56, 298.67 59.33 M298.67 59.33 C196.82 59.33, 94.96 59.33, 0 59.33 M298.67 59.33 C190.57 59.33, 82.47 59.33, 0 59.33 M0 59.33 C0 39.57, 0 19.82, 0 0 M0 59.33 C0 38.87, 0 18.4, 0 0" stroke="#1e1e1e" stroke-width="2" fill="none"></path></g><g stroke-linecap="round"><g transform="translate(404.333251953125 239.3332977294922) rotate(0 0.33331298828125 29.666656494140625)"><path d="M0 0 C0.23 20.04, 0.45 40.08, 0.67 59.33 M0 0 C0.2 17.73, 0.4 35.45, 0.67 59.33" stroke="#1e1e1e" stroke-width="2" fill="none"></path></g></g><mask></mask><g stroke-linecap="round"><g transform="translate(476.66656494140625 240.33326721191406) rotate(0 0.33331298828125 29.666656494140625)"><path d="M0 0 C0.23 20.04, 0.45 40.09, 0.67 59.33 M0 0 C0.27 23.63, 0.53 47.25, 0.67 59.33" stroke="#1e1e1e" stroke-width="2" fill="none"></path></g></g><mask></mask><g stroke-linecap="round"><g transform="translate(551.3331909179688 240.66664123535156) rotate(0 0.33331298828125 29.666656494140625)"><path d="M0 0 C0.2 18.06, 0.41 36.11, 0.67 59.33 M0 0 C0.24 21.25, 0.48 42.51, 0.67 59.33" stroke="#1e1e1e" stroke-width="2" fill="none"></path></g></g><mask></mask><g stroke-linecap="round" transform="translate(327.9998779296875 297.66661071777344) rotate(0 149.3333740234375 29.666656494140625)"><path d="M0 0 C117.13 0, 234.27 0, 298.67 0 M0 0 C74.75 0, 149.5 0, 298.67 0 M298.67 0 C298.67 12.05, 298.67 24.1, 298.67 59.33 M298.67 0 C298.67 13.38, 298.67 26.77, 298.67 59.33 M298.67 59.33 C195.34 59.33, 92 59.33, 0 59.33 M298.67 59.33 C229.1 59.33, 159.54 59.33, 0 59.33 M0 59.33 C0 44.27, 0 29.2, 0 0 M0 59.33 C0 44.86, 0 30.39, 0 0" stroke="#1e1e1e" stroke-width="2" fill="none"></path></g><g stroke-linecap="round"><g transform="translate(403.9998779296875 297.66661071777344) rotate(0 0.33331298828125 29.666656494140625)"><path d="M0 0 C0.26 23.19, 0.52 46.37, 0.67 59.33 M0 0 C0.21 18.89, 0.42 37.78, 0.67 59.33" stroke="#1e1e1e" stroke-width="2" fill="none"></path></g></g><mask></mask><g stroke-linecap="round"><g transform="translate(476.33319091796875 298.6665802001953) rotate(0 0.33331298828125 29.666656494140625)"><path d="M0 0 C0.17 14.96, 0.34 29.91, 0.67 59.33 M0 0 C0.16 14.16, 0.32 28.32, 0.67 59.33" stroke="#1e1e1e" stroke-width="2" fill="none"></path></g></g><mask></mask><g stroke-linecap="round"><g transform="translate(550.9998168945312 298.9999542236328) rotate(0 0.33331298828125 29.666656494140625)"><path d="M0 0 C0.24 21.67, 0.49 43.34, 0.67 59.33 M0 0 C0.25 21.91, 0.49 43.82, 0.67 59.33" stroke="#1e1e1e" stroke-width="2" fill="none"></path></g></g><mask></mask><g stroke-linecap="round" transform="translate(327.9998779296875 357.66661071777344) rotate(0 149.3333740234375 29.666656494140625)"><path d="M0 0 C82.38 0, 164.76 0, 298.67 0 M0 0 C92.45 0, 184.9 0, 298.67 0 M298.67 0 C298.67 19.86, 298.67 39.73, 298.67 59.33 M298.67 0 C298.67 20.63, 298.67 41.25, 298.67 59.33 M298.67 59.33 C199.45 59.33, 100.23 59.33, 0 59.33 M298.67 59.33 C211.71 59.33, 124.75 59.33, 0 59.33 M0 59.33 C0 35.84, 0 12.34, 0 0 M0 59.33 C0 40.19, 0 21.05, 0 0" stroke="#1e1e1e" stroke-width="2" fill="none"></path></g><g stroke-linecap="round"><g transform="translate(403.9998779296875 357.66661071777344) rotate(0 0.33331298828125 29.666656494140625)"><path d="M0 0 C0.24 21.51, 0.48 43.02, 0.67 59.33 M0 0 C0.23 20.25, 0.46 40.5, 0.67 59.33" stroke="#1e1e1e" stroke-width="2" fill="none"></path></g></g><mask></mask><g stroke-linecap="round"><g transform="translate(476.33319091796875 358.6665802001953) rotate(0 0.33331298828125 29.666656494140625)"><path d="M0 0 C0.17 15.55, 0.35 31.09, 0.67 59.33 M0 0 C0.14 12.44, 0.28 24.88, 0.67 59.33" stroke="#1e1e1e" stroke-width="2" fill="none"></path></g></g><mask></mask><g stroke-linecap="round"><g transform="translate(550.9998168945312 358.9999542236328) rotate(0 0.33331298828125 29.666656494140625)"><path d="M0 0 C0.21 18.51, 0.42 37.03, 0.67 59.33 M0 0 C0.26 23.22, 0.52 46.43, 0.67 59.33" stroke="#1e1e1e" stroke-width="2" fill="none"></path></g></g><mask></mask><g stroke-linecap="round"><g transform="translate(156 244) rotate(0 5.66668701171875 -9.333343505859375)"><path d="M0 0 C3.26 -5.37, 6.52 -10.74, 11.33 -18.67 M0 0 C3.84 -6.32, 7.68 -12.64, 11.33 -18.67" stroke="#1e1e1e" stroke-width="2" fill="none"></path></g></g><mask></mask><g stroke-linecap="round"><g transform="translate(185.3333740234375 264.3333435058594) rotate(0 8.333343505859375 -6.66668701171875)"><path d="M0 0 C4.32 -3.46, 8.64 -6.91, 16.67 -13.33 M0 0 C3.42 -2.74, 6.84 -5.48, 16.67 -13.33" stroke="#1e1e1e" stroke-width="2" fill="none"></path></g></g><mask></mask><g stroke-linecap="round"><g transform="translate(200.66665649414062 297.66668701171875) rotate(0 11.333343505859375 -3.000030517578125)"><path d="M0 0 C5.71 -1.51, 11.43 -3.02, 22.67 -6 M0 0 C7.99 -2.12, 15.98 -4.23, 22.67 -6" stroke="#1e1e1e" stroke-width="2" fill="none"></path></g></g><mask></mask><g stroke-linecap="round"><g transform="translate(203.99996948242188 338.3332824707031) rotate(0 10.666656494140625 3)"><path d="M0 0 C5.41 1.52, 10.81 3.04, 21.33 6 M0 0 C4.55 1.28, 9.1 2.56, 21.33 6" stroke="#1e1e1e" stroke-width="2" fill="none"></path></g></g><mask></mask><g stroke-linecap="round"><g transform="translate(200.40386789713318 271.8796879862764) rotate(0 60.798096569011534 1.8623876298465802)"><path d="M0 0 C33.65 1.03, 67.29 2.06, 121.6 3.72 M0 0 C36.74 1.13, 73.48 2.25, 121.6 3.72" stroke="#1e1e1e" stroke-width="2" fill="none"></path></g><g transform="translate(200.40386789713318 271.8796879862764) rotate(0 60.798096569011534 1.8623876298465802)"><path d="M97.85 11.55 C104.42 9.39, 110.99 7.22, 121.6 3.72 M97.85 11.55 C105.03 9.19, 112.2 6.82, 121.6 3.72" stroke="#1e1e1e" stroke-width="2" fill="none"></path></g><g transform="translate(200.40386789713318 271.8796879862764) rotate(0 60.798096569011534 1.8623876298465802)"><path d="M98.38 -5.54 C104.8 -2.98, 111.23 -0.41, 121.6 3.72 M98.38 -5.54 C105.39 -2.74, 112.41 0.06, 121.6 3.72" stroke="#1e1e1e" stroke-width="2" fill="none"></path></g></g><mask></mask><g transform="translate(334.666748046875 263.9333129882813) rotate(0 32.8076171875 11.5)"><text x="0" y="18.400390625" font-family="Helvetica, Segoe UI Emoji" font-size="20px" fill="#1e1e1e" text-anchor="start" style="white-space: pre;" direction="ltr" dominant-baseline="alphabetic">0x3000</text></g><g transform="translate(414.5257568359375 263.16656494140614) rotate(0 27.24609375 11.5)"><text x="0" y="18.400390625" font-family="Helvetica, Segoe UI Emoji" font-size="20px" fill="#1e1e1e" text-anchor="start" style="white-space: pre;" direction="ltr" dominant-baseline="alphabetic">0x200</text></g><g transform="translate(504.420654296875 262.16656494140636) rotate(0 7.2216796875 11.5)"><text x="0" y="18.400390625" font-family="Helvetica, Segoe UI Emoji" font-size="20px" fill="#1e1e1e" text-anchor="start" style="white-space: pre;" direction="ltr" dominant-baseline="alphabetic">N</text></g><g transform="translate(588 262) rotate(0 5.5615234375 11.5)"><text x="0" y="18.400390625" font-family="Helvetica, Segoe UI Emoji" font-size="20px" fill="#1e1e1e" text-anchor="start" style="white-space: pre;" direction="ltr" dominant-baseline="alphabetic">1</text></g><g stroke-linecap="round"><g transform="translate(628.666748046875 268) rotate(0 18.33331298828125 0)"><path d="M0 0 C8.4 0, 16.81 0, 36.67 0" stroke="#1e1e1e" stroke-width="1.5" fill="none" stroke-dasharray="8 9"></path></g></g><mask></mask><g stroke-linecap="round"><g transform="translate(664 268) rotate(0 -17.5 24.333342970594003)"><path d="M0 0 C0.41 14.82, 0.81 29.64, 1.33 48.67 M1.33 48.67 C-8.4 48.67, -18.13 48.67, -36.33 48.67" stroke="#1e1e1e" stroke-width="1.5" fill="none" stroke-dasharray="8 9"></path></g><g transform="translate(664 268) rotate(0 -17.5 24.333342970594003)"><path d="M-18.64 42.23 C-24.03 44.19, -29.42 46.15, -36.33 48.67" stroke="#1e1e1e" stroke-width="1.5" fill="none"></path></g><g transform="translate(664 268) rotate(0 -17.5 24.333342970594003)"><path d="M-18.64 55.11 C-24.03 53.15, -29.42 51.18, -36.33 48.67" stroke="#1e1e1e" stroke-width="1.5" fill="none"></path></g></g><mask></mask><g transform="translate(334.1925048828125 321.8332519531249) rotate(0 32.8076171875 11.5)"><text x="0" y="18.400390625" font-family="Helvetica, Segoe UI Emoji" font-size="20px" fill="#1e1e1e" text-anchor="start" style="white-space: pre;" direction="ltr" dominant-baseline="alphabetic">0x3400</text></g><g transform="translate(413.75390625 321.83331298828136) rotate(0 27.24609375 11.5)"><text x="0" y="18.400390625" font-family="Helvetica, Segoe UI Emoji" font-size="20px" fill="#1e1e1e" text-anchor="start" style="white-space: pre;" direction="ltr" dominant-baseline="alphabetic">0x200</text></g><g transform="translate(490.111572265625 317.1666259765624) rotate(0 24.814453125 11.5)"><text x="0" y="18.400390625" font-family="Helvetica, Segoe UI Emoji" font-size="20px" fill="#1e1e1e" text-anchor="start" style="white-space: pre;" direction="ltr" dominant-baseline="alphabetic">W | N</text></g><g transform="translate(587.7718505859375 321.49993896484375) rotate(0 5.5615234375 11.5)"><text x="0" y="18.400390625" font-family="Helvetica, Segoe UI Emoji" font-size="20px" fill="#1e1e1e" text-anchor="start" style="white-space: pre;" direction="ltr" dominant-baseline="alphabetic">2</text></g><g transform="translate(333.859130859375 382.1666259765626) rotate(0 32.8076171875 11.5)"><text x="0" y="18.400390625" font-family="Helvetica, Segoe UI Emoji" font-size="20px" fill="#1e1e1e" text-anchor="start" style="white-space: pre;" direction="ltr" dominant-baseline="alphabetic">0x4000</text></g><g transform="translate(414.0872802734375 381.8332519531249) rotate(0 27.24609375 11.5)"><text x="0" y="18.400390625" font-family="Helvetica, Segoe UI Emoji" font-size="20px" fill="#1e1e1e" text-anchor="start" style="white-space: pre;" direction="ltr" dominant-baseline="alphabetic">0x200</text></g><g transform="translate(503.185546875 378.16656494140636) rotate(0 9.4384765625 11.5)"><text x="0" y="18.400390625" font-family="Helvetica, Segoe UI Emoji" font-size="20px" fill="#1e1e1e" text-anchor="start" style="white-space: pre;" direction="ltr" dominant-baseline="alphabetic">W</text></g><g stroke-linecap="round"><g transform="translate(630.666748046875 336.9999694824219) rotate(0 18.33331298828125 0)"><path d="M0 0 C14.42 0, 28.85 0, 36.67 0" stroke="#1e1e1e" stroke-width="1.5" fill="none" stroke-dasharray="8 9"></path></g></g><mask></mask><g stroke-linecap="round"><g transform="translate(666 336.9999694824219) rotate(0 -17.6666259765625 24.333343505859375)"><path d="M0 0 C0.53 19.42, 1.06 38.83, 1.33 48.67 M1.33 48.67 C-12.11 48.67, -25.55 48.67, -36.67 48.67" stroke="#1e1e1e" stroke-width="1.5" fill="none" stroke-dasharray="8 9"></path></g><g transform="translate(666 336.9999694824219) rotate(0 -17.6666259765625 24.333343505859375)"><path d="M-18.81 42.17 C-25.94 44.76, -33.06 47.35, -36.67 48.67" stroke="#1e1e1e" stroke-width="1.5" fill="none"></path></g><g transform="translate(666 336.9999694824219) rotate(0 -17.6666259765625 24.333343505859375)"><path d="M-18.81 55.17 C-25.94 52.57, -33.06 49.98, -36.67 48.67" stroke="#1e1e1e" stroke-width="1.5" fill="none"></path></g></g><mask></mask><g transform="translate(581.3333740234375 379.333251953125) rotate(0 10 11.5)"><text x="0" y="18.400390625" font-family="Helvetica, Segoe UI Emoji" font-size="20px" fill="#1e1e1e" text-anchor="start" style="white-space: pre;" direction="ltr" dominant-baseline="alphabetic">—</text></g><g stroke-linecap="round" transform="translate(329 416.9999237060547) rotate(0 149.3333740234375 29.666656494140625)"><path d="M0 0 C62.27 0, 124.54 0, 298.67 0 M0 0 C65.21 0, 130.43 0, 298.67 0 M298.67 0 C298.67 14.19, 298.67 28.39, 298.67 59.33 M298.67 0 C298.67 22.99, 298.67 45.97, 298.67 59.33 M298.67 59.33 C216.1 59.33, 133.53 59.33, 0 59.33 M298.67 59.33 C184.61 59.33, 70.54 59.33, 0 59.33 M0 59.33 C0 45.13, 0 30.94, 0 0 M0 59.33 C0 36.57, 0 13.8, 0 0" stroke="#1e1e1e" stroke-width="2" fill="none"></path></g><g transform="translate(436.3743896484375 425.96658020019527) rotate(0 41.958984375 20.69999999999999)"><text x="41.958984375" y="33.120703125" font-family="Helvetica, Segoe UI Emoji" font-size="36px" fill="#343a40" text-anchor="middle" style="white-space: pre;" direction="ltr" dominant-baseline="alphabetic">·······</text></g><g stroke-linecap="round"><g transform="translate(214.00663089560044 321.123321139532) rotate(0 53.996715069777906 58.95147546572281)"><path d="M0 0 C27.06 29.54, 54.12 59.08, 107.99 117.9 M0 0 C31.59 34.49, 63.18 68.97, 107.99 117.9" stroke="#1e1e1e" stroke-width="2" fill="none"></path></g><g transform="translate(214.00663089560044 321.123321139532) rotate(0 53.996715069777906 58.95147546572281)"><path d="M85.82 106.35 C91.38 109.25, 96.93 112.14, 107.99 117.9 M85.82 106.35 C92.31 109.73, 98.79 113.11, 107.99 117.9" stroke="#1e1e1e" stroke-width="2" fill="none"></path></g><g transform="translate(214.00663089560044 321.123321139532) rotate(0 53.996715069777906 58.95147546572281)"><path d="M98.43 94.8 C100.83 100.59, 103.22 106.38, 107.99 117.9 M98.43 94.8 C101.23 101.56, 104.02 108.32, 107.99 117.9" stroke="#1e1e1e" stroke-width="2" fill="none"></path></g></g><mask></mask><g stroke-linecap="round" transform="translate(755.3333435058594 209.99993896484375) rotate(559.0237926751888 108.66665649414062 108.66668701171875)"><path d="M217.33 108.67 C217.33 112.01, 217.18 115.37, 216.87 118.69 C216.56 122.02, 216.1 125.35, 215.48 128.63 C214.87 131.92, 214.1 135.19, 213.19 138.4 C212.27 141.62, 211.2 144.81, 210 147.92 C208.79 151.04, 207.43 154.11, 205.94 157.1 C204.45 160.1, 202.82 163.03, 201.06 165.87 C199.3 168.71, 197.4 171.49, 195.38 174.15 C193.37 176.82, 191.22 179.41, 188.97 181.87 C186.72 184.34, 184.34 186.72, 181.87 188.97 C179.41 191.22, 176.82 193.37, 174.15 195.38 C171.49 197.4, 168.71 199.3, 165.87 201.06 C163.03 202.82, 160.1 204.45, 157.1 205.94 C154.11 207.43, 151.04 208.79, 147.92 210 C144.81 211.2, 141.62 212.27, 138.4 213.19 C135.19 214.1, 131.92 214.87, 128.63 215.48 C125.35 216.1, 122.02 216.56, 118.69 216.87 C115.37 217.18, 112.01 217.33, 108.67 217.33 C105.32 217.33, 101.97 217.18, 98.64 216.87 C95.31 216.56, 91.98 216.1, 88.7 215.48 C85.41 214.87, 82.14 214.1, 78.93 213.19 C75.71 212.27, 72.53 211.2, 69.41 210 C66.3 208.79, 63.22 207.43, 60.23 205.94 C57.24 204.45, 54.3 202.82, 51.46 201.06 C48.62 199.3, 45.85 197.4, 43.18 195.38 C40.51 193.37, 37.93 191.22, 35.46 188.97 C32.99 186.72, 30.61 184.34, 28.36 181.87 C26.11 179.41, 23.96 176.82, 21.95 174.15 C19.93 171.49, 18.04 168.71, 16.28 165.87 C14.52 163.03, 12.88 160.1, 11.39 157.1 C9.9 154.11, 8.55 151.04, 7.34 147.92 C6.13 144.81, 5.06 141.62, 4.15 138.4 C3.23 135.19, 2.46 131.92, 1.85 128.63 C1.24 125.35, 0.77 122.02, 0.46 118.69 C0.16 115.37, 0 112.01, 0 108.67 C0 105.32, 0.16 101.97, 0.46 98.64 C0.77 95.31, 1.24 91.98, 1.85 88.7 C2.46 85.41, 3.23 82.14, 4.15 78.93 C5.06 75.71, 6.13 72.53, 7.34 69.41 C8.55 66.3, 9.9 63.22, 11.39 60.23 C12.88 57.24, 14.52 54.3, 16.28 51.46 C18.04 48.62, 19.93 45.85, 21.95 43.18 C23.96 40.51, 26.11 37.93, 28.36 35.46 C30.61 32.99, 32.99 30.61, 35.46 28.36 C37.93 26.11, 40.51 23.96, 43.18 21.95 C45.85 19.93, 48.62 18.04, 51.46 16.28 C54.3 14.52, 57.24 12.88, 60.23 11.39 C63.22 9.9, 66.3 8.55, 69.41 7.34 C72.53 6.13, 75.71 5.06, 78.93 4.15 C82.14 3.23, 85.41 2.46, 88.7 1.85 C91.98 1.24, 95.31 0.77, 98.64 0.46 C101.97 0.16, 105.32 0, 108.67 0 C112.01 0, 115.37 0.16, 118.69 0.46 C122.02 0.77, 125.35 1.24, 128.63 1.85 C131.92 2.46, 135.19 3.23, 138.4 4.15 C141.62 5.06, 144.81 6.13, 147.92 7.34 C151.04 8.55, 154.11 9.9, 157.1 11.39 C160.1 12.88, 163.03 14.52, 165.87 16.28 C168.71 18.04, 171.49 19.93, 174.15 21.95 C176.82 23.96, 179.41 26.11, 181.87 28.36 C184.34 30.61, 186.72 32.99, 188.97 35.46 C191.22 37.93, 193.37 40.51, 195.38 43.18 C197.4 45.85, 199.3 48.62, 201.06 51.46 C202.82 54.3, 204.45 57.24, 205.94 60.23 C207.43 63.22, 208.79 66.3, 210 69.41 C211.2 72.53, 212.27 75.71, 213.19 78.93 C214.1 82.14, 214.87 85.41, 215.48 88.7 C216.1 91.98, 216.56 95.31, 216.87 98.64 C217.18 101.97, 217.26 107, 217.33 108.67 C217.41 110.34, 217.41 107, 217.33 108.67" stroke="#1e1e1e" stroke-width="2" fill="none"></path></g><g stroke-linecap="round" transform="translate(778.8096293099561 231.23546267506947) rotate(201.1790495211907 84.99996948242188 87)"><path d="M170 87 C170 90.03, 169.84 93.08, 169.53 96.09 C169.22 99.11, 168.76 102.12, 168.14 105.09 C167.53 108.05, 166.75 111, 165.84 113.88 C164.92 116.77, 163.86 119.62, 162.65 122.39 C161.45 125.16, 160.09 127.87, 158.61 130.5 C157.13 133.13, 155.51 135.68, 153.77 138.14 C152.03 140.59, 150.15 142.96, 148.17 145.21 C146.19 147.47, 144.08 149.63, 141.88 151.65 C139.68 153.68, 137.36 155.6, 134.96 157.38 C132.57 159.17, 130.06 160.83, 127.5 162.34 C124.94 163.86, 122.28 165.25, 119.57 166.48 C116.87 167.71, 114.08 168.81, 111.27 169.74 C108.45 170.68, 105.57 171.47, 102.67 172.1 C99.78 172.73, 96.83 173.21, 93.88 173.52 C90.94 173.84, 87.96 174, 85 174 C82.04 174, 79.06 173.84, 76.12 173.52 C73.17 173.21, 70.22 172.73, 67.33 172.1 C64.43 171.47, 61.55 170.68, 58.73 169.74 C55.92 168.81, 53.13 167.71, 50.43 166.48 C47.72 165.25, 45.06 163.86, 42.5 162.34 C39.94 160.83, 37.43 159.17, 35.04 157.38 C32.64 155.6, 30.32 153.68, 28.12 151.65 C25.92 149.63, 23.81 147.47, 21.83 145.21 C19.85 142.96, 17.97 140.59, 16.23 138.14 C14.49 135.68, 12.87 133.13, 11.39 130.5 C9.91 127.87, 8.55 125.16, 7.35 122.39 C6.14 119.62, 5.08 116.77, 4.16 113.88 C3.24 111, 2.47 108.05, 1.86 105.09 C1.24 102.12, 0.78 99.11, 0.47 96.09 C0.16 93.08, 0 90.03, 0 87 C0 83.97, 0.16 80.92, 0.47 77.91 C0.78 74.89, 1.24 71.88, 1.86 68.91 C2.47 65.95, 3.24 63, 4.16 60.12 C5.08 57.23, 6.14 54.38, 7.35 51.61 C8.55 48.84, 9.91 46.13, 11.39 43.5 C12.87 40.87, 14.49 38.32, 16.23 35.86 C17.97 33.41, 19.85 31.04, 21.83 28.79 C23.81 26.53, 25.92 24.37, 28.12 22.35 C30.32 20.32, 32.64 18.4, 35.04 16.62 C37.43 14.83, 39.94 13.17, 42.5 11.66 C45.06 10.14, 47.72 8.75, 50.43 7.52 C53.13 6.29, 55.92 5.19, 58.73 4.26 C61.55 3.32, 64.43 2.53, 67.33 1.9 C70.22 1.27, 73.17 0.79, 76.12 0.48 C79.06 0.16, 82.04 0, 85 0 C87.96 0, 90.94 0.16, 93.88 0.48 C96.83 0.79, 99.78 1.27, 102.67 1.9 C105.57 2.53, 108.45 3.32, 111.27 4.26 C114.08 5.19, 116.87 6.29, 119.57 7.52 C122.28 8.75, 124.94 10.14, 127.5 11.66 C130.06 13.17, 132.57 14.83, 134.96 16.62 C137.36 18.4, 139.68 20.32, 141.88 22.35 C144.08 24.37, 146.19 26.53, 148.17 28.79 C150.15 31.04, 152.03 33.41, 153.77 35.86 C155.51 38.32, 157.13 40.87, 158.61 43.5 C160.09 46.13, 161.45 48.84, 162.65 51.61 C163.86 54.38, 164.92 57.23, 165.84 60.12 C166.75 63, 167.53 65.95, 168.14 68.91 C168.76 71.88, 169.22 74.89, 169.53 77.91 C169.84 80.92, 169.92 85.48, 170 87 C170.08 88.52, 170.08 85.48, 170 87" stroke="#1e1e1e" stroke-width="2" fill="none"></path></g><g stroke-linecap="round"><g transform="translate(786.685591939319 393.89920255922095) rotate(201.1790495211907 5.66668701171875 -9.333343505859375)"><path d="M0 0 C3.85 -6.34, 7.7 -12.68, 11.33 -18.67 M0 0 C3.49 -5.75, 6.98 -11.5, 11.33 -18.67" stroke="#1e1e1e" stroke-width="2" fill="none"></path></g></g><mask></mask><g stroke-linecap="round"><g transform="translate(762.4898396476333 358.2249713697752) rotate(201.1790495211907 8.333343505859375 -6.66668701171875)"><path d="M0 0 C5.95 -4.76, 11.9 -9.52, 16.67 -13.33 M0 0 C6.23 -4.99, 12.47 -9.98, 16.67 -13.33" stroke="#1e1e1e" stroke-width="2" fill="none"></path></g></g><mask></mask><g stroke-linecap="round"><g transform="translate(755.7623555594596 313.4339290623129) rotate(201.1790495211907 11.333343505859375 -3.000030517578125)"><path d="M0 0 C6.58 -1.74, 13.15 -3.48, 22.67 -6 M0 0 C7.61 -2.01, 15.21 -4.03, 22.67 -6" stroke="#1e1e1e" stroke-width="2" fill="none"></path></g></g><mask></mask><g stroke-linecap="round"><g transform="translate(770.8024196322231 262.9559162838866) rotate(201.1790495211907 10.666656494140625 3)"><path d="M0 0 C7.52 2.11, 15.03 4.23, 21.33 6 M0 0 C5.36 1.51, 10.72 3.01, 21.33 6" stroke="#1e1e1e" stroke-width="2" fill="none"></path></g></g><mask></mask><g transform="translate(822 301.2666259765625) rotate(0 42 16.100000000000023)"><text x="0" y="25.760546874999996" font-family="Helvetica, Segoe UI Emoji" font-size="28px" fill="#e03131" text-anchor="start" style="white-space: pre;" direction="ltr" dominant-baseline="alphabetic">已用环</text></g><g stroke-linecap="round"><g transform="translate(771.6404401995303 286.43406950608664) rotate(0 -70.4869071114839 -17.057060538653445)"><path d="M0 0 C-50.62 -12.25, -101.24 -24.5, -140.97 -34.11 M0 0 C-50.43 -12.2, -100.87 -24.41, -140.97 -34.11" stroke="#343a40" stroke-width="2" fill="none"></path></g><g transform="translate(771.6404401995303 286.43406950608664) rotate(0 -70.4869071114839 -17.057060538653445)"><path d="M-116.13 -36.9 C-125.05 -35.9, -133.97 -34.9, -140.97 -34.11 M-116.13 -36.9 C-125.02 -35.9, -133.91 -34.91, -140.97 -34.11" stroke="#343a40" stroke-width="2" fill="none"></path></g><g transform="translate(771.6404401995303 286.43406950608664) rotate(0 -70.4869071114839 -17.057060538653445)"><path d="M-120.15 -20.28 C-127.63 -25.25, -135.1 -30.21, -140.97 -34.11 M-120.15 -20.28 C-127.6 -25.23, -135.05 -30.18, -140.97 -34.11" stroke="#343a40" stroke-width="2" fill="none"></path></g></g><mask></mask><g transform="translate(418.0001220703125 141.3333740234375) rotate(0 56 16.100000000000023)"><text x="0" y="25.760546874999996" font-family="Helvetica, Segoe UI Emoji" font-size="28px" fill="#e03131" text-anchor="start" style="white-space: pre;" direction="ltr" dominant-baseline="alphabetic">描述符表</text></g><g stroke-linecap="round" transform="translate(373.3333740234375 10) rotate(0 103.33331298828125 40.666656494140625)"><path d="M20.33 0 C71.73 0, 123.12 0, 186.33 0 C199.89 0, 206.67 6.78, 206.67 20.33 C206.67 33.58, 206.67 46.82, 206.67 61 C206.67 74.56, 199.89 81.33, 186.33 81.33 C143.8 81.33, 101.27 81.33, 20.33 81.33 C6.78 81.33, 0 74.56, 0 61 C0 52.53, 0 44.05, 0 20.33 C0 6.78, 6.78 0, 20.33 0" stroke="none" stroke-width="0" fill="#b2f2bb"></path><path d="M20.33 0 C68.01 0, 115.69 0, 186.33 0 M20.33 0 C78.99 0, 137.65 0, 186.33 0 M186.33 0 C199.89 0, 206.67 6.78, 206.67 20.33 M186.33 0 C199.89 0, 206.67 6.78, 206.67 20.33 M206.67 20.33 C206.67 30.8, 206.67 41.27, 206.67 61 M206.67 20.33 C206.67 34.07, 206.67 47.8, 206.67 61 M206.67 61 C206.67 74.56, 199.89 81.33, 186.33 81.33 M206.67 61 C206.67 74.56, 199.89 81.33, 186.33 81.33 M186.33 81.33 C142.02 81.33, 97.71 81.33, 20.33 81.33 M186.33 81.33 C141.57 81.33, 96.81 81.33, 20.33 81.33 M20.33 81.33 C6.78 81.33, 0 74.56, 0 61 M20.33 81.33 C6.78 81.33, 0 74.56, 0 61 M0 61 C0 49.25, 0 37.5, 0 20.33 M0 61 C0 46.48, 0 31.96, 0 20.33 M0 20.33 C0 6.78, 6.78 0, 20.33 0 M0 20.33 C0 6.78, 6.78 0, 20.33 0" stroke="#343a40" stroke-width="2" fill="none"></path></g><g transform="translate(417.02313232421875 34.5666564941406) rotate(0 59.6435546875 16.100000000000023)"><text x="59.6435546875" y="25.760546874999996" font-family="Helvetica, Segoe UI Emoji" font-size="28px" fill="#343a40" text-anchor="middle" style="white-space: pre;" direction="ltr" dominant-baseline="alphabetic">Virtio驱动</text></g><g stroke-linecap="round" transform="translate(366.66668701171875 525.0000305175781) rotate(0 106 44.999969482421875)"><path d="M22.5 0 C62.36 0, 102.22 0, 189.5 0 C204.5 0, 212 7.5, 212 22.5 C212 38.89, 212 55.29, 212 67.5 C212 82.5, 204.5 90, 189.5 90 C153.6 90, 117.69 90, 22.5 90 C7.5 90, 0 82.5, 0 67.5 C0 58.44, 0 49.38, 0 22.5 C0 7.5, 7.5 0, 22.5 0" stroke="none" stroke-width="0" fill="#a5d8ff"></path><path d="M22.5 0 C72.85 0, 123.2 0, 189.5 0 M22.5 0 C67.45 0, 112.4 0, 189.5 0 M189.5 0 C204.5 0, 212 7.5, 212 22.5 M189.5 0 C204.5 0, 212 7.5, 212 22.5 M212 22.5 C212 32.23, 212 41.96, 212 67.5 M212 22.5 C212 34.5, 212 46.49, 212 67.5 M212 67.5 C212 82.5, 204.5 90, 189.5 90 M212 67.5 C212 82.5, 204.5 90, 189.5 90 M189.5 90 C137.65 90, 85.8 90, 22.5 90 M189.5 90 C141.62 90, 93.74 90, 22.5 90 M22.5 90 C7.5 90, 0 82.5, 0 67.5 M22.5 90 C7.5 90, 0 82.5, 0 67.5 M0 67.5 C0 53.86, 0 40.22, 0 22.5 M0 67.5 C0 51.27, 0 35.05, 0 22.5 M0 22.5 C0 7.5, 7.5 0, 22.5 0 M0 22.5 C0 7.5, 7.5 0, 22.5 0" stroke="#343a40" stroke-width="2" fill="none"></path></g><g transform="translate(413.02313232421875 553.9000000000001) rotate(0 59.6435546875 16.100000000000023)"><text x="59.6435546875" y="25.760546874999996" font-family="Helvetica, Segoe UI Emoji" font-size="28px" fill="#343a40" text-anchor="middle" style="white-space: pre;" direction="ltr" dominant-baseline="alphabetic">Virtio设备</text></g><g mask="url(#mask-DmZdKmMmdEIVxtYoLmcSq)" stroke-linecap="round"><g transform="translate(360.000244140625 65.43888496258853) rotate(0 -89.4503833050286 85.34955327620179)"><path d="M0 0 C-20.56 10.65, -93.52 35.44, -123.33 63.89 C-153.15 92.34, -169.64 152.9, -178.9 170.7 M0 0 C-20.56 10.65, -93.52 35.44, -123.33 63.89 C-153.15 92.34, -169.64 152.9, -178.9 170.7" stroke="#2f9e44" stroke-width="2" fill="none"></path></g><g transform="translate(360.000244140625 65.43888496258853) rotate(0 -89.4503833050286 85.34955327620179)"><path d="M-178.9 170.7 L-179.62 155.72 L-167.89 160.52 L-178.9 170.7" stroke="none" stroke-width="0" fill="#2f9e44" fill-rule="evenodd"></path><path d="M-178.9 170.7 C-179.14 165.79, -179.37 160.88, -179.62 155.72 M-178.9 170.7 C-179.13 165.83, -179.37 160.96, -179.62 155.72 M-179.62 155.72 C-176.42 157.03, -173.21 158.34, -167.89 160.52 M-179.62 155.72 C-175.45 157.42, -171.27 159.13, -167.89 160.52 M-167.89 160.52 C-171.75 164.09, -175.6 167.65, -178.9 170.7 M-167.89 160.52 C-170.84 163.25, -173.8 165.98, -178.9 170.7 M-178.9 170.7 C-178.9 170.7, -178.9 170.7, -178.9 170.7 M-178.9 170.7 C-178.9 170.7, -178.9 170.7, -178.9 170.7" stroke="#2f9e44" stroke-width="2" fill="none"></path></g></g><mask id="mask-DmZdKmMmdEIVxtYoLmcSq"><rect x="0" y="0" fill="#fff" width="638.9010107506822" height="336.1379915149921"></rect><rect x="211.75665283203125" y="113.23331298828123" fill="#000" width="49.8203125" height="32.199999999999996" opacity="1"></rect></mask><g transform="translate(211.75665283203125 113.23331298828123) rotate(0 58.793208003565155 37.55512525050909)"><text x="24.91015625" y="25.760546874999996" font-family="Helvetica, Segoe UI Emoji" font-size="28px" fill="#2f9e44" text-anchor="middle" style="white-space: pre;" direction="ltr" dominant-baseline="alphabetic">Add</text></g><g mask="url(#mask-UiBfbFrgobFSHvR700W8x)" stroke-linecap="round"><g transform="translate(210.48591371586474 371.3041757338924) rotate(0 74.75710417722388 96.02230147679086)"><path d="M0 0 C8.47 19.45, 25.93 84.69, 50.85 116.7 C75.77 148.7, 133.07 179.49, 149.51 192.04 M0 0 C8.47 19.45, 25.93 84.69, 50.85 116.7 C75.77 148.7, 133.07 179.49, 149.51 192.04" stroke="#1971c2" stroke-width="2" fill="none"></path></g><g transform="translate(210.48591371586474 371.3041757338924) rotate(0 74.75710417722388 96.02230147679086)"><path d="M149.51 192.04 L134.68 189.84 L141.67 179.26 L149.51 192.04" stroke="none" stroke-width="0" fill="#1971c2" fill-rule="evenodd"></path><path d="M149.51 192.04 C144.21 191.26, 138.91 190.47, 134.68 189.84 M149.51 192.04 C146.19 191.55, 142.87 191.06, 134.68 189.84 M134.68 189.84 C137.2 186.02, 139.72 182.2, 141.67 179.26 M134.68 189.84 C137.43 185.67, 140.19 181.5, 141.67 179.26 M141.67 179.26 C144.78 184.34, 147.9 189.42, 149.51 192.04 M141.67 179.26 C144.67 184.15, 147.67 189.05, 149.51 192.04 M149.51 192.04 C149.51 192.04, 149.51 192.04, 149.51 192.04 M149.51 192.04 C149.51 192.04, 149.51 192.04, 149.51 192.04" stroke="#1971c2" stroke-width="2" fill="none"></path></g></g><mask id="mask-UiBfbFrgobFSHvR700W8x"><rect x="0" y="0" fill="#fff" width="460.0001220703125" height="663.3487786874741"></rect><rect x="226.3197021484374" y="471.89993896484384" fill="#000" width="70.02734375" height="32.199999999999996" opacity="1"></rect></mask><g transform="translate(226.3197021484375 471.8999389648437) rotate(0 58.92331574465112 -4.573461754160462)"><text x="35.013671875" y="25.760546874999996" font-family="Helvetica, Segoe UI Emoji" font-size="28px" fill="#1971c2" text-anchor="middle" style="white-space: pre;" direction="ltr" dominant-baseline="alphabetic">Fetch</text></g><g mask="url(#mask-Dj3H6ekWxw28MrZI80-1A)" stroke-linecap="round"><g transform="translate(583.3333740234375 550.0162109265227) rotate(0 96.3336601342944 -78.67527025270067)"><path d="M0 0 C20.67 -7.11, 91.89 -16.46, 124 -42.68 C156.11 -68.91, 181.22 -138.24, 192.67 -157.35 M0 0 C20.67 -7.11, 91.89 -16.46, 124 -42.68 C156.11 -68.91, 181.22 -138.24, 192.67 -157.35" stroke="#1971c2" stroke-width="2" fill="none"></path></g><g transform="translate(583.3333740234375 550.0162109265227) rotate(0 96.3336601342944 -78.67527025270067)"><path d="M192.67 -157.35 L192.39 -142.35 L181 -147.92 L192.67 -157.35" stroke="none" stroke-width="0" fill="#1971c2" fill-rule="evenodd"></path><path d="M192.67 -157.35 C192.56 -151.52, 192.45 -145.68, 192.39 -142.35 M192.67 -157.35 C192.59 -153.05, 192.51 -148.75, 192.39 -142.35 M192.39 -142.35 C189.05 -143.99, 185.71 -145.62, 181 -147.92 M192.39 -142.35 C188.58 -144.22, 184.77 -146.08, 181 -147.92 M181 -147.92 C185.39 -151.47, 189.79 -155.02, 192.67 -157.35 M181 -147.92 C184.79 -150.98, 188.58 -154.05, 192.67 -157.35 M192.67 -157.35 C192.67 -157.35, 192.67 -157.35, 192.67 -157.35 M192.67 -157.35 C192.67 -157.35, 192.67 -157.35, 192.67 -157.35" stroke="#1971c2" stroke-width="2" fill="none"></path></g></g><mask id="mask-Dj3H6ekWxw28MrZI80-1A"><rect x="0" y="0" fill="#fff" width="876.0006942920263" height="807.3667514319241"></rect><rect x="682.42333984375" y="491.2333129882811" fill="#000" width="49.8203125" height="32.199999999999996" opacity="1"></rect></mask><g transform="translate(682.42333984375 491.2333129882812) rotate(0 -2.756305686018095 -19.89237231445918)"><text x="24.91015625" y="25.760546874999996" font-family="Helvetica, Segoe UI Emoji" font-size="28px" fill="#1971c2" text-anchor="middle" style="white-space: pre;" direction="ltr" dominant-baseline="alphabetic">Add</text></g><g mask="url(#mask-WQwXwgOqIOdCYVZcFsKqU)" stroke-linecap="round"><g transform="translate(785.3333740234375 228) rotate(0 -98.6666259765625 -86.79114978307098)"><path d="M0 0 C-9.44 -16, -23.78 -67.07, -56.67 -96 C-89.56 -124.93, -173.89 -160.65, -197.33 -173.58 M0 0 C-9.44 -16, -23.78 -67.07, -56.67 -96 C-89.56 -124.93, -173.89 -160.65, -197.33 -173.58" stroke="#2f9e44" stroke-width="2" fill="none"></path></g><g transform="translate(785.3333740234375 228) rotate(0 -98.6666259765625 -86.79114978307098)"><path d="M-197.33 -173.58 L-182.34 -173.26 L-187.94 -161.89 L-197.33 -173.58" stroke="none" stroke-width="0" fill="#2f9e44" fill-rule="evenodd"></path><path d="M-197.33 -173.58 C-193.19 -173.49, -189.05 -173.41, -182.34 -173.26 M-197.33 -173.58 C-193.51 -173.5, -189.69 -173.42, -182.34 -173.26 M-182.34 -173.26 C-183.58 -170.73, -184.83 -168.2, -187.94 -161.89 M-182.34 -173.26 C-184.48 -168.91, -186.63 -164.55, -187.94 -161.89 M-187.94 -161.89 C-190.23 -164.74, -192.52 -167.59, -197.33 -173.58 M-187.94 -161.89 C-189.95 -164.4, -191.97 -166.91, -197.33 -173.58 M-197.33 -173.58 C-197.33 -173.58, -197.33 -173.58, -197.33 -173.58 M-197.33 -173.58 C-197.33 -173.58, -197.33 -173.58, -197.33 -173.58" stroke="#2f9e44" stroke-width="2" fill="none"></path></g></g><mask id="mask-WQwXwgOqIOdCYVZcFsKqU"><rect x="0" y="0" fill="#fff" width="1082.6666259765625" height="501.58229956614196"></rect><rect x="693.6529541015625" y="115.89999999999998" fill="#000" width="70.02734375" height="32.199999999999996" opacity="1"></rect></mask><g transform="translate(693.6529541015625 115.89999999999998) rotate(0 -6.9862060546875 25.308850216929045)"><text x="35.013671875" y="25.760546874999996" font-family="Helvetica, Segoe UI Emoji" font-size="28px" fill="#2f9e44" text-anchor="middle" style="white-space: pre;" direction="ltr" dominant-baseline="alphabetic">Fetch</text></g></svg>