<svg version="1.1" xmlns="http://www.w3.org/2000/svg" viewBox="0 0 1274.8821112533576 628.9098353606121" width="1274.8821112533576" height="628.9098353606121">
  <!-- svg-source:excalidraw -->
  
  <defs>
    <style class="style-fonts">
      @font-face {
        font-family: "Virgil";
        src: url("https://excalidraw.com/Virgil.woff2");
      }
      @font-face {
        font-family: "Cascadia";
        src: url("https://excalidraw.com/Cascadia.woff2");
      }
      @font-face {
        font-family: "Assistant";
        src: url("https://excalidraw.com/Assistant-Regular.woff2");
      }
    </style>
    
  </defs>
  <g stroke-linecap="round" transform="translate(148.09600941249147 53.11483561452428) rotate(0 289.94829849122766 238.65878769397864)"><path d="M0 0 L579.9 0 L579.9 477.32 L0 477.32" stroke="none" stroke-width="0" fill="#e7f5ff"></path><path d="M0 0 C231.95 0, 463.91 0, 579.9 0 M0 0 C186.29 0, 372.58 0, 579.9 0 M579.9 0 C579.9 186.2, 579.9 372.4, 579.9 477.32 M579.9 0 C579.9 170.12, 579.9 340.23, 579.9 477.32 M579.9 477.32 C392.66 477.32, 205.42 477.32, 0 477.32 M579.9 477.32 C406.89 477.32, 233.88 477.32, 0 477.32 M0 477.32 C0 374.24, 0 271.17, 0 0 M0 477.32 C0 330.59, 0 183.87, 0 0" stroke="#1e1e1e" stroke-width="2" fill="none"></path></g><g stroke-linecap="round" transform="translate(1081.3268848024823 161.5899195891277) rotate(0 90.8800048828125 182.71998596191406)"><path d="M0 0 L181.76 0 L181.76 365.44 L0 365.44" stroke="none" stroke-width="0" fill="#e7f5ff"></path><path d="M0 0 C54.41 0, 108.81 0, 181.76 0 M0 0 C47.87 0, 95.74 0, 181.76 0 M181.76 0 C181.76 85.21, 181.76 170.41, 181.76 365.44 M181.76 0 C181.76 113.72, 181.76 227.44, 181.76 365.44 M181.76 365.44 C136.7 365.44, 91.65 365.44, 0 365.44 M181.76 365.44 C116.33 365.44, 50.9 365.44, 0 365.44 M0 365.44 C0 264.03, 0 162.62, 0 0 M0 365.44 C0 222.47, 0 79.51, 0 0" stroke="#1e1e1e" stroke-width="2" fill="none"></path></g><g stroke-linecap="round" transform="translate(149.77588997036065 556.8298793059246) rotate(0 556.875381449264 31.03997802734375)"><path d="M0 0 L1113.75 0 L1113.75 62.08 L0 62.08" stroke="none" stroke-width="0" fill="#e7f5ff"></path><path d="M0 0 C252.88 0, 505.75 0, 1113.75 0 M0 0 C264.46 0, 528.93 0, 1113.75 0 M1113.75 0 C1113.75 19.22, 1113.75 38.44, 1113.75 62.08 M1113.75 0 C1113.75 13.86, 1113.75 27.72, 1113.75 62.08 M1113.75 62.08 C816.02 62.08, 518.29 62.08, 0 62.08 M1113.75 62.08 C746.49 62.08, 379.23 62.08, 0 62.08 M0 62.08 C0 37.64, 0 13.2, 0 0 M0 62.08 C0 46.11, 0 30.14, 0 0" stroke="#1e1e1e" stroke-width="2" fill="none"></path></g><g transform="translate(639.7479511071247 571.7698573332684) rotate(0 66.9033203125 16.100000000000023)"><text x="66.9033203125" y="25.760546874999996" font-family="Helvetica, Segoe UI Emoji" font-size="28px" fill="#1e1e1e" text-anchor="middle" style="white-space: pre;" direction="ltr" dominant-baseline="alphabetic">Hypervisor</text></g><g stroke-linecap="round" transform="translate(798.0230202232858 192.72944275040663) rotate(0 89.92001342773438 86.7199935913086)"><path d="M179.84 86.72 C179.84 89.74, 179.67 92.78, 179.35 95.78 C179.02 98.79, 178.53 101.79, 177.88 104.75 C177.22 107.71, 176.41 110.64, 175.44 113.52 C174.47 116.39, 173.34 119.23, 172.07 121.99 C170.79 124.75, 169.36 127.46, 167.79 130.08 C166.23 132.7, 164.51 135.25, 162.67 137.69 C160.83 140.14, 158.84 142.5, 156.74 144.75 C154.65 146.99, 152.42 149.14, 150.09 151.17 C147.76 153.19, 145.31 155.1, 142.77 156.88 C140.24 158.65, 137.59 160.31, 134.88 161.82 C132.17 163.33, 129.36 164.71, 126.49 165.94 C123.63 167.17, 120.69 168.26, 117.71 169.2 C114.73 170.13, 111.68 170.92, 108.62 171.54 C105.55 172.17, 102.44 172.65, 99.32 172.96 C96.2 173.28, 93.05 173.44, 89.92 173.44 C86.79 173.44, 83.64 173.28, 80.52 172.96 C77.4 172.65, 74.29 172.17, 71.22 171.54 C68.16 170.92, 65.11 170.13, 62.13 169.2 C59.15 168.26, 56.21 167.17, 53.35 165.94 C50.48 164.71, 47.67 163.33, 44.96 161.82 C42.25 160.31, 39.6 158.65, 37.07 156.88 C34.53 155.1, 32.08 153.19, 29.75 151.17 C27.42 149.14, 25.19 146.99, 23.1 144.75 C21 142.5, 19.01 140.14, 17.17 137.69 C15.33 135.25, 13.61 132.7, 12.05 130.08 C10.48 127.46, 9.05 124.75, 7.77 121.99 C6.5 119.23, 5.37 116.39, 4.4 113.52 C3.43 110.64, 2.62 107.71, 1.96 104.75 C1.31 101.79, 0.82 98.79, 0.49 95.78 C0.17 92.78, 0 89.74, 0 86.72 C0 83.7, 0.17 80.66, 0.49 77.66 C0.82 74.65, 1.31 71.65, 1.96 68.69 C2.62 65.73, 3.43 62.8, 4.4 59.92 C5.37 57.05, 6.5 54.21, 7.77 51.45 C9.05 48.69, 10.48 45.98, 12.05 43.36 C13.61 40.74, 15.33 38.19, 17.17 35.75 C19.01 33.3, 21 30.94, 23.1 28.69 C25.19 26.45, 27.42 24.3, 29.75 22.27 C32.08 20.25, 34.53 18.34, 37.07 16.56 C39.6 14.79, 42.25 13.13, 44.96 11.62 C47.67 10.11, 50.48 8.73, 53.35 7.5 C56.21 6.27, 59.15 5.18, 62.13 4.24 C65.11 3.31, 68.16 2.52, 71.22 1.9 C74.29 1.27, 77.4 0.79, 80.52 0.48 C83.64 0.16, 86.79 0, 89.92 0 C93.05 0, 96.2 0.16, 99.32 0.48 C102.44 0.79, 105.55 1.27, 108.62 1.9 C111.68 2.52, 114.73 3.31, 117.71 4.24 C120.69 5.18, 123.63 6.27, 126.49 7.5 C129.36 8.73, 132.17 10.11, 134.88 11.62 C137.59 13.13, 140.24 14.79, 142.77 16.56 C145.31 18.34, 147.76 20.25, 150.09 22.27 C152.42 24.3, 154.65 26.45, 156.74 28.69 C158.84 30.94, 160.83 33.3, 162.67 35.75 C164.51 38.19, 166.23 40.74, 167.79 43.36 C169.36 45.98, 170.79 48.69, 172.07 51.45 C173.34 54.21, 174.47 57.05, 175.44 59.92 C176.41 62.8, 177.22 65.73, 177.88 68.69 C178.53 71.65, 179.02 74.65, 179.35 77.66 C179.67 80.66, 179.76 85.21, 179.84 86.72 C179.92 88.23, 179.92 85.21, 179.84 86.72" stroke="none" stroke-width="0" fill="#b2f2bb"></path><path d="M179.84 86.72 C179.84 89.74, 179.67 92.78, 179.35 95.78 C179.02 98.79, 178.53 101.79, 177.88 104.75 C177.22 107.71, 176.41 110.64, 175.44 113.52 C174.47 116.39, 173.34 119.23, 172.07 121.99 C170.79 124.75, 169.36 127.46, 167.79 130.08 C166.23 132.7, 164.51 135.25, 162.67 137.69 C160.83 140.14, 158.84 142.5, 156.74 144.75 C154.65 146.99, 152.42 149.14, 150.09 151.17 C147.76 153.19, 145.31 155.1, 142.77 156.88 C140.24 158.65, 137.59 160.31, 134.88 161.82 C132.17 163.33, 129.36 164.71, 126.49 165.94 C123.63 167.17, 120.69 168.26, 117.71 169.2 C114.73 170.13, 111.68 170.92, 108.62 171.54 C105.55 172.17, 102.44 172.65, 99.32 172.96 C96.2 173.28, 93.05 173.44, 89.92 173.44 C86.79 173.44, 83.64 173.28, 80.52 172.96 C77.4 172.65, 74.29 172.17, 71.22 171.54 C68.16 170.92, 65.11 170.13, 62.13 169.2 C59.15 168.26, 56.21 167.17, 53.35 165.94 C50.48 164.71, 47.67 163.33, 44.96 161.82 C42.25 160.31, 39.6 158.65, 37.07 156.88 C34.53 155.1, 32.08 153.19, 29.75 151.17 C27.42 149.14, 25.19 146.99, 23.1 144.75 C21 142.5, 19.01 140.14, 17.17 137.69 C15.33 135.25, 13.61 132.7, 12.05 130.08 C10.48 127.46, 9.05 124.75, 7.77 121.99 C6.5 119.23, 5.37 116.39, 4.4 113.52 C3.43 110.64, 2.62 107.71, 1.96 104.75 C1.31 101.79, 0.82 98.79, 0.49 95.78 C0.17 92.78, 0 89.74, 0 86.72 C0 83.7, 0.17 80.66, 0.49 77.66 C0.82 74.65, 1.31 71.65, 1.96 68.69 C2.62 65.73, 3.43 62.8, 4.4 59.92 C5.37 57.05, 6.5 54.21, 7.77 51.45 C9.05 48.69, 10.48 45.98, 12.05 43.36 C13.61 40.74, 15.33 38.19, 17.17 35.75 C19.01 33.3, 21 30.94, 23.1 28.69 C25.19 26.45, 27.42 24.3, 29.75 22.27 C32.08 20.25, 34.53 18.34, 37.07 16.56 C39.6 14.79, 42.25 13.13, 44.96 11.62 C47.67 10.11, 50.48 8.73, 53.35 7.5 C56.21 6.27, 59.15 5.18, 62.13 4.24 C65.11 3.31, 68.16 2.52, 71.22 1.9 C74.29 1.27, 77.4 0.79, 80.52 0.48 C83.64 0.16, 86.79 0, 89.92 0 C93.05 0, 96.2 0.16, 99.32 0.48 C102.44 0.79, 105.55 1.27, 108.62 1.9 C111.68 2.52, 114.73 3.31, 117.71 4.24 C120.69 5.18, 123.63 6.27, 126.49 7.5 C129.36 8.73, 132.17 10.11, 134.88 11.62 C137.59 13.13, 140.24 14.79, 142.77 16.56 C145.31 18.34, 147.76 20.25, 150.09 22.27 C152.42 24.3, 154.65 26.45, 156.74 28.69 C158.84 30.94, 160.83 33.3, 162.67 35.75 C164.51 38.19, 166.23 40.74, 167.79 43.36 C169.36 45.98, 170.79 48.69, 172.07 51.45 C173.34 54.21, 174.47 57.05, 175.44 59.92 C176.41 62.8, 177.22 65.73, 177.88 68.69 C178.53 71.65, 179.02 74.65, 179.35 77.66 C179.67 80.66, 179.76 85.21, 179.84 86.72 C179.92 88.23, 179.92 85.21, 179.84 86.72" stroke="#2f9e44" stroke-width="2" fill="none"></path></g><g stroke-linecap="round" transform="translate(816.9830727135202 207.8494760145668) rotate(0 71.36004638671875 71.67997741699219)"><path d="M142.72 71.68 C142.72 74.36, 142.57 77.05, 142.27 79.71 C141.97 82.36, 141.52 85.02, 140.93 87.63 C140.34 90.24, 139.6 92.83, 138.72 95.35 C137.84 97.88, 136.81 100.37, 135.65 102.78 C134.5 105.19, 133.2 107.55, 131.78 109.82 C130.37 112.08, 128.81 114.28, 127.15 116.37 C125.49 118.46, 123.7 120.47, 121.82 122.37 C119.94 124.26, 117.93 126.05, 115.85 127.72 C113.77 129.39, 111.58 130.95, 109.33 132.37 C107.07 133.8, 104.72 135.1, 102.32 136.26 C99.92 137.42, 97.44 138.45, 94.93 139.34 C92.41 140.22, 89.84 140.97, 87.24 141.56 C84.64 142.16, 82 142.61, 79.35 142.91 C76.7 143.21, 74.02 143.36, 71.36 143.36 C68.7 143.36, 66.02 143.21, 63.37 142.91 C60.72 142.61, 58.08 142.16, 55.48 141.56 C52.88 140.97, 50.31 140.22, 47.79 139.34 C45.28 138.45, 42.8 137.42, 40.4 136.26 C38 135.1, 35.65 133.8, 33.39 132.37 C31.14 130.95, 28.95 129.39, 26.87 127.72 C24.79 126.05, 22.78 124.26, 20.9 122.37 C19.02 120.47, 17.23 118.46, 15.57 116.37 C13.91 114.28, 12.35 112.08, 10.94 109.82 C9.52 107.55, 8.22 105.19, 7.07 102.78 C5.91 100.37, 4.88 97.88, 4 95.35 C3.12 92.83, 2.38 90.24, 1.79 87.63 C1.2 85.02, 0.75 82.36, 0.45 79.71 C0.15 77.05, 0 74.36, 0 71.68 C0 69, 0.15 66.31, 0.45 63.65 C0.75 61, 1.2 58.34, 1.79 55.73 C2.38 53.12, 3.12 50.53, 4 48.01 C4.88 45.48, 5.91 42.99, 7.07 40.58 C8.22 38.17, 9.52 35.81, 10.94 33.54 C12.35 31.28, 13.91 29.08, 15.57 26.99 C17.23 24.9, 19.02 22.89, 20.9 20.99 C22.78 19.1, 24.79 17.31, 26.87 15.64 C28.95 13.97, 31.14 12.41, 33.39 10.99 C35.65 9.56, 38 8.26, 40.4 7.1 C42.8 5.94, 45.28 4.91, 47.79 4.02 C50.31 3.14, 52.88 2.39, 55.48 1.8 C58.08 1.2, 60.72 0.75, 63.37 0.45 C66.02 0.15, 68.7 0, 71.36 0 C74.02 0, 76.7 0.15, 79.35 0.45 C82 0.75, 84.64 1.2, 87.24 1.8 C89.84 2.39, 92.41 3.14, 94.93 4.02 C97.44 4.91, 99.92 5.94, 102.32 7.1 C104.72 8.26, 107.07 9.56, 109.33 10.99 C111.58 12.41, 113.77 13.97, 115.85 15.64 C117.93 17.31, 119.94 19.1, 121.82 20.99 C123.7 22.89, 125.49 24.9, 127.15 26.99 C128.81 29.08, 130.37 31.28, 131.78 33.54 C133.2 35.81, 134.5 38.17, 135.65 40.58 C136.81 42.99, 137.84 45.48, 138.72 48.01 C139.6 50.53, 140.34 53.12, 140.93 55.73 C141.52 58.34, 141.97 61, 142.27 63.65 C142.57 66.31, 142.65 70.34, 142.72 71.68 C142.79 73.02, 142.79 70.34, 142.72 71.68" stroke="none" stroke-width="0" fill="#ffffff"></path><path d="M142.72 71.68 C142.72 74.36, 142.57 77.05, 142.27 79.71 C141.97 82.36, 141.52 85.02, 140.93 87.63 C140.34 90.24, 139.6 92.83, 138.72 95.35 C137.84 97.88, 136.81 100.37, 135.65 102.78 C134.5 105.19, 133.2 107.55, 131.78 109.82 C130.37 112.08, 128.81 114.28, 127.15 116.37 C125.49 118.46, 123.7 120.47, 121.82 122.37 C119.94 124.26, 117.93 126.05, 115.85 127.72 C113.77 129.39, 111.58 130.95, 109.33 132.37 C107.07 133.8, 104.72 135.1, 102.32 136.26 C99.92 137.42, 97.44 138.45, 94.93 139.34 C92.41 140.22, 89.84 140.97, 87.24 141.56 C84.64 142.16, 82 142.61, 79.35 142.91 C76.7 143.21, 74.02 143.36, 71.36 143.36 C68.7 143.36, 66.02 143.21, 63.37 142.91 C60.72 142.61, 58.08 142.16, 55.48 141.56 C52.88 140.97, 50.31 140.22, 47.79 139.34 C45.28 138.45, 42.8 137.42, 40.4 136.26 C38 135.1, 35.65 133.8, 33.39 132.37 C31.14 130.95, 28.95 129.39, 26.87 127.72 C24.79 126.05, 22.78 124.26, 20.9 122.37 C19.02 120.47, 17.23 118.46, 15.57 116.37 C13.91 114.28, 12.35 112.08, 10.94 109.82 C9.52 107.55, 8.22 105.19, 7.07 102.78 C5.91 100.37, 4.88 97.88, 4 95.35 C3.12 92.83, 2.38 90.24, 1.79 87.63 C1.2 85.02, 0.75 82.36, 0.45 79.71 C0.15 77.05, 0 74.36, 0 71.68 C0 69, 0.15 66.31, 0.45 63.65 C0.75 61, 1.2 58.34, 1.79 55.73 C2.38 53.12, 3.12 50.53, 4 48.01 C4.88 45.48, 5.91 42.99, 7.07 40.58 C8.22 38.17, 9.52 35.81, 10.94 33.54 C12.35 31.28, 13.91 29.08, 15.57 26.99 C17.23 24.9, 19.02 22.89, 20.9 20.99 C22.78 19.1, 24.79 17.31, 26.87 15.64 C28.95 13.97, 31.14 12.41, 33.39 10.99 C35.65 9.56, 38 8.26, 40.4 7.1 C42.8 5.94, 45.28 4.91, 47.79 4.02 C50.31 3.14, 52.88 2.39, 55.48 1.8 C58.08 1.2, 60.72 0.75, 63.37 0.45 C66.02 0.15, 68.7 0, 71.36 0 C74.02 0, 76.7 0.15, 79.35 0.45 C82 0.75, 84.64 1.2, 87.24 1.8 C89.84 2.39, 92.41 3.14, 94.93 4.02 C97.44 4.91, 99.92 5.94, 102.32 7.1 C104.72 8.26, 107.07 9.56, 109.33 10.99 C111.58 12.41, 113.77 13.97, 115.85 15.64 C117.93 17.31, 119.94 19.1, 121.82 20.99 C123.7 22.89, 125.49 24.9, 127.15 26.99 C128.81 29.08, 130.37 31.28, 131.78 33.54 C133.2 35.81, 134.5 38.17, 135.65 40.58 C136.81 42.99, 137.84 45.48, 138.72 48.01 C139.6 50.53, 140.34 53.12, 140.93 55.73 C141.52 58.34, 141.97 61, 142.27 63.65 C142.57 66.31, 142.65 70.34, 142.72 71.68 C142.79 73.02, 142.79 70.34, 142.72 71.68" stroke="#2f9e44" stroke-width="2" fill="none"></path></g><g stroke-linecap="round" transform="translate(835.8631386314889 220.08948150773085) rotate(0 89.92001342773438 86.7199935913086)"><path d="M179.84 86.72 C179.84 89.74, 179.67 92.78, 179.35 95.78 C179.02 98.79, 178.53 101.79, 177.88 104.75 C177.22 107.71, 176.41 110.64, 175.44 113.52 C174.47 116.39, 173.34 119.23, 172.07 121.99 C170.79 124.75, 169.36 127.46, 167.79 130.08 C166.23 132.7, 164.51 135.25, 162.67 137.69 C160.83 140.14, 158.84 142.5, 156.74 144.75 C154.65 146.99, 152.42 149.14, 150.09 151.17 C147.76 153.19, 145.31 155.1, 142.77 156.88 C140.24 158.65, 137.59 160.31, 134.88 161.82 C132.17 163.33, 129.36 164.71, 126.49 165.94 C123.63 167.17, 120.69 168.26, 117.71 169.2 C114.73 170.13, 111.68 170.92, 108.62 171.54 C105.55 172.17, 102.44 172.65, 99.32 172.96 C96.2 173.28, 93.05 173.44, 89.92 173.44 C86.79 173.44, 83.64 173.28, 80.52 172.96 C77.4 172.65, 74.29 172.17, 71.22 171.54 C68.16 170.92, 65.11 170.13, 62.13 169.2 C59.15 168.26, 56.21 167.17, 53.35 165.94 C50.48 164.71, 47.67 163.33, 44.96 161.82 C42.25 160.31, 39.6 158.65, 37.07 156.88 C34.53 155.1, 32.08 153.19, 29.75 151.17 C27.42 149.14, 25.19 146.99, 23.1 144.75 C21 142.5, 19.01 140.14, 17.17 137.69 C15.33 135.25, 13.61 132.7, 12.05 130.08 C10.48 127.46, 9.05 124.75, 7.77 121.99 C6.5 119.23, 5.37 116.39, 4.4 113.52 C3.43 110.64, 2.62 107.71, 1.96 104.75 C1.31 101.79, 0.82 98.79, 0.49 95.78 C0.17 92.78, 0 89.74, 0 86.72 C0 83.7, 0.17 80.66, 0.49 77.66 C0.82 74.65, 1.31 71.65, 1.96 68.69 C2.62 65.73, 3.43 62.8, 4.4 59.92 C5.37 57.05, 6.5 54.21, 7.77 51.45 C9.05 48.69, 10.48 45.98, 12.05 43.36 C13.61 40.74, 15.33 38.19, 17.17 35.75 C19.01 33.3, 21 30.94, 23.1 28.69 C25.19 26.45, 27.42 24.3, 29.75 22.27 C32.08 20.25, 34.53 18.34, 37.07 16.56 C39.6 14.79, 42.25 13.13, 44.96 11.62 C47.67 10.11, 50.48 8.73, 53.35 7.5 C56.21 6.27, 59.15 5.18, 62.13 4.24 C65.11 3.31, 68.16 2.52, 71.22 1.9 C74.29 1.27, 77.4 0.79, 80.52 0.48 C83.64 0.16, 86.79 0, 89.92 0 C93.05 0, 96.2 0.16, 99.32 0.48 C102.44 0.79, 105.55 1.27, 108.62 1.9 C111.68 2.52, 114.73 3.31, 117.71 4.24 C120.69 5.18, 123.63 6.27, 126.49 7.5 C129.36 8.73, 132.17 10.11, 134.88 11.62 C137.59 13.13, 140.24 14.79, 142.77 16.56 C145.31 18.34, 147.76 20.25, 150.09 22.27 C152.42 24.3, 154.65 26.45, 156.74 28.69 C158.84 30.94, 160.83 33.3, 162.67 35.75 C164.51 38.19, 166.23 40.74, 167.79 43.36 C169.36 45.98, 170.79 48.69, 172.07 51.45 C173.34 54.21, 174.47 57.05, 175.44 59.92 C176.41 62.8, 177.22 65.73, 177.88 68.69 C178.53 71.65, 179.02 74.65, 179.35 77.66 C179.67 80.66, 179.76 85.21, 179.84 86.72 C179.92 88.23, 179.92 85.21, 179.84 86.72" stroke="none" stroke-width="0" fill="#b2f2bb"></path><path d="M179.84 86.72 C179.84 89.74, 179.67 92.78, 179.35 95.78 C179.02 98.79, 178.53 101.79, 177.88 104.75 C177.22 107.71, 176.41 110.64, 175.44 113.52 C174.47 116.39, 173.34 119.23, 172.07 121.99 C170.79 124.75, 169.36 127.46, 167.79 130.08 C166.23 132.7, 164.51 135.25, 162.67 137.69 C160.83 140.14, 158.84 142.5, 156.74 144.75 C154.65 146.99, 152.42 149.14, 150.09 151.17 C147.76 153.19, 145.31 155.1, 142.77 156.88 C140.24 158.65, 137.59 160.31, 134.88 161.82 C132.17 163.33, 129.36 164.71, 126.49 165.94 C123.63 167.17, 120.69 168.26, 117.71 169.2 C114.73 170.13, 111.68 170.92, 108.62 171.54 C105.55 172.17, 102.44 172.65, 99.32 172.96 C96.2 173.28, 93.05 173.44, 89.92 173.44 C86.79 173.44, 83.64 173.28, 80.52 172.96 C77.4 172.65, 74.29 172.17, 71.22 171.54 C68.16 170.92, 65.11 170.13, 62.13 169.2 C59.15 168.26, 56.21 167.17, 53.35 165.94 C50.48 164.71, 47.67 163.33, 44.96 161.82 C42.25 160.31, 39.6 158.65, 37.07 156.88 C34.53 155.1, 32.08 153.19, 29.75 151.17 C27.42 149.14, 25.19 146.99, 23.1 144.75 C21 142.5, 19.01 140.14, 17.17 137.69 C15.33 135.25, 13.61 132.7, 12.05 130.08 C10.48 127.46, 9.05 124.75, 7.77 121.99 C6.5 119.23, 5.37 116.39, 4.4 113.52 C3.43 110.64, 2.62 107.71, 1.96 104.75 C1.31 101.79, 0.82 98.79, 0.49 95.78 C0.17 92.78, 0 89.74, 0 86.72 C0 83.7, 0.17 80.66, 0.49 77.66 C0.82 74.65, 1.31 71.65, 1.96 68.69 C2.62 65.73, 3.43 62.8, 4.4 59.92 C5.37 57.05, 6.5 54.21, 7.77 51.45 C9.05 48.69, 10.48 45.98, 12.05 43.36 C13.61 40.74, 15.33 38.19, 17.17 35.75 C19.01 33.3, 21 30.94, 23.1 28.69 C25.19 26.45, 27.42 24.3, 29.75 22.27 C32.08 20.25, 34.53 18.34, 37.07 16.56 C39.6 14.79, 42.25 13.13, 44.96 11.62 C47.67 10.11, 50.48 8.73, 53.35 7.5 C56.21 6.27, 59.15 5.18, 62.13 4.24 C65.11 3.31, 68.16 2.52, 71.22 1.9 C74.29 1.27, 77.4 0.79, 80.52 0.48 C83.64 0.16, 86.79 0, 89.92 0 C93.05 0, 96.2 0.16, 99.32 0.48 C102.44 0.79, 105.55 1.27, 108.62 1.9 C111.68 2.52, 114.73 3.31, 117.71 4.24 C120.69 5.18, 123.63 6.27, 126.49 7.5 C129.36 8.73, 132.17 10.11, 134.88 11.62 C137.59 13.13, 140.24 14.79, 142.77 16.56 C145.31 18.34, 147.76 20.25, 150.09 22.27 C152.42 24.3, 154.65 26.45, 156.74 28.69 C158.84 30.94, 160.83 33.3, 162.67 35.75 C164.51 38.19, 166.23 40.74, 167.79 43.36 C169.36 45.98, 170.79 48.69, 172.07 51.45 C173.34 54.21, 174.47 57.05, 175.44 59.92 C176.41 62.8, 177.22 65.73, 177.88 68.69 C178.53 71.65, 179.02 74.65, 179.35 77.66 C179.67 80.66, 179.76 85.21, 179.84 86.72 C179.92 88.23, 179.92 85.21, 179.84 86.72" stroke="#2f9e44" stroke-width="2" fill="none"></path></g><g stroke-linecap="round" transform="translate(854.6230568443796 236.12946716446913) rotate(0 71.36004638671875 71.67997741699219)"><path d="M142.72 71.68 C142.72 74.36, 142.57 77.05, 142.27 79.71 C141.97 82.36, 141.52 85.02, 140.93 87.63 C140.34 90.24, 139.6 92.83, 138.72 95.35 C137.84 97.88, 136.81 100.37, 135.65 102.78 C134.5 105.19, 133.2 107.55, 131.78 109.82 C130.37 112.08, 128.81 114.28, 127.15 116.37 C125.49 118.46, 123.7 120.47, 121.82 122.37 C119.94 124.26, 117.93 126.05, 115.85 127.72 C113.77 129.39, 111.58 130.95, 109.33 132.37 C107.07 133.8, 104.72 135.1, 102.32 136.26 C99.92 137.42, 97.44 138.45, 94.93 139.34 C92.41 140.22, 89.84 140.97, 87.24 141.56 C84.64 142.16, 82 142.61, 79.35 142.91 C76.7 143.21, 74.02 143.36, 71.36 143.36 C68.7 143.36, 66.02 143.21, 63.37 142.91 C60.72 142.61, 58.08 142.16, 55.48 141.56 C52.88 140.97, 50.31 140.22, 47.79 139.34 C45.28 138.45, 42.8 137.42, 40.4 136.26 C38 135.1, 35.65 133.8, 33.39 132.37 C31.14 130.95, 28.95 129.39, 26.87 127.72 C24.79 126.05, 22.78 124.26, 20.9 122.37 C19.02 120.47, 17.23 118.46, 15.57 116.37 C13.91 114.28, 12.35 112.08, 10.94 109.82 C9.52 107.55, 8.22 105.19, 7.07 102.78 C5.91 100.37, 4.88 97.88, 4 95.35 C3.12 92.83, 2.38 90.24, 1.79 87.63 C1.2 85.02, 0.75 82.36, 0.45 79.71 C0.15 77.05, 0 74.36, 0 71.68 C0 69, 0.15 66.31, 0.45 63.65 C0.75 61, 1.2 58.34, 1.79 55.73 C2.38 53.12, 3.12 50.53, 4 48.01 C4.88 45.48, 5.91 42.99, 7.07 40.58 C8.22 38.17, 9.52 35.81, 10.94 33.54 C12.35 31.28, 13.91 29.08, 15.57 26.99 C17.23 24.9, 19.02 22.89, 20.9 20.99 C22.78 19.1, 24.79 17.31, 26.87 15.64 C28.95 13.97, 31.14 12.41, 33.39 10.99 C35.65 9.56, 38 8.26, 40.4 7.1 C42.8 5.94, 45.28 4.91, 47.79 4.02 C50.31 3.14, 52.88 2.39, 55.48 1.8 C58.08 1.2, 60.72 0.75, 63.37 0.45 C66.02 0.15, 68.7 0, 71.36 0 C74.02 0, 76.7 0.15, 79.35 0.45 C82 0.75, 84.64 1.2, 87.24 1.8 C89.84 2.39, 92.41 3.14, 94.93 4.02 C97.44 4.91, 99.92 5.94, 102.32 7.1 C104.72 8.26, 107.07 9.56, 109.33 10.99 C111.58 12.41, 113.77 13.97, 115.85 15.64 C117.93 17.31, 119.94 19.1, 121.82 20.99 C123.7 22.89, 125.49 24.9, 127.15 26.99 C128.81 29.08, 130.37 31.28, 131.78 33.54 C133.2 35.81, 134.5 38.17, 135.65 40.58 C136.81 42.99, 137.84 45.48, 138.72 48.01 C139.6 50.53, 140.34 53.12, 140.93 55.73 C141.52 58.34, 141.97 61, 142.27 63.65 C142.57 66.31, 142.65 70.34, 142.72 71.68 C142.79 73.02, 142.79 70.34, 142.72 71.68" stroke="none" stroke-width="0" fill="#ffffff"></path><path d="M142.72 71.68 C142.72 74.36, 142.57 77.05, 142.27 79.71 C141.97 82.36, 141.52 85.02, 140.93 87.63 C140.34 90.24, 139.6 92.83, 138.72 95.35 C137.84 97.88, 136.81 100.37, 135.65 102.78 C134.5 105.19, 133.2 107.55, 131.78 109.82 C130.37 112.08, 128.81 114.28, 127.15 116.37 C125.49 118.46, 123.7 120.47, 121.82 122.37 C119.94 124.26, 117.93 126.05, 115.85 127.72 C113.77 129.39, 111.58 130.95, 109.33 132.37 C107.07 133.8, 104.72 135.1, 102.32 136.26 C99.92 137.42, 97.44 138.45, 94.93 139.34 C92.41 140.22, 89.84 140.97, 87.24 141.56 C84.64 142.16, 82 142.61, 79.35 142.91 C76.7 143.21, 74.02 143.36, 71.36 143.36 C68.7 143.36, 66.02 143.21, 63.37 142.91 C60.72 142.61, 58.08 142.16, 55.48 141.56 C52.88 140.97, 50.31 140.22, 47.79 139.34 C45.28 138.45, 42.8 137.42, 40.4 136.26 C38 135.1, 35.65 133.8, 33.39 132.37 C31.14 130.95, 28.95 129.39, 26.87 127.72 C24.79 126.05, 22.78 124.26, 20.9 122.37 C19.02 120.47, 17.23 118.46, 15.57 116.37 C13.91 114.28, 12.35 112.08, 10.94 109.82 C9.52 107.55, 8.22 105.19, 7.07 102.78 C5.91 100.37, 4.88 97.88, 4 95.35 C3.12 92.83, 2.38 90.24, 1.79 87.63 C1.2 85.02, 0.75 82.36, 0.45 79.71 C0.15 77.05, 0 74.36, 0 71.68 C0 69, 0.15 66.31, 0.45 63.65 C0.75 61, 1.2 58.34, 1.79 55.73 C2.38 53.12, 3.12 50.53, 4 48.01 C4.88 45.48, 5.91 42.99, 7.07 40.58 C8.22 38.17, 9.52 35.81, 10.94 33.54 C12.35 31.28, 13.91 29.08, 15.57 26.99 C17.23 24.9, 19.02 22.89, 20.9 20.99 C22.78 19.1, 24.79 17.31, 26.87 15.64 C28.95 13.97, 31.14 12.41, 33.39 10.99 C35.65 9.56, 38 8.26, 40.4 7.1 C42.8 5.94, 45.28 4.91, 47.79 4.02 C50.31 3.14, 52.88 2.39, 55.48 1.8 C58.08 1.2, 60.72 0.75, 63.37 0.45 C66.02 0.15, 68.7 0, 71.36 0 C74.02 0, 76.7 0.15, 79.35 0.45 C82 0.75, 84.64 1.2, 87.24 1.8 C89.84 2.39, 92.41 3.14, 94.93 4.02 C97.44 4.91, 99.92 5.94, 102.32 7.1 C104.72 8.26, 107.07 9.56, 109.33 10.99 C111.58 12.41, 113.77 13.97, 115.85 15.64 C117.93 17.31, 119.94 19.1, 121.82 20.99 C123.7 22.89, 125.49 24.9, 127.15 26.99 C128.81 29.08, 130.37 31.28, 131.78 33.54 C133.2 35.81, 134.5 38.17, 135.65 40.58 C136.81 42.99, 137.84 45.48, 138.72 48.01 C139.6 50.53, 140.34 53.12, 140.93 55.73 C141.52 58.34, 141.97 61, 142.27 63.65 C142.57 66.31, 142.65 70.34, 142.72 71.68 C142.79 73.02, 142.79 70.34, 142.72 71.68" stroke="#2f9e44" stroke-width="2" fill="none"></path></g><g transform="translate(1098.8867602907635 118.94988968190114) rotate(0 70 16.100000000000023)"><text x="0" y="25.760546874999996" font-family="Helvetica, Segoe UI Emoji" font-size="28px" fill="#1e1e1e" text-anchor="start" style="white-space: pre;" direction="ltr" dominant-baseline="alphabetic">其他虚拟机</text></g><g transform="translate(366.1574047541598 10) rotate(0 66.9306640625 16.100000000000023)"><text x="0" y="25.760546874999996" font-family="Helvetica, Segoe UI Emoji" font-size="28px" fill="#1e1e1e" text-anchor="start" style="white-space: pre;" direction="ltr" dominant-baseline="alphabetic">Root Linux</text></g><g stroke-linecap="round" transform="translate(870.3432716881296 194.0094415297035) rotate(0 14.719940185546875 7.040008544921875)"><path d="M0 0 L29.44 0 L29.44 14.08 L0 14.08" stroke="none" stroke-width="0" fill="#a5d8ff"></path><path d="M0 0 C11.19 0, 22.39 0, 29.44 0 M0 0 C7.05 0, 14.1 0, 29.44 0 M29.44 0 C29.44 3.67, 29.44 7.34, 29.44 14.08 M29.44 0 C29.44 2.97, 29.44 5.94, 29.44 14.08 M29.44 14.08 C21.42 14.08, 13.39 14.08, 0 14.08 M29.44 14.08 C23.13 14.08, 16.81 14.08, 0 14.08 M0 14.08 C0 10.79, 0 7.49, 0 0 M0 14.08 C0 9.81, 0 5.54, 0 0" stroke="#1971c2" stroke-width="2" fill="none"></path></g><g stroke-linecap="round"><g transform="translate(899.1825505386878 189.52944580216445) rotate(0 15.767560796792736 -16.639961242675724)"><path d="M0 0 C7.08 -7.47, 14.17 -14.95, 31.54 -33.28 M0 0 C10.28 -10.85, 20.57 -21.7, 31.54 -33.28" stroke="#1971c2" stroke-width="2" fill="none"></path></g><g transform="translate(899.1825505386878 189.52944580216445) rotate(0 15.767560796792736 -16.639961242675724)"><path d="M22.41 -12.25 C24.46 -16.97, 26.51 -21.7, 31.54 -33.28 M22.41 -12.25 C25.39 -19.11, 28.36 -25.97, 31.54 -33.28" stroke="#1971c2" stroke-width="2" fill="none"></path></g><g transform="translate(899.1825505386878 189.52944580216445) rotate(0 15.767560796792736 -16.639961242675724)"><path d="M11.03 -23.04 C15.63 -25.34, 20.24 -27.64, 31.54 -33.28 M11.03 -23.04 C17.71 -26.38, 24.4 -29.72, 31.54 -33.28" stroke="#1971c2" stroke-width="2" fill="none"></path></g></g><mask></mask><g stroke-linecap="round" transform="translate(871.7031349693796 82.76946655411757) rotate(0 53.44000244140625 23.680007934570312)"><path d="M11.84 0 C30.65 0, 49.45 0, 95.04 0 M11.84 0 C33.35 0, 54.86 0, 95.04 0 M95.04 0 C102.93 0, 106.88 3.95, 106.88 11.84 M95.04 0 C102.93 0, 106.88 3.95, 106.88 11.84 M106.88 11.84 C106.88 19.01, 106.88 26.19, 106.88 35.52 M106.88 11.84 C106.88 19.41, 106.88 26.99, 106.88 35.52 M106.88 35.52 C106.88 43.41, 102.93 47.36, 95.04 47.36 M106.88 35.52 C106.88 43.41, 102.93 47.36, 95.04 47.36 M95.04 47.36 C68.73 47.36, 42.42 47.36, 11.84 47.36 M95.04 47.36 C70.66 47.36, 46.28 47.36, 11.84 47.36 M11.84 47.36 C3.95 47.36, 0 43.41, 0 35.52 M11.84 47.36 C3.95 47.36, 0 43.41, 0 35.52 M0 35.52 C0 29.37, 0 23.22, 0 11.84 M0 35.52 C0 28.88, 0 22.24, 0 11.84 M0 11.84 C0 3.95, 3.95 0, 11.84 0 M0 11.84 C0 3.95, 3.95 0, 11.84 0" stroke="#1971c2" stroke-width="1" fill="none"></path></g><g stroke-linecap="round" transform="translate(879.3031715904733 91.60947815079726) rotate(0 53.44000244140625 23.680007934570312)"><path d="M11.84 0 C43.84 0, 75.83 0, 95.04 0 C102.93 0, 106.88 3.95, 106.88 11.84 C106.88 19.34, 106.88 26.83, 106.88 35.52 C106.88 43.41, 102.93 47.36, 95.04 47.36 C66.18 47.36, 37.31 47.36, 11.84 47.36 C3.95 47.36, 0 43.41, 0 35.52 C0 30.67, 0 25.82, 0 11.84 C0 3.95, 3.95 0, 11.84 0" stroke="none" stroke-width="0" fill="#ffffff"></path><path d="M11.84 0 C33.79 0, 55.74 0, 95.04 0 M11.84 0 C33.09 0, 54.33 0, 95.04 0 M95.04 0 C102.93 0, 106.88 3.95, 106.88 11.84 M95.04 0 C102.93 0, 106.88 3.95, 106.88 11.84 M106.88 11.84 C106.88 17.05, 106.88 22.25, 106.88 35.52 M106.88 11.84 C106.88 17.06, 106.88 22.28, 106.88 35.52 M106.88 35.52 C106.88 43.41, 102.93 47.36, 95.04 47.36 M106.88 35.52 C106.88 43.41, 102.93 47.36, 95.04 47.36 M95.04 47.36 C73.31 47.36, 51.57 47.36, 11.84 47.36 M95.04 47.36 C76.22 47.36, 57.39 47.36, 11.84 47.36 M11.84 47.36 C3.95 47.36, 0 43.41, 0 35.52 M11.84 47.36 C3.95 47.36, 0 43.41, 0 35.52 M0 35.52 C0 28.44, 0 21.36, 0 11.84 M0 35.52 C0 27.52, 0 19.53, 0 11.84 M0 11.84 C0 3.95, 3.95 0, 11.84 0 M0 11.84 C0 3.95, 3.95 0, 11.84 0" stroke="#1971c2" stroke-width="1" fill="none"></path></g><g stroke-linecap="round" transform="translate(889.4231667076608 101.84946838517226) rotate(0 53.44000244140625 23.680007934570312)"><path d="M11.84 0 C29.63 0, 47.41 0, 95.04 0 C102.93 0, 106.88 3.95, 106.88 11.84 C106.88 16.92, 106.88 22, 106.88 35.52 C106.88 43.41, 102.93 47.36, 95.04 47.36 C73 47.36, 50.96 47.36, 11.84 47.36 C3.95 47.36, 0 43.41, 0 35.52 C0 26.33, 0 17.15, 0 11.84 C0 3.95, 3.95 0, 11.84 0" stroke="none" stroke-width="0" fill="#ffffff"></path><path d="M11.84 0 C36.06 0, 60.29 0, 95.04 0 M11.84 0 C32.92 0, 53.99 0, 95.04 0 M95.04 0 C102.93 0, 106.88 3.95, 106.88 11.84 M95.04 0 C102.93 0, 106.88 3.95, 106.88 11.84 M106.88 11.84 C106.88 17.63, 106.88 23.42, 106.88 35.52 M106.88 11.84 C106.88 21.17, 106.88 30.5, 106.88 35.52 M106.88 35.52 C106.88 43.41, 102.93 47.36, 95.04 47.36 M106.88 35.52 C106.88 43.41, 102.93 47.36, 95.04 47.36 M95.04 47.36 C69.53 47.36, 44.03 47.36, 11.84 47.36 M95.04 47.36 C67.04 47.36, 39.05 47.36, 11.84 47.36 M11.84 47.36 C3.95 47.36, 0 43.41, 0 35.52 M11.84 47.36 C3.95 47.36, 0 43.41, 0 35.52 M0 35.52 C0 29.6, 0 23.68, 0 11.84 M0 35.52 C0 27.43, 0 19.35, 0 11.84 M0 11.84 C0 3.95, 3.95 0, 11.84 0 M0 11.84 C0 3.95, 3.95 0, 11.84 0" stroke="#1971c2" stroke-width="1" fill="none"></path></g><g transform="translate(902.8631996666452 114.02947631974257) rotate(0 39.999969482421875 11.5)"><text x="39.999969482421875" y="18.400390625" font-family="Helvetica, Segoe UI Emoji" font-size="20px" fill="#1971c2" text-anchor="middle" style="white-space: pre;" direction="ltr" dominant-baseline="alphabetic">共享内存</text></g><g transform="translate(886.4631447350046 295.64943481583623) rotate(0 42.626953125 11.5)"><text x="0" y="18.400390625" font-family="Helvetica, Segoe UI Emoji" font-size="20px" fill="#2f9e44" text-anchor="start" style="white-space: pre;" direction="ltr" dominant-baseline="alphabetic">Virtqueue</text></g><g stroke-linecap="round"><g transform="translate(1085.7398753612165 229.12998091339) rotate(359.41840408384326 89.57345963657838 -0.0067666465280353805)"><path d="M0 0 C29.86 0, 149.29 -0.01, 179.15 -0.01" stroke="#1e1e1e" stroke-width="2.5" fill="none" stroke-dasharray="8 10"></path></g></g><mask></mask><g transform="translate(1142.059978064201 186.92323257740895) rotate(0 30 11.5)"><text x="0" y="18.400390625" font-family="Helvetica, Segoe UI Emoji" font-size="20px" fill="#1e1e1e" text-anchor="start" style="white-space: pre;" direction="ltr" dominant-baseline="alphabetic">用户态</text></g><g transform="translate(1142.406802710197 241.3832545500652) rotate(0 30 11.5)"><text x="0" y="18.400390625" font-family="Helvetica, Segoe UI Emoji" font-size="20px" fill="#1e1e1e" text-anchor="start" style="white-space: pre;" direction="ltr" dominant-baseline="alphabetic">内核态</text></g><g stroke-linecap="round" transform="translate(1108.3401904665448 277.8098597746746) rotate(0 65.9200439453125 31.84002685546875)"><path d="M0 0 L131.84 0 L131.84 63.68 L0 63.68" stroke="none" stroke-width="0" fill="#a5d8ff"></path><path d="M0 0 C34.96 0, 69.92 0, 131.84 0 M0 0 C49.19 0, 98.37 0, 131.84 0 M131.84 0 C131.84 22.09, 131.84 44.18, 131.84 63.68 M131.84 0 C131.84 12.92, 131.84 25.84, 131.84 63.68 M131.84 63.68 C84.33 63.68, 36.83 63.68, 0 63.68 M131.84 63.68 C83.55 63.68, 35.26 63.68, 0 63.68 M0 63.68 C0 38.95, 0 14.22, 0 0 M0 63.68 C0 50.02, 0 36.35, 0 0" stroke="#1e1e1e" stroke-width="2" fill="none"></path></g><g transform="translate(1115.5444293581463 298.1498866301433) rotate(0 58.71580505371094 11.5)"><text x="58.71580505371094" y="18.400390625" font-family="Helvetica, Segoe UI Emoji" font-size="20px" fill="#1e1e1e" text-anchor="middle" style="white-space: pre;" direction="ltr" dominant-baseline="alphabetic">Virtio-blk驱动</text></g><g stroke-linecap="round" transform="translate(1109.6733813845135 359.8965296965496) rotate(0 65.9200439453125 31.84002685546875)"><path d="M0 0 L131.84 0 L131.84 63.68 L0 63.68" stroke="none" stroke-width="0" fill="#ffc9c9"></path><path d="M0 0 C35.25 0, 70.49 0, 131.84 0 M0 0 C34.66 0, 69.33 0, 131.84 0 M131.84 0 C131.84 21.6, 131.84 43.2, 131.84 63.68 M131.84 0 C131.84 15.95, 131.84 31.9, 131.84 63.68 M131.84 63.68 C80.34 63.68, 28.85 63.68, 0 63.68 M131.84 63.68 C80.45 63.68, 29.06 63.68, 0 63.68 M0 63.68 C0 49.92, 0 36.16, 0 0 M0 63.68 C0 42.48, 0 21.27, 0 0" stroke="#1e1e1e" stroke-width="2" fill="none"></path></g><g transform="translate(1115.759456213615 380.2365565520183) rotate(0 59.83396911621094 11.5)"><text x="59.83396911621094" y="18.400390625" font-family="Helvetica, Segoe UI Emoji" font-size="20px" fill="#1e1e1e" text-anchor="middle" style="white-space: pre;" direction="ltr" dominant-baseline="alphabetic">Virtio-net驱动</text></g><g stroke-linecap="round"><g transform="translate(1022.1737253039369 321.38481143952254) rotate(0 39.0202672861343 0.15558451121410144)"><path d="M0 0 C13.01 0.05, 65.03 0.26, 78.04 0.31 M0 0 C13.01 0.05, 65.03 0.26, 78.04 0.31" stroke="#2f9e44" stroke-width="1" fill="none"></path></g><g transform="translate(1022.1737253039369 321.38481143952254) rotate(0 39.0202672861343 0.15558451121410144)"><path d="M0 0 L13.62 -6.29 L13.57 6.39 L0 0" stroke="none" stroke-width="0" fill="#2f9e44" fill-rule="evenodd"></path><path d="M0 0 C4.37 -2.02, 8.74 -4.04, 13.62 -6.29 M0 0 C3.77 -1.74, 7.55 -3.48, 13.62 -6.29 M13.62 -6.29 C13.6 -2.23, 13.59 1.83, 13.57 6.39 M13.62 -6.29 C13.61 -2.93, 13.59 0.42, 13.57 6.39 M13.57 6.39 C10.23 4.82, 6.89 3.24, 0 0 M13.57 6.39 C8.76 4.13, 3.96 1.87, 0 0 M0 0 C0 0, 0 0, 0 0 M0 0 C0 0, 0 0, 0 0" stroke="#2f9e44" stroke-width="1" fill="none"></path></g><g transform="translate(1022.1737253039369 321.38481143952254) rotate(0 39.0202672861343 0.15558451121410144)"><path d="M78.04 0.31 L64.42 6.6 L64.47 -6.08 L78.04 0.31" stroke="none" stroke-width="0" fill="#2f9e44" fill-rule="evenodd"></path><path d="M78.04 0.31 C73.67 2.33, 69.3 4.35, 64.42 6.6 M78.04 0.31 C74.27 2.05, 70.49 3.79, 64.42 6.6 M64.42 6.6 C64.44 2.54, 64.45 -1.52, 64.47 -6.08 M64.42 6.6 C64.43 3.24, 64.45 -0.11, 64.47 -6.08 M64.47 -6.08 C67.81 -4.51, 71.15 -2.93, 78.04 0.31 M64.47 -6.08 C69.28 -3.82, 74.08 -1.55, 78.04 0.31 M78.04 0.31 C78.04 0.31, 78.04 0.31, 78.04 0.31 M78.04 0.31 C78.04 0.31, 78.04 0.31, 78.04 0.31" stroke="#2f9e44" stroke-width="1" fill="none"></path></g></g><mask></mask><g stroke-linecap="round"><g transform="translate(1009.5078804447194 364.3059897113469) rotate(0 46.54944053337363 13.642049491962894)"><path d="M0 0 C15.52 4.55, 77.58 22.74, 93.1 27.28 M0 0 C15.52 4.55, 77.58 22.74, 93.1 27.28" stroke="#2f9e44" stroke-width="1" fill="none"></path></g><g transform="translate(1009.5078804447194 364.3059897113469) rotate(0 46.54944053337363 13.642049491962894)"><path d="M0 0 L14.83 -2.26 L11.26 9.91 L0 0" stroke="none" stroke-width="0" fill="#2f9e44" fill-rule="evenodd"></path><path d="M0 0 C5.16 -0.79, 10.33 -1.57, 14.83 -2.26 M0 0 C3.37 -0.51, 6.74 -1.03, 14.83 -2.26 M14.83 -2.26 C13.53 2.18, 12.23 6.62, 11.26 9.91 M14.83 -2.26 C13.89 0.93, 12.96 4.13, 11.26 9.91 M11.26 9.91 C8.85 7.79, 6.45 5.67, 0 0 M11.26 9.91 C7.52 6.62, 3.78 3.33, 0 0 M0 0 C0 0, 0 0, 0 0 M0 0 C0 0, 0 0, 0 0" stroke="#2f9e44" stroke-width="1" fill="none"></path></g><g transform="translate(1009.5078804447194 364.3059897113469) rotate(0 46.54944053337363 13.642049491962894)"><path d="M93.1 27.28 L78.27 29.54 L81.84 17.38 L93.1 27.28" stroke="none" stroke-width="0" fill="#2f9e44" fill-rule="evenodd"></path><path d="M93.1 27.28 C87.93 28.07, 82.77 28.86, 78.27 29.54 M93.1 27.28 C89.73 27.8, 86.35 28.31, 78.27 29.54 M78.27 29.54 C79.57 25.1, 80.87 20.67, 81.84 17.38 M78.27 29.54 C79.21 26.35, 80.14 23.16, 81.84 17.38 M81.84 17.38 C84.24 19.5, 86.65 21.61, 93.1 27.28 M81.84 17.38 C85.58 20.67, 89.31 23.96, 93.1 27.28 M93.1 27.28 C93.1 27.28, 93.1 27.28, 93.1 27.28 M93.1 27.28 C93.1 27.28, 93.1 27.28, 93.1 27.28" stroke="#2f9e44" stroke-width="1" fill="none"></path></g></g><mask></mask><g stroke-linecap="round" transform="translate(391.7213394238623 102.48633767063984) rotate(0 49.3333740234375 24)"><path d="M0 0 C38.19 0, 76.38 0, 98.67 0 M0 0 C37.44 0, 74.88 0, 98.67 0 M98.67 0 C98.67 11.28, 98.67 22.56, 98.67 48 M98.67 0 C98.67 16.31, 98.67 32.61, 98.67 48 M98.67 48 C60 48, 21.34 48, 0 48 M98.67 48 C67.88 48, 37.1 48, 0 48 M0 48 C0 31.53, 0 15.06, 0 0 M0 48 C0 36.63, 0 25.26, 0 0" stroke="#1e1e1e" stroke-width="2" fill="none"></path></g><g transform="translate(411.0547134472998 114.98633767063984) rotate(0 30 11.5)"><text x="30" y="18.400390625" font-family="Helvetica, Segoe UI Emoji" font-size="20px" fill="#1e1e1e" text-anchor="middle" style="white-space: pre;" direction="ltr" dominant-baseline="alphabetic">分发器</text></g><g stroke-linecap="round" transform="translate(200.41169003159968 342.29488027913) rotate(0 49.5999755859375 30.079986572265625)"><path d="M0 0 L99.2 0 L99.2 60.16 L0 60.16" stroke="none" stroke-width="0" fill="#a5d8ff"></path><path d="M0 0 C29.73 0, 59.46 0, 99.2 0 M0 0 C29.78 0, 59.55 0, 99.2 0 M99.2 0 C99.2 21.73, 99.2 43.45, 99.2 60.16 M99.2 0 C99.2 13.9, 99.2 27.8, 99.2 60.16 M99.2 60.16 C62.89 60.16, 26.58 60.16, 0 60.16 M99.2 60.16 C75.87 60.16, 52.54 60.16, 0 60.16 M0 60.16 C0 42.89, 0 25.61, 0 0 M0 60.16 C0 39.37, 0 18.57, 0 0" stroke="#1e1e1e" stroke-width="2" fill="none"></path></g><g transform="translate(210.01166561753718 360.8748668513956) rotate(0 40 11.5)"><text x="40" y="18.400390625" font-family="Helvetica, Segoe UI Emoji" font-size="20px" fill="#1e1e1e" text-anchor="middle" style="white-space: pre;" direction="ltr" dominant-baseline="alphabetic">文件系统</text></g><g stroke-linecap="round" transform="translate(11.37058508161931 346.8343790679894) rotate(0 47.36000061035155 26.720016479492188)"><path d="M0 0 L94.72 0 L94.72 53.44 L0 53.44" stroke="none" stroke-width="0" fill="#a5d8ff"></path><path d="M0 0 C35.79 0, 71.58 0, 94.72 0 M0 0 C29.72 0, 59.45 0, 94.72 0 M94.72 0 C94.72 17.67, 94.72 35.33, 94.72 53.44 M94.72 0 C94.72 13.91, 94.72 27.81, 94.72 53.44 M94.72 53.44 C74.66 53.44, 54.6 53.44, 0 53.44 M94.72 53.44 C58.78 53.44, 22.85 53.44, 0 53.44 M0 53.44 C0 34.8, 0 16.16, 0 0 M0 53.44 C0 35.92, 0 18.39, 0 0" stroke="#1e1e1e" stroke-width="2" fill="none"></path></g><g transform="translate(18.730585691970873 362.0543955474816) rotate(0 40 11.5)"><text x="40" y="18.400390625" font-family="Helvetica, Segoe UI Emoji" font-size="20px" fill="#1e1e1e" text-anchor="middle" style="white-space: pre;" direction="ltr" dominant-baseline="alphabetic">磁盘文件</text></g><g stroke-linecap="round"><g transform="translate(113.13059484724431 371.58543903615623) rotate(0 41.080565292372995 -0.14954151818324135)"><path d="M0 0 C17.16 -0.06, 34.32 -0.12, 82.16 -0.3 M0 0 C23.25 -0.08, 46.51 -0.17, 82.16 -0.3" stroke="#1e1e1e" stroke-width="2" fill="none"></path></g><g transform="translate(113.13059484724431 371.58543903615623) rotate(0 41.080565292372995 -0.14954151818324135)"><path d="M0 0 L13.57 -6.39 L13.62 6.29 L0 0" stroke="none" stroke-width="0" fill="#1e1e1e" fill-rule="evenodd"></path><path d="M0 0 C2.83 -1.33, 5.67 -2.67, 13.57 -6.39 M0 0 C3.84 -1.81, 7.68 -3.62, 13.57 -6.39 M13.57 -6.39 C13.58 -2.94, 13.6 0.51, 13.62 6.29 M13.57 -6.39 C13.58 -3.19, 13.59 0.01, 13.62 6.29 M13.62 6.29 C10.56 4.88, 7.51 3.47, 0 0 M13.62 6.29 C10.73 4.96, 7.85 3.63, 0 0 M0 0 C0 0, 0 0, 0 0 M0 0 C0 0, 0 0, 0 0" stroke="#1e1e1e" stroke-width="2" fill="none"></path></g><g transform="translate(113.13059484724431 371.58543903615623) rotate(0 41.080565292372995 -0.14954151818324135)"><path d="M82.16 -0.3 L68.59 6.09 L68.54 -6.59 L82.16 -0.3" stroke="none" stroke-width="0" fill="#1e1e1e" fill-rule="evenodd"></path><path d="M82.16 -0.3 C79.33 1.04, 76.49 2.37, 68.59 6.09 M82.16 -0.3 C78.32 1.51, 74.48 3.32, 68.59 6.09 M68.59 6.09 C68.58 2.64, 68.56 -0.81, 68.54 -6.59 M68.59 6.09 C68.58 2.89, 68.57 -0.3, 68.54 -6.59 M68.54 -6.59 C71.6 -5.18, 74.65 -3.77, 82.16 -0.3 M68.54 -6.59 C71.43 -5.26, 74.31 -3.92, 82.16 -0.3 M82.16 -0.3 C82.16 -0.3, 82.16 -0.3, 82.16 -0.3 M82.16 -0.3 C82.16 -0.3, 82.16 -0.3, 82.16 -0.3" stroke="#1e1e1e" stroke-width="2" fill="none"></path></g></g><mask></mask><g stroke-linecap="round"><g transform="translate(253.84823171071133 277.9903318811678) rotate(0 0.11979177713806166 30.565619535895166)"><path d="M0 0 C0.08 19.33, 0.15 38.65, 0.24 61.13 M0 0 C0.07 17.91, 0.14 35.82, 0.24 61.13" stroke="#1e1e1e" stroke-width="2" fill="none"></path></g><g transform="translate(253.84823171071133 277.9903318811678) rotate(0 0.11979177713806166 30.565619535895166)"><path d="M0 0 L6.39 13.57 L-6.29 13.62 L0 0" stroke="none" stroke-width="0" fill="#1e1e1e" fill-rule="evenodd"></path><path d="M0 0 C2.02 4.29, 4.04 8.58, 6.39 13.57 M0 0 C1.87 3.98, 3.75 7.95, 6.39 13.57 M6.39 13.57 C2.79 13.58, -0.8 13.6, -6.29 13.62 M6.39 13.57 C1.95 13.59, -2.5 13.6, -6.29 13.62 M-6.29 13.62 C-4.14 8.97, -2 4.33, 0 0 M-6.29 13.62 C-3.95 8.55, -1.61 3.48, 0 0 M0 0 C0 0, 0 0, 0 0 M0 0 C0 0, 0 0, 0 0" stroke="#1e1e1e" stroke-width="2" fill="none"></path></g><g transform="translate(253.84823171071133 277.9903318811678) rotate(0 0.11979177713806166 30.565619535895166)"><path d="M0.24 61.13 L-6.15 47.56 L6.53 47.51 L0.24 61.13" stroke="none" stroke-width="0" fill="#1e1e1e" fill-rule="evenodd"></path><path d="M0.24 61.13 C-1.78 56.84, -3.8 52.55, -6.15 47.56 M0.24 61.13 C-1.63 57.16, -3.51 53.18, -6.15 47.56 M-6.15 47.56 C-2.55 47.55, 1.04 47.53, 6.53 47.51 M-6.15 47.56 C-1.71 47.54, 2.74 47.53, 6.53 47.51 M6.53 47.51 C4.38 52.16, 2.24 56.8, 0.24 61.13 M6.53 47.51 C4.19 52.58, 1.85 57.65, 0.24 61.13 M0.24 61.13 C0.24 61.13, 0.24 61.13, 0.24 61.13 M0.24 61.13 C0.24 61.13, 0.24 61.13, 0.24 61.13" stroke="#1e1e1e" stroke-width="2" fill="none"></path></g></g><mask></mask><g stroke-linecap="round" transform="translate(370.61860942885147 343.8358321813532) rotate(0 67.08862562976677 30.079986572265625)"><path d="M0 0 L134.18 0 L134.18 60.16 L0 60.16" stroke="none" stroke-width="0" fill="#ffc9c9"></path><path d="M0 0 C51.08 0, 102.15 0, 134.18 0 M0 0 C51.78 0, 103.56 0, 134.18 0 M134.18 0 C134.18 22.26, 134.18 44.52, 134.18 60.16 M134.18 0 C134.18 18.11, 134.18 36.22, 134.18 60.16 M134.18 60.16 C87.94 60.16, 41.7 60.16, 0 60.16 M134.18 60.16 C102.52 60.16, 70.86 60.16, 0 60.16 M0 60.16 C0 39.32, 0 18.49, 0 0 M0 60.16 C0 36.38, 0 12.6, 0 0" stroke="#1e1e1e" stroke-width="2" fill="none"></path></g><g transform="translate(403.8058678711182 362.41581875361885) rotate(0 33.9013671875 11.5)"><text x="33.9013671875" y="18.400390625" font-family="Helvetica, Segoe UI Emoji" font-size="20px" fill="#1e1e1e" text-anchor="middle" style="white-space: pre;" direction="ltr" dominant-baseline="alphabetic">tap设备</text></g><g stroke-linecap="round" transform="translate(367.87823752895594 460.8630081843528) rotate(0 67.43837685525114 30.079986572265625)"><path d="M0 0 L134.88 0 L134.88 60.16 L0 60.16" stroke="none" stroke-width="0" fill="#ffc9c9"></path><path d="M0 0 C30.73 0, 61.47 0, 134.88 0 M0 0 C37.98 0, 75.96 0, 134.88 0 M134.88 0 C134.88 16.63, 134.88 33.25, 134.88 60.16 M134.88 0 C134.88 22.89, 134.88 45.79, 134.88 60.16 M134.88 60.16 C92.36 60.16, 49.85 60.16, 0 60.16 M134.88 60.16 C81.93 60.16, 28.99 60.16, 0 60.16 M0 60.16 C0 39.64, 0 19.11, 0 0 M0 60.16 C0 45.77, 0 31.38, 0 0" stroke="#1e1e1e" stroke-width="2" fill="none"></path></g><g transform="translate(415.31661438420707 479.4429947566184) rotate(0 20 11.5)"><text x="20" y="18.400390625" font-family="Helvetica, Segoe UI Emoji" font-size="20px" fill="#1e1e1e" text-anchor="middle" style="white-space: pre;" direction="ltr" dominant-baseline="alphabetic">网桥</text></g><g stroke-linecap="round" transform="translate(10 471.95790407456207) rotate(0 47.36000061035155 26.720016479492188)"><path d="M0 0 L94.72 0 L94.72 53.44 L0 53.44" stroke="none" stroke-width="0" fill="#ffc9c9"></path><path d="M0 0 C32.39 0, 64.79 0, 94.72 0 M0 0 C22.19 0, 44.38 0, 94.72 0 M94.72 0 C94.72 14.62, 94.72 29.24, 94.72 53.44 M94.72 0 C94.72 17.43, 94.72 34.86, 94.72 53.44 M94.72 53.44 C60.96 53.44, 27.2 53.44, 0 53.44 M94.72 53.44 C68.7 53.44, 42.68 53.44, 0 53.44 M0 53.44 C0 41.16, 0 28.88, 0 0 M0 53.44 C0 41.09, 0 28.75, 0 0" stroke="#1e1e1e" stroke-width="2" fill="none"></path></g><g transform="translate(17.360000610351562 487.17792055405425) rotate(0 40 11.5)"><text x="40" y="18.400390625" font-family="Helvetica, Segoe UI Emoji" font-size="20px" fill="#1e1e1e" text-anchor="middle" style="white-space: pre;" direction="ltr" dominant-baseline="alphabetic">真实网卡</text></g><g stroke-linecap="round"><g transform="translate(113.91998291015629 495.9405882053529) rotate(0 122.05859649620845 -0.5260104372541718)"><path d="M0 0 C53.98 -0.23, 107.97 -0.47, 244.12 -1.05 M0 0 C96.54 -0.42, 193.07 -0.83, 244.12 -1.05" stroke="#1e1e1e" stroke-width="2" fill="none"></path></g><g transform="translate(113.91998291015629 495.9405882053529) rotate(0 122.05859649620845 -0.5260104372541718)"><path d="M0 0 L13.57 -6.4 L13.62 6.28 L0 0" stroke="none" stroke-width="0" fill="#1e1e1e" fill-rule="evenodd"></path><path d="M0 0 C3 -1.41, 6 -2.83, 13.57 -6.4 M0 0 C5.37 -2.53, 10.73 -5.06, 13.57 -6.4 M13.57 -6.4 C13.58 -3.02, 13.6 0.37, 13.62 6.28 M13.57 -6.4 C13.59 -1.71, 13.61 2.98, 13.62 6.28 M13.62 6.28 C10.82 4.99, 8.03 3.7, 0 0 M13.62 6.28 C8.58 3.96, 3.54 1.63, 0 0 M0 0 C0 0, 0 0, 0 0 M0 0 C0 0, 0 0, 0 0" stroke="#1e1e1e" stroke-width="2" fill="none"></path></g><g transform="translate(113.91998291015629 495.9405882053529) rotate(0 122.05859649620845 -0.5260104372541718)"><path d="M244.12 -1.05 L230.55 5.35 L230.5 -7.33 L244.12 -1.05" stroke="none" stroke-width="0" fill="#1e1e1e" fill-rule="evenodd"></path><path d="M244.12 -1.05 C241.12 0.36, 238.12 1.78, 230.55 5.35 M244.12 -1.05 C238.75 1.48, 233.39 4.01, 230.55 5.35 M230.55 5.35 C230.54 1.96, 230.52 -1.42, 230.5 -7.33 M230.55 5.35 C230.53 0.66, 230.51 -4.03, 230.5 -7.33 M230.5 -7.33 C233.29 -6.04, 236.09 -4.75, 244.12 -1.05 M230.5 -7.33 C235.53 -5.01, 240.57 -2.69, 244.12 -1.05 M244.12 -1.05 C244.12 -1.05, 244.12 -1.05, 244.12 -1.05 M244.12 -1.05 C244.12 -1.05, 244.12 -1.05, 244.12 -1.05" stroke="#1e1e1e" stroke-width="2" fill="none"></path></g></g><mask></mask><g stroke-linecap="round"><g transform="translate(435.2889116046129 408.8358779577204) rotate(0 0.008422533033751733 22.36019139505447)"><path d="M0 0 C0.01 16.55, 0.01 33.09, 0.02 44.72 M0 0 C0.01 13.46, 0.01 26.93, 0.02 44.72" stroke="#1e1e1e" stroke-width="2" fill="none"></path></g><g transform="translate(435.2889116046129 408.8358779577204) rotate(0 0.008422533033751733 22.36019139505447)"><path d="M0 0 L6.34 13.59 L-6.33 13.6 L0 0" stroke="none" stroke-width="0" fill="#1e1e1e" fill-rule="evenodd"></path><path d="M0 0 C2.35 5.03, 4.69 10.06, 6.34 13.59 M0 0 C1.91 4.09, 3.82 8.18, 6.34 13.59 M6.34 13.59 C1.98 13.59, -2.39 13.6, -6.33 13.6 M6.34 13.59 C3.35 13.59, 0.36 13.59, -6.33 13.6 M-6.33 13.6 C-4.14 8.89, -1.95 4.18, 0 0 M-6.33 13.6 C-3.83 8.22, -1.33 2.85, 0 0 M0 0 C0 0, 0 0, 0 0 M0 0 C0 0, 0 0, 0 0" stroke="#1e1e1e" stroke-width="2" fill="none"></path></g><g transform="translate(435.2889116046129 408.8358779577204) rotate(0 0.008422533033751733 22.36019139505447)"><path d="M0.02 44.72 L-6.33 31.13 L6.35 31.12 L0.02 44.72" stroke="none" stroke-width="0" fill="#1e1e1e" fill-rule="evenodd"></path><path d="M0.02 44.72 C-2.33 39.69, -4.68 34.66, -6.33 31.13 M0.02 44.72 C-1.89 40.63, -3.8 36.54, -6.33 31.13 M-6.33 31.13 C-1.96 31.13, 2.41 31.12, 6.35 31.12 M-6.33 31.13 C-3.34 31.13, -0.34 31.13, 6.35 31.12 M6.35 31.12 C4.16 35.83, 1.96 40.54, 0.02 44.72 M6.35 31.12 C3.85 36.5, 1.34 41.87, 0.02 44.72 M0.02 44.72 C0.02 44.72, 0.02 44.72, 0.02 44.72 M0.02 44.72 C0.02 44.72, 0.02 44.72, 0.02 44.72" stroke="#1e1e1e" stroke-width="2" fill="none"></path></g></g><mask></mask><g stroke-linecap="round"><g transform="translate(439.4365423849278 279.61168061094986) rotate(0 -0.10269509325874537 28.282245506043523)"><path d="M0 0 C-0.08 22.37, -0.16 44.73, -0.21 56.56 M0 0 C-0.05 14.18, -0.1 28.36, -0.21 56.56" stroke="#1e1e1e" stroke-width="2" fill="none"></path></g><g transform="translate(439.4365423849278 279.61168061094986) rotate(0 -0.10269509325874537 28.282245506043523)"><path d="M0 0 L6.29 13.62 L-6.39 13.57 L0 0" stroke="none" stroke-width="0" fill="#1e1e1e" fill-rule="evenodd"></path><path d="M0 0 C2.49 5.38, 4.97 10.77, 6.29 13.62 M0 0 C1.58 3.41, 3.15 6.83, 6.29 13.62 M6.29 13.62 C2.9 13.61, -0.49 13.59, -6.39 13.57 M6.29 13.62 C1.59 13.6, -3.1 13.58, -6.39 13.57 M-6.39 13.57 C-4.05 8.61, -1.71 3.64, 0 0 M-6.39 13.57 C-4.74 10.08, -3.1 6.59, 0 0 M0 0 C0 0, 0 0, 0 0 M0 0 C0 0, 0 0, 0 0" stroke="#1e1e1e" stroke-width="2" fill="none"></path></g><g transform="translate(439.4365423849278 279.61168061094986) rotate(0 -0.10269509325874537 28.282245506043523)"><path d="M-0.21 56.56 L-6.5 42.95 L6.18 42.99 L-0.21 56.56" stroke="none" stroke-width="0" fill="#1e1e1e" fill-rule="evenodd"></path><path d="M-0.21 56.56 C-2.69 51.18, -5.18 45.8, -6.5 42.95 M-0.21 56.56 C-1.78 53.15, -3.36 49.74, -6.5 42.95 M-6.5 42.95 C-3.11 42.96, 0.28 42.97, 6.18 42.99 M-6.5 42.95 C-1.8 42.96, 2.9 42.98, 6.18 42.99 M6.18 42.99 C3.85 47.96, 1.51 52.92, -0.21 56.56 M6.18 42.99 C4.54 46.49, 2.9 49.98, -0.21 56.56 M-0.21 56.56 C-0.21 56.56, -0.21 56.56, -0.21 56.56 M-0.21 56.56 C-0.21 56.56, -0.21 56.56, -0.21 56.56" stroke="#1e1e1e" stroke-width="2" fill="none"></path></g></g><mask></mask><g stroke-linecap="round"><g transform="translate(714.9926063949467 255.77749274192) rotate(0 41.695296312430514 17.709056034776154)"><path d="M0 0 C13.9 5.9, 69.49 29.52, 83.39 35.42 M0 0 C13.9 5.9, 69.49 29.52, 83.39 35.42" stroke="#2f9e44" stroke-width="1" fill="none"></path></g><g transform="translate(714.9926063949467 255.77749274192) rotate(0 41.695296312430514 17.709056034776154)"><path d="M0 0 L14.99 -0.52 L10.03 11.15 L0 0" stroke="none" stroke-width="0" fill="#2f9e44" fill-rule="evenodd"></path><path d="M0 0 C3.98 -0.14, 7.96 -0.28, 14.99 -0.52 M0 0 C3.79 -0.13, 7.57 -0.26, 14.99 -0.52 M14.99 -0.52 C13.56 2.85, 12.13 6.22, 10.03 11.15 M14.99 -0.52 C14 1.81, 13.01 4.15, 10.03 11.15 M10.03 11.15 C6.8 7.56, 3.57 3.97, 0 0 M10.03 11.15 C6.75 7.5, 3.47 3.86, 0 0 M0 0 C0 0, 0 0, 0 0 M0 0 C0 0, 0 0, 0 0" stroke="#2f9e44" stroke-width="1" fill="none"></path></g><g transform="translate(714.9926063949467 255.77749274192) rotate(0 41.695296312430514 17.709056034776154)"><path d="M83.39 35.42 L68.4 35.94 L73.36 24.27 L83.39 35.42" stroke="none" stroke-width="0" fill="#2f9e44" fill-rule="evenodd"></path><path d="M83.39 35.42 C79.41 35.56, 75.43 35.69, 68.4 35.94 M83.39 35.42 C79.61 35.55, 75.82 35.68, 68.4 35.94 M68.4 35.94 C69.83 32.57, 71.26 29.2, 73.36 24.27 M68.4 35.94 C69.39 33.6, 70.38 31.27, 73.36 24.27 M73.36 24.27 C76.59 27.86, 79.82 31.45, 83.39 35.42 M73.36 24.27 C76.64 27.92, 79.92 31.56, 83.39 35.42 M83.39 35.42 C83.39 35.42, 83.39 35.42, 83.39 35.42 M83.39 35.42 C83.39 35.42, 83.39 35.42, 83.39 35.42" stroke="#2f9e44" stroke-width="1" fill="none"></path></g></g><mask></mask><g stroke-linecap="round"><g transform="translate(146.68577610662481 295.7998331057481) rotate(0 291.7103266393639 1.0493177217242646)"><path d="M0 0 C122.17 0.44, 244.33 0.88, 583.42 2.1" stroke="#1e1e1e" stroke-width="2.5" fill="none" stroke-dasharray="8 10"></path></g></g><mask></mask><g stroke-linecap="round" transform="translate(1110.5098474305382 448.6149518599934) rotate(0 65.9200439453125 31.84002685546875)"><path d="M0 0 L131.84 0 L131.84 63.68 L0 63.68" stroke="none" stroke-width="0" fill="#ffec99"></path><path d="M0 0 C32.01 0, 64.02 0, 131.84 0 M0 0 C46.21 0, 92.42 0, 131.84 0 M131.84 0 C131.84 23.8, 131.84 47.61, 131.84 63.68 M131.84 0 C131.84 14.83, 131.84 29.67, 131.84 63.68 M131.84 63.68 C81.81 63.68, 31.78 63.68, 0 63.68 M131.84 63.68 C90.49 63.68, 49.15 63.68, 0 63.68 M0 63.68 C0 42.47, 0 21.26, 0 0 M0 63.68 C0 50.84, 0 38.01, 0 0" stroke="#1e1e1e" stroke-width="2" fill="none"></path></g><g transform="translate(1121.9621179383507 457.4549787154622) rotate(0 54.4677734375 23)"><text x="54.4677734375" y="18.400390625" font-family="Helvetica, Segoe UI Emoji" font-size="20px" fill="#1e1e1e" text-anchor="middle" style="white-space: pre;" direction="ltr" dominant-baseline="alphabetic">Virtio-</text><text x="54.4677734375" y="41.400390625" font-family="Helvetica, Segoe UI Emoji" font-size="20px" fill="#1e1e1e" text-anchor="middle" style="white-space: pre;" direction="ltr" dominant-baseline="alphabetic">console驱动</text></g><g stroke-linecap="round"><g transform="translate(966.7104448258126 384.9575919139695) rotate(0 68.92077551947426 42.80687489284969)"><path d="M0 0 C22.97 14.27, 114.87 71.34, 137.84 85.61 M0 0 C22.97 14.27, 114.87 71.34, 137.84 85.61" stroke="#2f9e44" stroke-width="1" fill="none"></path></g><g transform="translate(966.7104448258126 384.9575919139695) rotate(0 68.92077551947426 42.80687489284969)"><path d="M0 0 L14.89 1.79 L8.2 12.56 L0 0" stroke="none" stroke-width="0" fill="#2f9e44" fill-rule="evenodd"></path><path d="M0 0 C5.72 0.69, 11.43 1.37, 14.89 1.79 M0 0 C4.03 0.48, 8.06 0.97, 14.89 1.79 M14.89 1.79 C12.39 5.82, 9.88 9.86, 8.2 12.56 M14.89 1.79 C13.26 4.42, 11.62 7.05, 8.2 12.56 M8.2 12.56 C6.12 9.37, 4.04 6.19, 0 0 M8.2 12.56 C5.4 8.27, 2.6 3.98, 0 0 M0 0 C0 0, 0 0, 0 0 M0 0 C0 0, 0 0, 0 0" stroke="#2f9e44" stroke-width="1" fill="none"></path></g><g transform="translate(966.7104448258126 384.9575919139695) rotate(0 68.92077551947426 42.80687489284969)"><path d="M137.84 85.61 L122.95 83.83 L129.64 73.06 L137.84 85.61" stroke="none" stroke-width="0" fill="#2f9e44" fill-rule="evenodd"></path><path d="M137.84 85.61 C132.12 84.93, 126.41 84.24, 122.95 83.83 M137.84 85.61 C133.81 85.13, 129.78 84.65, 122.95 83.83 M122.95 83.83 C125.45 79.79, 127.96 75.76, 129.64 73.06 M122.95 83.83 C124.58 81.19, 126.22 78.56, 129.64 73.06 M129.64 73.06 C131.72 76.24, 133.8 79.43, 137.84 85.61 M129.64 73.06 C132.44 77.34, 135.24 81.63, 137.84 85.61 M137.84 85.61 C137.84 85.61, 137.84 85.61, 137.84 85.61 M137.84 85.61 C137.84 85.61, 137.84 85.61, 137.84 85.61" stroke="#2f9e44" stroke-width="1" fill="none"></path></g></g><mask></mask><g stroke-linecap="round" transform="translate(554.4299524110068 210.45491768030615) rotate(0 71.3333740234375 33.83332824707031)"><path d="M0 0 L142.67 0 L142.67 67.67 L0 67.67" stroke="none" stroke-width="0" fill="#ffec99"></path><path d="M0 0 C47.99 0, 95.98 0, 142.67 0 M0 0 C49.95 0, 99.9 0, 142.67 0 M142.67 0 C142.67 16.72, 142.67 33.43, 142.67 67.67 M142.67 0 C142.67 17.69, 142.67 35.38, 142.67 67.67 M142.67 67.67 C96.92 67.67, 51.17 67.67, 0 67.67 M142.67 67.67 C98.29 67.67, 53.92 67.67, 0 67.67 M0 67.67 C0 49.35, 0 31.03, 0 0 M0 67.67 C0 45.74, 0 23.82, 0 0" stroke="#1e1e1e" stroke-width="2" fill="none"></path></g><g transform="translate(565.3629358094443 221.28824592737647) rotate(0 60.400390625 23)"><text x="60.400390625" y="18.400390625" font-family="Helvetica, Segoe UI Emoji" font-size="20px" fill="#1e1e1e" text-anchor="middle" style="white-space: pre;" direction="ltr" dominant-baseline="alphabetic">Virtio-console</text><text x="60.400390625" y="41.400390625" font-family="Helvetica, Segoe UI Emoji" font-size="20px" fill="#1e1e1e" text-anchor="middle" style="white-space: pre;" direction="ltr" dominant-baseline="alphabetic">设备</text></g><g stroke-linecap="round" transform="translate(372.4298303406943 209.2883069625325) rotate(0 71.3333740234375 33.83332824707031)"><path d="M0 0 L142.67 0 L142.67 67.67 L0 67.67" stroke="none" stroke-width="0" fill="#ffc9c9"></path><path d="M0 0 C33.62 0, 67.23 0, 142.67 0 M0 0 C49.98 0, 99.97 0, 142.67 0 M142.67 0 C142.67 18.1, 142.67 36.21, 142.67 67.67 M142.67 0 C142.67 24.74, 142.67 49.48, 142.67 67.67 M142.67 67.67 C90.11 67.67, 37.55 67.67, 0 67.67 M142.67 67.67 C98.65 67.67, 54.63 67.67, 0 67.67 M0 67.67 C0 44.65, 0 21.63, 0 0 M0 67.67 C0 51.32, 0 34.97, 0 0" stroke="#1e1e1e" stroke-width="2" fill="none"></path></g><g transform="translate(383.9292199891318 231.6216352096028) rotate(0 59.833984375 11.5)"><text x="59.833984375" y="18.400390625" font-family="Helvetica, Segoe UI Emoji" font-size="20px" fill="#1e1e1e" text-anchor="middle" style="white-space: pre;" direction="ltr" dominant-baseline="alphabetic">Virtio-net设备</text></g><g stroke-linecap="round" transform="translate(186.43001344616306 207.95490242151686) rotate(0 71.3333740234375 33.83332824707031)"><path d="M0 0 L142.67 0 L142.67 67.67 L0 67.67" stroke="none" stroke-width="0" fill="#a5d8ff"></path><path d="M0 0 C55.69 0, 111.37 0, 142.67 0 M0 0 C41 0, 82 0, 142.67 0 M142.67 0 C142.67 25, 142.67 50.01, 142.67 67.67 M142.67 0 C142.67 18.13, 142.67 36.25, 142.67 67.67 M142.67 67.67 C105.19 67.67, 67.7 67.67, 0 67.67 M142.67 67.67 C102.12 67.67, 61.57 67.67, 0 67.67 M0 67.67 C0 50.21, 0 32.75, 0 0 M0 67.67 C0 41.06, 0 14.46, 0 0" stroke="#1e1e1e" stroke-width="2" fill="none"></path></g><g transform="translate(199.04756715710056 230.28823066858718) rotate(0 58.7158203125 11.5)"><text x="58.7158203125" y="18.400390625" font-family="Helvetica, Segoe UI Emoji" font-size="20px" fill="#1e1e1e" text-anchor="middle" style="white-space: pre;" direction="ltr" dominant-baseline="alphabetic">Virtio-blk设备</text></g><g stroke-linecap="round" transform="translate(556.6746397695213 341.04161811975905) rotate(0 67.08862562976674 30.079986572265625)"><path d="M0 0 L134.18 0 L134.18 60.16 L0 60.16" stroke="none" stroke-width="0" fill="#ffec99"></path><path d="M0 0 C40.82 0, 81.63 0, 134.18 0 M0 0 C31.6 0, 63.2 0, 134.18 0 M134.18 0 C134.18 13.31, 134.18 26.63, 134.18 60.16 M134.18 0 C134.18 15.48, 134.18 30.96, 134.18 60.16 M134.18 60.16 C93.63 60.16, 53.08 60.16, 0 60.16 M134.18 60.16 C83.35 60.16, 32.53 60.16, 0 60.16 M0 60.16 C0 36.52, 0 12.88, 0 0 M0 60.16 C0 47.39, 0 34.62, 0 0" stroke="#1e1e1e" stroke-width="2" fill="none"></path></g><g transform="translate(593.763265399288 359.6216046920247) rotate(0 30 11.5)"><text x="30" y="18.400390625" font-family="Helvetica, Segoe UI Emoji" font-size="20px" fill="#1e1e1e" text-anchor="middle" style="white-space: pre;" direction="ltr" dominant-baseline="alphabetic">伪终端</text></g><g stroke-linecap="round"><g transform="translate(623.1993345159844 281.5060156801219) rotate(0 -0.1026950932587738 28.282245506043523)"><path d="M0 0 C-0.07 20.51, -0.15 41.03, -0.21 56.56 M0 0 C-0.06 17.88, -0.13 35.76, -0.21 56.56" stroke="#1e1e1e" stroke-width="2" fill="none"></path></g><g transform="translate(623.1993345159844 281.5060156801219) rotate(0 -0.1026950932587738 28.282245506043523)"><path d="M0 0 L6.29 13.62 L-6.39 13.57 L0 0" stroke="none" stroke-width="0" fill="#1e1e1e" fill-rule="evenodd"></path><path d="M0 0 C2.28 4.94, 4.56 9.88, 6.29 13.62 M0 0 C1.99 4.3, 3.98 8.61, 6.29 13.62 M6.29 13.62 C2.89 13.61, -0.51 13.59, -6.39 13.57 M6.29 13.62 C1.82 13.6, -2.65 13.59, -6.39 13.57 M-6.39 13.57 C-4.06 8.64, -1.74 3.7, 0 0 M-6.39 13.57 C-4.19 8.9, -1.99 4.23, 0 0 M0 0 C0 0, 0 0, 0 0 M0 0 C0 0, 0 0, 0 0" stroke="#1e1e1e" stroke-width="2" fill="none"></path></g><g transform="translate(623.1993345159844 281.5060156801219) rotate(0 -0.1026950932587738 28.282245506043523)"><path d="M-0.21 56.56 L-6.5 42.95 L6.18 42.99 L-0.21 56.56" stroke="none" stroke-width="0" fill="#1e1e1e" fill-rule="evenodd"></path><path d="M-0.21 56.56 C-2.49 51.63, -4.77 46.69, -6.5 42.95 M-0.21 56.56 C-2.19 52.26, -4.18 47.96, -6.5 42.95 M-6.5 42.95 C-3.1 42.96, 0.3 42.97, 6.18 42.99 M-6.5 42.95 C-2.03 42.96, 2.44 42.98, 6.18 42.99 M6.18 42.99 C3.86 47.93, 1.54 52.87, -0.21 56.56 M6.18 42.99 C3.99 47.66, 1.79 52.33, -0.21 56.56 M-0.21 56.56 C-0.21 56.56, -0.21 56.56, -0.21 56.56 M-0.21 56.56 C-0.21 56.56, -0.21 56.56, -0.21 56.56" stroke="#1e1e1e" stroke-width="2" fill="none"></path></g></g><mask></mask><g stroke-linecap="round"><g transform="translate(385.7633264344444 152.45491768030604) rotate(0 -51.33334350585943 23.999999999999943)"><path d="M0 0 C-17.11 8, -85.56 40, -102.67 48 M0 0 C-17.11 8, -85.56 40, -102.67 48" stroke="#1e1e1e" stroke-width="2" fill="none"></path></g><g transform="translate(385.7633264344444 152.45491768030604) rotate(0 -51.33334350585943 23.999999999999943)"><path d="M-102.67 48 L-93.04 36.5 L-87.67 47.98 L-102.67 48" stroke="none" stroke-width="0" fill="#1e1e1e" fill-rule="evenodd"></path><path d="M-102.67 48 C-99.74 44.5, -96.81 41.01, -93.04 36.5 M-102.67 48 C-99.63 44.38, -96.6 40.75, -93.04 36.5 M-93.04 36.5 C-91.28 40.26, -89.52 44.03, -87.67 47.98 M-93.04 36.5 C-91.26 40.3, -89.48 44.11, -87.67 47.98 M-87.67 47.98 C-92.01 47.99, -96.35 47.99, -102.67 48 M-87.67 47.98 C-90.98 47.99, -94.28 47.99, -102.67 48 M-102.67 48 C-102.67 48, -102.67 48, -102.67 48 M-102.67 48 C-102.67 48, -102.67 48, -102.67 48" stroke="#1e1e1e" stroke-width="2" fill="none"></path></g></g><mask></mask><g stroke-linecap="round"><g transform="translate(441.7633264344443 156.7882611861653) rotate(0 0 24)"><path d="M0 0 C0 8, 0 40, 0 48 M0 0 C0 8, 0 40, 0 48" stroke="#1e1e1e" stroke-width="2" fill="none"></path></g><g transform="translate(441.7633264344443 156.7882611861653) rotate(0 0 24)"><path d="M0 48 L-6.34 34.41 L6.34 34.41 L0 48" stroke="none" stroke-width="0" fill="#1e1e1e" fill-rule="evenodd"></path><path d="M0 48 C-2.02 43.66, -4.05 39.32, -6.34 34.41 M0 48 C-2.33 42.99, -4.67 37.99, -6.34 34.41 M-6.34 34.41 C-1.36 34.41, 3.63 34.41, 6.34 34.41 M-6.34 34.41 C-2.16 34.41, 2.03 34.41, 6.34 34.41 M6.34 34.41 C3.87 39.7, 1.4 45, 0 48 M6.34 34.41 C4.16 39.08, 1.98 43.75, 0 48 M0 48 C0 48, 0 48, 0 48 M0 48 C0 48, 0 48, 0 48" stroke="#1e1e1e" stroke-width="2" fill="none"></path></g></g><mask></mask><g stroke-linecap="round"><g transform="translate(493.7633264344443 152.45491768030593) rotate(0 56.33331298828125 26.333343505859375)"><path d="M0 0 C18.78 8.78, 93.89 43.89, 112.67 52.67 M0 0 C18.78 8.78, 93.89 43.89, 112.67 52.67" stroke="#1e1e1e" stroke-width="2" fill="none"></path></g><g transform="translate(493.7633264344443 152.45491768030593) rotate(0 56.33331298828125 26.333343505859375)"><path d="M112.67 52.67 L97.67 52.65 L103.04 41.17 L112.67 52.67" stroke="none" stroke-width="0" fill="#1e1e1e" fill-rule="evenodd"></path><path d="M112.67 52.67 C107.55 52.66, 102.43 52.66, 97.67 52.65 M112.67 52.67 C109.51 52.66, 106.35 52.66, 97.67 52.65 M97.67 52.65 C98.87 50.08, 100.07 47.51, 103.04 41.17 M97.67 52.65 C98.9 50.01, 100.14 47.36, 103.04 41.17 M103.04 41.17 C106.16 44.9, 109.29 48.64, 112.67 52.67 M103.04 41.17 C106.04 44.75, 109.04 48.33, 112.67 52.67 M112.67 52.67 C112.67 52.67, 112.67 52.67, 112.67 52.67 M112.67 52.67 C112.67 52.67, 112.67 52.67, 112.67 52.67" stroke="#1e1e1e" stroke-width="2" fill="none"></path></g></g><mask></mask></svg>