<svg version="1.1" xmlns="http://www.w3.org/2000/svg" viewBox="0 0 1433.6942404698284 624.5054626464845" width="1433.6942404698284" height="624.5054626464845">
  <!-- svg-source:excalidraw -->
  
  <defs>
    <style class="style-fonts">
      @font-face {
        font-family: "Virgil";
        src: url("https://excalidraw.com/Virgil.woff2");
      }
      @font-face {
        font-family: "Cascadia";
        src: url("https://excalidraw.com/Cascadia.woff2");
      }
      @font-face {
        font-family: "Assistant";
        src: url("https://excalidraw.com/Assistant-Regular.woff2");
      }
    </style>
    
  </defs>
  <g stroke-linecap="round" transform="translate(224.63939047046256 53.37708887695908) rotate(0 289.94829849122766 238.6587876939787)"><path d="M0 0 L579.9 0 L579.9 477.32 L0 477.32" stroke="none" stroke-width="0" fill="#e7f5ff"></path><path d="M0 0 C182.32 0, 364.64 0, 579.9 0 M0 0 C201.76 0, 403.51 0, 579.9 0 M579.9 0 C579.9 154.15, 579.9 308.31, 579.9 477.32 M579.9 0 C579.9 99.28, 579.9 198.55, 579.9 477.32 M579.9 477.32 C351.84 477.32, 123.78 477.32, 0 477.32 M579.9 477.32 C423.28 477.32, 266.66 477.32, 0 477.32 M0 477.32 C0 381.41, 0 285.51, 0 0 M0 477.32 C0 324.24, 0 171.17, 0 0" stroke="#1e1e1e" stroke-width="2" fill="none"></path></g><g stroke-linecap="round" transform="translate(1105.9914511631878 48.09464645385731) rotate(0 118.15272521972649 238.17455482482913)"><path d="M0 0 L236.31 0 L236.31 476.35 L0 476.35" stroke="none" stroke-width="0" fill="#e7f5ff"></path><path d="M0 0 C74.53 0, 149.07 0, 236.31 0 M0 0 C86.53 0, 173.07 0, 236.31 0 M236.31 0 C236.31 174.58, 236.31 349.15, 236.31 476.35 M236.31 0 C236.31 103.5, 236.31 207, 236.31 476.35 M236.31 476.35 C153.89 476.35, 71.48 476.35, 0 476.35 M236.31 476.35 C171.27 476.35, 106.23 476.35, 0 476.35 M0 476.35 C0 362.76, 0 249.17, 0 0 M0 476.35 C0 314.43, 0 152.51, 0 0" stroke="#1e1e1e" stroke-width="2" fill="none"></path></g><g stroke-linecap="round" transform="translate(228.98589700489424 552.425506591797) rotate(0 557.3299407754358 31.03997802734375)"><path d="M0 0 L1114.66 0 L1114.66 62.08 L0 62.08" stroke="none" stroke-width="0" fill="#e7f5ff"></path><path d="M0 0 C270.68 0, 541.35 0, 1114.66 0 M0 0 C276.66 0, 553.32 0, 1114.66 0 M1114.66 0 C1114.66 16.7, 1114.66 33.41, 1114.66 62.08 M1114.66 0 C1114.66 21.35, 1114.66 42.7, 1114.66 62.08 M1114.66 62.08 C885.72 62.08, 656.78 62.08, 0 62.08 M1114.66 62.08 C818.89 62.08, 523.13 62.08, 0 62.08 M0 62.08 C0 43.03, 0 23.98, 0 0 M0 62.08 C0 37.4, 0 12.72, 0 0" stroke="#1e1e1e" stroke-width="2" fill="none"></path></g><g transform="translate(719.4125174678301 567.3654846191407) rotate(0 66.9033203125 16.100000000000023)"><text x="66.9033203125" y="25.760546874999996" font-family="Helvetica, Segoe UI Emoji" font-size="28px" fill="#1e1e1e" text-anchor="middle" style="white-space: pre;" direction="ltr" dominant-baseline="alphabetic">Hypervisor</text></g><g stroke-linecap="round" transform="translate(859.1378472913016 185.46792717913604) rotate(0 89.92001342773438 86.7199935913086)"><path d="M179.84 86.72 C179.84 89.74, 179.67 92.78, 179.35 95.78 C179.02 98.79, 178.53 101.79, 177.88 104.75 C177.22 107.71, 176.41 110.64, 175.44 113.52 C174.47 116.39, 173.34 119.23, 172.07 121.99 C170.79 124.75, 169.36 127.46, 167.79 130.08 C166.23 132.7, 164.51 135.25, 162.67 137.69 C160.83 140.14, 158.84 142.5, 156.74 144.75 C154.65 146.99, 152.42 149.14, 150.09 151.17 C147.76 153.19, 145.31 155.1, 142.77 156.88 C140.24 158.65, 137.59 160.31, 134.88 161.82 C132.17 163.33, 129.36 164.71, 126.49 165.94 C123.63 167.17, 120.69 168.26, 117.71 169.2 C114.73 170.13, 111.68 170.92, 108.62 171.54 C105.55 172.17, 102.44 172.65, 99.32 172.96 C96.2 173.28, 93.05 173.44, 89.92 173.44 C86.79 173.44, 83.64 173.28, 80.52 172.96 C77.4 172.65, 74.29 172.17, 71.22 171.54 C68.16 170.92, 65.11 170.13, 62.13 169.2 C59.15 168.26, 56.21 167.17, 53.35 165.94 C50.48 164.71, 47.67 163.33, 44.96 161.82 C42.25 160.31, 39.6 158.65, 37.07 156.88 C34.53 155.1, 32.08 153.19, 29.75 151.17 C27.42 149.14, 25.19 146.99, 23.1 144.75 C21 142.5, 19.01 140.14, 17.17 137.69 C15.33 135.25, 13.61 132.7, 12.05 130.08 C10.48 127.46, 9.05 124.75, 7.77 121.99 C6.5 119.23, 5.37 116.39, 4.4 113.52 C3.43 110.64, 2.62 107.71, 1.96 104.75 C1.31 101.79, 0.82 98.79, 0.49 95.78 C0.17 92.78, 0 89.74, 0 86.72 C0 83.7, 0.17 80.66, 0.49 77.66 C0.82 74.65, 1.31 71.65, 1.96 68.69 C2.62 65.73, 3.43 62.8, 4.4 59.92 C5.37 57.05, 6.5 54.21, 7.77 51.45 C9.05 48.69, 10.48 45.98, 12.05 43.36 C13.61 40.74, 15.33 38.19, 17.17 35.75 C19.01 33.3, 21 30.94, 23.1 28.69 C25.19 26.45, 27.42 24.3, 29.75 22.27 C32.08 20.25, 34.53 18.34, 37.07 16.56 C39.6 14.79, 42.25 13.13, 44.96 11.62 C47.67 10.11, 50.48 8.73, 53.35 7.5 C56.21 6.27, 59.15 5.18, 62.13 4.24 C65.11 3.31, 68.16 2.52, 71.22 1.9 C74.29 1.27, 77.4 0.79, 80.52 0.48 C83.64 0.16, 86.79 0, 89.92 0 C93.05 0, 96.2 0.16, 99.32 0.48 C102.44 0.79, 105.55 1.27, 108.62 1.9 C111.68 2.52, 114.73 3.31, 117.71 4.24 C120.69 5.18, 123.63 6.27, 126.49 7.5 C129.36 8.73, 132.17 10.11, 134.88 11.62 C137.59 13.13, 140.24 14.79, 142.77 16.56 C145.31 18.34, 147.76 20.25, 150.09 22.27 C152.42 24.3, 154.65 26.45, 156.74 28.69 C158.84 30.94, 160.83 33.3, 162.67 35.75 C164.51 38.19, 166.23 40.74, 167.79 43.36 C169.36 45.98, 170.79 48.69, 172.07 51.45 C173.34 54.21, 174.47 57.05, 175.44 59.92 C176.41 62.8, 177.22 65.73, 177.88 68.69 C178.53 71.65, 179.02 74.65, 179.35 77.66 C179.67 80.66, 179.76 85.21, 179.84 86.72 C179.92 88.23, 179.92 85.21, 179.84 86.72" stroke="none" stroke-width="0" fill="#b2f2bb"></path><path d="M179.84 86.72 C179.84 89.74, 179.67 92.78, 179.35 95.78 C179.02 98.79, 178.53 101.79, 177.88 104.75 C177.22 107.71, 176.41 110.64, 175.44 113.52 C174.47 116.39, 173.34 119.23, 172.07 121.99 C170.79 124.75, 169.36 127.46, 167.79 130.08 C166.23 132.7, 164.51 135.25, 162.67 137.69 C160.83 140.14, 158.84 142.5, 156.74 144.75 C154.65 146.99, 152.42 149.14, 150.09 151.17 C147.76 153.19, 145.31 155.1, 142.77 156.88 C140.24 158.65, 137.59 160.31, 134.88 161.82 C132.17 163.33, 129.36 164.71, 126.49 165.94 C123.63 167.17, 120.69 168.26, 117.71 169.2 C114.73 170.13, 111.68 170.92, 108.62 171.54 C105.55 172.17, 102.44 172.65, 99.32 172.96 C96.2 173.28, 93.05 173.44, 89.92 173.44 C86.79 173.44, 83.64 173.28, 80.52 172.96 C77.4 172.65, 74.29 172.17, 71.22 171.54 C68.16 170.92, 65.11 170.13, 62.13 169.2 C59.15 168.26, 56.21 167.17, 53.35 165.94 C50.48 164.71, 47.67 163.33, 44.96 161.82 C42.25 160.31, 39.6 158.65, 37.07 156.88 C34.53 155.1, 32.08 153.19, 29.75 151.17 C27.42 149.14, 25.19 146.99, 23.1 144.75 C21 142.5, 19.01 140.14, 17.17 137.69 C15.33 135.25, 13.61 132.7, 12.05 130.08 C10.48 127.46, 9.05 124.75, 7.77 121.99 C6.5 119.23, 5.37 116.39, 4.4 113.52 C3.43 110.64, 2.62 107.71, 1.96 104.75 C1.31 101.79, 0.82 98.79, 0.49 95.78 C0.17 92.78, 0 89.74, 0 86.72 C0 83.7, 0.17 80.66, 0.49 77.66 C0.82 74.65, 1.31 71.65, 1.96 68.69 C2.62 65.73, 3.43 62.8, 4.4 59.92 C5.37 57.05, 6.5 54.21, 7.77 51.45 C9.05 48.69, 10.48 45.98, 12.05 43.36 C13.61 40.74, 15.33 38.19, 17.17 35.75 C19.01 33.3, 21 30.94, 23.1 28.69 C25.19 26.45, 27.42 24.3, 29.75 22.27 C32.08 20.25, 34.53 18.34, 37.07 16.56 C39.6 14.79, 42.25 13.13, 44.96 11.62 C47.67 10.11, 50.48 8.73, 53.35 7.5 C56.21 6.27, 59.15 5.18, 62.13 4.24 C65.11 3.31, 68.16 2.52, 71.22 1.9 C74.29 1.27, 77.4 0.79, 80.52 0.48 C83.64 0.16, 86.79 0, 89.92 0 C93.05 0, 96.2 0.16, 99.32 0.48 C102.44 0.79, 105.55 1.27, 108.62 1.9 C111.68 2.52, 114.73 3.31, 117.71 4.24 C120.69 5.18, 123.63 6.27, 126.49 7.5 C129.36 8.73, 132.17 10.11, 134.88 11.62 C137.59 13.13, 140.24 14.79, 142.77 16.56 C145.31 18.34, 147.76 20.25, 150.09 22.27 C152.42 24.3, 154.65 26.45, 156.74 28.69 C158.84 30.94, 160.83 33.3, 162.67 35.75 C164.51 38.19, 166.23 40.74, 167.79 43.36 C169.36 45.98, 170.79 48.69, 172.07 51.45 C173.34 54.21, 174.47 57.05, 175.44 59.92 C176.41 62.8, 177.22 65.73, 177.88 68.69 C178.53 71.65, 179.02 74.65, 179.35 77.66 C179.67 80.66, 179.76 85.21, 179.84 86.72 C179.92 88.23, 179.92 85.21, 179.84 86.72" stroke="#2f9e44" stroke-width="2" fill="none"></path></g><g stroke-linecap="round" transform="translate(878.097899781536 200.5879604432962) rotate(0 71.36004638671875 71.67997741699219)"><path d="M142.72 71.68 C142.72 74.36, 142.57 77.05, 142.27 79.71 C141.97 82.36, 141.52 85.02, 140.93 87.63 C140.34 90.24, 139.6 92.83, 138.72 95.35 C137.84 97.88, 136.81 100.37, 135.65 102.78 C134.5 105.19, 133.2 107.55, 131.78 109.82 C130.37 112.08, 128.81 114.28, 127.15 116.37 C125.49 118.46, 123.7 120.47, 121.82 122.37 C119.94 124.26, 117.93 126.05, 115.85 127.72 C113.77 129.39, 111.58 130.95, 109.33 132.37 C107.07 133.8, 104.72 135.1, 102.32 136.26 C99.92 137.42, 97.44 138.45, 94.93 139.34 C92.41 140.22, 89.84 140.97, 87.24 141.56 C84.64 142.16, 82 142.61, 79.35 142.91 C76.7 143.21, 74.02 143.36, 71.36 143.36 C68.7 143.36, 66.02 143.21, 63.37 142.91 C60.72 142.61, 58.08 142.16, 55.48 141.56 C52.88 140.97, 50.31 140.22, 47.79 139.34 C45.28 138.45, 42.8 137.42, 40.4 136.26 C38 135.1, 35.65 133.8, 33.39 132.37 C31.14 130.95, 28.95 129.39, 26.87 127.72 C24.79 126.05, 22.78 124.26, 20.9 122.37 C19.02 120.47, 17.23 118.46, 15.57 116.37 C13.91 114.28, 12.35 112.08, 10.94 109.82 C9.52 107.55, 8.22 105.19, 7.07 102.78 C5.91 100.37, 4.88 97.88, 4 95.35 C3.12 92.83, 2.38 90.24, 1.79 87.63 C1.2 85.02, 0.75 82.36, 0.45 79.71 C0.15 77.05, 0 74.36, 0 71.68 C0 69, 0.15 66.31, 0.45 63.65 C0.75 61, 1.2 58.34, 1.79 55.73 C2.38 53.12, 3.12 50.53, 4 48.01 C4.88 45.48, 5.91 42.99, 7.07 40.58 C8.22 38.17, 9.52 35.81, 10.94 33.54 C12.35 31.28, 13.91 29.08, 15.57 26.99 C17.23 24.9, 19.02 22.89, 20.9 20.99 C22.78 19.1, 24.79 17.31, 26.87 15.64 C28.95 13.97, 31.14 12.41, 33.39 10.99 C35.65 9.56, 38 8.26, 40.4 7.1 C42.8 5.94, 45.28 4.91, 47.79 4.02 C50.31 3.14, 52.88 2.39, 55.48 1.8 C58.08 1.2, 60.72 0.75, 63.37 0.45 C66.02 0.15, 68.7 0, 71.36 0 C74.02 0, 76.7 0.15, 79.35 0.45 C82 0.75, 84.64 1.2, 87.24 1.8 C89.84 2.39, 92.41 3.14, 94.93 4.02 C97.44 4.91, 99.92 5.94, 102.32 7.1 C104.72 8.26, 107.07 9.56, 109.33 10.99 C111.58 12.41, 113.77 13.97, 115.85 15.64 C117.93 17.31, 119.94 19.1, 121.82 20.99 C123.7 22.89, 125.49 24.9, 127.15 26.99 C128.81 29.08, 130.37 31.28, 131.78 33.54 C133.2 35.81, 134.5 38.17, 135.65 40.58 C136.81 42.99, 137.84 45.48, 138.72 48.01 C139.6 50.53, 140.34 53.12, 140.93 55.73 C141.52 58.34, 141.97 61, 142.27 63.65 C142.57 66.31, 142.65 70.34, 142.72 71.68 C142.79 73.02, 142.79 70.34, 142.72 71.68" stroke="none" stroke-width="0" fill="#ffffff"></path><path d="M142.72 71.68 C142.72 74.36, 142.57 77.05, 142.27 79.71 C141.97 82.36, 141.52 85.02, 140.93 87.63 C140.34 90.24, 139.6 92.83, 138.72 95.35 C137.84 97.88, 136.81 100.37, 135.65 102.78 C134.5 105.19, 133.2 107.55, 131.78 109.82 C130.37 112.08, 128.81 114.28, 127.15 116.37 C125.49 118.46, 123.7 120.47, 121.82 122.37 C119.94 124.26, 117.93 126.05, 115.85 127.72 C113.77 129.39, 111.58 130.95, 109.33 132.37 C107.07 133.8, 104.72 135.1, 102.32 136.26 C99.92 137.42, 97.44 138.45, 94.93 139.34 C92.41 140.22, 89.84 140.97, 87.24 141.56 C84.64 142.16, 82 142.61, 79.35 142.91 C76.7 143.21, 74.02 143.36, 71.36 143.36 C68.7 143.36, 66.02 143.21, 63.37 142.91 C60.72 142.61, 58.08 142.16, 55.48 141.56 C52.88 140.97, 50.31 140.22, 47.79 139.34 C45.28 138.45, 42.8 137.42, 40.4 136.26 C38 135.1, 35.65 133.8, 33.39 132.37 C31.14 130.95, 28.95 129.39, 26.87 127.72 C24.79 126.05, 22.78 124.26, 20.9 122.37 C19.02 120.47, 17.23 118.46, 15.57 116.37 C13.91 114.28, 12.35 112.08, 10.94 109.82 C9.52 107.55, 8.22 105.19, 7.07 102.78 C5.91 100.37, 4.88 97.88, 4 95.35 C3.12 92.83, 2.38 90.24, 1.79 87.63 C1.2 85.02, 0.75 82.36, 0.45 79.71 C0.15 77.05, 0 74.36, 0 71.68 C0 69, 0.15 66.31, 0.45 63.65 C0.75 61, 1.2 58.34, 1.79 55.73 C2.38 53.12, 3.12 50.53, 4 48.01 C4.88 45.48, 5.91 42.99, 7.07 40.58 C8.22 38.17, 9.52 35.81, 10.94 33.54 C12.35 31.28, 13.91 29.08, 15.57 26.99 C17.23 24.9, 19.02 22.89, 20.9 20.99 C22.78 19.1, 24.79 17.31, 26.87 15.64 C28.95 13.97, 31.14 12.41, 33.39 10.99 C35.65 9.56, 38 8.26, 40.4 7.1 C42.8 5.94, 45.28 4.91, 47.79 4.02 C50.31 3.14, 52.88 2.39, 55.48 1.8 C58.08 1.2, 60.72 0.75, 63.37 0.45 C66.02 0.15, 68.7 0, 71.36 0 C74.02 0, 76.7 0.15, 79.35 0.45 C82 0.75, 84.64 1.2, 87.24 1.8 C89.84 2.39, 92.41 3.14, 94.93 4.02 C97.44 4.91, 99.92 5.94, 102.32 7.1 C104.72 8.26, 107.07 9.56, 109.33 10.99 C111.58 12.41, 113.77 13.97, 115.85 15.64 C117.93 17.31, 119.94 19.1, 121.82 20.99 C123.7 22.89, 125.49 24.9, 127.15 26.99 C128.81 29.08, 130.37 31.28, 131.78 33.54 C133.2 35.81, 134.5 38.17, 135.65 40.58 C136.81 42.99, 137.84 45.48, 138.72 48.01 C139.6 50.53, 140.34 53.12, 140.93 55.73 C141.52 58.34, 141.97 61, 142.27 63.65 C142.57 66.31, 142.65 70.34, 142.72 71.68 C142.79 73.02, 142.79 70.34, 142.72 71.68" stroke="#2f9e44" stroke-width="2" fill="none"></path></g><g stroke-linecap="round" transform="translate(896.9779656995047 212.82796593646026) rotate(0 89.92001342773438 86.7199935913086)"><path d="M179.84 86.72 C179.84 89.74, 179.67 92.78, 179.35 95.78 C179.02 98.79, 178.53 101.79, 177.88 104.75 C177.22 107.71, 176.41 110.64, 175.44 113.52 C174.47 116.39, 173.34 119.23, 172.07 121.99 C170.79 124.75, 169.36 127.46, 167.79 130.08 C166.23 132.7, 164.51 135.25, 162.67 137.69 C160.83 140.14, 158.84 142.5, 156.74 144.75 C154.65 146.99, 152.42 149.14, 150.09 151.17 C147.76 153.19, 145.31 155.1, 142.77 156.88 C140.24 158.65, 137.59 160.31, 134.88 161.82 C132.17 163.33, 129.36 164.71, 126.49 165.94 C123.63 167.17, 120.69 168.26, 117.71 169.2 C114.73 170.13, 111.68 170.92, 108.62 171.54 C105.55 172.17, 102.44 172.65, 99.32 172.96 C96.2 173.28, 93.05 173.44, 89.92 173.44 C86.79 173.44, 83.64 173.28, 80.52 172.96 C77.4 172.65, 74.29 172.17, 71.22 171.54 C68.16 170.92, 65.11 170.13, 62.13 169.2 C59.15 168.26, 56.21 167.17, 53.35 165.94 C50.48 164.71, 47.67 163.33, 44.96 161.82 C42.25 160.31, 39.6 158.65, 37.07 156.88 C34.53 155.1, 32.08 153.19, 29.75 151.17 C27.42 149.14, 25.19 146.99, 23.1 144.75 C21 142.5, 19.01 140.14, 17.17 137.69 C15.33 135.25, 13.61 132.7, 12.05 130.08 C10.48 127.46, 9.05 124.75, 7.77 121.99 C6.5 119.23, 5.37 116.39, 4.4 113.52 C3.43 110.64, 2.62 107.71, 1.96 104.75 C1.31 101.79, 0.82 98.79, 0.49 95.78 C0.17 92.78, 0 89.74, 0 86.72 C0 83.7, 0.17 80.66, 0.49 77.66 C0.82 74.65, 1.31 71.65, 1.96 68.69 C2.62 65.73, 3.43 62.8, 4.4 59.92 C5.37 57.05, 6.5 54.21, 7.77 51.45 C9.05 48.69, 10.48 45.98, 12.05 43.36 C13.61 40.74, 15.33 38.19, 17.17 35.75 C19.01 33.3, 21 30.94, 23.1 28.69 C25.19 26.45, 27.42 24.3, 29.75 22.27 C32.08 20.25, 34.53 18.34, 37.07 16.56 C39.6 14.79, 42.25 13.13, 44.96 11.62 C47.67 10.11, 50.48 8.73, 53.35 7.5 C56.21 6.27, 59.15 5.18, 62.13 4.24 C65.11 3.31, 68.16 2.52, 71.22 1.9 C74.29 1.27, 77.4 0.79, 80.52 0.48 C83.64 0.16, 86.79 0, 89.92 0 C93.05 0, 96.2 0.16, 99.32 0.48 C102.44 0.79, 105.55 1.27, 108.62 1.9 C111.68 2.52, 114.73 3.31, 117.71 4.24 C120.69 5.18, 123.63 6.27, 126.49 7.5 C129.36 8.73, 132.17 10.11, 134.88 11.62 C137.59 13.13, 140.24 14.79, 142.77 16.56 C145.31 18.34, 147.76 20.25, 150.09 22.27 C152.42 24.3, 154.65 26.45, 156.74 28.69 C158.84 30.94, 160.83 33.3, 162.67 35.75 C164.51 38.19, 166.23 40.74, 167.79 43.36 C169.36 45.98, 170.79 48.69, 172.07 51.45 C173.34 54.21, 174.47 57.05, 175.44 59.92 C176.41 62.8, 177.22 65.73, 177.88 68.69 C178.53 71.65, 179.02 74.65, 179.35 77.66 C179.67 80.66, 179.76 85.21, 179.84 86.72 C179.92 88.23, 179.92 85.21, 179.84 86.72" stroke="none" stroke-width="0" fill="#b2f2bb"></path><path d="M179.84 86.72 C179.84 89.74, 179.67 92.78, 179.35 95.78 C179.02 98.79, 178.53 101.79, 177.88 104.75 C177.22 107.71, 176.41 110.64, 175.44 113.52 C174.47 116.39, 173.34 119.23, 172.07 121.99 C170.79 124.75, 169.36 127.46, 167.79 130.08 C166.23 132.7, 164.51 135.25, 162.67 137.69 C160.83 140.14, 158.84 142.5, 156.74 144.75 C154.65 146.99, 152.42 149.14, 150.09 151.17 C147.76 153.19, 145.31 155.1, 142.77 156.88 C140.24 158.65, 137.59 160.31, 134.88 161.82 C132.17 163.33, 129.36 164.71, 126.49 165.94 C123.63 167.17, 120.69 168.26, 117.71 169.2 C114.73 170.13, 111.68 170.92, 108.62 171.54 C105.55 172.17, 102.44 172.65, 99.32 172.96 C96.2 173.28, 93.05 173.44, 89.92 173.44 C86.79 173.44, 83.64 173.28, 80.52 172.96 C77.4 172.65, 74.29 172.17, 71.22 171.54 C68.16 170.92, 65.11 170.13, 62.13 169.2 C59.15 168.26, 56.21 167.17, 53.35 165.94 C50.48 164.71, 47.67 163.33, 44.96 161.82 C42.25 160.31, 39.6 158.65, 37.07 156.88 C34.53 155.1, 32.08 153.19, 29.75 151.17 C27.42 149.14, 25.19 146.99, 23.1 144.75 C21 142.5, 19.01 140.14, 17.17 137.69 C15.33 135.25, 13.61 132.7, 12.05 130.08 C10.48 127.46, 9.05 124.75, 7.77 121.99 C6.5 119.23, 5.37 116.39, 4.4 113.52 C3.43 110.64, 2.62 107.71, 1.96 104.75 C1.31 101.79, 0.82 98.79, 0.49 95.78 C0.17 92.78, 0 89.74, 0 86.72 C0 83.7, 0.17 80.66, 0.49 77.66 C0.82 74.65, 1.31 71.65, 1.96 68.69 C2.62 65.73, 3.43 62.8, 4.4 59.92 C5.37 57.05, 6.5 54.21, 7.77 51.45 C9.05 48.69, 10.48 45.98, 12.05 43.36 C13.61 40.74, 15.33 38.19, 17.17 35.75 C19.01 33.3, 21 30.94, 23.1 28.69 C25.19 26.45, 27.42 24.3, 29.75 22.27 C32.08 20.25, 34.53 18.34, 37.07 16.56 C39.6 14.79, 42.25 13.13, 44.96 11.62 C47.67 10.11, 50.48 8.73, 53.35 7.5 C56.21 6.27, 59.15 5.18, 62.13 4.24 C65.11 3.31, 68.16 2.52, 71.22 1.9 C74.29 1.27, 77.4 0.79, 80.52 0.48 C83.64 0.16, 86.79 0, 89.92 0 C93.05 0, 96.2 0.16, 99.32 0.48 C102.44 0.79, 105.55 1.27, 108.62 1.9 C111.68 2.52, 114.73 3.31, 117.71 4.24 C120.69 5.18, 123.63 6.27, 126.49 7.5 C129.36 8.73, 132.17 10.11, 134.88 11.62 C137.59 13.13, 140.24 14.79, 142.77 16.56 C145.31 18.34, 147.76 20.25, 150.09 22.27 C152.42 24.3, 154.65 26.45, 156.74 28.69 C158.84 30.94, 160.83 33.3, 162.67 35.75 C164.51 38.19, 166.23 40.74, 167.79 43.36 C169.36 45.98, 170.79 48.69, 172.07 51.45 C173.34 54.21, 174.47 57.05, 175.44 59.92 C176.41 62.8, 177.22 65.73, 177.88 68.69 C178.53 71.65, 179.02 74.65, 179.35 77.66 C179.67 80.66, 179.76 85.21, 179.84 86.72 C179.92 88.23, 179.92 85.21, 179.84 86.72" stroke="#2f9e44" stroke-width="2" fill="none"></path></g><g stroke-linecap="round" transform="translate(915.7378839123953 228.86795159319854) rotate(0 71.36004638671875 71.67997741699219)"><path d="M142.72 71.68 C142.72 74.36, 142.57 77.05, 142.27 79.71 C141.97 82.36, 141.52 85.02, 140.93 87.63 C140.34 90.24, 139.6 92.83, 138.72 95.35 C137.84 97.88, 136.81 100.37, 135.65 102.78 C134.5 105.19, 133.2 107.55, 131.78 109.82 C130.37 112.08, 128.81 114.28, 127.15 116.37 C125.49 118.46, 123.7 120.47, 121.82 122.37 C119.94 124.26, 117.93 126.05, 115.85 127.72 C113.77 129.39, 111.58 130.95, 109.33 132.37 C107.07 133.8, 104.72 135.1, 102.32 136.26 C99.92 137.42, 97.44 138.45, 94.93 139.34 C92.41 140.22, 89.84 140.97, 87.24 141.56 C84.64 142.16, 82 142.61, 79.35 142.91 C76.7 143.21, 74.02 143.36, 71.36 143.36 C68.7 143.36, 66.02 143.21, 63.37 142.91 C60.72 142.61, 58.08 142.16, 55.48 141.56 C52.88 140.97, 50.31 140.22, 47.79 139.34 C45.28 138.45, 42.8 137.42, 40.4 136.26 C38 135.1, 35.65 133.8, 33.39 132.37 C31.14 130.95, 28.95 129.39, 26.87 127.72 C24.79 126.05, 22.78 124.26, 20.9 122.37 C19.02 120.47, 17.23 118.46, 15.57 116.37 C13.91 114.28, 12.35 112.08, 10.94 109.82 C9.52 107.55, 8.22 105.19, 7.07 102.78 C5.91 100.37, 4.88 97.88, 4 95.35 C3.12 92.83, 2.38 90.24, 1.79 87.63 C1.2 85.02, 0.75 82.36, 0.45 79.71 C0.15 77.05, 0 74.36, 0 71.68 C0 69, 0.15 66.31, 0.45 63.65 C0.75 61, 1.2 58.34, 1.79 55.73 C2.38 53.12, 3.12 50.53, 4 48.01 C4.88 45.48, 5.91 42.99, 7.07 40.58 C8.22 38.17, 9.52 35.81, 10.94 33.54 C12.35 31.28, 13.91 29.08, 15.57 26.99 C17.23 24.9, 19.02 22.89, 20.9 20.99 C22.78 19.1, 24.79 17.31, 26.87 15.64 C28.95 13.97, 31.14 12.41, 33.39 10.99 C35.65 9.56, 38 8.26, 40.4 7.1 C42.8 5.94, 45.28 4.91, 47.79 4.02 C50.31 3.14, 52.88 2.39, 55.48 1.8 C58.08 1.2, 60.72 0.75, 63.37 0.45 C66.02 0.15, 68.7 0, 71.36 0 C74.02 0, 76.7 0.15, 79.35 0.45 C82 0.75, 84.64 1.2, 87.24 1.8 C89.84 2.39, 92.41 3.14, 94.93 4.02 C97.44 4.91, 99.92 5.94, 102.32 7.1 C104.72 8.26, 107.07 9.56, 109.33 10.99 C111.58 12.41, 113.77 13.97, 115.85 15.64 C117.93 17.31, 119.94 19.1, 121.82 20.99 C123.7 22.89, 125.49 24.9, 127.15 26.99 C128.81 29.08, 130.37 31.28, 131.78 33.54 C133.2 35.81, 134.5 38.17, 135.65 40.58 C136.81 42.99, 137.84 45.48, 138.72 48.01 C139.6 50.53, 140.34 53.12, 140.93 55.73 C141.52 58.34, 141.97 61, 142.27 63.65 C142.57 66.31, 142.65 70.34, 142.72 71.68 C142.79 73.02, 142.79 70.34, 142.72 71.68" stroke="none" stroke-width="0" fill="#ffffff"></path><path d="M142.72 71.68 C142.72 74.36, 142.57 77.05, 142.27 79.71 C141.97 82.36, 141.52 85.02, 140.93 87.63 C140.34 90.24, 139.6 92.83, 138.72 95.35 C137.84 97.88, 136.81 100.37, 135.65 102.78 C134.5 105.19, 133.2 107.55, 131.78 109.82 C130.37 112.08, 128.81 114.28, 127.15 116.37 C125.49 118.46, 123.7 120.47, 121.82 122.37 C119.94 124.26, 117.93 126.05, 115.85 127.72 C113.77 129.39, 111.58 130.95, 109.33 132.37 C107.07 133.8, 104.72 135.1, 102.32 136.26 C99.92 137.42, 97.44 138.45, 94.93 139.34 C92.41 140.22, 89.84 140.97, 87.24 141.56 C84.64 142.16, 82 142.61, 79.35 142.91 C76.7 143.21, 74.02 143.36, 71.36 143.36 C68.7 143.36, 66.02 143.21, 63.37 142.91 C60.72 142.61, 58.08 142.16, 55.48 141.56 C52.88 140.97, 50.31 140.22, 47.79 139.34 C45.28 138.45, 42.8 137.42, 40.4 136.26 C38 135.1, 35.65 133.8, 33.39 132.37 C31.14 130.95, 28.95 129.39, 26.87 127.72 C24.79 126.05, 22.78 124.26, 20.9 122.37 C19.02 120.47, 17.23 118.46, 15.57 116.37 C13.91 114.28, 12.35 112.08, 10.94 109.82 C9.52 107.55, 8.22 105.19, 7.07 102.78 C5.91 100.37, 4.88 97.88, 4 95.35 C3.12 92.83, 2.38 90.24, 1.79 87.63 C1.2 85.02, 0.75 82.36, 0.45 79.71 C0.15 77.05, 0 74.36, 0 71.68 C0 69, 0.15 66.31, 0.45 63.65 C0.75 61, 1.2 58.34, 1.79 55.73 C2.38 53.12, 3.12 50.53, 4 48.01 C4.88 45.48, 5.91 42.99, 7.07 40.58 C8.22 38.17, 9.52 35.81, 10.94 33.54 C12.35 31.28, 13.91 29.08, 15.57 26.99 C17.23 24.9, 19.02 22.89, 20.9 20.99 C22.78 19.1, 24.79 17.31, 26.87 15.64 C28.95 13.97, 31.14 12.41, 33.39 10.99 C35.65 9.56, 38 8.26, 40.4 7.1 C42.8 5.94, 45.28 4.91, 47.79 4.02 C50.31 3.14, 52.88 2.39, 55.48 1.8 C58.08 1.2, 60.72 0.75, 63.37 0.45 C66.02 0.15, 68.7 0, 71.36 0 C74.02 0, 76.7 0.15, 79.35 0.45 C82 0.75, 84.64 1.2, 87.24 1.8 C89.84 2.39, 92.41 3.14, 94.93 4.02 C97.44 4.91, 99.92 5.94, 102.32 7.1 C104.72 8.26, 107.07 9.56, 109.33 10.99 C111.58 12.41, 113.77 13.97, 115.85 15.64 C117.93 17.31, 119.94 19.1, 121.82 20.99 C123.7 22.89, 125.49 24.9, 127.15 26.99 C128.81 29.08, 130.37 31.28, 131.78 33.54 C133.2 35.81, 134.5 38.17, 135.65 40.58 C136.81 42.99, 137.84 45.48, 138.72 48.01 C139.6 50.53, 140.34 53.12, 140.93 55.73 C141.52 58.34, 141.97 61, 142.27 63.65 C142.57 66.31, 142.65 70.34, 142.72 71.68 C142.79 73.02, 142.79 70.34, 142.72 71.68" stroke="#2f9e44" stroke-width="2" fill="none"></path></g><g transform="translate(1171.732936758891 10) rotate(0 70 16.099999999999998)"><text x="0" y="25.760546874999996" font-family="Helvetica, Segoe UI Emoji" font-size="28px" fill="#1e1e1e" text-anchor="start" style="white-space: pre;" direction="ltr" dominant-baseline="alphabetic">其他虚拟机</text></g><g transform="translate(445.3674117886935 12.673486338811188) rotate(0 66.9306640625 16.099999999999998)"><text x="0" y="25.760546874999996" font-family="Helvetica, Segoe UI Emoji" font-size="28px" fill="#1e1e1e" text-anchor="start" style="white-space: pre;" direction="ltr" dominant-baseline="alphabetic">Root Linux</text></g><g stroke-linecap="round" transform="translate(931.4580987561453 186.74792595843292) rotate(0 14.719940185546875 7.040008544921875)"><path d="M0 0 L29.44 0 L29.44 14.08 L0 14.08" stroke="none" stroke-width="0" fill="#a5d8ff"></path><path d="M0 0 C10.75 0, 21.5 0, 29.44 0 M0 0 C8.06 0, 16.12 0, 29.44 0 M29.44 0 C29.44 5.19, 29.44 10.38, 29.44 14.08 M29.44 0 C29.44 3.44, 29.44 6.88, 29.44 14.08 M29.44 14.08 C21.21 14.08, 12.98 14.08, 0 14.08 M29.44 14.08 C21.53 14.08, 13.62 14.08, 0 14.08 M0 14.08 C0 8.51, 0 2.94, 0 0 M0 14.08 C0 11.24, 0 8.41, 0 0" stroke="#1971c2" stroke-width="2" fill="none"></path></g><g stroke-linecap="round"><g transform="translate(960.2973776067035 182.26793023089385) rotate(0 15.767560796792736 -16.639961242675724)"><path d="M0 0 C9.97 -10.52, 19.94 -21.04, 31.54 -33.28 M0 0 C6.76 -7.14, 13.53 -14.28, 31.54 -33.28" stroke="#1971c2" stroke-width="2" fill="none"></path></g><g transform="translate(960.2973776067035 182.26793023089385) rotate(0 15.767560796792736 -16.639961242675724)"><path d="M22.41 -12.25 C25.29 -18.9, 28.18 -25.54, 31.54 -33.28 M22.41 -12.25 C24.37 -16.76, 26.32 -21.27, 31.54 -33.28" stroke="#1971c2" stroke-width="2" fill="none"></path></g><g transform="translate(960.2973776067035 182.26793023089385) rotate(0 15.767560796792736 -16.639961242675724)"><path d="M11.03 -23.04 C17.51 -26.27, 23.99 -29.51, 31.54 -33.28 M11.03 -23.04 C15.43 -25.23, 19.83 -27.43, 31.54 -33.28" stroke="#1971c2" stroke-width="2" fill="none"></path></g></g><mask></mask><g stroke-linecap="round" transform="translate(932.8179620373953 75.50795098284698) rotate(0 53.44000244140625 23.680007934570312)"><path d="M11.84 0 C33.18 0, 54.51 0, 95.04 0 M11.84 0 C45 0, 78.16 0, 95.04 0 M95.04 0 C102.93 0, 106.88 3.95, 106.88 11.84 M95.04 0 C102.93 0, 106.88 3.95, 106.88 11.84 M106.88 11.84 C106.88 19.11, 106.88 26.37, 106.88 35.52 M106.88 11.84 C106.88 21.25, 106.88 30.67, 106.88 35.52 M106.88 35.52 C106.88 43.41, 102.93 47.36, 95.04 47.36 M106.88 35.52 C106.88 43.41, 102.93 47.36, 95.04 47.36 M95.04 47.36 C62.2 47.36, 29.37 47.36, 11.84 47.36 M95.04 47.36 C76.82 47.36, 58.61 47.36, 11.84 47.36 M11.84 47.36 C3.95 47.36, 0 43.41, 0 35.52 M11.84 47.36 C3.95 47.36, 0 43.41, 0 35.52 M0 35.52 C0 27.58, 0 19.64, 0 11.84 M0 35.52 C0 28.31, 0 21.1, 0 11.84 M0 11.84 C0 3.95, 3.95 0, 11.84 0 M0 11.84 C0 3.95, 3.95 0, 11.84 0" stroke="#1971c2" stroke-width="1" fill="none"></path></g><g stroke-linecap="round" transform="translate(940.4179986584891 84.34796257952667) rotate(0 53.44000244140625 23.680007934570312)"><path d="M11.84 0 C36.99 0, 62.14 0, 95.04 0 C102.93 0, 106.88 3.95, 106.88 11.84 C106.88 20.6, 106.88 29.35, 106.88 35.52 C106.88 43.41, 102.93 47.36, 95.04 47.36 C65.57 47.36, 36.11 47.36, 11.84 47.36 C3.95 47.36, 0 43.41, 0 35.52 C0 26.82, 0 18.11, 0 11.84 C0 3.95, 3.95 0, 11.84 0" stroke="none" stroke-width="0" fill="#ffffff"></path><path d="M11.84 0 C31.92 0, 52 0, 95.04 0 M11.84 0 C35.68 0, 59.52 0, 95.04 0 M95.04 0 C102.93 0, 106.88 3.95, 106.88 11.84 M95.04 0 C102.93 0, 106.88 3.95, 106.88 11.84 M106.88 11.84 C106.88 18.46, 106.88 25.08, 106.88 35.52 M106.88 11.84 C106.88 18.2, 106.88 24.56, 106.88 35.52 M106.88 35.52 C106.88 43.41, 102.93 47.36, 95.04 47.36 M106.88 35.52 C106.88 43.41, 102.93 47.36, 95.04 47.36 M95.04 47.36 C62.95 47.36, 30.87 47.36, 11.84 47.36 M95.04 47.36 C64.21 47.36, 33.39 47.36, 11.84 47.36 M11.84 47.36 C3.95 47.36, 0 43.41, 0 35.52 M11.84 47.36 C3.95 47.36, 0 43.41, 0 35.52 M0 35.52 C0 29.07, 0 22.62, 0 11.84 M0 35.52 C0 30.62, 0 25.73, 0 11.84 M0 11.84 C0 3.95, 3.95 0, 11.84 0 M0 11.84 C0 3.95, 3.95 0, 11.84 0" stroke="#1971c2" stroke-width="1" fill="none"></path></g><g stroke-linecap="round" transform="translate(950.5379937756766 94.58795281390167) rotate(0 53.44000244140625 23.680007934570312)"><path d="M11.84 0 C39.7 0, 67.55 0, 95.04 0 C102.93 0, 106.88 3.95, 106.88 11.84 C106.88 19.06, 106.88 26.28, 106.88 35.52 C106.88 43.41, 102.93 47.36, 95.04 47.36 C76.7 47.36, 58.36 47.36, 11.84 47.36 C3.95 47.36, 0 43.41, 0 35.52 C0 26.63, 0 17.74, 0 11.84 C0 3.95, 3.95 0, 11.84 0" stroke="none" stroke-width="0" fill="#ffffff"></path><path d="M11.84 0 C44.56 0, 77.28 0, 95.04 0 M11.84 0 C34.31 0, 56.78 0, 95.04 0 M95.04 0 C102.93 0, 106.88 3.95, 106.88 11.84 M95.04 0 C102.93 0, 106.88 3.95, 106.88 11.84 M106.88 11.84 C106.88 19.25, 106.88 26.65, 106.88 35.52 M106.88 11.84 C106.88 21.17, 106.88 30.5, 106.88 35.52 M106.88 35.52 C106.88 43.41, 102.93 47.36, 95.04 47.36 M106.88 35.52 C106.88 43.41, 102.93 47.36, 95.04 47.36 M95.04 47.36 C67.19 47.36, 39.34 47.36, 11.84 47.36 M95.04 47.36 C66.61 47.36, 38.19 47.36, 11.84 47.36 M11.84 47.36 C3.95 47.36, 0 43.41, 0 35.52 M11.84 47.36 C3.95 47.36, 0 43.41, 0 35.52 M0 35.52 C0 27, 0 18.49, 0 11.84 M0 35.52 C0 26.98, 0 18.44, 0 11.84 M0 11.84 C0 3.95, 3.95 0, 11.84 0 M0 11.84 C0 3.95, 3.95 0, 11.84 0" stroke="#1971c2" stroke-width="1" fill="none"></path></g><g transform="translate(963.978026734661 106.76796074847198) rotate(0 39.999969482421875 11.5)"><text x="39.999969482421875" y="18.400390625" font-family="Helvetica, Segoe UI Emoji" font-size="20px" fill="#1971c2" text-anchor="middle" style="white-space: pre;" direction="ltr" dominant-baseline="alphabetic">共享内存</text></g><g transform="translate(947.5779718030203 288.3879192445655) rotate(0 42.626953125 11.5)"><text x="0" y="18.400390625" font-family="Helvetica, Segoe UI Emoji" font-size="20px" fill="#2f9e44" text-anchor="start" style="white-space: pre;" direction="ltr" dominant-baseline="alphabetic">Virtqueue</text></g><g stroke-linecap="round"><g transform="translate(1108.5921644010723 205.33942253194135) rotate(359.41840408384326 118.65822841250622 0.7430397788495142)"><path d="M0 0 C39.55 0.25, 197.76 1.24, 237.32 1.49" stroke="#1e1e1e" stroke-width="2.5" fill="none" stroke-dasharray="8 10"></path></g></g><mask></mask><g transform="translate(1363.6942404698284 156.39767456054688) rotate(0 30 11.5)"><text x="0" y="18.400390625" font-family="Helvetica, Segoe UI Emoji" font-size="20px" fill="#1e1e1e" text-anchor="start" style="white-space: pre;" direction="ltr" dominant-baseline="alphabetic">用户态</text></g><g transform="translate(1359.1319464634807 234.25160217285156) rotate(0 30 11.5)"><text x="0" y="18.400390625" font-family="Helvetica, Segoe UI Emoji" font-size="20px" fill="#1e1e1e" text-anchor="start" style="white-space: pre;" direction="ltr" dominant-baseline="alphabetic">内核态</text></g><g stroke-linecap="round"><g transform="translate(225.8957831411583 291.39546039162053) rotate(0 291.7103266393639 1.0493177217242646)"><path d="M0 0 C180.26 0.65, 360.53 1.3, 583.42 2.1" stroke="#1e1e1e" stroke-width="2.5" fill="none" stroke-dasharray="8 10"></path></g></g><mask></mask><g stroke-linecap="round" transform="translate(1151.7366277080444 108.76862486753896) rotate(0 76.81816101074219 28.18185806274414)"><path d="M0 0 C53.49 0, 106.99 0, 153.64 0 M0 0 C48.12 0, 96.23 0, 153.64 0 M153.64 0 C153.64 13.58, 153.64 27.15, 153.64 56.36 M153.64 0 C153.64 21.42, 153.64 42.83, 153.64 56.36 M153.64 56.36 C94.76 56.36, 35.88 56.36, 0 56.36 M153.64 56.36 C108.42 56.36, 63.2 56.36, 0 56.36 M0 56.36 C0 34.13, 0 11.9, 0 0 M0 56.36 C0 35.35, 0 14.34, 0 0" stroke="#1e1e1e" stroke-width="2" fill="none"></path></g><g transform="translate(1199.7618199687865 120.8504829302831) rotate(0 28.79296875 16.099999999999994)"><text x="28.79296875" y="25.760546874999996" font-family="Helvetica, Segoe UI Emoji" font-size="28px" fill="#1e1e1e" text-anchor="middle" style="white-space: pre;" direction="ltr" dominant-baseline="alphabetic">shell</text></g><g stroke-linecap="round" transform="translate(1147.9273800099418 367.6648449385141) rotate(0 82.29432242257258 45.79434694562639)"><path d="M0 0 C60.74 0, 121.48 0, 164.59 0 M0 0 C62.86 0, 125.72 0, 164.59 0 M164.59 0 C164.59 34.09, 164.59 68.17, 164.59 91.59 M164.59 0 C164.59 23.47, 164.59 46.94, 164.59 91.59 M164.59 91.59 C108.93 91.59, 53.27 91.59, 0 91.59 M164.59 91.59 C102.2 91.59, 39.8 91.59, 0 91.59 M0 91.59 C0 70.25, 0 48.91, 0 0 M0 91.59 C0 57.7, 0 23.82, 0 0" stroke="#1e1e1e" stroke-width="2" fill="none"></path></g><g transform="translate(1153.9668196200143 381.2591918841405) rotate(0 76.2548828125 32.19999999999999)"><text x="76.2548828125" y="25.760546874999996" font-family="Helvetica, Segoe UI Emoji" font-size="28px" fill="#1e1e1e" text-anchor="middle" style="white-space: pre;" direction="ltr" dominant-baseline="alphabetic">Virtio-</text><text x="76.2548828125" y="57.96054687499999" font-family="Helvetica, Segoe UI Emoji" font-size="28px" fill="#1e1e1e" text-anchor="middle" style="white-space: pre;" direction="ltr" dominant-baseline="alphabetic">console驱动</text></g><g stroke-linecap="round" transform="translate(1150.7413840905779 243.4656261885142) rotate(0 79.54544067382812 29.227279663085938)"><path d="M0 0 C61.9 0, 123.8 0, 159.09 0 M0 0 C45.86 0, 91.72 0, 159.09 0 M159.09 0 C159.09 17.83, 159.09 35.65, 159.09 58.45 M159.09 0 C159.09 23.01, 159.09 46.03, 159.09 58.45 M159.09 58.45 C120.85 58.45, 82.61 58.45, 0 58.45 M159.09 58.45 C117.54 58.45, 75.98 58.45, 0 58.45 M0 58.45 C0 43.31, 0 28.17, 0 0 M0 58.45 C0 39.54, 0 20.63, 0 0" stroke="#1e1e1e" stroke-width="2" fill="none"></path></g><g transform="translate(1161.8452354089372 256.5929058516001) rotate(0 68.44158935546875 16.099999999999994)"><text x="68.44158935546875" y="25.760546874999996" font-family="Helvetica, Segoe UI Emoji" font-size="28px" fill="#1e1e1e" text-anchor="middle" style="white-space: pre;" direction="ltr" dominant-baseline="alphabetic">TTY子系统</text></g><g stroke-linecap="round"><g transform="translate(1202.6307580944706 168.61719815693164) rotate(0 -0.4761614118303896 36.19046892438615)"><path d="M0 0 C-0.16 12.06, -0.79 60.32, -0.95 72.38 M0 0 C-0.16 12.06, -0.79 60.32, -0.95 72.38" stroke="#2f9e44" stroke-width="2" fill="none"></path></g><g transform="translate(1202.6307580944706 168.61719815693164) rotate(0 -0.4761614118303896 36.19046892438615)"><path d="M-0.95 72.38 L-7.11 58.7 L5.57 58.87 L-0.95 72.38" stroke="none" stroke-width="0" fill="#2f9e44" fill-rule="evenodd"></path><path d="M-0.95 72.38 C-2.28 69.44, -3.6 66.49, -7.11 58.7 M-0.95 72.38 C-2.6 68.73, -4.24 65.07, -7.11 58.7 M-7.11 58.7 C-3.56 58.75, 0 58.8, 5.57 58.87 M-7.11 58.7 C-3.14 58.76, 0.83 58.81, 5.57 58.87 M5.57 58.87 C3.8 62.53, 2.04 66.19, -0.95 72.38 M5.57 58.87 C3.06 64.06, 0.56 69.24, -0.95 72.38 M-0.95 72.38 C-0.95 72.38, -0.95 72.38, -0.95 72.38 M-0.95 72.38 C-0.95 72.38, -0.95 72.38, -0.95 72.38" stroke="#2f9e44" stroke-width="2" fill="none"></path></g></g><mask></mask><g stroke-linecap="round"><g transform="translate(1201.8689870286223 309.5695863754025) rotate(0 0.19048200334827925 28.095223563058028)"><path d="M0 0 C0.06 9.37, 0.32 46.83, 0.38 56.19 M0 0 C0.06 9.37, 0.32 46.83, 0.38 56.19" stroke="#2f9e44" stroke-width="2" fill="none"></path></g><g transform="translate(1201.8689870286223 309.5695863754025) rotate(0 0.19048200334827925 28.095223563058028)"><path d="M0.38 56.19 L-6.05 42.64 L6.63 42.55 L0.38 56.19" stroke="none" stroke-width="0" fill="#2f9e44" fill-rule="evenodd"></path><path d="M0.38 56.19 C-1.06 53.14, -2.51 50.1, -6.05 42.64 M0.38 56.19 C-1.92 51.35, -4.22 46.5, -6.05 42.64 M-6.05 42.64 C-2.55 42.62, 0.95 42.59, 6.63 42.55 M-6.05 42.64 C-1.38 42.61, 3.29 42.58, 6.63 42.55 M6.63 42.55 C4.79 46.57, 2.95 50.58, 0.38 56.19 M6.63 42.55 C4.86 46.4, 3.1 50.25, 0.38 56.19 M0.38 56.19 C0.38 56.19, 0.38 56.19, 0.38 56.19 M0.38 56.19 C0.38 56.19, 0.38 56.19, 0.38 56.19" stroke="#2f9e44" stroke-width="2" fill="none"></path></g></g><mask></mask><g stroke-linecap="round"><g transform="translate(1142.7259554996047 386.7124217199896) rotate(0 -36.66665213448664 -25.714285714285722)"><path d="M0 0 C-12.22 -8.57, -61.11 -42.86, -73.33 -51.43 M0 0 C-12.22 -8.57, -61.11 -42.86, -73.33 -51.43" stroke="#2f9e44" stroke-width="2" fill="none"></path></g><g transform="translate(1142.7259554996047 386.7124217199896) rotate(0 -36.66665213448664 -25.714285714285722)"><path d="M-73.33 -51.43 L-58.56 -48.81 L-65.84 -38.43 L-73.33 -51.43" stroke="none" stroke-width="0" fill="#2f9e44" fill-rule="evenodd"></path><path d="M-73.33 -51.43 C-69.92 -50.82, -66.5 -50.22, -58.56 -48.81 M-73.33 -51.43 C-69.12 -50.68, -64.91 -49.94, -58.56 -48.81 M-58.56 -48.81 C-60.63 -45.87, -62.69 -42.92, -65.84 -38.43 M-58.56 -48.81 C-60.19 -46.49, -61.83 -44.16, -65.84 -38.43 M-65.84 -38.43 C-67.54 -41.38, -69.24 -44.33, -73.33 -51.43 M-65.84 -38.43 C-67.44 -41.2, -69.03 -43.97, -73.33 -51.43 M-73.33 -51.43 C-73.33 -51.43, -73.33 -51.43, -73.33 -51.43 M-73.33 -51.43 C-73.33 -51.43, -73.33 -51.43, -73.33 -51.43" stroke="#2f9e44" stroke-width="2" fill="none"></path></g></g><mask></mask><g stroke-linecap="round" transform="translate(572.581693360758 147.9505111452129) rotate(0 102.00003487723211 42.809513636997735)"><path d="M0 0 L204 0 L204 85.62 L0 85.62" stroke="none" stroke-width="0" fill="#ffc9c9"></path><path d="M0 0 C64.38 0, 128.75 0, 204 0 M0 0 C68.51 0, 137.02 0, 204 0 M204 0 C204 20.32, 204 40.64, 204 85.62 M204 0 C204 17.47, 204 34.95, 204 85.62 M204 85.62 C160.6 85.62, 117.2 85.62, 0 85.62 M204 85.62 C124.78 85.62, 45.56 85.62, 0 85.62 M0 85.62 C0 66.38, 0 47.14, 0 0 M0 85.62 C0 57.23, 0 28.83, 0 0" stroke="#1e1e1e" stroke-width="2" fill="none"></path></g><g transform="translate(587.6832907379901 158.56002478221063) rotate(0 86.8984375 32.19999999999999)"><text x="86.8984375" y="25.760546874999996" font-family="Helvetica, Segoe UI Emoji" font-size="28px" fill="#1e1e1e" text-anchor="middle" style="white-space: pre;" direction="ltr" dominant-baseline="alphabetic">Virtio Console</text><text x="86.8984375" y="57.96054687499999" font-family="Helvetica, Segoe UI Emoji" font-size="28px" fill="#1e1e1e" text-anchor="middle" style="white-space: pre;" direction="ltr" dominant-baseline="alphabetic">设备</text></g><g stroke-linecap="round" transform="translate(256.96407108275184 149.04576958550308) rotate(0 102.00003487723211 42.809513636997735)"><path d="M0 0 L204 0 L204 85.62 L0 85.62" stroke="none" stroke-width="0" fill="#a5d8ff"></path><path d="M0 0 C75.54 0, 151.07 0, 204 0 M0 0 C81.43 0, 162.86 0, 204 0 M204 0 C204 30.7, 204 61.41, 204 85.62 M204 0 C204 30.92, 204 61.84, 204 85.62 M204 85.62 C124.67 85.62, 45.34 85.62, 0 85.62 M204 85.62 C139.57 85.62, 75.13 85.62, 0 85.62 M0 85.62 C0 66.5, 0 47.38, 0 0 M0 85.62 C0 54.95, 0 24.27, 0 0" stroke="#1e1e1e" stroke-width="2" fill="none"></path></g><g transform="translate(286.60570752248395 175.75528322250082) rotate(0 72.3583984375 16.099999999999994)"><text x="72.3583984375" y="25.760546874999996" font-family="Helvetica, Segoe UI Emoji" font-size="28px" fill="#1e1e1e" text-anchor="middle" style="white-space: pre;" direction="ltr" dominant-baseline="alphabetic">Screen会话</text></g><g stroke-linecap="round" transform="translate(588.2974145886113 329.71245659722183) rotate(0 91.66669137137274 34.14285714285711)"><path d="M0 0 L183.33 0 L183.33 68.29 L0 68.29" stroke="none" stroke-width="0" fill="#ffc9c9"></path><path d="M0 0 C49.31 0, 98.61 0, 183.33 0 M0 0 C38.19 0, 76.39 0, 183.33 0 M183.33 0 C183.33 22.68, 183.33 45.36, 183.33 68.29 M183.33 0 C183.33 17.3, 183.33 34.59, 183.33 68.29 M183.33 68.29 C140.19 68.29, 97.05 68.29, 0 68.29 M183.33 68.29 C143 68.29, 102.66 68.29, 0 68.29 M0 68.29 C0 47.65, 0 27.02, 0 0 M0 68.29 C0 43.64, 0 18.99, 0 0" stroke="#1e1e1e" stroke-width="2" fill="none"></path></g><g transform="translate(606.0607856474841 347.7553137400789) rotate(0 73.9033203125 16.099999999999994)"><text x="73.9033203125" y="25.760546874999996" font-family="Helvetica, Segoe UI Emoji" font-size="28px" fill="#1e1e1e" text-anchor="middle" style="white-space: pre;" direction="ltr" dominant-baseline="alphabetic">PTY master</text></g><g stroke-linecap="round" transform="translate(267.29738407103355 331.7124260796437) rotate(0 91.66669137137274 34.14285714285711)"><path d="M0 0 L183.33 0 L183.33 68.29 L0 68.29" stroke="none" stroke-width="0" fill="#a5d8ff"></path><path d="M0 0 C44.76 0, 89.52 0, 183.33 0 M0 0 C44.96 0, 89.92 0, 183.33 0 M183.33 0 C183.33 22.6, 183.33 45.21, 183.33 68.29 M183.33 0 C183.33 21.03, 183.33 42.06, 183.33 68.29 M183.33 68.29 C141.76 68.29, 100.2 68.29, 0 68.29 M183.33 68.29 C120.62 68.29, 57.9 68.29, 0 68.29 M0 68.29 C0 52.97, 0 37.64, 0 0 M0 68.29 C0 46.58, 0 24.87, 0 0" stroke="#1e1e1e" stroke-width="2" fill="none"></path></g><g transform="translate(295.1642707549063 349.7552832225008) rotate(0 63.7998046875 16.099999999999994)"><text x="63.7998046875" y="25.760546874999996" font-family="Helvetica, Segoe UI Emoji" font-size="28px" fill="#1e1e1e" text-anchor="middle" style="white-space: pre;" direction="ltr" dominant-baseline="alphabetic">PTY slave</text></g><g stroke-linecap="round" transform="translate(429.29738407103343 450.37911309136246) rotate(0 91.66669137137274 34.14285714285711)"><path d="M0 0 C73.07 0, 146.15 0, 183.33 0 M0 0 C37.35 0, 74.7 0, 183.33 0 M183.33 0 C183.33 26.37, 183.33 52.74, 183.33 68.29 M183.33 0 C183.33 15.94, 183.33 31.88, 183.33 68.29 M183.33 68.29 C126.09 68.29, 68.85 68.29, 0 68.29 M183.33 68.29 C138.34 68.29, 93.35 68.29, 0 68.29 M0 68.29 C0 44.87, 0 21.46, 0 0 M0 68.29 C0 46.9, 0 25.52, 0 0" stroke="#1e1e1e" stroke-width="2" fill="none"></path></g><g transform="translate(455.62618481740617 468.42197023421954) rotate(0 65.337890625 16.099999999999994)"><text x="65.337890625" y="25.760546874999996" font-family="Helvetica, Segoe UI Emoji" font-size="28px" fill="#1e1e1e" text-anchor="middle" style="white-space: pre;" direction="ltr" dominant-baseline="alphabetic">TTY driver</text></g><g stroke-linecap="round"><g transform="translate(896.9404123343588 277.28100196391165) rotate(0 -57.77458522968544 -31.52367117228374)"><path d="M0 0 C-37.93 -20.7, -75.86 -41.39, -115.55 -63.05 M0 0 C-37.76 -20.6, -75.52 -41.21, -115.55 -63.05" stroke="#2f9e44" stroke-width="2" fill="none"></path></g><g transform="translate(896.9404123343588 277.28100196391165) rotate(0 -57.77458522968544 -31.52367117228374)"><path d="M-115.55 -63.05 L-100.58 -62.1 L-106.65 -50.97 L-115.55 -63.05" stroke="none" stroke-width="0" fill="#2f9e44" fill-rule="evenodd"></path><path d="M-115.55 -63.05 C-110.63 -62.74, -105.72 -62.43, -100.58 -62.1 M-115.55 -63.05 C-110.66 -62.74, -105.77 -62.43, -100.58 -62.1 M-100.58 -62.1 C-101.81 -59.85, -103.04 -57.59, -106.65 -50.97 M-100.58 -62.1 C-101.95 -59.59, -103.32 -57.07, -106.65 -50.97 M-106.65 -50.97 C-109.86 -55.33, -113.07 -59.69, -115.55 -63.05 M-106.65 -50.97 C-109.85 -55.32, -113.05 -59.66, -115.55 -63.05 M-115.55 -63.05 C-115.55 -63.05, -115.55 -63.05, -115.55 -63.05 M-115.55 -63.05 C-115.55 -63.05, -115.55 -63.05, -115.55 -63.05" stroke="#2f9e44" stroke-width="2" fill="none"></path></g></g><mask></mask><g stroke-linecap="round"><g transform="translate(706.6803908749752 240.52197023421957) rotate(0 0.3587520687327128 42.666656494140625)"><path d="M0 0 C0.26 30.48, 0.51 60.97, 0.72 85.33 M0 0 C0.27 32.34, 0.54 64.68, 0.72 85.33" stroke="#2f9e44" stroke-width="2" fill="none"></path></g><g transform="translate(706.6803908749752 240.52197023421957) rotate(0 0.3587520687327128 42.666656494140625)"><path d="M0.72 85.33 L-5.74 71.79 L6.94 71.69 L0.72 85.33" stroke="none" stroke-width="0" fill="#2f9e44" fill-rule="evenodd"></path><path d="M0.72 85.33 C-1.59 80.5, -3.89 75.66, -5.74 71.79 M0.72 85.33 C-1.73 80.2, -4.17 75.07, -5.74 71.79 M-5.74 71.79 C-1.03 71.75, 3.68 71.71, 6.94 71.69 M-5.74 71.79 C-1.66 71.76, 2.42 71.72, 6.94 71.69 M6.94 71.69 C4.88 76.2, 2.83 80.71, 0.72 85.33 M6.94 71.69 C5 75.95, 3.05 80.21, 0.72 85.33 M0.72 85.33 C0.72 85.33, 0.72 85.33, 0.72 85.33 M0.72 85.33 C0.72 85.33, 0.72 85.33, 0.72 85.33" stroke="#2f9e44" stroke-width="2" fill="none"></path></g></g><mask></mask><g stroke-linecap="round"><g transform="translate(678.964075442406 405.1886572459383) rotate(0 -29.333343505859375 22)"><path d="M0 0 C-13.21 9.91, -26.42 19.81, -58.67 44 M0 0 C-16.55 12.41, -33.09 24.82, -58.67 44" stroke="#2f9e44" stroke-width="2" fill="none"></path></g><g transform="translate(678.964075442406 405.1886572459383) rotate(0 -29.333343505859375 22)"><path d="M-58.67 44 L-51.59 30.77 L-43.99 40.91 L-58.67 44" stroke="none" stroke-width="0" fill="#2f9e44" fill-rule="evenodd"></path><path d="M-58.67 44 C-57.07 41.02, -55.48 38.04, -51.59 30.77 M-58.67 44 C-56.67 40.27, -54.68 36.54, -51.59 30.77 M-51.59 30.77 C-49.38 33.72, -47.17 36.67, -43.99 40.91 M-51.59 30.77 C-49.72 33.27, -47.84 35.77, -43.99 40.91 M-43.99 40.91 C-48.19 41.8, -52.39 42.68, -58.67 44 M-43.99 40.91 C-48.56 41.87, -53.12 42.84, -58.67 44 M-58.67 44 C-58.67 44, -58.67 44, -58.67 44 M-58.67 44 C-58.67 44, -58.67 44, -58.67 44" stroke="#2f9e44" stroke-width="2" fill="none"></path></g></g><mask></mask><g stroke-linecap="round"><g transform="translate(430.2973884306873 452.52197023421957) rotate(0 -32 -23.333343505859375)"><path d="M0 0 C-21.89 -15.96, -43.79 -31.93, -64 -46.67 M0 0 C-24.52 -17.88, -49.03 -35.75, -64 -46.67" stroke="#2f9e44" stroke-width="2" fill="none"></path></g><g transform="translate(430.2973884306873 452.52197023421957) rotate(0 -32 -23.333343505859375)"><path d="M-64 -46.67 L-49.28 -43.78 L-56.75 -33.53 L-64 -46.67" stroke="none" stroke-width="0" fill="#2f9e44" fill-rule="evenodd"></path><path d="M-64 -46.67 C-58.96 -45.68, -53.93 -44.69, -49.28 -43.78 M-64 -46.67 C-58.36 -45.56, -52.72 -44.45, -49.28 -43.78 M-49.28 -43.78 C-51.65 -40.53, -54.02 -37.28, -56.75 -33.53 M-49.28 -43.78 C-51.91 -40.18, -54.53 -36.57, -56.75 -33.53 M-56.75 -33.53 C-58.21 -36.17, -59.66 -38.81, -64 -46.67 M-56.75 -33.53 C-59.38 -38.3, -62.02 -43.07, -64 -46.67 M-64 -46.67 C-64 -46.67, -64 -46.67, -64 -46.67 M-64 -46.67 C-64 -46.67, -64 -46.67, -64 -46.67" stroke="#2f9e44" stroke-width="2" fill="none"></path></g></g><mask></mask><g stroke-linecap="round"><g transform="translate(307.6307319365467 326.52197023421957) rotate(0 0 -43.66667175292969)"><path d="M0 0 C0 -21.94, 0 -43.88, 0 -87.33 M0 0 C0 -28.88, 0 -57.75, 0 -87.33" stroke="#2f9e44" stroke-width="2" fill="none"></path></g><g transform="translate(307.6307319365467 326.52197023421957) rotate(0 0 -43.66667175292969)"><path d="M0 -87.33 L6.34 -73.74 L-6.34 -73.74 L0 -87.33" stroke="none" stroke-width="0" fill="#2f9e44" fill-rule="evenodd"></path><path d="M0 -87.33 C1.59 -83.92, 3.19 -80.5, 6.34 -73.74 M0 -87.33 C2.1 -82.84, 4.19 -78.34, 6.34 -73.74 M6.34 -73.74 C3.02 -73.74, -0.29 -73.74, -6.34 -73.74 M6.34 -73.74 C2.73 -73.74, -0.89 -73.74, -6.34 -73.74 M-6.34 -73.74 C-5.07 -76.47, -3.79 -79.2, 0 -87.33 M-6.34 -73.74 C-4.2 -78.32, -2.07 -82.9, 0 -87.33 M0 -87.33 C0 -87.33, 0 -87.33, 0 -87.33 M0 -87.33 C0 -87.33, 0 -87.33, 0 -87.33" stroke="#2f9e44" stroke-width="2" fill="none"></path></g></g><mask></mask><g stroke-linecap="round" transform="translate(10 152.94910066694888) rotate(0 68.33333587646484 37.66667175292969)"><path d="M0 0 C39.29 0, 78.57 0, 136.67 0 M0 0 C38.99 0, 77.99 0, 136.67 0 M136.67 0 C136.67 28.58, 136.67 57.16, 136.67 75.33 M136.67 0 C136.67 16.31, 136.67 32.63, 136.67 75.33 M136.67 75.33 C92.29 75.33, 47.9 75.33, 0 75.33 M136.67 75.33 C107.94 75.33, 79.21 75.33, 0 75.33 M0 75.33 C0 58.19, 0 41.05, 0 0 M0 75.33 C0 53.06, 0 30.79, 0 0" stroke="#1e1e1e" stroke-width="2" fill="none"></path></g><g transform="translate(50.333335876464844 174.51577241987857) rotate(0 28 16.099999999999994)"><text x="28" y="25.760546874999996" font-family="Helvetica, Segoe UI Emoji" font-size="28px" fill="#1e1e1e" text-anchor="middle" style="white-space: pre;" direction="ltr" dominant-baseline="alphabetic">用户</text></g><g stroke-linecap="round"><g transform="translate(251.29741894826543 176.58974586504843) rotate(0 -48.31537359766787 -0.4220308151064529)"><path d="M0 0 C-34.1 -0.3, -68.2 -0.6, -96.63 -0.84 M0 0 C-29.63 -0.26, -59.25 -0.52, -96.63 -0.84" stroke="#2f9e44" stroke-width="2" fill="none"></path></g><g transform="translate(251.29741894826543 176.58974586504843) rotate(0 -48.31537359766787 -0.4220308151064529)"><path d="M-96.63 -0.84 L-82.98 -7.06 L-83.09 5.61 L-96.63 -0.84" stroke="none" stroke-width="0" fill="#2f9e44" fill-rule="evenodd"></path><path d="M-96.63 -0.84 C-91.81 -3.04, -87 -5.23, -82.98 -7.06 M-96.63 -0.84 C-92.45 -2.75, -88.26 -4.66, -82.98 -7.06 M-82.98 -7.06 C-83.02 -2.4, -83.06 2.26, -83.09 5.61 M-82.98 -7.06 C-83.03 -2.04, -83.07 2.99, -83.09 5.61 M-83.09 5.61 C-88.23 3.16, -93.36 0.72, -96.63 -0.84 M-83.09 5.61 C-86.13 4.16, -89.18 2.71, -96.63 -0.84 M-96.63 -0.84 C-96.63 -0.84, -96.63 -0.84, -96.63 -0.84 M-96.63 -0.84 C-96.63 -0.84, -96.63 -0.84, -96.63 -0.84" stroke="#2f9e44" stroke-width="2" fill="none"></path></g></g><mask></mask><g stroke-linecap="round"><g transform="translate(155.33335876464844 219.6315801420551) rotate(0 46.982014833019434 0.30911776851584705)"><path d="M0 0 C33.76 0.22, 67.52 0.44, 93.96 0.62 M0 0 C23.15 0.15, 46.31 0.3, 93.96 0.62" stroke="#1971c2" stroke-width="2" fill="none"></path></g><g transform="translate(155.33335876464844 219.6315801420551) rotate(0 46.982014833019434 0.30911776851584705)"><path d="M93.96 0.62 L80.33 6.87 L80.41 -5.81 L93.96 0.62" stroke="none" stroke-width="0" fill="#1971c2" fill-rule="evenodd"></path><path d="M93.96 0.62 C89.06 2.86, 84.16 5.11, 80.33 6.87 M93.96 0.62 C90.6 2.16, 87.24 3.7, 80.33 6.87 M80.33 6.87 C80.35 3.82, 80.37 0.77, 80.41 -5.81 M80.33 6.87 C80.36 1.87, 80.39 -3.12, 80.41 -5.81 M80.41 -5.81 C84.74 -3.76, 89.07 -1.7, 93.96 0.62 M80.41 -5.81 C85.66 -3.32, 90.91 -0.83, 93.96 0.62 M93.96 0.62 C93.96 0.62, 93.96 0.62, 93.96 0.62 M93.96 0.62 C93.96 0.62, 93.96 0.62, 93.96 0.62" stroke="#1971c2" stroke-width="2" fill="none"></path></g></g><mask></mask><g stroke-linecap="round"><g transform="translate(393.2973884306873 241.1886267283602) rotate(0 -0.33331298828125 43.33332824707031)"><path d="M0 0 C-0.22 28.34, -0.44 56.67, -0.67 86.67 M0 0 C-0.19 25.23, -0.39 50.45, -0.67 86.67" stroke="#1971c2" stroke-width="2" fill="none"></path></g><g transform="translate(393.2973884306873 241.1886267283602) rotate(0 -0.33331298828125 43.33332824707031)"><path d="M-0.67 86.67 L-6.9 73.02 L5.78 73.12 L-0.67 86.67" stroke="none" stroke-width="0" fill="#1971c2" fill-rule="evenodd"></path><path d="M-0.67 86.67 C-2.71 82.21, -4.74 77.75, -6.9 73.02 M-0.67 86.67 C-2.48 82.7, -4.3 78.72, -6.9 73.02 M-6.9 73.02 C-3.68 73.05, -0.45 73.07, 5.78 73.12 M-6.9 73.02 C-3.92 73.05, -0.94 73.07, 5.78 73.12 M5.78 73.12 C3.43 78.05, 1.08 82.99, -0.67 86.67 M5.78 73.12 C4.4 76.02, 3.02 78.92, -0.67 86.67 M-0.67 86.67 C-0.67 86.67, -0.67 86.67, -0.67 86.67 M-0.67 86.67 C-0.67 86.67, -0.67 86.67, -0.67 86.67" stroke="#1971c2" stroke-width="2" fill="none"></path></g></g><mask></mask><g stroke-linecap="round"><g transform="translate(446.6307624541248 403.8552832225008) rotate(0 36.33331298828125 21.66668701171875)"><path d="M0 0 C14.61 8.71, 29.23 17.43, 72.67 43.33 M0 0 C24.17 14.42, 48.35 28.83, 72.67 43.33" stroke="#1971c2" stroke-width="2" fill="none"></path></g><g transform="translate(446.6307624541248 403.8552832225008) rotate(0 36.33331298828125 21.66668701171875)"><path d="M72.67 43.33 L57.74 41.82 L64.24 30.93 L72.67 43.33" stroke="none" stroke-width="0" fill="#1971c2" fill-rule="evenodd"></path><path d="M72.67 43.33 C69.67 43.03, 66.66 42.72, 57.74 41.82 M72.67 43.33 C67.7 42.83, 62.74 42.32, 57.74 41.82 M57.74 41.82 C60.04 37.97, 62.33 34.12, 64.24 30.93 M57.74 41.82 C59.05 39.63, 60.35 37.45, 64.24 30.93 M64.24 30.93 C66.5 34.26, 68.76 37.59, 72.67 43.33 M64.24 30.93 C67.31 35.45, 70.38 39.97, 72.67 43.33 M72.67 43.33 C72.67 43.33, 72.67 43.33, 72.67 43.33 M72.67 43.33 C72.67 43.33, 72.67 43.33, 72.67 43.33" stroke="#1971c2" stroke-width="2" fill="none"></path></g></g><mask></mask><g stroke-linecap="round"><g transform="translate(522.6307624541248 445.8552832225008) rotate(0 43 -20.666656494140625)"><path d="M0 0 C23.35 -11.22, 46.7 -22.45, 86 -41.33 M0 0 C34.38 -16.52, 68.75 -33.04, 86 -41.33" stroke="#1971c2" stroke-width="2" fill="none"></path></g><g transform="translate(522.6307624541248 445.8552832225008) rotate(0 43 -20.666656494140625)"><path d="M86 -41.33 L76.49 -29.73 L71 -41.16 L86 -41.33" stroke="none" stroke-width="0" fill="#1971c2" fill-rule="evenodd"></path><path d="M86 -41.33 C83.42 -38.18, 80.84 -35.03, 76.49 -29.73 M86 -41.33 C82.2 -36.7, 78.4 -32.06, 76.49 -29.73 M76.49 -29.73 C75.27 -32.27, 74.05 -34.81, 71 -41.16 M76.49 -29.73 C75.27 -32.27, 74.05 -34.82, 71 -41.16 M71 -41.16 C75.36 -41.21, 79.73 -41.26, 86 -41.33 M71 -41.16 C75.44 -41.21, 79.89 -41.26, 86 -41.33 M86 -41.33 C86 -41.33, 86 -41.33, 86 -41.33 M86 -41.33 C86 -41.33, 86 -41.33, 86 -41.33" stroke="#1971c2" stroke-width="2" fill="none"></path></g></g><mask></mask><g stroke-linecap="round"><g transform="translate(1041.9640144072498 380.52197023421957) rotate(0 49 35)"><path d="M0 0 C24.57 17.55, 49.14 35.1, 98 70 M0 0 C19.83 14.16, 39.65 28.32, 98 70" stroke="#1971c2" stroke-width="2" fill="none"></path></g><g transform="translate(1041.9640144072498 380.52197023421957) rotate(0 49 35)"><path d="M98 70 L83.25 67.26 L90.62 56.94 L98 70" stroke="none" stroke-width="0" fill="#1971c2" fill-rule="evenodd"></path><path d="M98 70 C94.3 69.31, 90.61 68.62, 83.25 67.26 M98 70 C95.02 69.45, 92.03 68.89, 83.25 67.26 M83.25 67.26 C85.73 63.79, 88.21 60.31, 90.62 56.94 M83.25 67.26 C85.32 64.37, 87.38 61.48, 90.62 56.94 M90.62 56.94 C92.68 60.58, 94.73 64.22, 98 70 M90.62 56.94 C92.13 59.61, 93.64 62.28, 98 70 M98 70 C98 70, 98 70, 98 70 M98 70 C98 70, 98 70, 98 70" stroke="#1971c2" stroke-width="2" fill="none"></path></g></g><mask></mask><g stroke-linecap="round"><g transform="translate(635.0724788060875 325.8552832225008) rotate(0 -0.5066489183267322 -44.33332824707031)"><path d="M0 0 C-0.3 -26.35, -0.6 -52.69, -1.01 -88.67 M0 0 C-0.37 -32.37, -0.74 -64.73, -1.01 -88.67" stroke="#1971c2" stroke-width="2" fill="none"></path></g><g transform="translate(635.0724788060875 325.8552832225008) rotate(0 -0.5066489183267322 -44.33332824707031)"><path d="M-1.01 -88.67 L5.48 -75.15 L-7.2 -75 L-1.01 -88.67" stroke="none" stroke-width="0" fill="#1971c2" fill-rule="evenodd"></path><path d="M-1.01 -88.67 C0.92 -84.65, 2.85 -80.63, 5.48 -75.15 M-1.01 -88.67 C1.36 -83.73, 3.73 -78.8, 5.48 -75.15 M5.48 -75.15 C1.55 -75.1, -2.39 -75.06, -7.2 -75 M5.48 -75.15 C2.77 -75.11, 0.06 -75.08, -7.2 -75 M-7.2 -75 C-4.87 -80.15, -2.54 -85.29, -1.01 -88.67 M-7.2 -75 C-4.81 -80.28, -2.42 -85.57, -1.01 -88.67 M-1.01 -88.67 C-1.01 -88.67, -1.01 -88.67, -1.01 -88.67 M-1.01 -88.67 C-1.01 -88.67, -1.01 -88.67, -1.01 -88.67" stroke="#1971c2" stroke-width="2" fill="none"></path></g></g><mask></mask><g stroke-linecap="round"><g transform="translate(784.3912418749879 175.00749086069283) rotate(0 45.378762156121354 23.86920900916293)"><path d="M0 0 C35.97 18.92, 71.93 37.84, 90.76 47.74 M0 0 C29.63 15.59, 59.27 31.17, 90.76 47.74" stroke="#1971c2" stroke-width="2" fill="none"></path></g><g transform="translate(784.3912418749879 175.00749086069283) rotate(0 45.378762156121354 23.86920900916293)"><path d="M90.76 47.74 L75.77 47.02 L81.68 35.8 L90.76 47.74" stroke="none" stroke-width="0" fill="#1971c2" fill-rule="evenodd"></path><path d="M90.76 47.74 C84.82 47.45, 78.88 47.17, 75.77 47.02 M90.76 47.74 C85.87 47.5, 80.97 47.27, 75.77 47.02 M75.77 47.02 C78.04 42.71, 80.31 38.39, 81.68 35.8 M75.77 47.02 C77.54 43.66, 79.31 40.31, 81.68 35.8 M81.68 35.8 C84.72 39.8, 87.76 43.8, 90.76 47.74 M81.68 35.8 C84.14 39.04, 86.61 42.28, 90.76 47.74 M90.76 47.74 C90.76 47.74, 90.76 47.74, 90.76 47.74 M90.76 47.74 C90.76 47.74, 90.76 47.74, 90.76 47.74" stroke="#1971c2" stroke-width="2" fill="none"></path></g></g><mask></mask><g stroke-linecap="round"><g transform="translate(1260.6307624541248 364.52197023421957) rotate(0 0.66668701171875 -28.333343505859375)"><path d="M0 0 C0.52 -22.06, 1.04 -44.13, 1.33 -56.67 M0 0 C0.32 -13.41, 0.63 -26.83, 1.33 -56.67" stroke="#1971c2" stroke-width="2" fill="none"></path></g><g transform="translate(1260.6307624541248 364.52197023421957) rotate(0 0.66668701171875 -28.333343505859375)"><path d="M1.33 -56.67 L7.35 -42.93 L-5.32 -43.22 L1.33 -56.67" stroke="none" stroke-width="0" fill="#1971c2" fill-rule="evenodd"></path><path d="M1.33 -56.67 C3.68 -51.32, 6.02 -45.97, 7.35 -42.93 M1.33 -56.67 C2.76 -53.41, 4.18 -50.16, 7.35 -42.93 M7.35 -42.93 C2.9 -43.03, -1.55 -43.14, -5.32 -43.22 M7.35 -42.93 C4.22 -43, 1.09 -43.07, -5.32 -43.22 M-5.32 -43.22 C-3.72 -46.46, -2.12 -49.7, 1.33 -56.67 M-5.32 -43.22 C-2.99 -47.94, -0.65 -52.66, 1.33 -56.67 M1.33 -56.67 C1.33 -56.67, 1.33 -56.67, 1.33 -56.67 M1.33 -56.67 C1.33 -56.67, 1.33 -56.67, 1.33 -56.67" stroke="#1971c2" stroke-width="2" fill="none"></path></g></g><mask></mask><g stroke-linecap="round"><g transform="translate(1260.6307624541248 239.1886267283602) rotate(0 0.33331298828125 -36)"><path d="M0 0 C0.2 -21.99, 0.41 -43.98, 0.67 -72 M0 0 C0.22 -23.32, 0.43 -46.63, 0.67 -72" stroke="#1971c2" stroke-width="2" fill="none"></path></g><g transform="translate(1260.6307624541248 239.1886267283602) rotate(0 0.33331298828125 -36)"><path d="M0.67 -72 L6.88 -58.35 L-5.8 -58.46 L0.67 -72" stroke="none" stroke-width="0" fill="#1971c2" fill-rule="evenodd"></path><path d="M0.67 -72 C2.56 -67.83, 4.46 -63.66, 6.88 -58.35 M0.67 -72 C2.68 -67.58, 4.69 -63.16, 6.88 -58.35 M6.88 -58.35 C3.74 -58.38, 0.6 -58.41, -5.8 -58.46 M6.88 -58.35 C3.87 -58.38, 0.85 -58.4, -5.8 -58.46 M-5.8 -58.46 C-3.78 -62.68, -1.77 -66.9, 0.67 -72 M-5.8 -58.46 C-3.81 -62.63, -1.82 -66.79, 0.67 -72 M0.67 -72 C0.67 -72, 0.67 -72, 0.67 -72 M0.67 -72 C0.67 -72, 0.67 -72, 0.67 -72" stroke="#1971c2" stroke-width="2" fill="none"></path></g></g><mask></mask></svg>