<svg version="1.1" xmlns="http://www.w3.org/2000/svg" viewBox="0 0 1062.5414831542969 453.05330047607424" width="1062.5414831542969" height="453.05330047607424">
  <!-- svg-source:excalidraw -->
  
  <defs>
    <style class="style-fonts">
      @font-face {
        font-family: "Virgil";
        src: url("https://excalidraw.com/Virgil.woff2");
      }
      @font-face {
        font-family: "Cascadia";
        src: url("https://excalidraw.com/Cascadia.woff2");
      }
      @font-face {
        font-family: "Assistant";
        src: url("https://excalidraw.com/Assistant-Regular.woff2");
      }
    </style>
    
  </defs>
  <g stroke-linecap="round" transform="translate(681.3415319824219 65.03998718261718) rotate(0 185.5999755859375 186.55998992919922)"><path d="M0 0 C123.58 0, 247.17 0, 371.2 0 M0 0 C94.4 0, 188.79 0, 371.2 0 M371.2 0 C371.2 115.97, 371.2 231.93, 371.2 373.12 M371.2 0 C371.2 109.35, 371.2 218.69, 371.2 373.12 M371.2 373.12 C275.75 373.12, 180.29 373.12, 0 373.12 M371.2 373.12 C277.42 373.12, 183.63 373.12, 0 373.12 M0 373.12 C0 264.26, 0 155.4, 0 0 M0 373.12 C0 296.7, 0 220.29, 0 0" stroke="#1e1e1e" stroke-width="2" fill="none"></path></g><g stroke-linecap="round"><g transform="translate(679.4215490722656 168.07999572753906) rotate(0 180.80007934570312 -0.32001495361328125)"><path d="M0 0 C123.94 -0.22, 247.89 -0.44, 361.6 -0.64 M0 0 C115.6 -0.2, 231.19 -0.41, 361.6 -0.64" stroke="#1e1e1e" stroke-width="2" fill="none"></path></g></g><mask></mask><g stroke-linecap="round" transform="translate(699.2616369628906 97.03998718261718) rotate(0 42.559967041015625 22.079994201660156)"><path d="M0 0 C28.26 0, 56.52 0, 85.12 0 M0 0 C25.25 0, 50.49 0, 85.12 0 M85.12 0 C85.12 10.61, 85.12 21.22, 85.12 44.16 M85.12 0 C85.12 9.55, 85.12 19.1, 85.12 44.16 M85.12 44.16 C62.69 44.16, 40.25 44.16, 0 44.16 M85.12 44.16 C55.99 44.16, 26.87 44.16, 0 44.16 M0 44.16 C0 28.46, 0 12.75, 0 0 M0 44.16 C0 34.12, 0 24.08, 0 0" stroke="#1e1e1e" stroke-width="2" fill="none"></path></g><g transform="translate(721.8216192626953 106.61998138427734) rotate(0 19.999984741210938 12.5)"><text x="19.999984741210938" y="17.52" font-family="Virgil, Segoe UI Emoji" font-size="20px" fill="#1e1e1e" text-anchor="middle" style="white-space: pre;" direction="ltr" dominant-baseline="alphabetic">进程</text></g><g stroke-linecap="round" transform="translate(814.0216162109375 95.39999542236328) rotate(0 42.559967041015625 22.079994201660156)"><path d="M0 0 C21.37 0, 42.74 0, 85.12 0 M0 0 C18.9 0, 37.81 0, 85.12 0 M85.12 0 C85.12 13.99, 85.12 27.99, 85.12 44.16 M85.12 0 C85.12 17.4, 85.12 34.79, 85.12 44.16 M85.12 44.16 C66.22 44.16, 47.33 44.16, 0 44.16 M85.12 44.16 C62.96 44.16, 40.81 44.16, 0 44.16 M0 44.16 C0 31.13, 0 18.1, 0 0 M0 44.16 C0 26.53, 0 8.9, 0 0" stroke="#1e1e1e" stroke-width="2" fill="none"></path></g><g transform="translate(836.5815985107422 104.97998962402343) rotate(0 19.999984741210938 12.5)"><text x="19.999984741210938" y="17.52" font-family="Virgil, Segoe UI Emoji" font-size="20px" fill="#1e1e1e" text-anchor="middle" style="white-space: pre;" direction="ltr" dominant-baseline="alphabetic">进程</text></g><g stroke-linecap="round" transform="translate(931.9415991210938 95.31999359130859) rotate(0 42.559967041015625 22.079994201660156)"><path d="M0 0 C33.83 0, 67.67 0, 85.12 0 M0 0 C21.33 0, 42.66 0, 85.12 0 M85.12 0 C85.12 14.89, 85.12 29.79, 85.12 44.16 M85.12 0 C85.12 16.96, 85.12 33.92, 85.12 44.16 M85.12 44.16 C57.02 44.16, 28.91 44.16, 0 44.16 M85.12 44.16 C55.98 44.16, 26.84 44.16, 0 44.16 M0 44.16 C0 26.5, 0 8.84, 0 0 M0 44.16 C0 33.97, 0 23.78, 0 0" stroke="#1e1e1e" stroke-width="2" fill="none"></path></g><g transform="translate(954.5015814208984 104.89998779296874) rotate(0 19.999984741210938 12.5)"><text x="19.999984741210938" y="17.52" font-family="Virgil, Segoe UI Emoji" font-size="20px" fill="#1e1e1e" text-anchor="middle" style="white-space: pre;" direction="ltr" dominant-baseline="alphabetic">进程</text></g><g stroke-linecap="round" transform="translate(699.9016516113281 205.839990234375) rotate(0 67.83999633789062 25.5)"><path d="M0 0 C52.15 0, 104.29 0, 135.68 0 M0 0 C52.36 0, 104.72 0, 135.68 0 M135.68 0 C135.68 14.79, 135.68 29.58, 135.68 51 M135.68 0 C135.68 17.81, 135.68 35.62, 135.68 51 M135.68 51 C94.21 51, 52.73 51, 0 51 M135.68 51 C90.19 51, 44.7 51, 0 51 M0 51 C0 39.92, 0 28.84, 0 0 M0 51 C0 30.93, 0 10.86, 0 0" stroke="#1e1e1e" stroke-width="2" fill="none"></path></g><g transform="translate(710.5151007080078 219.839990234375) rotate(0 57.22654724121094 11.5)"><text x="57.22654724121094" y="18.400390625" font-family="Helvetica, Segoe UI Emoji" font-size="20px" fill="#1e1e1e" text-anchor="middle" style="white-space: pre;" direction="ltr" dominant-baseline="alphabetic">virito-blk驱动</text></g><g stroke-linecap="round"><g transform="translate(846.4615270996094 232.90367725643566) rotate(0 36.79998779296875 -0.02839259384103343)"><path d="M0 0 C28.51 -0.02, 57.01 -0.04, 73.6 -0.06 M0 0 C21.74 -0.02, 43.49 -0.03, 73.6 -0.06" stroke="#1e1e1e" stroke-width="2" fill="none"></path></g><g transform="translate(846.4615270996094 232.90367725643566) rotate(0 36.79998779296875 -0.02839259384103343)"><path d="M0 0 L13.59 -6.35 L13.6 6.33 L0 0" stroke="none" stroke-width="0" fill="#1e1e1e" fill-rule="evenodd"></path><path d="M0 0 C5.26 -2.46, 10.53 -4.92, 13.59 -6.35 M0 0 C4.02 -1.88, 8.03 -3.75, 13.59 -6.35 M13.59 -6.35 C13.59 -1.62, 13.6 3.12, 13.6 6.33 M13.59 -6.35 C13.59 -2.88, 13.6 0.59, 13.6 6.33 M13.6 6.33 C8.17 3.8, 2.73 1.27, 0 0 M13.6 6.33 C8.28 3.85, 2.95 1.37, 0 0 M0 0 C0 0, 0 0, 0 0 M0 0 C0 0, 0 0, 0 0" stroke="#1e1e1e" stroke-width="2" fill="none"></path></g><g transform="translate(846.4615270996094 232.90367725643566) rotate(0 36.79998779296875 -0.02839259384103343)"><path d="M73.6 -0.06 L60.01 6.29 L60 -6.39 L73.6 -0.06" stroke="none" stroke-width="0" fill="#1e1e1e" fill-rule="evenodd"></path><path d="M73.6 -0.06 C68.34 2.4, 63.07 4.86, 60.01 6.29 M73.6 -0.06 C69.58 1.82, 65.57 3.7, 60.01 6.29 M60.01 6.29 C60.01 1.56, 60 -3.17, 60 -6.39 M60.01 6.29 C60.01 2.83, 60 -0.64, 60 -6.39 M60 -6.39 C65.43 -3.86, 70.87 -1.33, 73.6 -0.06 M60 -6.39 C65.32 -3.91, 70.65 -1.43, 73.6 -0.06 M73.6 -0.06 C73.6 -0.06, 73.6 -0.06, 73.6 -0.06 M73.6 -0.06 C73.6 -0.06, 73.6 -0.06, 73.6 -0.06" stroke="#1e1e1e" stroke-width="2" fill="none"></path></g></g><mask></mask><g stroke-linecap="round" transform="translate(924.9016821289063 203.01998291015624) rotate(0 46.399932861328125 28)"><path d="M0 0 C25.82 0, 51.64 0, 92.8 0 M0 0 C36.33 0, 72.66 0, 92.8 0 M92.8 0 C92.8 20.56, 92.8 41.12, 92.8 56 M92.8 0 C92.8 12.38, 92.8 24.75, 92.8 56 M92.8 56 C60.48 56, 28.16 56, 0 56 M92.8 56 C62 56, 31.2 56, 0 56 M0 56 C0 42.94, 0 29.88, 0 0 M0 56 C0 39.51, 0 23.02, 0 0" stroke="#1e1e1e" stroke-width="2" fill="none"></path></g><g transform="translate(931.3016455078125 219.51998291015624) rotate(0 39.999969482421875 11.5)"><text x="39.999969482421875" y="18.400390625" font-family="Helvetica, Segoe UI Emoji" font-size="20px" fill="#1e1e1e" text-anchor="middle" style="white-space: pre;" direction="ltr" dominant-baseline="alphabetic">文件系统</text></g><g stroke-linecap="round"><g transform="translate(848.5614569091799 314.30288798098877) rotate(0 36.799987792968636 0.061041402075488804)"><path d="M0 0 C22.09 0.04, 44.18 0.07, 73.6 0.12 M0 0 C18.15 0.03, 36.3 0.06, 73.6 0.12" stroke="#1e1e1e" stroke-width="2" fill="none"></path></g><g transform="translate(848.5614569091799 314.30288798098877) rotate(0 36.799987792968636 0.061041402075488804)"><path d="M0 0 L13.61 -6.32 L13.58 6.36 L0 0" stroke="none" stroke-width="0" fill="#1e1e1e" fill-rule="evenodd"></path><path d="M0 0 C4.08 -1.9, 8.17 -3.79, 13.61 -6.32 M0 0 C3.36 -1.56, 6.71 -3.12, 13.61 -6.32 M13.61 -6.32 C13.6 -1.63, 13.59 3.05, 13.58 6.36 M13.61 -6.32 C13.6 -2.76, 13.59 0.79, 13.58 6.36 M13.58 6.36 C10.09 4.73, 6.6 3.09, 0 0 M13.58 6.36 C10.18 4.77, 6.77 3.17, 0 0 M0 0 C0 0, 0 0, 0 0 M0 0 C0 0, 0 0, 0 0" stroke="#1e1e1e" stroke-width="2" fill="none"></path></g><g transform="translate(848.5614569091799 314.30288798098877) rotate(0 36.799987792968636 0.061041402075488804)"><path d="M73.6 0.12 L59.99 6.44 L60.02 -6.24 L73.6 0.12" stroke="none" stroke-width="0" fill="#1e1e1e" fill-rule="evenodd"></path><path d="M73.6 0.12 C69.52 2.02, 65.43 3.91, 59.99 6.44 M73.6 0.12 C70.24 1.68, 66.89 3.24, 59.99 6.44 M59.99 6.44 C60 1.75, 60.01 -2.93, 60.02 -6.24 M59.99 6.44 C60 2.88, 60.01 -0.67, 60.02 -6.24 M60.02 -6.24 C63.51 -4.6, 67 -2.97, 73.6 0.12 M60.02 -6.24 C63.42 -4.64, 66.83 -3.05, 73.6 0.12 M73.6 0.12 C73.6 0.12, 73.6 0.12, 73.6 0.12 M73.6 0.12 C73.6 0.12, 73.6 0.12, 73.6 0.12" stroke="#1e1e1e" stroke-width="2" fill="none"></path></g></g><mask></mask><g stroke-linecap="round" transform="translate(927.0016119384766 284.7199645996094) rotate(0 46.399932861328125 28)"><path d="M0 0 C20.82 0, 41.64 0, 92.8 0 M0 0 C25.56 0, 51.12 0, 92.8 0 M92.8 0 C92.8 11.7, 92.8 23.39, 92.8 56 M92.8 0 C92.8 13.4, 92.8 26.8, 92.8 56 M92.8 56 C71.66 56, 50.51 56, 0 56 M92.8 56 C61.21 56, 29.61 56, 0 56 M0 56 C0 39.72, 0 23.43, 0 0 M0 56 C0 34.91, 0 13.82, 0 0" stroke="#1e1e1e" stroke-width="2" fill="none"></path></g><g transform="translate(933.4015753173828 289.7199645996094) rotate(0 39.999969482421875 23)"><text x="39.999969482421875" y="18.400390625" font-family="Helvetica, Segoe UI Emoji" font-size="20px" fill="#1e1e1e" text-anchor="middle" style="white-space: pre;" direction="ltr" dominant-baseline="alphabetic">网络子系</text><text x="39.999969482421875" y="41.400390625" font-family="Helvetica, Segoe UI Emoji" font-size="20px" fill="#1e1e1e" text-anchor="middle" style="white-space: pre;" direction="ltr" dominant-baseline="alphabetic">统</text></g><g stroke-linecap="round" transform="translate(701.581552734375 286.17998657226565) rotate(0 67.83999633789062 25.5)"><path d="M0 0 C41.79 0, 83.57 0, 135.68 0 M0 0 C29.94 0, 59.87 0, 135.68 0 M135.68 0 C135.68 18.21, 135.68 36.43, 135.68 51 M135.68 0 C135.68 20.28, 135.68 40.55, 135.68 51 M135.68 51 C105.68 51, 75.67 51, 0 51 M135.68 51 C107 51, 78.33 51, 0 51 M0 51 C0 39.7, 0 28.4, 0 0 M0 51 C0 38.06, 0 25.11, 0 0" stroke="#1e1e1e" stroke-width="2" fill="none"></path></g><g transform="translate(711.0768377685547 300.17998657226565) rotate(0 58.34471130371094 11.5)"><text x="58.34471130371094" y="18.400390625" font-family="Helvetica, Segoe UI Emoji" font-size="20px" fill="#1e1e1e" text-anchor="middle" style="white-space: pre;" direction="ltr" dominant-baseline="alphabetic">virito-net驱动</text></g><g stroke-linecap="round" transform="translate(702.3415014648438 366.8599792480469) rotate(0 67.83999633789062 25.5)"><path d="M0 0 C36.6 0, 73.2 0, 135.68 0 M0 0 C30.1 0, 60.2 0, 135.68 0 M135.68 0 C135.68 17.11, 135.68 34.22, 135.68 51 M135.68 0 C135.68 10.52, 135.68 21.03, 135.68 51 M135.68 51 C99.2 51, 62.71 51, 0 51 M135.68 51 C94.94 51, 54.2 51, 0 51 M0 51 C0 40.22, 0 29.45, 0 0 M0 51 C0 37.25, 0 23.49, 0 0" stroke="#1e1e1e" stroke-width="2" fill="none"></path></g><g transform="translate(709.0535833740234 380.8599792480469) rotate(0 61.12791442871094 11.5)"><text x="61.12791442871094" y="18.400390625" font-family="Helvetica, Segoe UI Emoji" font-size="20px" fill="#1e1e1e" text-anchor="middle" style="white-space: pre;" direction="ltr" dominant-baseline="alphabetic">virito-gpu驱动</text></g><g stroke-linecap="round"><g transform="translate(847.9415686035154 393.73894028737766) rotate(0 36.799987792968636 0.061041402075488804)"><path d="M0 0 C14.96 0.02, 29.92 0.05, 73.6 0.12 M0 0 C26.26 0.04, 52.52 0.09, 73.6 0.12" stroke="#1e1e1e" stroke-width="2" fill="none"></path></g><g transform="translate(847.9415686035154 393.73894028737766) rotate(0 36.799987792968636 0.061041402075488804)"><path d="M0 0 L13.61 -6.32 L13.58 6.36 L0 0" stroke="none" stroke-width="0" fill="#1e1e1e" fill-rule="evenodd"></path><path d="M0 0 C2.77 -1.28, 5.53 -2.57, 13.61 -6.32 M0 0 C4.85 -2.25, 9.71 -4.51, 13.61 -6.32 M13.61 -6.32 C13.6 -1.51, 13.59 3.3, 13.58 6.36 M13.61 -6.32 C13.6 -2.59, 13.59 1.13, 13.58 6.36 M13.58 6.36 C9.52 4.46, 5.45 2.55, 0 0 M13.58 6.36 C8.26 3.87, 2.94 1.38, 0 0 M0 0 C0 0, 0 0, 0 0 M0 0 C0 0, 0 0, 0 0" stroke="#1e1e1e" stroke-width="2" fill="none"></path></g><g transform="translate(847.9415686035154 393.73894028737766) rotate(0 36.799987792968636 0.061041402075488804)"><path d="M73.6 0.12 L59.99 6.44 L60.02 -6.24 L73.6 0.12" stroke="none" stroke-width="0" fill="#1e1e1e" fill-rule="evenodd"></path><path d="M73.6 0.12 C70.83 1.41, 68.07 2.69, 59.99 6.44 M73.6 0.12 C68.75 2.38, 63.89 4.63, 59.99 6.44 M59.99 6.44 C60 1.63, 60.01 -3.18, 60.02 -6.24 M59.99 6.44 C60 2.71, 60.01 -1.01, 60.02 -6.24 M60.02 -6.24 C64.08 -4.33, 68.15 -2.43, 73.6 0.12 M60.02 -6.24 C65.34 -3.75, 70.66 -1.26, 73.6 0.12 M73.6 0.12 C73.6 0.12, 73.6 0.12, 73.6 0.12 M73.6 0.12 C73.6 0.12, 73.6 0.12, 73.6 0.12" stroke="#1e1e1e" stroke-width="2" fill="none"></path></g></g><mask></mask><g stroke-linecap="round" transform="translate(929.6615698242188 367.2399841308594) rotate(0 46.399932861328125 28)"><path d="M0 0 C22.93 0, 45.87 0, 92.8 0 M0 0 C35.06 0, 70.11 0, 92.8 0 M92.8 0 C92.8 15.47, 92.8 30.94, 92.8 56 M92.8 0 C92.8 13.25, 92.8 26.51, 92.8 56 M92.8 56 C56 56, 19.19 56, 0 56 M92.8 56 C74.01 56, 55.22 56, 0 56 M0 56 C0 33.99, 0 11.98, 0 0 M0 56 C0 34.09, 0 12.18, 0 0" stroke="#1e1e1e" stroke-width="2" fill="none"></path></g><g transform="translate(936.061533203125 372.2399841308594) rotate(0 39.999969482421875 23)"><text x="39.999969482421875" y="18.400390625" font-family="Helvetica, Segoe UI Emoji" font-size="20px" fill="#1e1e1e" text-anchor="middle" style="white-space: pre;" direction="ltr" dominant-baseline="alphabetic">图形子系</text><text x="39.999969482421875" y="41.400390625" font-family="Helvetica, Segoe UI Emoji" font-size="20px" fill="#1e1e1e" text-anchor="middle" style="white-space: pre;" direction="ltr" dominant-baseline="alphabetic">统</text></g><g transform="translate(767.5015661621094 10) rotate(0 98 16.099999999999994)"><text x="0" y="25.760546874999996" font-family="Helvetica, Segoe UI Emoji" font-size="28px" fill="#1e1e1e" text-anchor="start" style="white-space: pre;" direction="ltr" dominant-baseline="alphabetic">客户机操作系统</text></g><g stroke-linecap="round" transform="translate(320.1200256347656 67.013330078125) rotate(0 131.83999633789062 91.23999023437497)"><path d="M0 0 C101.46 0, 202.93 0, 263.68 0 M263.68 0 C263.68 63.09, 263.68 126.18, 263.68 182.48 M263.68 182.48 C180.04 182.48, 96.4 182.48, 0 182.48 M0 182.48 C0 145.31, 0 108.13, 0 0" stroke="#1971c2" stroke-width="2.5" fill="none" stroke-dasharray="8 10"></path></g><g stroke-linecap="round" transform="translate(355.5731201171875 113.07992248535155) rotate(0 99.19998168945312 16.96001434326172)"><path d="M0 0 C77.4 0, 154.8 0, 198.4 0 M0 0 C48.24 0, 96.48 0, 198.4 0 M198.4 0 C198.4 7.44, 198.4 14.88, 198.4 33.92 M198.4 0 C198.4 7.46, 198.4 14.92, 198.4 33.92 M198.4 33.92 C149.05 33.92, 99.7 33.92, 0 33.92 M198.4 33.92 C152.23 33.92, 106.06 33.92, 0 33.92 M0 33.92 C0 24.38, 0 14.85, 0 0 M0 33.92 C0 24.02, 0 14.12, 0 0" stroke="#1971c2" stroke-width="1" fill="none"></path></g><g stroke-linecap="round"><g transform="translate(389.4931640625 114.35990600585936) rotate(0 0 16.000022888183594)"><path d="M0 0 C0 7.04, 0 14.09, 0 32 M0 0 C0 9.13, 0 18.26, 0 32" stroke="#1971c2" stroke-width="1" fill="none"></path></g></g><mask></mask><g stroke-linecap="round"><g transform="translate(419.69317626953125 112.35992889404295) rotate(0 0 16.959983825683594)"><path d="M0 0 C0 9.26, 0 18.53, 0 33.92 M0 0 C0 12.1, 0 24.19, 0 33.92" stroke="#1971c2" stroke-width="1" fill="none"></path></g></g><mask></mask><g stroke-linecap="round"><g transform="translate(451.29315185546875 112.67995147705076) rotate(0 0.320037841796875 16.959999084472656)"><path d="M0 0 C0.23 12.06, 0.46 24.11, 0.64 33.92 M0 0 C0.16 8.5, 0.32 17, 0.64 33.92" stroke="#1971c2" stroke-width="1" fill="none"></path></g></g><mask></mask><g stroke-linecap="round"><g transform="translate(482.253173828125 114.43993072509764) rotate(0 0.319976806640625 15.680007934570312)"><path d="M0 0 C0.13 6.33, 0.26 12.66, 0.64 31.36 M0 0 C0.15 7.39, 0.3 14.78, 0.64 31.36" stroke="#1971c2" stroke-width="1" fill="none"></path></g></g><mask></mask><g stroke-linecap="round"><g transform="translate(519.813232421875 113.03989105224608) rotate(0 0 16.64002227783203)"><path d="M0 0 C0 12.67, 0 25.34, 0 33.28 M0 0 C0 8.3, 0 16.6, 0 33.28" stroke="#1971c2" stroke-width="1" fill="none"></path></g></g><mask></mask><g transform="translate(393.466552734375 67.61327819824217) rotate(0 57.5927734375 16.099999999999994)"><text x="0" y="25.760546874999996" font-family="Helvetica, Segoe UI Emoji" font-size="28px" fill="#1971c2" text-anchor="start" style="white-space: pre;" direction="ltr" dominant-baseline="alphabetic">virtqueue</text></g><g stroke-linecap="round" transform="translate(357.5198974609375 393.9599884033204) rotate(0 98.24002075195312 16.5)"><path d="M0 0 C43.09 0, 86.18 0, 196.48 0 M0 0 C43.22 0, 86.45 0, 196.48 0 M196.48 0 C196.48 8.21, 196.48 16.42, 196.48 33 M196.48 0 C196.48 7.68, 196.48 15.36, 196.48 33 M196.48 33 C141.24 33, 86 33, 0 33 M196.48 33 C139.13 33, 81.78 33, 0 33 M0 33 C0 21.33, 0 9.67, 0 0 M0 33 C0 23.86, 0 14.71, 0 0" stroke="#2f9e44" stroke-width="1" fill="none"></path></g><g transform="translate(395.7599639892578 398.9599884033204) rotate(0 59.99995422363281 11.5)"><text x="59.99995422363281" y="18.400390625" font-family="Helvetica, Segoe UI Emoji" font-size="20px" fill="#2f9e44" text-anchor="middle" style="white-space: pre;" direction="ltr" dominant-baseline="alphabetic">设备配置空间</text></g><g stroke-linecap="round" transform="translate(10 69.93332061767578) rotate(0 123.19998168945318 186.55998992919922)"><path d="M0 0 C57.21 0, 114.42 0, 246.4 0 M0 0 C78.86 0, 157.71 0, 246.4 0 M246.4 0 C246.4 114.58, 246.4 229.17, 246.4 373.12 M246.4 0 C246.4 134.93, 246.4 269.87, 246.4 373.12 M246.4 373.12 C172.79 373.12, 99.19 373.12, 0 373.12 M246.4 373.12 C154.16 373.12, 61.91 373.12, 0 373.12 M0 373.12 C0 287.97, 0 202.82, 0 0 M0 373.12 C0 240.02, 0 106.93, 0 0" stroke="#1e1e1e" stroke-width="2" fill="none"></path></g><g transform="translate(71.63998413085938 25.773300170898438) rotate(0 66.9033203125 16.099999999999994)"><text x="0" y="25.760546874999996" font-family="Helvetica, Segoe UI Emoji" font-size="28px" fill="#1e1e1e" text-anchor="start" style="white-space: pre;" direction="ltr" dominant-baseline="alphabetic">Hypervisor</text></g><g stroke-linecap="round" transform="translate(34.040008544921875 118.21331176757812) rotate(0 96.31997680664062 29.819992065429688)"><path d="M0 0 C61.47 0, 122.94 0, 192.64 0 M0 0 C67.26 0, 134.52 0, 192.64 0 M192.64 0 C192.64 16.5, 192.64 33, 192.64 59.64 M192.64 0 C192.64 12.24, 192.64 24.48, 192.64 59.64 M192.64 59.64 C151.45 59.64, 110.26 59.64, 0 59.64 M192.64 59.64 C119.54 59.64, 46.43 59.64, 0 59.64 M0 59.64 C0 42, 0 24.36, 0 0 M0 59.64 C0 37.37, 0 15.1, 0 0" stroke="#1e1e1e" stroke-width="2" fill="none"></path></g><g transform="translate(73.13343811035156 136.5333038330078) rotate(0 57.22654724121094 11.5)"><text x="57.22654724121094" y="18.400390625" font-family="Helvetica, Segoe UI Emoji" font-size="20px" fill="#1e1e1e" text-anchor="middle" style="white-space: pre;" direction="ltr" dominant-baseline="alphabetic">virtio-blk设备</text></g><g stroke-linecap="round" transform="translate(34.8399658203125 235.95328674316406) rotate(0 96.31997680664062 29.819992065429688)"><path d="M0 0 C65.83 0, 131.66 0, 192.64 0 M0 0 C63.01 0, 126.03 0, 192.64 0 M192.64 0 C192.64 18, 192.64 35.99, 192.64 59.64 M192.64 0 C192.64 15.8, 192.64 31.6, 192.64 59.64 M192.64 59.64 C152.05 59.64, 111.46 59.64, 0 59.64 M192.64 59.64 C135.54 59.64, 78.44 59.64, 0 59.64 M0 59.64 C0 37.06, 0 14.48, 0 0 M0 59.64 C0 38.21, 0 16.78, 0 0" stroke="#1e1e1e" stroke-width="2" fill="none"></path></g><g transform="translate(72.81523132324219 254.27327880859374) rotate(0 58.34471130371094 11.5)"><text x="58.34471130371094" y="18.400390625" font-family="Helvetica, Segoe UI Emoji" font-size="20px" fill="#1e1e1e" text-anchor="middle" style="white-space: pre;" direction="ltr" dominant-baseline="alphabetic">virtio-net设备</text></g><g stroke-linecap="round" transform="translate(35.4000244140625 358.39331970214846) rotate(0 96.31997680664062 29.819992065429688)"><path d="M0 0 C49.32 0, 98.64 0, 192.64 0 M0 0 C65.8 0, 131.6 0, 192.64 0 M192.64 0 C192.64 12.05, 192.64 24.1, 192.64 59.64 M192.64 0 C192.64 14.89, 192.64 29.79, 192.64 59.64 M192.64 59.64 C141.34 59.64, 90.03 59.64, 0 59.64 M192.64 59.64 C126.07 59.64, 59.5 59.64, 0 59.64 M0 59.64 C0 41.54, 0 23.44, 0 0 M0 59.64 C0 46.78, 0 33.92, 0 0" stroke="#1e1e1e" stroke-width="2" fill="none"></path></g><g transform="translate(70.59208679199219 376.71331176757815) rotate(0 61.12791442871094 11.5)"><text x="61.12791442871094" y="18.400390625" font-family="Helvetica, Segoe UI Emoji" font-size="20px" fill="#1e1e1e" text-anchor="middle" style="white-space: pre;" direction="ltr" dominant-baseline="alphabetic">virtio-gpu设备</text></g><g transform="translate(388.9375506591797 21.926680755615223) rotate(0 70 16.099999999999994)"><text x="0" y="25.760546874999996" font-family="Helvetica, Segoe UI Emoji" font-size="28px" fill="#228be6" text-anchor="start" style="white-space: pre;" direction="ltr" dominant-baseline="alphabetic">数据面接口</text></g><g stroke-linecap="round" transform="translate(354.07082092285145 159.9266632080078) rotate(0 99.19998168945312 16.96001434326172)"><path d="M0 0 C53.66 0, 107.31 0, 198.4 0 M0 0 C43.88 0, 87.75 0, 198.4 0 M198.4 0 C198.4 7.33, 198.4 14.65, 198.4 33.92 M198.4 0 C198.4 10.44, 198.4 20.87, 198.4 33.92 M198.4 33.92 C123.87 33.92, 49.33 33.92, 0 33.92 M198.4 33.92 C137.12 33.92, 75.84 33.92, 0 33.92 M0 33.92 C0 23.7, 0 13.48, 0 0 M0 33.92 C0 25.13, 0 16.33, 0 0" stroke="#1971c2" stroke-width="1" fill="none"></path></g><g stroke-linecap="round"><g transform="translate(387.99086486816395 161.2066467285156) rotate(0 0 16.000022888183594)"><path d="M0 0 C0 10.01, 0 20.02, 0 32 M0 0 C0 10.03, 0 20.07, 0 32" stroke="#1971c2" stroke-width="1" fill="none"></path></g></g><mask></mask><g stroke-linecap="round"><g transform="translate(418.1908770751952 159.2066696166992) rotate(0 0 16.959983825683594)"><path d="M0 0 C0 11.05, 0 22.1, 0 33.92 M0 0 C0 11.65, 0 23.29, 0 33.92" stroke="#1971c2" stroke-width="1" fill="none"></path></g></g><mask></mask><g stroke-linecap="round"><g transform="translate(449.7908526611327 159.526692199707) rotate(0 0.320037841796875 16.959999084472656)"><path d="M0 0 C0.17 9.01, 0.34 18.02, 0.64 33.92 M0 0 C0.25 13.5, 0.51 27, 0.64 33.92" stroke="#1971c2" stroke-width="1" fill="none"></path></g></g><mask></mask><g stroke-linecap="round"><g transform="translate(480.75087463378895 161.2866714477539) rotate(0 0.319976806640625 15.680007934570312)"><path d="M0 0 C0.25 12.04, 0.49 24.08, 0.64 31.36 M0 0 C0.23 11.45, 0.47 22.91, 0.64 31.36" stroke="#1971c2" stroke-width="1" fill="none"></path></g></g><mask></mask><g stroke-linecap="round"><g transform="translate(518.310933227539 159.88663177490233) rotate(0 0 16.64002227783203)"><path d="M0 0 C0 12.28, 0 24.56, 0 33.28 M0 0 C0 11.36, 0 22.71, 0 33.28" stroke="#1971c2" stroke-width="1" fill="none"></path></g></g><mask></mask><g stroke-linecap="round" transform="translate(354.40407287597645 205.9266632080078) rotate(0 99.19998168945312 16.96001434326172)"><path d="M0 0 C67.71 0, 135.43 0, 198.4 0 M0 0 C67.35 0, 134.69 0, 198.4 0 M198.4 0 C198.4 6.81, 198.4 13.61, 198.4 33.92 M198.4 0 C198.4 11.02, 198.4 22.03, 198.4 33.92 M198.4 33.92 C146.79 33.92, 95.17 33.92, 0 33.92 M198.4 33.92 C153.75 33.92, 109.11 33.92, 0 33.92 M0 33.92 C0 22.24, 0 10.56, 0 0 M0 33.92 C0 20.82, 0 7.71, 0 0" stroke="#1971c2" stroke-width="1" fill="none"></path></g><g stroke-linecap="round"><g transform="translate(388.32411682128895 207.2066467285156) rotate(0 0 16.000022888183594)"><path d="M0 0 C0 12.03, 0 24.06, 0 32 M0 0 C0 7.18, 0 14.37, 0 32" stroke="#1971c2" stroke-width="1" fill="none"></path></g></g><mask></mask><g stroke-linecap="round"><g transform="translate(418.5241290283202 205.2066696166992) rotate(0 0 16.959983825683594)"><path d="M0 0 C0 8.39, 0 16.78, 0 33.92 M0 0 C0 8.79, 0 17.58, 0 33.92" stroke="#1971c2" stroke-width="1" fill="none"></path></g></g><mask></mask><g stroke-linecap="round"><g transform="translate(450.1241046142577 205.526692199707) rotate(0 0.320037841796875 16.959999084472656)"><path d="M0 0 C0.25 13.03, 0.49 26.05, 0.64 33.92 M0 0 C0.22 11.85, 0.45 23.69, 0.64 33.92" stroke="#1971c2" stroke-width="1" fill="none"></path></g></g><mask></mask><g stroke-linecap="round"><g transform="translate(481.08412658691395 207.2866714477539) rotate(0 0.319976806640625 15.680007934570312)"><path d="M0 0 C0.25 12.28, 0.5 24.56, 0.64 31.36 M0 0 C0.14 6.87, 0.28 13.74, 0.64 31.36" stroke="#1971c2" stroke-width="1" fill="none"></path></g></g><mask></mask><g stroke-linecap="round"><g transform="translate(518.644185180664 205.88663177490233) rotate(0 0 16.64002227783203)"><path d="M0 0 C0 13.08, 0 26.16, 0 33.28 M0 0 C0 7.36, 0 14.71, 0 33.28" stroke="#1971c2" stroke-width="1" fill="none"></path></g></g><mask></mask><g stroke-linecap="round" transform="translate(325.09743225097645 322.28662948608405) rotate(0 131.83999633789062 59.9066467285156)"><path d="M0 0 C66.59 0, 133.19 0, 263.68 0 M263.68 0 C263.68 27.47, 263.68 54.93, 263.68 119.81 M263.68 119.81 C185.16 119.81, 106.63 119.81, 0 119.81 M0 119.81 C0 90.84, 0 61.87, 0 0" stroke="#2f9e44" stroke-width="2.5" fill="none" stroke-dasharray="8 10"></path></g><g transform="translate(392.2706805419922 278.0933067321778) rotate(0 70 16.099999999999994)"><text x="0" y="25.760546874999996" font-family="Helvetica, Segoe UI Emoji" font-size="28px" fill="#2f9e44" text-anchor="start" style="white-space: pre;" direction="ltr" dominant-baseline="alphabetic">控制面接口</text></g><g stroke-linecap="round" transform="translate(357.36403381347645 344.69336776733394) rotate(0 98.24002075195312 16.5)"><path d="M0 0 C71.69 0, 143.39 0, 196.48 0 M0 0 C48.51 0, 97.01 0, 196.48 0 M196.48 0 C196.48 8.53, 196.48 17.07, 196.48 33 M196.48 0 C196.48 8.6, 196.48 17.19, 196.48 33 M196.48 33 C136.32 33, 76.17 33, 0 33 M196.48 33 C155.89 33, 115.29 33, 0 33 M0 33 C0 21.05, 0 9.09, 0 0 M0 33 C0 23.32, 0 13.64, 0 0" stroke="#2f9e44" stroke-width="1" fill="none"></path></g><g transform="translate(405.6040545654296 349.69336776733394) rotate(0 50 11.5)"><text x="50" y="18.400390625" font-family="Helvetica, Segoe UI Emoji" font-size="20px" fill="#2f9e44" text-anchor="middle" style="white-space: pre;" direction="ltr" dominant-baseline="alphabetic">设备状态域</text></g><g stroke-linecap="round"><g transform="translate(265.60411560058594 279.1933067321777) rotate(0 25.666656494140625 18.333343505859375)"><path d="M0 0 C14.07 10.05, 28.14 20.1, 51.33 36.67 M0 0 C10.31 7.37, 20.63 14.73, 51.33 36.67" stroke="#2f9e44" stroke-width="2" fill="none"></path></g><g transform="translate(265.60411560058594 279.1933067321777) rotate(0 25.666656494140625 18.333343505859375)"><path d="M24.09 6.7 C17.49 4.86, 10.88 3.03, 0 0 M24.09 6.7 C19.25 5.35, 14.41 4.01, 0 0" stroke="#2f9e44" stroke-width="2" fill="none"></path></g><g transform="translate(265.60411560058594 279.1933067321777) rotate(0 25.666656494140625 18.333343505859375)"><path d="M14.15 20.61 C10.27 14.96, 6.39 9.31, 0 0 M14.15 20.61 C11.3 16.47, 8.46 12.33, 0 0" stroke="#2f9e44" stroke-width="2" fill="none"></path></g><g transform="translate(265.60411560058594 279.1933067321777) rotate(0 25.666656494140625 18.333343505859375)"><path d="M27.25 29.97 C33.85 31.81, 40.45 33.64, 51.33 36.67 M27.25 29.97 C32.09 31.32, 36.93 32.66, 51.33 36.67" stroke="#2f9e44" stroke-width="2" fill="none"></path></g><g transform="translate(265.60411560058594 279.1933067321777) rotate(0 25.666656494140625 18.333343505859375)"><path d="M37.19 16.05 C41.06 21.7, 44.94 27.35, 51.33 36.67 M37.19 16.05 C40.03 20.2, 42.87 24.34, 51.33 36.67" stroke="#2f9e44" stroke-width="2" fill="none"></path></g></g><mask></mask><g stroke-linecap="round"><g transform="translate(675.6040240478516 275.2005467927728) rotate(0 -40.333282470703125 24.350234698280957)"><path d="M0 0 C-27.06 16.33, -54.11 32.67, -80.67 48.7 M0 0 C-30.04 18.14, -60.08 36.27, -80.67 48.7" stroke="#2f9e44" stroke-width="2" fill="none"></path></g><g transform="translate(675.6040240478516 275.2005467927728) rotate(0 -40.333282470703125 24.350234698280957)"><path d="M-15.69 19.46 C-10.43 12.93, -5.17 6.41, 0 0 M-15.69 19.46 C-9.85 12.21, -4 4.97, 0 0" stroke="#2f9e44" stroke-width="2" fill="none"></path></g><g transform="translate(675.6040240478516 275.2005467927728) rotate(0 -40.333282470703125 24.350234698280957)"><path d="M-24.53 4.82 C-16.3 3.2, -8.08 1.59, 0 0 M-24.53 4.82 C-15.4 3.03, -6.26 1.23, 0 0" stroke="#2f9e44" stroke-width="2" fill="none"></path></g><g transform="translate(675.6040240478516 275.2005467927728) rotate(0 -40.333282470703125 24.350234698280957)"><path d="M-64.97 29.24 C-70.24 35.77, -75.5 42.29, -80.67 48.7 M-64.97 29.24 C-70.82 36.49, -76.66 43.73, -80.67 48.7" stroke="#2f9e44" stroke-width="2" fill="none"></path></g><g transform="translate(675.6040240478516 275.2005467927728) rotate(0 -40.333282470703125 24.350234698280957)"><path d="M-56.14 43.88 C-64.36 45.5, -72.59 47.11, -80.67 48.7 M-56.14 43.88 C-65.27 45.67, -74.41 47.47, -80.67 48.7" stroke="#2f9e44" stroke-width="2" fill="none"></path></g></g><mask></mask><g stroke-linecap="round"><g transform="translate(264.9374285888672 259.85999374389644) rotate(0 24.66668701171875 -25.666656494140625)"><path d="M0 0 C17.96 -18.68, 35.91 -37.37, 49.33 -51.33 M0 0 C16.74 -17.42, 33.48 -34.84, 49.33 -51.33" stroke="#1971c2" stroke-width="2" fill="none"></path></g><g transform="translate(264.9374285888672 259.85999374389644) rotate(0 24.66668701171875 -25.666656494140625)"><path d="M10.11 -22.86 C6.43 -14.54, 2.75 -6.22, 0 0 M10.11 -22.86 C6.68 -15.1, 3.25 -7.35, 0 0" stroke="#1971c2" stroke-width="2" fill="none"></path></g><g transform="translate(264.9374285888672 259.85999374389644) rotate(0 24.66668701171875 -25.666656494140625)"><path d="M22.44 -11.01 C14.27 -7, 6.1 -3, 0 0 M22.44 -11.01 C14.83 -7.28, 7.21 -3.54, 0 0" stroke="#1971c2" stroke-width="2" fill="none"></path></g><g transform="translate(264.9374285888672 259.85999374389644) rotate(0 24.66668701171875 -25.666656494140625)"><path d="M39.22 -28.47 C42.9 -36.79, 46.58 -45.11, 49.33 -51.33 M39.22 -28.47 C42.65 -36.23, 46.08 -43.99, 49.33 -51.33" stroke="#1971c2" stroke-width="2" fill="none"></path></g><g transform="translate(264.9374285888672 259.85999374389644) rotate(0 24.66668701171875 -25.666656494140625)"><path d="M26.89 -40.32 C35.06 -44.33, 43.23 -48.34, 49.33 -51.33 M26.89 -40.32 C34.51 -44.06, 42.12 -47.79, 49.33 -51.33" stroke="#1971c2" stroke-width="2" fill="none"></path></g></g><mask></mask><g stroke-linecap="round"><g transform="translate(590.6041156005859 199.85996322631834) rotate(0 40 31.66668701171875)"><path d="M0 0 C23.04 18.24, 46.09 36.48, 80 63.33 M0 0 C31.03 24.57, 62.07 49.14, 80 63.33" stroke="#1971c2" stroke-width="2" fill="none"></path></g><g transform="translate(590.6041156005859 199.85996322631834) rotate(0 40 31.66668701171875)"><path d="M23.73 7.88 C16.89 5.61, 10.06 3.34, 0 0 M23.73 7.88 C14.52 4.82, 5.32 1.77, 0 0" stroke="#1971c2" stroke-width="2" fill="none"></path></g><g transform="translate(590.6041156005859 199.85996322631834) rotate(0 40 31.66668701171875)"><path d="M13.11 21.29 C9.34 15.15, 5.56 9.02, 0 0 M13.11 21.29 C8.03 13.03, 2.94 4.77, 0 0" stroke="#1971c2" stroke-width="2" fill="none"></path></g><g transform="translate(590.6041156005859 199.85996322631834) rotate(0 40 31.66668701171875)"><path d="M56.27 55.46 C63.11 57.72, 69.94 59.99, 80 63.33 M56.27 55.46 C65.48 58.51, 74.68 61.57, 80 63.33" stroke="#1971c2" stroke-width="2" fill="none"></path></g><g transform="translate(590.6041156005859 199.85996322631834) rotate(0 40 31.66668701171875)"><path d="M66.89 42.05 C70.66 48.18, 74.44 54.31, 80 63.33 M66.89 42.05 C71.97 50.31, 77.06 58.56, 80 63.33" stroke="#1971c2" stroke-width="2" fill="none"></path></g></g><mask></mask></svg>